G04*
G04 #@! TF.GenerationSoftware,Altium Limited,Altium Designer,20.0.13 (296)*
G04*
G04 Layer_Color=32768*
%FSLAX25Y25*%
%MOIN*%
G70*
G01*
G75*
%ADD12C,0.00787*%
%ADD138C,0.00200*%
%ADD139C,0.00010*%
G36*
X225032Y181329D02*
Y181133D01*
X224894Y180995D01*
X224698D01*
X224560Y181133D01*
Y181329D01*
X224698Y181467D01*
X224894D01*
X225032Y181329D01*
D02*
G37*
G36*
X170428Y150143D02*
Y149947D01*
X170290Y149809D01*
X170095D01*
X169956Y149947D01*
Y150143D01*
X170095Y150281D01*
X170290D01*
X170428Y150143D01*
D02*
G37*
G36*
X127563Y149195D02*
Y149097D01*
Y148999D01*
X127425Y148861D01*
X127229D01*
X127091Y148999D01*
Y149097D01*
Y149195D01*
X127229Y149333D01*
X127425D01*
X127563Y149195D01*
D02*
G37*
G36*
X51681Y148758D02*
X46347D01*
Y150530D01*
X51681D01*
Y148758D01*
D02*
G37*
G36*
X25914D02*
X20579D01*
Y150530D01*
X25914D01*
Y148758D01*
D02*
G37*
G36*
X108434Y146912D02*
X104890D01*
Y150062D01*
X108434D01*
Y146912D01*
D02*
G37*
G36*
X100166D02*
X96622D01*
Y150062D01*
X100166D01*
Y146912D01*
D02*
G37*
G36*
X182397Y146896D02*
X174523D01*
Y150045D01*
X182397D01*
Y146896D01*
D02*
G37*
G36*
X287800Y145798D02*
X281304D01*
Y149734D01*
X287800D01*
Y145798D01*
D02*
G37*
G36*
X231304D02*
X224808D01*
Y149734D01*
X231304D01*
Y145798D01*
D02*
G37*
G36*
X51681Y143758D02*
X46347D01*
Y145530D01*
X51681D01*
Y143758D01*
D02*
G37*
G36*
X25914D02*
X20579D01*
Y145530D01*
X25914D01*
Y143758D01*
D02*
G37*
G36*
X126934Y143191D02*
X124374D01*
Y149097D01*
X126934D01*
Y143191D01*
D02*
G37*
G36*
X117682D02*
X115122D01*
Y149097D01*
X117682D01*
Y143191D01*
D02*
G37*
G36*
X108434Y140227D02*
X104890D01*
Y143376D01*
X108434D01*
Y140227D01*
D02*
G37*
G36*
X100166D02*
X96622D01*
Y143376D01*
X100166D01*
Y140227D01*
D02*
G37*
G36*
X96465Y140321D02*
Y140223D01*
Y140125D01*
X96327Y139987D01*
X96131D01*
X95993Y140125D01*
Y140223D01*
Y140321D01*
X96131Y140459D01*
X96327D01*
X96465Y140321D01*
D02*
G37*
G36*
X51681Y138758D02*
X46347D01*
Y140530D01*
X51681D01*
Y138758D01*
D02*
G37*
G36*
X25914D02*
X20579D01*
Y140530D01*
X25914D01*
Y138758D01*
D02*
G37*
G36*
X287800Y137924D02*
X281304D01*
Y141860D01*
X287800D01*
Y137924D01*
D02*
G37*
G36*
X231304D02*
X224808D01*
Y141860D01*
X231304D01*
Y137924D01*
D02*
G37*
G36*
X335408Y137317D02*
Y135703D01*
X334522D01*
Y137317D01*
Y139483D01*
X335408D01*
Y137317D01*
D02*
G37*
G36*
X333439D02*
Y135703D01*
X332554D01*
Y137317D01*
Y139483D01*
X333439D01*
Y137317D01*
D02*
G37*
G36*
X331471D02*
Y135703D01*
X330585D01*
Y137317D01*
Y139483D01*
X331471D01*
Y137317D01*
D02*
G37*
G36*
X329502D02*
Y135703D01*
X328617D01*
Y137317D01*
Y139483D01*
X329502D01*
Y137317D01*
D02*
G37*
G36*
X327534D02*
Y135703D01*
X326648D01*
Y137317D01*
Y139483D01*
X327534D01*
Y137317D01*
D02*
G37*
G36*
X51681Y133758D02*
X46347D01*
Y135530D01*
X51681D01*
Y133758D01*
D02*
G37*
G36*
X25914D02*
X20579D01*
Y135530D01*
X25914D01*
Y133758D01*
D02*
G37*
G36*
X182397Y132723D02*
X174523D01*
Y135872D01*
X182397D01*
Y132723D01*
D02*
G37*
G36*
X51799Y132064D02*
Y131869D01*
X51661Y131730D01*
X51465D01*
X51327Y131869D01*
Y132064D01*
X51465Y132203D01*
X51661D01*
X51799Y132064D01*
D02*
G37*
G36*
X287800Y130050D02*
X281304D01*
Y133986D01*
X287800D01*
Y130050D01*
D02*
G37*
G36*
X231304D02*
X224808D01*
Y133986D01*
X231304D01*
Y130050D01*
D02*
G37*
G36*
X287800Y122176D02*
X281304D01*
Y126112D01*
X287800D01*
Y122176D01*
D02*
G37*
G36*
X231304D02*
X224808D01*
Y126112D01*
X231304D01*
Y122176D01*
D02*
G37*
G36*
X171965Y120857D02*
X168658Y120857D01*
D01*
X168641D01*
X168619D01*
D01*
X166119Y120857D01*
Y122432D01*
X171965D01*
Y120857D01*
D02*
G37*
G36*
X144938D02*
X142438Y120857D01*
D01*
X142415D01*
X142398D01*
D01*
X139091Y120857D01*
Y122432D01*
X144938D01*
Y120857D01*
D02*
G37*
G36*
X335408Y122317D02*
Y120191D01*
X334522D01*
Y122317D01*
Y123971D01*
X335408D01*
Y122317D01*
D02*
G37*
G36*
X333439D02*
Y120191D01*
X332554D01*
Y122317D01*
Y123971D01*
X333439D01*
Y122317D01*
D02*
G37*
G36*
X331471D02*
Y120191D01*
X330585D01*
Y122317D01*
Y123971D01*
X331471D01*
Y122317D01*
D02*
G37*
G36*
X329502D02*
Y120191D01*
X328617D01*
Y122317D01*
Y123971D01*
X329502D01*
Y122317D01*
D02*
G37*
G36*
X327534D02*
Y120191D01*
X326648D01*
Y122317D01*
Y123971D01*
X327534D01*
Y122317D01*
D02*
G37*
G36*
X337169Y120289D02*
Y120191D01*
Y120093D01*
X337031Y119955D01*
X336835D01*
X336697Y120093D01*
Y120191D01*
Y120289D01*
X336835Y120427D01*
X337031D01*
X337169Y120289D01*
D02*
G37*
G36*
X168658Y117431D02*
X171965Y117431D01*
Y115857D01*
X166119D01*
Y117431D01*
X168619Y117431D01*
D01*
X168641D01*
X168658D01*
D01*
D02*
G37*
G36*
X142438D02*
X144938Y117431D01*
Y115857D01*
X139091D01*
Y117431D01*
X142398Y117431D01*
D01*
X142415D01*
X142438D01*
D01*
D02*
G37*
G36*
X125886Y117051D02*
Y116953D01*
Y116855D01*
X125748Y116717D01*
X125553D01*
X125414Y116855D01*
Y116953D01*
Y117051D01*
X125553Y117189D01*
X125748D01*
X125886Y117051D01*
D02*
G37*
G36*
X38406Y115148D02*
Y114952D01*
X38268Y114814D01*
X38072D01*
X37934Y114952D01*
Y115148D01*
X38072Y115286D01*
X38268D01*
X38406Y115148D01*
D02*
G37*
G36*
X287800Y114302D02*
X281304D01*
Y118238D01*
X287800D01*
Y114302D01*
D02*
G37*
G36*
X231304D02*
X224808D01*
Y118238D01*
X231304D01*
Y114302D01*
D02*
G37*
G36*
X118210Y114591D02*
Y112977D01*
X117343D01*
Y114591D01*
Y116953D01*
X118210D01*
Y114591D01*
D02*
G37*
G36*
X116242D02*
Y112977D01*
X115375D01*
Y114591D01*
Y116953D01*
X116242D01*
Y114591D01*
D02*
G37*
G36*
X114272D02*
Y112977D01*
X113406D01*
Y114591D01*
Y116953D01*
X114272D01*
Y114591D01*
D02*
G37*
G36*
X112304D02*
Y112977D01*
X111438D01*
Y114591D01*
Y116953D01*
X112304D01*
Y114591D01*
D02*
G37*
G36*
X110336D02*
Y112977D01*
X109469D01*
Y114591D01*
Y116953D01*
X110336D01*
Y114591D01*
D02*
G37*
G36*
X108368D02*
Y112977D01*
X107501D01*
Y114591D01*
Y116953D01*
X108368D01*
Y114591D01*
D02*
G37*
G36*
X106398D02*
Y112977D01*
X105532D01*
Y114591D01*
Y116953D01*
X106398D01*
Y114591D01*
D02*
G37*
G36*
X104430D02*
Y112977D01*
X103564D01*
Y114591D01*
Y116953D01*
X104430D01*
Y114591D01*
D02*
G37*
G36*
X102462D02*
Y112977D01*
X101595D01*
Y114591D01*
Y116953D01*
X102462D01*
Y114591D01*
D02*
G37*
G36*
X100494D02*
Y112977D01*
X99627D01*
Y114591D01*
Y116953D01*
X100494D01*
Y114591D01*
D02*
G37*
G36*
X98524D02*
Y112977D01*
X97658D01*
Y114591D01*
Y116953D01*
X98524D01*
Y114591D01*
D02*
G37*
G36*
X96556D02*
Y112977D01*
X95689D01*
Y114591D01*
Y116953D01*
X96556D01*
Y114591D01*
D02*
G37*
G36*
X94587D02*
Y112977D01*
X93721D01*
Y114591D01*
Y116953D01*
X94587D01*
Y114591D01*
D02*
G37*
G36*
X92619D02*
Y112977D01*
X91752D01*
Y114591D01*
Y116953D01*
X92619D01*
Y114591D01*
D02*
G37*
G36*
X90650D02*
Y112977D01*
X89784D01*
Y114591D01*
Y116953D01*
X90650D01*
Y114591D01*
D02*
G37*
G36*
X88682D02*
Y112977D01*
X87815D01*
Y114591D01*
Y116953D01*
X88682D01*
Y114591D01*
D02*
G37*
G36*
X86713D02*
Y112977D01*
X85847D01*
Y114591D01*
Y116953D01*
X86713D01*
Y114591D01*
D02*
G37*
G36*
X84745D02*
Y112977D01*
X83878D01*
Y114591D01*
Y116953D01*
X84745D01*
Y114591D01*
D02*
G37*
G36*
X82776D02*
Y112977D01*
X81910D01*
Y114591D01*
Y116953D01*
X82776D01*
Y114591D01*
D02*
G37*
G36*
X80808D02*
Y112977D01*
X79941D01*
Y114591D01*
Y116953D01*
X80808D01*
Y114591D01*
D02*
G37*
G36*
X78839D02*
Y112977D01*
X77973D01*
Y114591D01*
Y116953D01*
X78839D01*
Y114591D01*
D02*
G37*
G36*
X76871D02*
Y112977D01*
X76004D01*
Y114591D01*
Y116953D01*
X76871D01*
Y114591D01*
D02*
G37*
G36*
X74902D02*
Y112977D01*
X74036D01*
Y114591D01*
Y116953D01*
X74902D01*
Y114591D01*
D02*
G37*
G36*
X72934D02*
Y112977D01*
X72067D01*
Y114591D01*
Y116953D01*
X72934D01*
Y114591D01*
D02*
G37*
G36*
X70965D02*
Y112977D01*
X70099D01*
Y114591D01*
Y116953D01*
X70965D01*
Y114591D01*
D02*
G37*
G36*
X53336Y112687D02*
X52548D01*
Y114656D01*
X53336D01*
Y112687D01*
D02*
G37*
G36*
X51367D02*
X50579D01*
Y114656D01*
X51367D01*
Y112687D01*
D02*
G37*
G36*
X49399D02*
X48611D01*
Y114656D01*
X49399D01*
Y112687D01*
D02*
G37*
G36*
X47430D02*
X46642D01*
Y114656D01*
X47430D01*
Y112687D01*
D02*
G37*
G36*
X45462D02*
X44674Y112687D01*
Y114656D01*
X45462D01*
Y112687D01*
D02*
G37*
G36*
X43493D02*
X42705D01*
Y114656D01*
X43493D01*
Y112687D01*
D02*
G37*
G36*
X41525D02*
X40737Y112687D01*
X40737Y114656D01*
X41525D01*
Y112687D01*
D02*
G37*
G36*
X172083Y111210D02*
Y111015D01*
X171945Y110876D01*
X171749D01*
X171611Y111015D01*
Y111210D01*
X171749Y111349D01*
X171945D01*
X172083Y111210D01*
D02*
G37*
G36*
X55493Y108750D02*
X53524D01*
Y109538D01*
X55493D01*
X55493Y108750D01*
D02*
G37*
G36*
X40532D02*
X38563D01*
Y109538D01*
X40532D01*
Y108750D01*
D02*
G37*
G36*
X125651Y108646D02*
X121674D01*
Y109512D01*
X125651D01*
Y108646D01*
D02*
G37*
G36*
X66635D02*
X62658D01*
Y109512D01*
X66635D01*
Y108646D01*
D02*
G37*
G36*
X125651Y106678D02*
X121674D01*
Y107544D01*
X125651D01*
Y106678D01*
D02*
G37*
G36*
X66635D02*
X62658D01*
Y107544D01*
X66635D01*
Y106678D01*
D02*
G37*
G36*
X287800Y106428D02*
X281304D01*
Y110364D01*
X287800D01*
Y106428D01*
D02*
G37*
G36*
X231304D02*
X224808D01*
Y110364D01*
X231304D01*
Y106428D01*
D02*
G37*
G36*
X125651Y104709D02*
X121674D01*
Y105575D01*
X125651D01*
Y104709D01*
D02*
G37*
G36*
X66635D02*
X62658D01*
Y105575D01*
X66635D01*
Y104709D01*
D02*
G37*
G36*
X53336Y103632D02*
X52548D01*
Y105601D01*
X53336D01*
Y103632D01*
D02*
G37*
G36*
X51367Y103632D02*
X50579Y103632D01*
Y105601D01*
X51367Y105601D01*
Y103632D01*
D02*
G37*
G36*
X49399Y103632D02*
X48611D01*
Y105601D01*
X49399D01*
Y103632D01*
D02*
G37*
G36*
X47430Y103632D02*
X46642Y103632D01*
Y105601D01*
X47430Y105601D01*
Y103632D01*
D02*
G37*
G36*
X45462Y103632D02*
X44674D01*
Y105601D01*
X45462D01*
Y103632D01*
D02*
G37*
G36*
X43493D02*
X42705D01*
Y105601D01*
X43493D01*
Y103632D01*
D02*
G37*
G36*
X41525Y105601D02*
Y103632D01*
X40737D01*
X40737Y105601D01*
X41525Y105601D01*
D02*
G37*
G36*
X125651Y102741D02*
X121674D01*
Y103607D01*
X125651D01*
Y102741D01*
D02*
G37*
G36*
X66635D02*
X62658D01*
Y103607D01*
X66635D01*
Y102741D01*
D02*
G37*
G36*
X139867Y101385D02*
Y101190D01*
X139728Y101051D01*
X139533D01*
X139394Y101190D01*
Y101385D01*
X139533Y101524D01*
X139728D01*
X139867Y101385D01*
D02*
G37*
G36*
X125651Y100772D02*
X121674D01*
Y101638D01*
X125651D01*
Y100772D01*
D02*
G37*
G36*
X66635D02*
X62658D01*
Y101638D01*
X66635D01*
Y100772D01*
D02*
G37*
G36*
X125651Y98804D02*
X121674D01*
Y99670D01*
X125651D01*
Y98804D01*
D02*
G37*
G36*
X66635D02*
X62658D01*
Y99670D01*
X66635D01*
Y98804D01*
D02*
G37*
G36*
X287800Y98554D02*
X281304D01*
Y102490D01*
X287800D01*
Y98554D01*
D02*
G37*
G36*
X231304D02*
X224808D01*
Y102490D01*
X231304D01*
Y98554D01*
D02*
G37*
G36*
X163233Y98335D02*
X159070D01*
Y99949D01*
X163233D01*
Y98335D01*
D02*
G37*
G36*
X143794D02*
X139631D01*
Y99949D01*
X143794D01*
Y98335D01*
D02*
G37*
G36*
X125651Y96835D02*
X121674D01*
Y97701D01*
X125651D01*
Y96835D01*
D02*
G37*
G36*
X66635D02*
X62658D01*
Y97701D01*
X66635D01*
Y96835D01*
D02*
G37*
G36*
X125651Y94867D02*
X121674D01*
Y95733D01*
X125651D01*
Y94867D01*
D02*
G37*
G36*
X66635D02*
X62658D01*
Y95733D01*
X66635D01*
Y94867D01*
D02*
G37*
G36*
X163233Y93335D02*
X159070D01*
Y94949D01*
X163233D01*
Y93335D01*
D02*
G37*
G36*
X143794D02*
X139631D01*
Y94949D01*
X143794D01*
Y93335D01*
D02*
G37*
G36*
X125651Y92898D02*
X121674D01*
Y93764D01*
X125651D01*
Y92898D01*
D02*
G37*
G36*
X66635D02*
X62658D01*
Y93764D01*
X66635D01*
Y92898D01*
D02*
G37*
G36*
X125651Y90930D02*
X121674D01*
Y91796D01*
X125651D01*
Y90930D01*
D02*
G37*
G36*
X66635D02*
X62658D01*
Y91796D01*
X66635D01*
Y90930D01*
D02*
G37*
G36*
X287800Y90680D02*
X281304D01*
Y94617D01*
X287800D01*
Y90680D01*
D02*
G37*
G36*
X231304D02*
X224808D01*
Y94617D01*
X231304D01*
Y90680D01*
D02*
G37*
G36*
X125651Y88961D02*
X121674D01*
Y89827D01*
X125651D01*
Y88961D01*
D02*
G37*
G36*
X66635D02*
X62658D01*
Y89827D01*
X66635D01*
Y88961D01*
D02*
G37*
G36*
X163233Y88335D02*
X159070D01*
Y89949D01*
X163233D01*
Y88335D01*
D02*
G37*
G36*
X143794D02*
X139631D01*
Y89949D01*
X143794D01*
Y88335D01*
D02*
G37*
G36*
X125651Y86992D02*
X121674D01*
Y87858D01*
X125651D01*
Y86992D01*
D02*
G37*
G36*
X66635D02*
X62658D01*
Y87858D01*
X66635D01*
Y86992D01*
D02*
G37*
G36*
X270071Y86743D02*
X266134D01*
Y90286D01*
X270071D01*
Y86743D01*
D02*
G37*
G36*
X262200D02*
X258263D01*
Y90286D01*
X262200D01*
Y86743D01*
D02*
G37*
G36*
X254323D02*
X250386D01*
Y90286D01*
X254323D01*
Y86743D01*
D02*
G37*
G36*
X246454D02*
X242517D01*
Y90286D01*
X246454D01*
Y86743D01*
D02*
G37*
G36*
X277944Y86743D02*
X274007D01*
Y90286D01*
X277944D01*
Y86743D01*
D02*
G37*
G36*
X238587D02*
X234650D01*
Y90286D01*
X238587D01*
Y86743D01*
D02*
G37*
G36*
X125651Y85024D02*
X121674D01*
Y85890D01*
X125651D01*
Y85024D01*
D02*
G37*
G36*
X66635D02*
X62658D01*
Y85890D01*
X66635D01*
Y85024D01*
D02*
G37*
G36*
X163233Y83335D02*
X159070D01*
Y84949D01*
X163233D01*
Y83335D01*
D02*
G37*
G36*
X143794D02*
X139631D01*
Y84949D01*
X143794D01*
Y83335D01*
D02*
G37*
G36*
X125651Y83055D02*
X121674D01*
Y83921D01*
X125651D01*
Y83055D01*
D02*
G37*
G36*
X66635D02*
X62658D01*
Y83921D01*
X66635D01*
Y83055D01*
D02*
G37*
G36*
X125651Y81087D02*
X121674D01*
Y81953D01*
X125651D01*
Y81087D01*
D02*
G37*
G36*
X66635D02*
X62658D01*
Y81953D01*
X66635D01*
Y81087D01*
D02*
G37*
G36*
X125651Y79118D02*
X121674D01*
Y79984D01*
X125651D01*
Y79118D01*
D02*
G37*
G36*
X66635D02*
X62658D01*
Y79984D01*
X66635D01*
Y79118D01*
D02*
G37*
G36*
X125651Y77150D02*
X121674D01*
Y78016D01*
X125651D01*
Y77150D01*
D02*
G37*
G36*
X66635D02*
X62658D01*
Y78016D01*
X66635D01*
Y77150D01*
D02*
G37*
G36*
X125651Y75181D02*
X121674D01*
Y76047D01*
X125651D01*
Y75181D01*
D02*
G37*
G36*
X66635D02*
X62658D01*
Y76047D01*
X66635D01*
Y75181D01*
D02*
G37*
G36*
X125651Y73213D02*
X121674D01*
Y74079D01*
X125651D01*
Y73213D01*
D02*
G37*
G36*
X66635D02*
X62658D01*
Y74079D01*
X66635D01*
Y73213D01*
D02*
G37*
G36*
X125651Y71244D02*
X121674D01*
Y72110D01*
X125651D01*
Y71244D01*
D02*
G37*
G36*
X66635D02*
X62658D01*
Y72110D01*
X66635D01*
Y71244D01*
D02*
G37*
G36*
X125651Y69276D02*
X121674D01*
Y70142D01*
X125651D01*
Y69276D01*
D02*
G37*
G36*
X66635D02*
X62658D01*
Y70142D01*
X66635D01*
Y69276D01*
D02*
G37*
G36*
X125651Y67307D02*
X121674D01*
Y68173D01*
X125651D01*
Y67307D01*
D02*
G37*
G36*
X66635D02*
X62658D01*
Y68173D01*
X66635D01*
Y67307D01*
D02*
G37*
G36*
X125651Y65339D02*
X121674D01*
Y66205D01*
X125651D01*
Y65339D01*
D02*
G37*
G36*
X66635D02*
X62658D01*
Y66205D01*
X66635D01*
Y65339D01*
D02*
G37*
G36*
X125651Y63370D02*
X121674D01*
Y64236D01*
X125651D01*
Y63370D01*
D02*
G37*
G36*
X66635D02*
X62658D01*
Y64236D01*
X66635D01*
Y63370D01*
D02*
G37*
G36*
X125651Y61402D02*
X121674D01*
Y62268D01*
X125651D01*
Y61402D01*
D02*
G37*
G36*
X66635D02*
X62658D01*
Y62268D01*
X66635D01*
Y61402D01*
D02*
G37*
G36*
X118210Y56284D02*
Y53961D01*
X117343D01*
Y56284D01*
Y57937D01*
X118210D01*
Y56284D01*
D02*
G37*
G36*
X116242D02*
Y53961D01*
X115375D01*
Y56284D01*
Y57937D01*
X116242D01*
Y56284D01*
D02*
G37*
G36*
X114272D02*
Y53961D01*
X113406D01*
Y56284D01*
Y57937D01*
X114272D01*
Y56284D01*
D02*
G37*
G36*
X112304D02*
Y53961D01*
X111438D01*
Y56284D01*
Y57937D01*
X112304D01*
Y56284D01*
D02*
G37*
G36*
X110336D02*
Y53961D01*
X109469D01*
Y56284D01*
Y57937D01*
X110336D01*
Y56284D01*
D02*
G37*
G36*
X108368D02*
Y53961D01*
X107501D01*
Y56284D01*
Y57937D01*
X108368D01*
Y56284D01*
D02*
G37*
G36*
X106398D02*
Y53961D01*
X105532D01*
Y56284D01*
Y57937D01*
X106398D01*
Y56284D01*
D02*
G37*
G36*
X104430D02*
Y53961D01*
X103564D01*
Y56284D01*
Y57937D01*
X104430D01*
Y56284D01*
D02*
G37*
G36*
X102462D02*
Y53961D01*
X101595D01*
Y56284D01*
Y57937D01*
X102462D01*
Y56284D01*
D02*
G37*
G36*
X100494D02*
Y53961D01*
X99627D01*
Y56284D01*
Y57937D01*
X100494D01*
Y56284D01*
D02*
G37*
G36*
X98524D02*
Y53961D01*
X97658D01*
Y56284D01*
Y57937D01*
X98524D01*
Y56284D01*
D02*
G37*
G36*
X96556D02*
Y53961D01*
X95689D01*
Y56284D01*
Y57937D01*
X96556D01*
Y56284D01*
D02*
G37*
G36*
X94587D02*
Y53961D01*
X93721D01*
Y56284D01*
Y57937D01*
X94587D01*
Y56284D01*
D02*
G37*
G36*
X92619D02*
Y53961D01*
X91752D01*
Y56284D01*
Y57937D01*
X92619D01*
Y56284D01*
D02*
G37*
G36*
X90650D02*
Y53961D01*
X89784D01*
Y56284D01*
Y57937D01*
X90650D01*
Y56284D01*
D02*
G37*
G36*
X88682D02*
Y53961D01*
X87815D01*
Y56284D01*
Y57937D01*
X88682D01*
Y56284D01*
D02*
G37*
G36*
X86713D02*
Y53961D01*
X85847D01*
Y56284D01*
Y57937D01*
X86713D01*
Y56284D01*
D02*
G37*
G36*
X84745D02*
Y53961D01*
X83878D01*
Y56284D01*
Y57937D01*
X84745D01*
Y56284D01*
D02*
G37*
G36*
X82776D02*
Y53961D01*
X81910D01*
Y56284D01*
Y57937D01*
X82776D01*
Y56284D01*
D02*
G37*
G36*
X80808D02*
Y53961D01*
X79941D01*
Y56284D01*
Y57937D01*
X80808D01*
Y56284D01*
D02*
G37*
G36*
X78839D02*
Y53961D01*
X77973D01*
Y56284D01*
Y57937D01*
X78839D01*
Y56284D01*
D02*
G37*
G36*
X76871D02*
Y53961D01*
X76004D01*
Y56284D01*
Y57937D01*
X76871D01*
Y56284D01*
D02*
G37*
G36*
X74902D02*
Y53961D01*
X74036D01*
Y56284D01*
Y57937D01*
X74902D01*
Y56284D01*
D02*
G37*
G36*
X72934D02*
Y53961D01*
X72067D01*
Y56284D01*
Y57937D01*
X72934D01*
Y56284D01*
D02*
G37*
G36*
X70965D02*
Y53961D01*
X70099D01*
Y56284D01*
Y57937D01*
X70965D01*
Y56284D01*
D02*
G37*
G36*
X247292Y32253D02*
Y32156D01*
Y32058D01*
X247153Y31919D01*
X246958D01*
X246819Y32058D01*
Y32156D01*
Y32253D01*
X246958Y32392D01*
X247153D01*
X247292Y32253D01*
D02*
G37*
G36*
X233788Y22313D02*
X231268D01*
Y32156D01*
X233788D01*
Y22313D01*
D02*
G37*
G36*
X223709D02*
X221189D01*
Y32156D01*
X223709D01*
Y22313D01*
D02*
G37*
G36*
X213788D02*
X211268D01*
Y32156D01*
X213788D01*
Y22313D01*
D02*
G37*
G36*
X203788D02*
X201268D01*
Y32156D01*
X203788D01*
Y22313D01*
D02*
G37*
G36*
X114186Y21695D02*
Y21597D01*
Y21499D01*
X114047Y21361D01*
X113852D01*
X113713Y21499D01*
Y21597D01*
Y21695D01*
X113852Y21833D01*
X114047D01*
X114186Y21695D01*
D02*
G37*
G36*
X113949Y17266D02*
X109028D01*
Y20022D01*
X113949D01*
Y17266D01*
D02*
G37*
G36*
X97217D02*
X92296D01*
Y20022D01*
X97217D01*
Y17266D01*
D02*
G37*
G36*
X53215Y13159D02*
Y13061D01*
Y12963D01*
X53077Y12825D01*
X52881D01*
X52743Y12963D01*
Y13061D01*
Y13159D01*
X52881Y13297D01*
X53077D01*
X53215Y13159D01*
D02*
G37*
G36*
X82531Y12076D02*
X81153D01*
Y13257D01*
X82531D01*
Y12076D01*
D02*
G37*
G36*
X76823D02*
X75445D01*
Y13257D01*
X76823D01*
Y12076D01*
D02*
G37*
G36*
X50512Y11683D02*
X49528D01*
Y13061D01*
X50512D01*
Y11683D01*
D02*
G37*
G36*
X48544D02*
X47560D01*
Y13061D01*
X48544D01*
X48544Y11683D01*
D02*
G37*
G36*
X46575D02*
X45591D01*
Y13061D01*
X46575D01*
X46575Y11683D01*
D02*
G37*
G36*
X44607D02*
X43623D01*
Y13061D01*
X44607D01*
Y11683D01*
D02*
G37*
G36*
X52978Y9609D02*
X51600D01*
Y10593D01*
X52978D01*
Y9609D01*
D02*
G37*
G36*
X42546D02*
X41168D01*
Y10593D01*
X42546Y10593D01*
Y9609D01*
D02*
G37*
G36*
X82531Y9516D02*
X81153Y9516D01*
X81153Y10697D01*
X82531Y10697D01*
X82531Y9516D01*
D02*
G37*
G36*
X76823Y9516D02*
X75445Y9516D01*
Y10697D01*
X76823Y10697D01*
Y9516D01*
D02*
G37*
G36*
X52978Y8625D02*
X52978Y7641D01*
X51600D01*
Y8625D01*
X52978Y8625D01*
D02*
G37*
G36*
X42546Y7641D02*
X41168D01*
Y8625D01*
X42546D01*
Y7641D01*
D02*
G37*
G36*
X82531Y6958D02*
X81153Y6958D01*
Y8139D01*
X82531Y8139D01*
X82531Y6958D01*
D02*
G37*
G36*
X76823Y8139D02*
Y6958D01*
X75445Y6958D01*
Y8139D01*
X76823Y8139D01*
D02*
G37*
G36*
X52978Y5672D02*
X51600D01*
Y6656D01*
X52978D01*
Y5672D01*
D02*
G37*
G36*
X42546D02*
X41168D01*
X41168Y6656D01*
X42546D01*
Y5672D01*
D02*
G37*
G36*
X82531Y4398D02*
X81153D01*
Y5579D01*
X82531D01*
Y4398D01*
D02*
G37*
G36*
X76823Y5579D02*
Y4398D01*
X75445D01*
Y5579D01*
X76823Y5579D01*
D02*
G37*
G36*
X52978Y3704D02*
X51600D01*
Y4688D01*
X52978D01*
Y3704D01*
D02*
G37*
G36*
X42546D02*
X41168Y3704D01*
Y4688D01*
X42546D01*
Y3704D01*
D02*
G37*
G36*
X75287Y4004D02*
Y3906D01*
Y3808D01*
X75149Y3670D01*
X74953D01*
X74815Y3808D01*
Y3906D01*
Y4004D01*
X74953Y4142D01*
X75149D01*
X75287Y4004D01*
D02*
G37*
G36*
X113949Y3487D02*
X109028D01*
Y6243D01*
X113949D01*
Y3487D01*
D02*
G37*
G36*
X50520Y2628D02*
Y1250D01*
X49536D01*
X49536Y2628D01*
X50520Y2628D01*
D02*
G37*
G36*
X48550D02*
Y1250D01*
X47566D01*
X47566Y2628D01*
X48550Y2628D01*
D02*
G37*
G36*
X46581Y1250D02*
X45597D01*
Y2628D01*
X46581D01*
Y1250D01*
D02*
G37*
G36*
X44613Y2628D02*
Y1250D01*
X43629D01*
X43629Y2628D01*
X44613Y2628D01*
D02*
G37*
G36*
X245323Y-6033D02*
X242961D01*
Y5777D01*
X245323D01*
Y-6033D01*
D02*
G37*
G36*
X192095D02*
X189733D01*
Y5777D01*
X192095D01*
Y-6033D01*
D02*
G37*
D12*
X152510Y138600D02*
G03*
X152510Y138600I-394J0D01*
G01*
D138*
X336933Y123932D02*
Y135742D01*
X325122D02*
X336933D01*
X325122Y123932D02*
Y135742D01*
Y123932D02*
X336933D01*
X224796Y86743D02*
X287788D01*
Y181231D01*
X224796D02*
X287788D01*
X224796Y86743D02*
Y181231D01*
X186728Y132723D02*
Y150045D01*
X170193D02*
X186728D01*
X170193Y132723D02*
Y150045D01*
Y132723D02*
X186728D01*
X144898Y110994D02*
X166158D01*
X144898D02*
Y127294D01*
X166158D01*
Y110994D02*
Y127294D01*
X127327Y143191D02*
Y149097D01*
X114729Y143191D02*
X127327D01*
X114729D02*
Y149097D01*
X127327D01*
X96229Y140223D02*
Y150066D01*
X108827D01*
Y140223D02*
Y150066D01*
X96229Y140223D02*
X108827D01*
X38170Y115050D02*
X55886D01*
Y103239D02*
Y115050D01*
X38170Y103239D02*
X55886D01*
X38170D02*
Y115050D01*
X188000Y22313D02*
X247056D01*
Y-9183D02*
Y22313D01*
X188000Y-9183D02*
X247056D01*
X188000D02*
Y22313D01*
X82925Y3906D02*
Y13749D01*
X75051D02*
X82925D01*
X75051Y3906D02*
Y13749D01*
Y3906D02*
X82925D01*
X121714Y57898D02*
Y113016D01*
X66595D02*
X121714D01*
X66595Y57898D02*
Y113016D01*
Y57898D02*
X121714D01*
X25736Y131849D02*
X46524D01*
X25736D02*
Y152439D01*
X46524D01*
Y131849D02*
Y152439D01*
X113949Y1912D02*
Y21597D01*
X96430Y1912D02*
X113949D01*
X92296Y5849D02*
X96430Y1912D01*
X92296Y5849D02*
Y21597D01*
X113949D01*
X52979Y1250D02*
Y13061D01*
X41168Y1250D02*
X52979D01*
X41168D02*
Y13061D01*
X52979D01*
X143755Y81996D02*
Y101288D01*
Y81996D02*
X159109D01*
Y101288D01*
X143755D02*
X159109D01*
D139*
X229777Y144143D02*
X229779Y144145D01*
M02*
