M48
;Layer_Color=9474304
;FILE_FORMAT=2:5
INCH,LZ
;TYPE=PLATED
T1F00S00C0.01200
T3F00S00C0.02559
T4F00S00C0.03000
T5F00S00C0.12598
%
T01
X0285028Y0020144
X0289028Y0023144
X0295362Y0021219
X0293528Y0017644
X0301028Y0022644
X0306212Y0021038
X0313205Y0022484
X0313528Y0017644
X0318088Y0020616
X0323028Y0018144
X0321644Y0012237
X032279Y0007053
X0321528Y0001644
X0321222Y-0005787
X0342528Y-0005856
X03515Y-00035
X0335528Y0005644
Y0011644
X0340028Y0026794
X0339127Y0033144
X0350528Y0028144
X0339028Y0052144
X0339528Y0058144
Y0064144
X0324028Y0066144
X0285528Y0065644
X0296028Y0037144
X0281028Y0022644
X0278724Y0021279
X0273902Y0022062
X0268356Y0021882
X0269528Y0017144
X0266528Y0012144
X0267528Y0005644
X0266937Y0001209
X0267028Y-0002356
X0284028Y0008644
X0222528Y0013144
X0212528Y0004144
X0176028Y0006144
X0156028Y0006644
X0148028Y-0000356
X0137528Y-0003356
X0133528Y0014144
X0149528Y0019144
X0164528
X0161Y00405
X0150528Y0053719
X014435
X0140028Y0053434
Y0064219
X0144528Y0063934
X0150528Y0061644
X0133528Y0063144
X0129528Y0062644
X0133028Y0068644
X0201028Y0054144
X0233028Y0035144
X0249028Y0061644
X0245028Y0065644
X0117028Y0064644
X0110028Y0064144
X0097028Y0063644
X0098028Y0051089
X0092528Y0050144
X0090528Y0045644
X0103953Y0044144
X0106028Y0049644
X0109953Y0045925
X0108028Y0035644
X0104028Y0025644
X0101528Y0020644
X0097528Y0024144
X0093883Y0023977
X00845Y00165
X0081
X0076992Y001635
X0073521Y0016102
X0076528Y0001144
X0084Y0002
X0088528Y0003144
X0093146Y0002135
X0093528Y0005644
X0119528Y0014144
X0124028
X0123028Y-0003356
X0127528
X0117528Y-0004856
X0064028Y-0004356
X0057528
Y0004144
X0040528Y0000144
X0040946Y-0003855
X0038028Y-0006856
X0031028Y0004144
X004169Y0015166
X0044528Y0016644
X0050028Y0024644
X0056028Y0057644
X0056528Y0061644
X0058607Y0064945
X0058028Y0067719
X0072028Y0066111
X0072528Y0060644
X0082528Y0061144
X0074528Y0050144
X0120916Y0051866
X0121528Y0055144
X0125028Y0047359
X0118028Y0076369
Y0081644
Y0085644
X0118528Y0090144
Y0094144
X0118028Y0097144
X0118528Y0100644
X0116036Y0102636
X0118528Y0106644
X0115528Y0109644
X0104Y0109341
X00995Y01095
X0096
X0090528Y0110144
X0087028
X0083028Y0109144
X0075028Y0109644
X0071028
X0068028Y0113644
X0062028
X0060028Y0111644
X0059389Y0108283
X0057528Y0105644
X0059528Y0103232
X0057028Y0101644
Y0097144
X0059028Y0099144
Y0091069
X0057199Y0087069
X0048878
X0050941Y0091855
X0048028Y0099644
X0045028Y0097644
X0041528Y0095144
X0035028Y0099144
X0031528Y0095644
X0027171Y0098644
X0029096Y0111867
X0037208Y0114069
X0039528Y0118144
X0042028Y0123144
X0047028Y0119219
X0050528Y0117644
X0058477Y0117968
X0061894Y0122278
X0062028Y0129644
X0073028Y0122144
X0077028Y0123144
X0080528Y0120644
X0089528Y0129144
X0094528Y0130144
X0098528Y0131144
X0107053Y0120447
X0109528Y012165
X0113312
X0117028
X0124028Y0114144
X0124528Y0130644
Y0140644
X0116008Y0140884
X0113028Y0139644
X0080528Y0149144
X0063028Y0152644
X0059528
X0051528
X003963Y0144144
X0032528Y0150144
X002713Y0137644
X0032028Y0125644
X0018028Y0128144
X0021983Y0116644
X0055028Y0113644
X0077002Y0104943
X0071528Y0095144
X0087028Y0099144
X0108028Y0093144
X0109028Y0089144
X0109528Y0085144
X0104528Y0070144
X0071028Y0074144
X0046917Y0076755
X0043528Y0078144
X0039417Y0078755
X0034528Y0078144
X00205Y0077
X0050528Y0081144
X0131028Y0083144
Y0087144
Y0090144
X0135528Y0092144
X0131528Y0079644
X0130028Y0076644
X0138231Y0071219
X0144028Y0071156
X0149063Y0081725
X0152033Y0091107
X0171528Y0091144
X0175028Y0090644
X0177028Y0093644
X0183028Y0090644
X0187528Y0082644
X0168028Y0084644
X0170028Y0074644
X0173028
X0172139Y0099255
X0175028Y0107644
X0179028Y0116144
X016442Y0116144
X0164096Y0123424
X0164028Y01306
X0186166Y0132167
X0196028Y0133644
Y0149644
X0203528Y0145144
X0207028Y0140644
X0213028Y0128144
X0219528Y0121644
X0219028Y0115819
X0209528Y0100144
X0193028Y0108644
X014474Y0103644
X013822Y0112336
X0147028Y0116644
X0149028Y0120644
X0142528Y0125144
X0144028Y0146144
X0148528Y0145144
X0131028Y0137144
X0130028Y0107144
X0235029Y0127491
X0229028Y0152144
X0279028Y0146766
X0278528Y0143144
X0268028Y0107644
X0268549Y0103941
X0282028Y0099144
X0241528Y0076644
X0284528Y0087644
X0296028Y0070644
X0311528Y0101644
X0324028Y0099144
Y0093644
X0323528Y0110144
X0331028Y0115644
X0338677Y011301
X0351Y01165
X0349464Y0130406
X0347528Y0133144
X0338528Y0130644
X0335028Y0131644
X0325528
X0339028Y0145144
X0333528Y0152644
X0352Y0149
X0339028Y0088144
Y0074644
X0302528Y0114144
T03
X0359894Y0001344
Y00241
X0360394Y0121344
Y01441
T04
X0019528Y0088144
X0126Y01255
X0156528Y0152144
X0216487
X0241528Y0139185
X0238028Y0095144
X0294028Y0088144
X0296028Y0079185
X0299528Y0134644
X0318028Y0137144
T05
X0128028Y0029644
M30
