G04*
G04 #@! TF.GenerationSoftware,Altium Limited,Altium Designer,20.0.13 (296)*
G04*
G04 Layer_Color=128*
%FSLAX25Y25*%
%MOIN*%
G70*
G01*
G75*
%ADD10C,0.00200*%
D10*
X121729Y29644D02*
X134327D01*
X128028Y23345D02*
Y35943D01*
X356745Y-4306D02*
X359107D01*
X357926Y-5487D02*
Y-3125D01*
X356745Y29749D02*
X359107D01*
X357926Y28568D02*
Y30930D01*
X372493Y-4306D02*
X374855D01*
X373674Y-5487D02*
Y-3125D01*
X372493Y29749D02*
X374855D01*
X373674Y28568D02*
Y30930D01*
X358615Y24100D02*
X361174D01*
X359894Y22820D02*
Y25379D01*
X358615Y1344D02*
X361174D01*
X359894Y64D02*
Y2623D01*
X357245Y115694D02*
X359607D01*
X358426Y114513D02*
Y116875D01*
X357245Y149749D02*
X359607D01*
X358426Y148568D02*
Y150930D01*
X372993Y115694D02*
X375355D01*
X374174Y114513D02*
Y116875D01*
X372993Y149749D02*
X375355D01*
X374174Y148568D02*
Y150930D01*
X359115Y144100D02*
X361674D01*
X360394Y142820D02*
Y145379D01*
X359115Y121344D02*
X361674D01*
X360394Y120064D02*
Y122623D01*
X116428Y64644D02*
X117628D01*
X117028Y64044D02*
Y65244D01*
X19900Y77000D02*
X21100D01*
X20500Y76400D02*
Y77600D01*
X106453Y120447D02*
X107653D01*
X107053Y119847D02*
Y121047D01*
X160400Y40500D02*
X161600D01*
X161000Y39900D02*
Y41100D01*
X109353Y45925D02*
X110553D01*
X109953Y45325D02*
Y46525D01*
X98900Y109500D02*
X100100D01*
X99500Y108900D02*
Y110100D01*
X95400Y109500D02*
X96600D01*
X96000Y108900D02*
Y110100D01*
X103400Y109341D02*
X104600D01*
X104000Y108741D02*
Y109941D01*
X108928Y121650D02*
X110128D01*
X109528Y121050D02*
Y122250D01*
X112712Y121650D02*
X113912D01*
X113312Y121050D02*
Y122250D01*
X116428Y121650D02*
X117628D01*
X117028Y121050D02*
Y122250D01*
X124500Y125500D02*
X127500D01*
X126000Y124000D02*
Y127000D01*
X163428Y130600D02*
X164628D01*
X164028Y130000D02*
Y131200D01*
X83400Y2000D02*
X84600D01*
X84000Y1400D02*
Y2600D01*
X75928Y1144D02*
X77128D01*
X76528Y544D02*
Y1744D01*
X72921Y16102D02*
X74121D01*
X73521Y15502D02*
Y16702D01*
X76392Y16350D02*
X77592D01*
X76992Y15750D02*
Y16950D01*
X83900Y16500D02*
X85100D01*
X84500Y15900D02*
Y17100D01*
X80400Y16500D02*
X81600D01*
X81000Y15900D02*
Y17100D01*
X351400Y149000D02*
X352600D01*
X352000Y148400D02*
Y149600D01*
X350400Y116500D02*
X351600D01*
X351000Y115900D02*
Y117100D01*
X350900Y-3500D02*
X352100D01*
X351500Y-4100D02*
Y-2900D01*
X206428Y140644D02*
X207628D01*
X207028Y140044D02*
Y141244D01*
X214987Y152144D02*
X217987D01*
X216487Y150644D02*
Y153644D01*
X103353Y44144D02*
X104553D01*
X103953Y43544D02*
Y44744D01*
X105428Y49644D02*
X106628D01*
X106028Y49044D02*
Y50244D01*
X316528Y137144D02*
X319528D01*
X318028Y135644D02*
Y138644D01*
X332928Y152644D02*
X334128D01*
X333528Y152044D02*
Y153244D01*
X92928Y5644D02*
X94128D01*
X93528Y5044D02*
Y6244D01*
X87928Y3144D02*
X89128D01*
X88528Y2544D02*
Y3744D01*
X92546Y2135D02*
X93746D01*
X93146Y1535D02*
Y2736D01*
X63428Y-4356D02*
X64628D01*
X64028Y-4956D02*
Y-3756D01*
X211928Y4144D02*
X213128D01*
X212528Y3544D02*
Y4744D01*
X221928Y13144D02*
X223128D01*
X222528Y12544D02*
Y13744D01*
X232428Y35144D02*
X233628D01*
X233028Y34544D02*
Y35744D01*
X265928Y12144D02*
X267128D01*
X266528Y11544D02*
Y12744D01*
X266428Y-2356D02*
X267628D01*
X267028Y-2956D02*
Y-1756D01*
X266337Y1209D02*
X267537D01*
X266937Y609D02*
Y1809D01*
X266928Y5644D02*
X268128D01*
X267528Y5044D02*
Y6244D01*
X49928Y117644D02*
X51128D01*
X50528Y117044D02*
Y118244D01*
X295428Y70644D02*
X296628D01*
X296028Y70044D02*
Y71244D01*
X295428Y37144D02*
X296628D01*
X296028Y36544D02*
Y37744D01*
X338928Y58144D02*
X340128D01*
X339528Y57544D02*
Y58744D01*
X330428Y115644D02*
X331628D01*
X331028Y115044D02*
Y116244D01*
X338077Y113010D02*
X339277D01*
X338677Y112410D02*
Y113610D01*
X322928Y110144D02*
X324128D01*
X323528Y109544D02*
Y110744D01*
X323428Y99144D02*
X324628D01*
X324028Y98544D02*
Y99744D01*
X323428Y93644D02*
X324628D01*
X324028Y93044D02*
Y94244D01*
X338428Y52144D02*
X339628D01*
X339028Y51544D02*
Y52744D01*
X323428Y66144D02*
X324628D01*
X324028Y65544D02*
Y66744D01*
X338928Y64144D02*
X340128D01*
X339528Y63544D02*
Y64744D01*
X334928Y5644D02*
X336128D01*
X335528Y5044D02*
Y6244D01*
X334928Y11644D02*
X336128D01*
X335528Y11044D02*
Y12244D01*
X349928Y28144D02*
X351128D01*
X350528Y27544D02*
Y28744D01*
X144140Y103644D02*
X145340D01*
X144740Y103044D02*
Y104244D01*
X58789Y108283D02*
X59989D01*
X59389Y107683D02*
Y108883D01*
X59428Y111644D02*
X60628D01*
X60028Y111044D02*
Y112244D01*
X61428Y129644D02*
X62628D01*
X62028Y129044D02*
Y130244D01*
X31928Y150144D02*
X33128D01*
X32528Y149544D02*
Y150744D01*
X17428Y128144D02*
X18628D01*
X18028Y127544D02*
Y128744D01*
X47428Y99644D02*
X48628D01*
X48028Y99044D02*
Y100244D01*
X61294Y122278D02*
X62494D01*
X61894Y121678D02*
Y122878D01*
X46428Y119219D02*
X47628D01*
X47028Y118619D02*
Y119819D01*
X56428Y97144D02*
X57628D01*
X57028Y96544D02*
Y97744D01*
X58428Y91069D02*
X59628D01*
X59028Y90469D02*
Y91669D01*
X50341Y91855D02*
X51541D01*
X50941Y91255D02*
Y92454D01*
X56599Y87069D02*
X57799D01*
X57199Y86469D02*
Y87669D01*
X48278Y87069D02*
X49478D01*
X48878Y86469D02*
Y87669D01*
X46317Y76755D02*
X47517D01*
X46917Y76155D02*
Y77355D01*
X58928Y152644D02*
X60128D01*
X59528Y152044D02*
Y153244D01*
X50928Y152644D02*
X52128D01*
X51528Y152044D02*
Y153244D01*
X62428Y152644D02*
X63628D01*
X63028Y152044D02*
Y153244D01*
X79928Y149144D02*
X81128D01*
X80528Y148544D02*
Y149744D01*
X123928Y130644D02*
X125128D01*
X124528Y130044D02*
Y131244D01*
X112428Y139644D02*
X113628D01*
X113028Y139044D02*
Y140244D01*
X130428Y137144D02*
X131628D01*
X131028Y136544D02*
Y137744D01*
X33928Y78144D02*
X35128D01*
X34528Y77544D02*
Y78744D01*
X38817Y78755D02*
X40017D01*
X39417Y78155D02*
Y79355D01*
X38928Y118144D02*
X40128D01*
X39528Y117544D02*
Y118744D01*
X58928Y103232D02*
X60128D01*
X59528Y102632D02*
Y103832D01*
X56428Y101644D02*
X57628D01*
X57028Y101044D02*
Y102244D01*
X26571Y98644D02*
X27771D01*
X27171Y98044D02*
Y99244D01*
X28496Y111867D02*
X29696D01*
X29096Y111267D02*
Y112467D01*
X34428Y99144D02*
X35628D01*
X35028Y98544D02*
Y99744D01*
X44428Y97644D02*
X45628D01*
X45028Y97044D02*
Y98244D01*
X40928Y95144D02*
X42128D01*
X41528Y94544D02*
Y95744D01*
X30928Y95644D02*
X32128D01*
X31528Y95044D02*
Y96244D01*
X31428Y125644D02*
X32628D01*
X32028Y125044D02*
Y126244D01*
X21383Y116644D02*
X22583D01*
X21983Y116044D02*
Y117244D01*
X36608Y114069D02*
X37808D01*
X37208Y113469D02*
Y114669D01*
X147928Y145144D02*
X149128D01*
X148528Y144544D02*
Y145744D01*
X143428Y146144D02*
X144628D01*
X144028Y145544D02*
Y146744D01*
X103928Y70144D02*
X105128D01*
X104528Y69544D02*
Y70744D01*
X117428Y76369D02*
X118628D01*
X118028Y75769D02*
Y76969D01*
X97428Y51089D02*
X98628D01*
X98028Y50489D02*
Y51689D01*
X49928Y81144D02*
X51128D01*
X50528Y80544D02*
Y81744D01*
X42928Y78144D02*
X44128D01*
X43528Y77544D02*
Y78744D01*
X57428Y67719D02*
X58628D01*
X58028Y67119D02*
Y68319D01*
X103428Y25644D02*
X104628D01*
X104028Y25044D02*
Y26244D01*
X89928Y45644D02*
X91128D01*
X90528Y45044D02*
Y46244D01*
X107428Y35644D02*
X108628D01*
X108028Y35044D02*
Y36244D01*
X120928Y55144D02*
X122128D01*
X121528Y54544D02*
Y55744D01*
X123428Y14144D02*
X124628D01*
X124028Y13544D02*
Y14744D01*
X132928Y14144D02*
X134128D01*
X133528Y13544D02*
Y14744D01*
X118928Y14144D02*
X120128D01*
X119528Y13544D02*
Y14744D01*
X141928Y125144D02*
X143128D01*
X142528Y124544D02*
Y125744D01*
X55428Y57644D02*
X56628D01*
X56028Y57044D02*
Y58244D01*
X301928Y114144D02*
X303128D01*
X302528Y113544D02*
Y114744D01*
X107428Y93144D02*
X108628D01*
X108028Y92544D02*
Y93744D01*
X86428Y99144D02*
X87628D01*
X87028Y98544D02*
Y99744D01*
X70928Y95144D02*
X72128D01*
X71528Y94544D02*
Y95744D01*
X70428Y74144D02*
X71628D01*
X71028Y73544D02*
Y74744D01*
X96428Y63644D02*
X97628D01*
X97028Y63044D02*
Y64244D01*
X109428Y64144D02*
X110628D01*
X110028Y63544D02*
Y64744D01*
X108928Y85144D02*
X110128D01*
X109528Y84544D02*
Y85744D01*
X283928Y87644D02*
X285128D01*
X284528Y87044D02*
Y88244D01*
X146428Y116644D02*
X147628D01*
X147028Y116044D02*
Y117244D01*
X212428Y128144D02*
X213628D01*
X213028Y127544D02*
Y128744D01*
X248428Y61644D02*
X249628D01*
X249028Y61044D02*
Y62244D01*
X174428Y107644D02*
X175628D01*
X175028Y107044D02*
Y108244D01*
X195428Y133644D02*
X196628D01*
X196028Y133044D02*
Y134244D01*
X338527Y33144D02*
X339727D01*
X339127Y32544D02*
Y33744D01*
X338428Y74644D02*
X339628D01*
X339028Y74044D02*
Y75244D01*
X338428Y88144D02*
X339628D01*
X339028Y87544D02*
Y88744D01*
X195428Y149644D02*
X196628D01*
X196028Y149044D02*
Y150244D01*
X97928Y131144D02*
X99128D01*
X98528Y130544D02*
Y131744D01*
X93928Y130144D02*
X95128D01*
X94528Y129544D02*
Y130744D01*
X117928Y94144D02*
X119128D01*
X118528Y93544D02*
Y94744D01*
X55928Y61644D02*
X57128D01*
X56528Y61044D02*
Y62244D01*
X58428Y99144D02*
X59628D01*
X59028Y98544D02*
Y99744D01*
X79928Y120644D02*
X81128D01*
X80528Y120044D02*
Y121244D01*
X76428Y123144D02*
X77628D01*
X77028Y122544D02*
Y123744D01*
X89928Y110144D02*
X91128D01*
X90528Y109544D02*
Y110744D01*
X86428Y110144D02*
X87628D01*
X87028Y109544D02*
Y110744D01*
X82428Y109144D02*
X83628D01*
X83028Y108544D02*
Y109744D01*
X70428Y109644D02*
X71628D01*
X71028Y109044D02*
Y110244D01*
X74428Y109644D02*
X75628D01*
X75028Y109044D02*
Y110244D01*
X117428Y85644D02*
X118628D01*
X118028Y85044D02*
Y86244D01*
X81928Y61144D02*
X83128D01*
X82528Y60544D02*
Y61744D01*
X73928Y50144D02*
X75128D01*
X74528Y49544D02*
Y50744D01*
X91928Y50144D02*
X93128D01*
X92528Y49544D02*
Y50744D01*
X130428Y83144D02*
X131628D01*
X131028Y82544D02*
Y83744D01*
X129428Y76644D02*
X130628D01*
X130028Y76044D02*
Y77244D01*
X117428Y81644D02*
X118628D01*
X118028Y81044D02*
Y82244D01*
X117928Y90144D02*
X119128D01*
X118528Y89544D02*
Y90744D01*
X117928Y106644D02*
X119128D01*
X118528Y106044D02*
Y107244D01*
X114928Y109644D02*
X116128D01*
X115528Y109044D02*
Y110244D01*
X117928Y100644D02*
X119128D01*
X118528Y100044D02*
Y101244D01*
X117428Y97144D02*
X118628D01*
X118028Y96544D02*
Y97744D01*
X56928Y-4356D02*
X58128D01*
X57528Y-4956D02*
Y-3756D01*
X96928Y24144D02*
X98128D01*
X97528Y23544D02*
Y24744D01*
X56928Y105644D02*
X58128D01*
X57528Y105044D02*
Y106244D01*
X108428Y89144D02*
X109628D01*
X109028Y88544D02*
Y89744D01*
X171539Y99255D02*
X172739D01*
X172139Y98655D02*
Y99855D01*
X49428Y24644D02*
X50628D01*
X50028Y24044D02*
Y25244D01*
X115436Y102636D02*
X116636D01*
X116036Y102036D02*
Y103236D01*
X130428Y87144D02*
X131628D01*
X131028Y86544D02*
Y87744D01*
X130428Y90144D02*
X131628D01*
X131028Y89544D02*
Y90744D01*
X130928Y79644D02*
X132128D01*
X131528Y79044D02*
Y80244D01*
X134928Y92144D02*
X136128D01*
X135528Y91544D02*
Y92744D01*
X148463Y81725D02*
X149663D01*
X149063Y81125D02*
Y82325D01*
X76402Y104943D02*
X77602D01*
X77002Y104343D02*
Y105543D01*
X54428Y113644D02*
X55628D01*
X55028Y113044D02*
Y114244D01*
X176428Y93644D02*
X177628D01*
X177028Y93044D02*
Y94244D01*
X137631Y71219D02*
X138831D01*
X138231Y70619D02*
Y71819D01*
X185566Y132167D02*
X186766D01*
X186166Y131567D02*
Y132767D01*
X26530Y137644D02*
X27730D01*
X27130Y137044D02*
Y138244D01*
X338428Y145144D02*
X339628D01*
X339028Y144544D02*
Y145744D01*
X120316Y51866D02*
X121516D01*
X120916Y51266D02*
Y52465D01*
X192428Y108644D02*
X193628D01*
X193028Y108044D02*
Y109244D01*
X129428Y107144D02*
X130628D01*
X130028Y106544D02*
Y107744D01*
X172428Y74644D02*
X173628D01*
X173028Y74044D02*
Y75244D01*
X37428Y-6856D02*
X38628D01*
X38028Y-7456D02*
Y-6256D01*
X72428Y122144D02*
X73628D01*
X73028Y121544D02*
Y122744D01*
X123428Y114144D02*
X124628D01*
X124028Y113544D02*
Y114744D01*
X163496Y123424D02*
X164696D01*
X164096Y122824D02*
Y124024D01*
X116928Y-4856D02*
X118128D01*
X117528Y-5456D02*
Y-4256D01*
X18028Y88144D02*
X21028D01*
X19528Y86644D02*
Y89644D01*
X71428Y66111D02*
X72628D01*
X72028Y65511D02*
Y66711D01*
X115408Y140884D02*
X116608D01*
X116008Y140284D02*
Y141484D01*
X123928Y140644D02*
X125128D01*
X124528Y140044D02*
Y141244D01*
X93283Y23977D02*
X94483D01*
X93883Y23377D02*
Y24577D01*
X100928Y20644D02*
X102128D01*
X101528Y20044D02*
Y21244D01*
X167428Y84644D02*
X168628D01*
X168028Y84044D02*
Y85244D01*
X155428Y6644D02*
X156628D01*
X156028Y6044D02*
Y7244D01*
X124428Y47359D02*
X125628D01*
X125028Y46759D02*
Y47959D01*
X148928Y19144D02*
X150128D01*
X149528Y18544D02*
Y19744D01*
X41090Y15166D02*
X42290D01*
X41690Y14566D02*
Y15766D01*
X43928Y16644D02*
X45128D01*
X44528Y16044D02*
Y17244D01*
X175428Y6144D02*
X176628D01*
X176028Y5544D02*
Y6744D01*
X56928Y4144D02*
X58128D01*
X57528Y3544D02*
Y4744D01*
X61428Y113644D02*
X62628D01*
X62028Y113044D02*
Y114244D01*
X41428Y123144D02*
X42628D01*
X42028Y122544D02*
Y123744D01*
X155028Y152144D02*
X158028D01*
X156528Y150644D02*
Y153644D01*
X88928Y129144D02*
X90128D01*
X89528Y128544D02*
Y129744D01*
X186928Y82644D02*
X188128D01*
X187528Y82044D02*
Y83244D01*
X147428Y-356D02*
X148628D01*
X148028Y-956D02*
Y244D01*
X39928Y144D02*
X41128D01*
X40528Y-456D02*
Y744D01*
X218928Y121644D02*
X220128D01*
X219528Y121044D02*
Y122244D01*
X208928Y100144D02*
X210128D01*
X209528Y99544D02*
Y100744D01*
X200428Y54144D02*
X201628D01*
X201028Y53544D02*
Y54744D01*
X334428Y131644D02*
X335628D01*
X335028Y131044D02*
Y132244D01*
X337928Y130644D02*
X339128D01*
X338528Y130044D02*
Y131244D01*
X39030Y144144D02*
X40230D01*
X39630Y143544D02*
Y144744D01*
X178428Y116144D02*
X179628D01*
X179028Y115544D02*
Y116744D01*
X148428Y120644D02*
X149628D01*
X149028Y120044D02*
Y121244D01*
X202928Y145144D02*
X204128D01*
X203528Y144544D02*
Y145744D01*
X284928Y65644D02*
X286128D01*
X285528Y65044D02*
Y66244D01*
X310928Y101644D02*
X312128D01*
X311528Y101044D02*
Y102244D01*
X339428Y26794D02*
X340628D01*
X340028Y26194D02*
Y27394D01*
X292528Y88144D02*
X295528D01*
X294028Y86644D02*
Y89644D01*
X294528Y79185D02*
X297528D01*
X296028Y77685D02*
Y80685D01*
X240028Y139185D02*
X243028D01*
X241528Y137685D02*
Y140685D01*
X218428Y115819D02*
X219628D01*
X219028Y115219D02*
Y116419D01*
X234429Y127491D02*
X235629D01*
X235029Y126891D02*
Y128091D01*
X236528Y95144D02*
X239528D01*
X238028Y93644D02*
Y96644D01*
X143428Y71156D02*
X144628D01*
X144028Y70556D02*
Y71756D01*
X139428Y64219D02*
X140628D01*
X140028Y63619D02*
Y64819D01*
X143928Y63934D02*
X145128D01*
X144528Y63334D02*
Y64534D01*
X132428Y68644D02*
X133628D01*
X133028Y68044D02*
Y69244D01*
X174428Y90644D02*
X175628D01*
X175028Y90044D02*
Y91244D01*
X169428Y74644D02*
X170628D01*
X170028Y74044D02*
Y75244D01*
X132928Y63144D02*
X134128D01*
X133528Y62544D02*
Y63744D01*
X128928Y62644D02*
X130128D01*
X129528Y62044D02*
Y63244D01*
X170928Y91144D02*
X172128D01*
X171528Y90544D02*
Y91744D01*
X151433Y91107D02*
X152633D01*
X152033Y90507D02*
Y91707D01*
X67428Y113644D02*
X68628D01*
X68028Y113044D02*
Y114244D01*
X58007Y64945D02*
X59207D01*
X58607Y64345D02*
Y65545D01*
X71928Y60644D02*
X73128D01*
X72528Y60044D02*
Y61244D01*
X57877Y117968D02*
X59077D01*
X58477Y117368D02*
Y118568D01*
X292928Y17644D02*
X294128D01*
X293528Y17044D02*
Y18244D01*
X30428Y4144D02*
X31628D01*
X31028Y3544D02*
Y4744D01*
X149928Y61644D02*
X151128D01*
X150528Y61044D02*
Y62244D01*
X322428Y18144D02*
X323628D01*
X323028Y17544D02*
Y18744D01*
X317488Y20616D02*
X318688D01*
X318088Y20016D02*
Y21216D01*
X149928Y53719D02*
X151128D01*
X150528Y53119D02*
Y54319D01*
X143750Y53719D02*
X144950D01*
X144350Y53119D02*
Y54319D01*
X139428Y53434D02*
X140628D01*
X140028Y52834D02*
Y54034D01*
X312605Y22484D02*
X313805D01*
X313205Y21884D02*
Y23084D01*
X321044Y12237D02*
X322244D01*
X321644Y11637D02*
Y12837D01*
X312928Y17644D02*
X314128D01*
X313528Y17044D02*
Y18244D01*
X322190Y7053D02*
X323390D01*
X322790Y6453D02*
Y7653D01*
X305612Y21038D02*
X306812D01*
X306212Y20438D02*
Y21638D01*
X300428Y22644D02*
X301628D01*
X301028Y22044D02*
Y23244D01*
X320928Y1644D02*
X322128D01*
X321528Y1044D02*
Y2244D01*
X277928Y143144D02*
X279128D01*
X278528Y142544D02*
Y143744D01*
X278428Y146766D02*
X279628D01*
X279028Y146166D02*
Y147366D01*
X244428Y65644D02*
X245628D01*
X245028Y65044D02*
Y66244D01*
X228428Y152144D02*
X229628D01*
X229028Y151544D02*
Y152744D01*
X136928Y-3356D02*
X138128D01*
X137528Y-3956D02*
Y-2756D01*
X122428Y-3356D02*
X123628D01*
X123028Y-3956D02*
Y-2756D01*
X126928Y-3356D02*
X128128D01*
X127528Y-3956D02*
Y-2756D01*
X298028Y134644D02*
X301028D01*
X299528Y133144D02*
Y136144D01*
X163820Y116144D02*
X165020D01*
X164420Y115544D02*
Y116744D01*
X137620Y112336D02*
X138820D01*
X138220Y111736D02*
Y112936D01*
X283428Y8644D02*
X284628D01*
X284028Y8044D02*
Y9244D01*
X278124Y21279D02*
X279324D01*
X278724Y20679D02*
Y21879D01*
X273302Y22062D02*
X274502D01*
X273902Y21462D02*
Y22662D01*
X267756Y21882D02*
X268956D01*
X268356Y21282D02*
Y22482D01*
X268928Y17144D02*
X270128D01*
X269528Y16544D02*
Y17744D01*
X320622Y-5787D02*
X321822D01*
X321222Y-6387D02*
Y-5187D01*
X294762Y21219D02*
X295962D01*
X295362Y20619D02*
Y21819D01*
X288428Y23144D02*
X289628D01*
X289028Y22544D02*
Y23744D01*
X284428Y20144D02*
X285628D01*
X285028Y19544D02*
Y20744D01*
X280428Y22644D02*
X281628D01*
X281028Y22044D02*
Y23244D01*
X182428Y90644D02*
X183628D01*
X183028Y90044D02*
Y91244D01*
X240928Y76644D02*
X242128D01*
X241528Y76044D02*
Y77244D01*
X267428Y107644D02*
X268628D01*
X268028Y107044D02*
Y108244D01*
X324928Y131644D02*
X326128D01*
X325528Y131044D02*
Y132244D01*
X40346Y-3855D02*
X41546D01*
X40946Y-4455D02*
Y-3255D01*
X163928Y19144D02*
X165128D01*
X164528Y18544D02*
Y19744D01*
X281428Y99144D02*
X282628D01*
X282028Y98544D02*
Y99744D01*
X267949Y103941D02*
X269149D01*
X268549Y103341D02*
Y104541D01*
X348864Y130406D02*
X350064D01*
X349464Y129806D02*
Y131006D01*
X346928Y133144D02*
X348128D01*
X347528Y132544D02*
Y133744D01*
X341928Y-5856D02*
X343128D01*
X342528Y-6456D02*
Y-5256D01*
M02*
