G04*
G04 #@! TF.GenerationSoftware,Altium Limited,Altium Designer,20.0.13 (296)*
G04*
G04 Layer_Color=255*
%FSLAX25Y25*%
%MOIN*%
G70*
G01*
G75*
%ADD23C,0.03937*%
G04:AMPARAMS|DCode=24|XSize=40mil|YSize=40mil|CornerRadius=2mil|HoleSize=0mil|Usage=FLASHONLY|Rotation=270.000|XOffset=0mil|YOffset=0mil|HoleType=Round|Shape=RoundedRectangle|*
%AMROUNDEDRECTD24*
21,1,0.04000,0.03600,0,0,270.0*
21,1,0.03600,0.04000,0,0,270.0*
1,1,0.00400,-0.01800,-0.01800*
1,1,0.00400,-0.01800,0.01800*
1,1,0.00400,0.01800,0.01800*
1,1,0.00400,0.01800,-0.01800*
%
%ADD24ROUNDEDRECTD24*%
G04:AMPARAMS|DCode=25|XSize=40.5mil|YSize=40mil|CornerRadius=2mil|HoleSize=0mil|Usage=FLASHONLY|Rotation=270.000|XOffset=0mil|YOffset=0mil|HoleType=Round|Shape=RoundedRectangle|*
%AMROUNDEDRECTD25*
21,1,0.04050,0.03600,0,0,270.0*
21,1,0.03650,0.04000,0,0,270.0*
1,1,0.00400,-0.01800,-0.01825*
1,1,0.00400,-0.01800,0.01825*
1,1,0.00400,0.01800,0.01825*
1,1,0.00400,0.01800,-0.01825*
%
%ADD25ROUNDEDRECTD25*%
%ADD26R,0.03937X0.19685*%
%ADD27R,0.05000X0.06500*%
%ADD28R,0.09843X0.05512*%
%ADD29R,0.05512X0.06693*%
%ADD30R,0.04000X0.05000*%
%ADD31R,0.03858X0.03661*%
G04:AMPARAMS|DCode=32|XSize=40mil|YSize=40mil|CornerRadius=2mil|HoleSize=0mil|Usage=FLASHONLY|Rotation=0.000|XOffset=0mil|YOffset=0mil|HoleType=Round|Shape=RoundedRectangle|*
%AMROUNDEDRECTD32*
21,1,0.04000,0.03600,0,0,0.0*
21,1,0.03600,0.04000,0,0,0.0*
1,1,0.00400,0.01800,-0.01800*
1,1,0.00400,-0.01800,-0.01800*
1,1,0.00400,-0.01800,0.01800*
1,1,0.00400,0.01800,0.01800*
%
%ADD32ROUNDEDRECTD32*%
G04:AMPARAMS|DCode=33|XSize=40.5mil|YSize=40mil|CornerRadius=2mil|HoleSize=0mil|Usage=FLASHONLY|Rotation=0.000|XOffset=0mil|YOffset=0mil|HoleType=Round|Shape=RoundedRectangle|*
%AMROUNDEDRECTD33*
21,1,0.04050,0.03600,0,0,0.0*
21,1,0.03650,0.04000,0,0,0.0*
1,1,0.00400,0.01825,-0.01800*
1,1,0.00400,-0.01825,-0.01800*
1,1,0.00400,-0.01825,0.01800*
1,1,0.00400,0.01825,0.01800*
%
%ADD33ROUNDEDRECTD33*%
%ADD34R,0.03543X0.03937*%
%ADD35R,0.05000X0.05000*%
%ADD36R,0.08346X0.05512*%
%ADD37R,0.06000X0.03000*%
%ADD38R,0.04134X0.06693*%
%ADD39R,0.05512X0.04724*%
%ADD40R,0.03661X0.03858*%
%ADD41O,0.03150X0.01102*%
%ADD42O,0.01102X0.03150*%
%ADD43R,0.03150X0.00984*%
%ADD44R,0.00984X0.03150*%
%ADD45R,0.06693X0.01339*%
%ADD46R,0.02362X0.04331*%
%ADD47R,0.03937X0.03543*%
G04:AMPARAMS|DCode=48|XSize=31.5mil|YSize=39.37mil|CornerRadius=3.94mil|HoleSize=0mil|Usage=FLASHONLY|Rotation=0.000|XOffset=0mil|YOffset=0mil|HoleType=Round|Shape=RoundedRectangle|*
%AMROUNDEDRECTD48*
21,1,0.03150,0.03150,0,0,0.0*
21,1,0.02362,0.03937,0,0,0.0*
1,1,0.00787,0.01181,-0.01575*
1,1,0.00787,-0.01181,-0.01575*
1,1,0.00787,-0.01181,0.01575*
1,1,0.00787,0.01181,0.01575*
%
%ADD48ROUNDEDRECTD48*%
G04:AMPARAMS|DCode=49|XSize=59.06mil|YSize=11.81mil|CornerRadius=2.95mil|HoleSize=0mil|Usage=FLASHONLY|Rotation=180.000|XOffset=0mil|YOffset=0mil|HoleType=Round|Shape=RoundedRectangle|*
%AMROUNDEDRECTD49*
21,1,0.05906,0.00591,0,0,180.0*
21,1,0.05315,0.01181,0,0,180.0*
1,1,0.00591,-0.02657,0.00295*
1,1,0.00591,0.02657,0.00295*
1,1,0.00591,0.02657,-0.00295*
1,1,0.00591,-0.02657,-0.00295*
%
%ADD49ROUNDEDRECTD49*%
%ADD50R,0.04724X0.13780*%
%ADD51R,0.05906X0.13386*%
%ADD52R,0.07087X0.04449*%
%ADD53R,0.02362X0.01575*%
%ADD54O,0.08858X0.02480*%
%ADD55R,0.06693X0.02756*%
%ADD56R,0.05000X0.04000*%
%ADD57R,0.01181X0.02559*%
%ADD58R,0.02559X0.01181*%
%ADD59O,0.08014X0.02260*%
%ADD104O,0.06299X0.01181*%
%ADD105O,0.01181X0.06299*%
%ADD110C,0.18000*%
%ADD111O,0.08268X0.03937*%
%ADD112O,0.06299X0.03937*%
%ADD113C,0.02559*%
D23*
X62000Y17000D02*
D03*
Y7000D02*
D03*
X181028Y108644D02*
D03*
Y84144D02*
D03*
X199527Y84144D02*
D03*
X199527Y108644D02*
D03*
D24*
X122570Y3298D02*
D03*
X136767D02*
D03*
X129667D02*
D03*
D25*
X122570Y9991D02*
D03*
X136767Y9991D02*
D03*
X129667Y9991D02*
D03*
D26*
X313528Y6144D02*
D03*
X293528D02*
D03*
D27*
X334028Y145144D02*
D03*
X320528D02*
D03*
D28*
X226574Y147766D02*
D03*
Y139892D02*
D03*
Y132018D02*
D03*
Y124144D02*
D03*
Y116270D02*
D03*
Y108396D02*
D03*
Y100522D02*
D03*
X226577Y92648D02*
D03*
X286023D02*
D03*
X286029Y100522D02*
D03*
X286034Y108396D02*
D03*
X286031Y116270D02*
D03*
X286028Y124144D02*
D03*
X286031Y132018D02*
D03*
X286030Y139892D02*
D03*
X286031Y147766D02*
D03*
D29*
X236619Y87525D02*
D03*
X244485Y87531D02*
D03*
X252354Y87529D02*
D03*
X260231D02*
D03*
X268102D02*
D03*
X275976Y87526D02*
D03*
D30*
X217028Y127144D02*
D03*
X208528D02*
D03*
X148948Y-4702D02*
D03*
Y26298D02*
D03*
X164178Y-4703D02*
D03*
Y26297D02*
D03*
D31*
X215528Y91644D02*
D03*
Y97707D02*
D03*
D32*
X215375Y119144D02*
D03*
D33*
X208682D02*
D03*
D34*
X188335Y119644D02*
D03*
X195028D02*
D03*
D35*
X200028Y127144D02*
D03*
X190028D02*
D03*
D36*
X178460Y133400D02*
D03*
Y149368D02*
D03*
D37*
X140528Y116644D02*
D03*
X170528D02*
D03*
Y121644D02*
D03*
X140528D02*
D03*
D38*
X126048Y146144D02*
D03*
X116008D02*
D03*
D39*
X98197Y141699D02*
D03*
X106859D02*
D03*
Y148589D02*
D03*
X98197D02*
D03*
D40*
X28059Y121144D02*
D03*
X21996D02*
D03*
D41*
X33599Y105105D02*
D03*
Y107074D02*
D03*
Y109042D02*
D03*
Y111011D02*
D03*
Y112979D02*
D03*
X21395D02*
D03*
Y111011D02*
D03*
Y109042D02*
D03*
Y107074D02*
D03*
Y105105D02*
D03*
D42*
X29465Y115144D02*
D03*
X27497D02*
D03*
X25528D02*
D03*
Y102940D02*
D03*
X27497D02*
D03*
X29465D02*
D03*
D43*
X39489Y109144D02*
D03*
X54567D02*
D03*
D44*
X41131Y104420D02*
D03*
X43099D02*
D03*
X45068D02*
D03*
X47036D02*
D03*
X49005D02*
D03*
X50973D02*
D03*
X52942D02*
D03*
Y113868D02*
D03*
X50973D02*
D03*
X49005D02*
D03*
X47036D02*
D03*
X45068D02*
D03*
X43099D02*
D03*
X41131D02*
D03*
D45*
X4527Y2677D02*
D03*
X4528Y4647D02*
D03*
Y6617D02*
D03*
Y8585D02*
D03*
Y10554D02*
D03*
Y12522D02*
D03*
Y14491D02*
D03*
Y16459D02*
D03*
Y18428D02*
D03*
Y20396D02*
D03*
Y22365D02*
D03*
Y24333D02*
D03*
Y26302D02*
D03*
Y28270D02*
D03*
Y30239D02*
D03*
Y32207D02*
D03*
Y34176D02*
D03*
Y36144D02*
D03*
Y38113D02*
D03*
Y40081D02*
D03*
Y42050D02*
D03*
Y44018D02*
D03*
Y45987D02*
D03*
Y47955D02*
D03*
Y49924D02*
D03*
Y51892D02*
D03*
Y53861D02*
D03*
Y55829D02*
D03*
Y57798D02*
D03*
Y67640D02*
D03*
Y69609D02*
D03*
Y71577D02*
D03*
Y73546D02*
D03*
Y75514D02*
D03*
D46*
X192264Y145858D02*
D03*
X196004D02*
D03*
X199744D02*
D03*
Y135622D02*
D03*
X192264D02*
D03*
X208264D02*
D03*
X215744D02*
D03*
Y145858D02*
D03*
X212004D02*
D03*
X208264D02*
D03*
D47*
X342527Y141798D02*
D03*
Y148491D02*
D03*
X321116Y130990D02*
D03*
Y124297D02*
D03*
X330029Y130990D02*
D03*
Y124297D02*
D03*
X342885D02*
D03*
Y130990D02*
D03*
X343029Y18490D02*
D03*
Y11797D02*
D03*
X343029Y5490D02*
D03*
Y-1203D02*
D03*
D48*
X310237Y146943D02*
D03*
Y132376D02*
D03*
D49*
X353831Y-467D02*
D03*
Y714D02*
D03*
Y2682D02*
D03*
Y3863D02*
D03*
Y5832D02*
D03*
Y7800D02*
D03*
Y9769D02*
D03*
Y11737D02*
D03*
Y13706D02*
D03*
Y15674D02*
D03*
Y17643D02*
D03*
Y19611D02*
D03*
Y21580D02*
D03*
Y22761D02*
D03*
Y24730D02*
D03*
Y25911D02*
D03*
X354331Y119533D02*
D03*
Y120714D02*
D03*
Y122682D02*
D03*
Y123863D02*
D03*
Y125832D02*
D03*
Y127800D02*
D03*
Y129769D02*
D03*
Y131737D02*
D03*
Y133706D02*
D03*
Y135674D02*
D03*
Y137643D02*
D03*
Y139611D02*
D03*
Y141580D02*
D03*
Y142761D02*
D03*
Y144730D02*
D03*
Y145911D02*
D03*
D50*
X202528Y26644D02*
D03*
X212528D02*
D03*
X222449D02*
D03*
X232528D02*
D03*
D51*
X190914Y-128D02*
D03*
X244142D02*
D03*
D52*
X163867Y147282D02*
D03*
Y135549D02*
D03*
D53*
X76134Y4988D02*
D03*
Y7548D02*
D03*
Y10106D02*
D03*
Y12666D02*
D03*
X81842Y4988D02*
D03*
Y7548D02*
D03*
Y10106D02*
D03*
Y12666D02*
D03*
D54*
X50028Y134644D02*
D03*
Y139644D02*
D03*
Y144644D02*
D03*
Y149644D02*
D03*
X22232Y134644D02*
D03*
Y139644D02*
D03*
Y144644D02*
D03*
Y149644D02*
D03*
D55*
X94068Y18644D02*
D03*
X112178D02*
D03*
Y4865D02*
D03*
D56*
X90528Y148644D02*
D03*
X59528D02*
D03*
D57*
X50020Y12668D02*
D03*
X48052D02*
D03*
X46083D02*
D03*
X44115D02*
D03*
X44121Y1644D02*
D03*
X46089D02*
D03*
X48058D02*
D03*
X50028D02*
D03*
D58*
X41561Y10101D02*
D03*
Y8133D02*
D03*
Y6164D02*
D03*
Y4196D02*
D03*
X52585D02*
D03*
Y6164D02*
D03*
Y8133D02*
D03*
Y10101D02*
D03*
D59*
X162329Y84142D02*
D03*
Y89142D02*
D03*
Y94142D02*
D03*
Y99142D02*
D03*
X140535Y84142D02*
D03*
Y89142D02*
D03*
Y94142D02*
D03*
Y99142D02*
D03*
D104*
X123878Y61835D02*
D03*
X64430Y109079D02*
D03*
Y107111D02*
D03*
Y105142D02*
D03*
Y103174D02*
D03*
Y101205D02*
D03*
Y99237D02*
D03*
Y97268D02*
D03*
Y95300D02*
D03*
Y93331D02*
D03*
Y91363D02*
D03*
Y89394D02*
D03*
Y87425D02*
D03*
Y85457D02*
D03*
Y83488D02*
D03*
Y81520D02*
D03*
Y79551D02*
D03*
Y77583D02*
D03*
Y75614D02*
D03*
Y73646D02*
D03*
Y71677D02*
D03*
Y69709D02*
D03*
Y67740D02*
D03*
Y65772D02*
D03*
Y63803D02*
D03*
Y61835D02*
D03*
X123878Y63803D02*
D03*
Y65772D02*
D03*
Y67740D02*
D03*
Y69709D02*
D03*
Y71677D02*
D03*
Y73646D02*
D03*
Y75614D02*
D03*
Y77583D02*
D03*
Y79551D02*
D03*
Y81520D02*
D03*
Y83488D02*
D03*
Y85457D02*
D03*
Y87425D02*
D03*
Y89394D02*
D03*
Y91363D02*
D03*
Y93331D02*
D03*
Y95300D02*
D03*
Y97268D02*
D03*
Y99237D02*
D03*
Y101205D02*
D03*
Y103174D02*
D03*
Y105142D02*
D03*
Y107111D02*
D03*
Y109079D02*
D03*
D105*
X117776Y115181D02*
D03*
X115808D02*
D03*
X113839D02*
D03*
X111871D02*
D03*
X109902D02*
D03*
X107934D02*
D03*
X105965D02*
D03*
X103997D02*
D03*
X102028D02*
D03*
X100060D02*
D03*
X98091D02*
D03*
X96122D02*
D03*
X94154D02*
D03*
X92185D02*
D03*
X90217D02*
D03*
X88248D02*
D03*
X86280D02*
D03*
X84311D02*
D03*
X82343D02*
D03*
X80374D02*
D03*
X78406D02*
D03*
X76437D02*
D03*
X74469D02*
D03*
X72500D02*
D03*
X70532D02*
D03*
Y55733D02*
D03*
X72500D02*
D03*
X74469D02*
D03*
X76437D02*
D03*
X78406D02*
D03*
X80374D02*
D03*
X82343D02*
D03*
X84311D02*
D03*
X86280D02*
D03*
X88248D02*
D03*
X90217D02*
D03*
X92185D02*
D03*
X94154D02*
D03*
X96122D02*
D03*
X98091D02*
D03*
X100060D02*
D03*
X102028D02*
D03*
X103997D02*
D03*
X105965D02*
D03*
X107934D02*
D03*
X109902D02*
D03*
X111871D02*
D03*
X113839D02*
D03*
X115808D02*
D03*
X117776D02*
D03*
D110*
X128028Y29644D02*
D03*
D111*
X357926Y-4306D02*
D03*
Y29749D02*
D03*
X358426Y115694D02*
D03*
Y149749D02*
D03*
D112*
X373674Y-4306D02*
D03*
Y29749D02*
D03*
X374174Y115694D02*
D03*
Y149749D02*
D03*
D113*
X359894Y24100D02*
D03*
Y1344D02*
D03*
X360394Y144100D02*
D03*
Y121344D02*
D03*
M02*
