G04*
G04 #@! TF.GenerationSoftware,Altium Limited,Altium Designer,20.0.13 (296)*
G04*
G04 Layer_Physical_Order=3*
G04 Layer_Color=16440176*
%FSLAX25Y25*%
%MOIN*%
G70*
G01*
G75*
%ADD106C,0.00650*%
%ADD107C,0.01500*%
%ADD108C,0.02000*%
%ADD110C,0.18000*%
%ADD111O,0.08268X0.03937*%
%ADD112O,0.06299X0.03937*%
%ADD113C,0.02559*%
%ADD114C,0.02200*%
%ADD115C,0.05000*%
%ADD116C,0.04000*%
G36*
X214750Y151153D02*
X214650Y151295D01*
X214523Y151422D01*
X214368Y151535D01*
X214185Y151632D01*
X213974Y151715D01*
X213735Y151782D01*
X213469Y151834D01*
X213174Y151872D01*
X212852Y151894D01*
X212502Y151902D01*
X212932Y153402D01*
X213274Y153407D01*
X214182Y153475D01*
X214445Y153517D01*
X214911Y153627D01*
X215114Y153696D01*
X215297Y153774D01*
X215461Y153861D01*
X214750Y151153D01*
D02*
G37*
G36*
X241891Y137218D02*
X241709Y137175D01*
X241520Y137109D01*
X241323Y137022D01*
X241120Y136913D01*
X240909Y136783D01*
X240691Y136630D01*
X240235Y136261D01*
X239995Y136044D01*
X239749Y135804D01*
X238464Y136641D01*
X238706Y136893D01*
X239102Y137372D01*
X239256Y137599D01*
X239381Y137817D01*
X239477Y138027D01*
X239544Y138229D01*
X239581Y138422D01*
X239590Y138607D01*
X239569Y138783D01*
X241891Y137218D01*
D02*
G37*
G36*
X297743Y132894D02*
X297580Y133036D01*
X297387Y133164D01*
X297163Y133276D01*
X296909Y133374D01*
X296624Y133457D01*
X296308Y133524D01*
X295961Y133577D01*
X295176Y133636D01*
X294737Y133644D01*
Y135644D01*
X295176Y135652D01*
X295961Y135712D01*
X296308Y135764D01*
X296624Y135831D01*
X296909Y135914D01*
X297163Y136012D01*
X297387Y136124D01*
X297580Y136251D01*
X297743Y136394D01*
Y132894D01*
D02*
G37*
G36*
X301135Y132696D02*
X301008Y132503D01*
X300896Y132279D01*
X300798Y132025D01*
X300715Y131740D01*
X300648Y131424D01*
X300595Y131077D01*
X300535Y130291D01*
X300528Y129853D01*
X298528D01*
X298520Y130291D01*
X298461Y131077D01*
X298408Y131424D01*
X298341Y131740D01*
X298258Y132025D01*
X298161Y132279D01*
X298048Y132503D01*
X297920Y132696D01*
X297778Y132859D01*
X301278D01*
X301135Y132696D01*
D02*
G37*
G36*
X216401Y129947D02*
X217333Y129561D01*
X218171Y129001D01*
X218528Y128644D01*
X218528D01*
X218528Y128644D01*
Y122900D01*
X218374Y122798D01*
X218021Y122268D01*
X217897Y121644D01*
X218021Y121020D01*
X218374Y120491D01*
X218528Y120388D01*
Y117351D01*
X218404Y117326D01*
X217875Y116972D01*
X217521Y116443D01*
X217397Y115819D01*
X217521Y115195D01*
X217875Y114665D01*
X218404Y114312D01*
X218528Y114287D01*
X218528Y16144D01*
X218528Y15187D01*
X218155Y13309D01*
X217422Y11541D01*
X216359Y9950D01*
X215682Y9273D01*
X215682Y9273D01*
X215682Y9273D01*
X212099Y5690D01*
X211904Y5651D01*
X211374Y5297D01*
X211021Y4768D01*
X210982Y4573D01*
X207288Y879D01*
X148904Y983D01*
X148652Y1151D01*
X148028Y1275D01*
X147404Y1151D01*
X147156Y986D01*
X94884Y1079D01*
X94775Y1282D01*
X94667Y1579D01*
X94778Y2135D01*
X94653Y2760D01*
X94300Y3289D01*
X93876Y3572D01*
X93899Y4007D01*
X93929Y4092D01*
X94152Y4137D01*
X94682Y4490D01*
X95035Y5020D01*
X95159Y5644D01*
X95035Y6268D01*
X94682Y6797D01*
X94152Y7151D01*
X93528Y7275D01*
X92904Y7151D01*
X92374Y6797D01*
X92021Y6268D01*
X91897Y5644D01*
X92021Y5020D01*
X92374Y4490D01*
X92798Y4207D01*
X92775Y3772D01*
X92745Y3687D01*
X92522Y3643D01*
X91993Y3289D01*
X91639Y2760D01*
X91515Y2135D01*
X91624Y1585D01*
X91416Y1095D01*
X91411Y1085D01*
X88965Y1090D01*
X88916Y1590D01*
X89152Y1637D01*
X89682Y1991D01*
X90035Y2520D01*
X90159Y3144D01*
X90035Y3768D01*
X89682Y4298D01*
X89152Y4651D01*
X88528Y4775D01*
X87904Y4651D01*
X87375Y4298D01*
X87021Y3768D01*
X86897Y3144D01*
X87021Y2520D01*
X87375Y1991D01*
X87904Y1637D01*
X88133Y1591D01*
X88083Y1091D01*
X85320Y1096D01*
X85079Y1500D01*
X82920D01*
X82676Y1101D01*
X78188Y1109D01*
X78159Y1144D01*
X78035Y1768D01*
X77681Y2297D01*
X77152Y2651D01*
X76528Y2775D01*
X75904Y2651D01*
X75375Y2297D01*
X75021Y1768D01*
X74897Y1144D01*
X74873Y1115D01*
X58528Y1144D01*
X57068Y2604D01*
X57314Y3065D01*
X57528Y3022D01*
X57957Y3108D01*
X58321Y3351D01*
X58517Y3644D01*
X57528D01*
Y4144D01*
X57028D01*
Y5133D01*
X56735Y4937D01*
X56492Y4573D01*
X56406Y4144D01*
X56449Y3930D01*
X55988Y3684D01*
X55528Y4144D01*
X55939Y21394D01*
X56403Y21579D01*
X62433Y15549D01*
X62706Y15367D01*
X63028Y15303D01*
X71283D01*
X71337Y15278D01*
X71341Y15280D01*
X71345Y15278D01*
X71511Y15274D01*
X71651Y15263D01*
X71777Y15245D01*
X71890Y15221D01*
X71988Y15192D01*
X72073Y15159D01*
X72146Y15123D01*
X72208Y15084D01*
X72260Y15043D01*
X72327Y14977D01*
X72357Y14965D01*
X72367Y14949D01*
X72897Y14595D01*
X73521Y14471D01*
X74145Y14595D01*
X74674Y14949D01*
X75028Y15478D01*
X75043Y15555D01*
X75078Y15568D01*
X75564Y15608D01*
X75838Y15197D01*
X76367Y14843D01*
X76992Y14719D01*
X77616Y14843D01*
X78145Y15197D01*
X78499Y15726D01*
X78623Y16350D01*
X78499Y16974D01*
X78145Y17504D01*
X77616Y17857D01*
X76992Y17981D01*
X76367Y17857D01*
X75838Y17504D01*
X75485Y16974D01*
X75469Y16898D01*
X75435Y16884D01*
X74949Y16845D01*
X74674Y17256D01*
X74145Y17610D01*
X73521Y17734D01*
X72897Y17610D01*
X72490Y17338D01*
X72413Y17313D01*
X72337Y17248D01*
X72275Y17204D01*
X72203Y17164D01*
X72122Y17127D01*
X72029Y17094D01*
X71924Y17065D01*
X71815Y17044D01*
X71529Y17014D01*
X71371Y17010D01*
X71315Y16985D01*
X63376D01*
X56009Y24352D01*
X56028Y25144D01*
X57028Y26144D01*
X96818D01*
X96904Y25651D01*
X96374Y25297D01*
X96021Y24768D01*
X95897Y24144D01*
X96021Y23520D01*
X96374Y22990D01*
X96904Y22637D01*
X97528Y22513D01*
X98152Y22637D01*
X98681Y22990D01*
X99035Y23520D01*
X99159Y24144D01*
X99035Y24768D01*
X98681Y25297D01*
X98152Y25651D01*
X98238Y26144D01*
X102227D01*
X102234Y26134D01*
X102285Y26042D01*
X102325Y25955D01*
X102354Y25875D01*
X102373Y25799D01*
X102383Y25728D01*
X102387Y25632D01*
X102408Y25588D01*
X102521Y25020D01*
X102875Y24490D01*
X103404Y24137D01*
X104028Y24013D01*
X104652Y24137D01*
X105182Y24490D01*
X105535Y25020D01*
X105659Y25644D01*
X105637Y25758D01*
X105954Y26144D01*
X108838D01*
X118666Y16317D01*
X118662Y16308D01*
X118658Y16142D01*
X118647Y16001D01*
X118629Y15873D01*
X118606Y15759D01*
X118577Y15657D01*
X118544Y15568D01*
X118507Y15491D01*
X118467Y15424D01*
X118425Y15367D01*
X118359Y15295D01*
X118342Y15250D01*
X118021Y14768D01*
X117897Y14144D01*
X118021Y13520D01*
X118375Y12991D01*
X118904Y12637D01*
X119528Y12513D01*
X120152Y12637D01*
X120682Y12991D01*
X121035Y13520D01*
X121159Y14144D01*
X121128Y14303D01*
X121538Y14803D01*
X122017D01*
X122063Y14780D01*
X122236Y14656D01*
X122431Y14316D01*
X122397Y14144D01*
X122521Y13520D01*
X122874Y12991D01*
X123404Y12637D01*
X124028Y12513D01*
X124652Y12637D01*
X125181Y12991D01*
X125535Y13520D01*
X125659Y14144D01*
X125628Y14303D01*
X126038Y14803D01*
X131624D01*
X131701Y14705D01*
X131766Y14611D01*
X131815Y14527D01*
X131850Y14453D01*
X131873Y14391D01*
X131886Y14341D01*
X131891Y14302D01*
X131890Y14234D01*
X131891Y14232D01*
X131890Y14230D01*
X131906Y14191D01*
X131897Y14144D01*
X132021Y13520D01*
X132375Y12991D01*
X132904Y12637D01*
X133528Y12513D01*
X134152Y12637D01*
X134681Y12991D01*
X135035Y13520D01*
X135159Y14144D01*
X135128Y14303D01*
X135538Y14803D01*
X138687D01*
X141528Y17644D01*
Y23502D01*
X144170Y26144D01*
Y26212D01*
X146315Y28357D01*
X146315Y28357D01*
X146642Y28684D01*
X147758Y29800D01*
X148847Y31430D01*
X149597Y33241D01*
X149980Y35164D01*
X150028Y36144D01*
Y51793D01*
X150415Y52110D01*
X150528Y52088D01*
X151152Y52212D01*
X151681Y52565D01*
X152035Y53095D01*
X152159Y53719D01*
X152035Y54343D01*
X151681Y54873D01*
X151152Y55226D01*
X150528Y55350D01*
X150415Y55328D01*
X150028Y55645D01*
Y59718D01*
X150415Y60035D01*
X150528Y60013D01*
X151152Y60137D01*
X151681Y60491D01*
X152035Y61020D01*
X152159Y61644D01*
X152035Y62268D01*
X151681Y62797D01*
X151152Y63151D01*
X150528Y63275D01*
X150415Y63253D01*
X150028Y63570D01*
Y80445D01*
X150217Y80572D01*
X150570Y81101D01*
X150695Y81725D01*
X150570Y82349D01*
X150217Y82879D01*
X150028Y83005D01*
Y90424D01*
X150526Y90483D01*
X150880Y89954D01*
X151409Y89600D01*
X152033Y89476D01*
X152658Y89600D01*
X153187Y89954D01*
X153541Y90483D01*
X153665Y91107D01*
X153541Y91731D01*
X153187Y92261D01*
X152658Y92614D01*
X152033Y92738D01*
X151409Y92614D01*
X150880Y92261D01*
X150526Y91731D01*
X150028Y91790D01*
Y103144D01*
X134404Y118768D01*
X60173Y117890D01*
X60108Y117968D01*
X59984Y118592D01*
X59630Y119121D01*
X59101Y119475D01*
X58477Y119599D01*
X57853Y119475D01*
X57323Y119121D01*
X56970Y118592D01*
X56845Y117968D01*
X56750Y117850D01*
X52129Y117795D01*
X52035Y118268D01*
X51682Y118798D01*
X51152Y119151D01*
X50528Y119275D01*
X49904Y119151D01*
X49374Y118798D01*
X49021Y118268D01*
X48919Y117757D01*
X47628Y117742D01*
X47595Y117828D01*
X47544Y118241D01*
X47821Y118426D01*
X48017Y118719D01*
X46039D01*
X46235Y118426D01*
X46265Y118406D01*
X46149Y117882D01*
X45976Y117855D01*
X45321Y118510D01*
X44925Y119282D01*
X44476Y120958D01*
X44388Y122690D01*
X44668Y124403D01*
X45300Y126018D01*
X46259Y127464D01*
X47499Y128677D01*
X48968Y129602D01*
X49782Y129899D01*
X49782Y129899D01*
X60174Y129914D01*
X60397Y129644D01*
X60521Y129020D01*
X60874Y128490D01*
X61404Y128137D01*
X62028Y128013D01*
X62652Y128137D01*
X63182Y128490D01*
X63535Y129020D01*
X63659Y129644D01*
X63886Y129920D01*
X87590Y129955D01*
X87959Y129456D01*
X87897Y129144D01*
X88021Y128520D01*
X88375Y127990D01*
X88904Y127637D01*
X89528Y127513D01*
X90152Y127637D01*
X90681Y127990D01*
X91035Y128520D01*
X91159Y129144D01*
X91096Y129460D01*
X91462Y129961D01*
X92933Y129963D01*
X93021Y129520D01*
X93375Y128990D01*
X93904Y128637D01*
X94528Y128513D01*
X95152Y128637D01*
X95682Y128990D01*
X96035Y129520D01*
X96124Y129968D01*
X97405Y129970D01*
X97904Y129637D01*
X98528Y129513D01*
X99152Y129637D01*
X99655Y129973D01*
X123029Y130008D01*
X123374Y129490D01*
X123904Y129137D01*
X124528Y129013D01*
X125152Y129137D01*
X125681Y129490D01*
X126030Y130012D01*
X162503Y130066D01*
X162521Y129976D01*
X162874Y129446D01*
X163404Y129093D01*
X164028Y128969D01*
X164652Y129093D01*
X165182Y129446D01*
X165535Y129976D01*
X165554Y130071D01*
X214907Y130144D01*
X215411Y130144D01*
X216401Y129947D01*
D02*
G37*
G36*
X63133Y113508D02*
X63152Y113382D01*
X63184Y113256D01*
X63229Y113129D01*
X63288Y113001D01*
X63359Y112873D01*
X63444Y112744D01*
X63542Y112614D01*
X63654Y112484D01*
X63779Y112353D01*
X63319Y111893D01*
X63188Y112018D01*
X63058Y112129D01*
X62928Y112228D01*
X62799Y112313D01*
X62671Y112384D01*
X62543Y112443D01*
X62416Y112488D01*
X62290Y112520D01*
X62164Y112539D01*
X62039Y112544D01*
X63128Y113633D01*
X63133Y113508D01*
D02*
G37*
G36*
X115517Y108544D02*
X115392Y108539D01*
X115266Y108520D01*
X115140Y108488D01*
X115013Y108443D01*
X114885Y108385D01*
X114757Y108313D01*
X114628Y108228D01*
X114498Y108130D01*
X114368Y108018D01*
X114237Y107893D01*
X113777Y108353D01*
X113902Y108484D01*
X114014Y108614D01*
X114112Y108744D01*
X114197Y108873D01*
X114269Y109001D01*
X114327Y109129D01*
X114372Y109256D01*
X114404Y109382D01*
X114423Y109508D01*
X114428Y109633D01*
X115517Y108544D01*
D02*
G37*
G36*
X58063Y106616D02*
X58169Y106585D01*
X58292Y106558D01*
X58586Y106514D01*
X58946Y106485D01*
X59608Y106469D01*
X59714Y105819D01*
X59526Y105814D01*
X59355Y105799D01*
X59201Y105774D01*
X59062Y105738D01*
X58941Y105693D01*
X58835Y105638D01*
X58746Y105572D01*
X58674Y105497D01*
X58618Y105411D01*
X58578Y105315D01*
X57973Y106650D01*
X58063Y106616D01*
D02*
G37*
G36*
X57517Y104544D02*
X57392Y104539D01*
X57266Y104520D01*
X57140Y104488D01*
X57013Y104443D01*
X56885Y104385D01*
X56757Y104313D01*
X56628Y104228D01*
X56498Y104130D01*
X56368Y104018D01*
X56237Y103893D01*
X55777Y104353D01*
X55902Y104484D01*
X56014Y104614D01*
X56112Y104744D01*
X56197Y104873D01*
X56269Y105001D01*
X56327Y105129D01*
X56372Y105256D01*
X56404Y105382D01*
X56423Y105508D01*
X56428Y105633D01*
X57517Y104544D01*
D02*
G37*
G36*
X48906Y100329D02*
X49008Y100254D01*
X49120Y100187D01*
X49241Y100129D01*
X49373Y100080D01*
X49514Y100040D01*
X49666Y100009D01*
X49827Y99987D01*
X49998Y99973D01*
X50179Y99969D01*
Y99319D01*
X49998Y99314D01*
X49827Y99301D01*
X49666Y99279D01*
X49514Y99248D01*
X49373Y99208D01*
X49241Y99159D01*
X49120Y99101D01*
X49008Y99034D01*
X48906Y98959D01*
X48814Y98874D01*
Y100414D01*
X48906Y100329D01*
D02*
G37*
G36*
X47297Y98822D02*
X47197Y98902D01*
X47089Y98974D01*
X46972Y99037D01*
X46846Y99092D01*
X46711Y99139D01*
X46568Y99177D01*
X46415Y99206D01*
X46253Y99227D01*
X46083Y99240D01*
X45903Y99244D01*
X45857Y99894D01*
X46039Y99899D01*
X46210Y99913D01*
X46371Y99936D01*
X46521Y99968D01*
X46659Y100010D01*
X46788Y100061D01*
X46905Y100122D01*
X47011Y100191D01*
X47107Y100270D01*
X47192Y100359D01*
X47297Y98822D01*
D02*
G37*
G36*
X35613Y100087D02*
X35724Y100046D01*
X35844Y100011D01*
X35972Y99980D01*
X36257Y99932D01*
X36412Y99915D01*
X36933Y99894D01*
X37224Y99244D01*
X37037Y99239D01*
X36865Y99224D01*
X36710Y99198D01*
X36569Y99163D01*
X36444Y99117D01*
X36335Y99062D01*
X36240Y98996D01*
X36162Y98920D01*
X36098Y98834D01*
X36050Y98737D01*
X35511Y100132D01*
X35613Y100087D01*
D02*
G37*
G36*
X238785Y98652D02*
X238837Y98028D01*
X238882Y97751D01*
X238941Y97497D01*
X239012Y97266D01*
X239096Y97058D01*
X239194Y96873D01*
X239304Y96711D01*
X239428Y96572D01*
X236628D01*
X236752Y96711D01*
X236862Y96873D01*
X236960Y97058D01*
X237044Y97266D01*
X237116Y97497D01*
X237174Y97751D01*
X237220Y98028D01*
X237252Y98329D01*
X237278Y98998D01*
X238778D01*
X238785Y98652D01*
D02*
G37*
G36*
X71857Y97114D02*
X71871Y96943D01*
X71893Y96782D01*
X71924Y96630D01*
X71964Y96489D01*
X72013Y96357D01*
X72071Y96236D01*
X72138Y96124D01*
X72214Y96022D01*
X72298Y95930D01*
X70758D01*
X70843Y96022D01*
X70918Y96124D01*
X70985Y96236D01*
X71043Y96357D01*
X71092Y96489D01*
X71132Y96630D01*
X71163Y96782D01*
X71185Y96943D01*
X71199Y97114D01*
X71203Y97295D01*
X71853D01*
X71857Y97114D01*
D02*
G37*
G36*
X46133Y97508D02*
X46152Y97382D01*
X46184Y97256D01*
X46229Y97129D01*
X46288Y97001D01*
X46359Y96873D01*
X46444Y96744D01*
X46543Y96614D01*
X46654Y96484D01*
X46779Y96353D01*
X46319Y95893D01*
X46188Y96018D01*
X46058Y96130D01*
X45928Y96228D01*
X45799Y96313D01*
X45671Y96385D01*
X45543Y96443D01*
X45416Y96488D01*
X45290Y96520D01*
X45164Y96539D01*
X45039Y96544D01*
X46128Y97633D01*
X46133Y97508D01*
D02*
G37*
G36*
X239595Y96421D02*
X239757Y96310D01*
X239942Y96213D01*
X240150Y96128D01*
X240381Y96056D01*
X240635Y95998D01*
X240913Y95952D01*
X241213Y95920D01*
X241882Y95894D01*
Y94394D01*
X241536Y94388D01*
X240913Y94336D01*
X240635Y94290D01*
X240381Y94231D01*
X240150Y94160D01*
X239942Y94076D01*
X239757Y93978D01*
X239595Y93867D01*
X239456Y93744D01*
Y96544D01*
X239595Y96421D01*
D02*
G37*
G36*
X42633Y95008D02*
X42652Y94882D01*
X42684Y94756D01*
X42729Y94629D01*
X42788Y94501D01*
X42859Y94373D01*
X42944Y94244D01*
X43042Y94114D01*
X43154Y93984D01*
X43279Y93853D01*
X42819Y93393D01*
X42688Y93518D01*
X42558Y93629D01*
X42428Y93728D01*
X42299Y93813D01*
X42171Y93884D01*
X42043Y93943D01*
X41916Y93988D01*
X41790Y94020D01*
X41664Y94039D01*
X41539Y94044D01*
X42628Y95133D01*
X42633Y95008D01*
D02*
G37*
G36*
X58242Y90299D02*
X58150Y90384D01*
X58048Y90459D01*
X57936Y90526D01*
X57815Y90584D01*
X57683Y90633D01*
X57542Y90673D01*
X57390Y90704D01*
X57229Y90726D01*
X57058Y90740D01*
X56877Y90744D01*
Y91394D01*
X57058Y91399D01*
X57229Y91412D01*
X57390Y91434D01*
X57542Y91465D01*
X57683Y91505D01*
X57815Y91554D01*
X57936Y91612D01*
X58048Y91679D01*
X58150Y91754D01*
X58242Y91839D01*
Y90299D01*
D02*
G37*
G36*
X131017Y89044D02*
X130892Y89039D01*
X130766Y89020D01*
X130640Y88988D01*
X130513Y88943D01*
X130385Y88885D01*
X130257Y88813D01*
X130128Y88728D01*
X129998Y88630D01*
X129868Y88518D01*
X129737Y88393D01*
X129277Y88853D01*
X129402Y88984D01*
X129514Y89114D01*
X129612Y89244D01*
X129697Y89373D01*
X129769Y89501D01*
X129827Y89629D01*
X129872Y89756D01*
X129904Y89882D01*
X129923Y90008D01*
X129928Y90133D01*
X131017Y89044D01*
D02*
G37*
G36*
X108242Y88374D02*
X108150Y88459D01*
X108048Y88534D01*
X107936Y88601D01*
X107815Y88659D01*
X107683Y88708D01*
X107542Y88748D01*
X107390Y88779D01*
X107229Y88801D01*
X107058Y88815D01*
X106877Y88819D01*
Y89469D01*
X107058Y89473D01*
X107229Y89487D01*
X107390Y89509D01*
X107542Y89540D01*
X107683Y89580D01*
X107815Y89629D01*
X107936Y89687D01*
X108048Y89754D01*
X108150Y89829D01*
X108242Y89914D01*
Y88374D01*
D02*
G37*
G36*
X298123Y90825D02*
X297818Y90509D01*
X297305Y89911D01*
X297097Y89629D01*
X296921Y89358D01*
X296778Y89098D01*
X296667Y88849D01*
X296588Y88611D01*
X296542Y88385D01*
X296528Y88169D01*
X294053Y90644D01*
X294269Y90658D01*
X294495Y90704D01*
X294733Y90783D01*
X294982Y90894D01*
X295242Y91037D01*
X295513Y91213D01*
X295795Y91421D01*
X296393Y91934D01*
X296709Y92239D01*
X298123Y90825D01*
D02*
G37*
G36*
X51406Y81829D02*
X51508Y81754D01*
X51620Y81687D01*
X51741Y81629D01*
X51873Y81580D01*
X52014Y81540D01*
X52166Y81509D01*
X52327Y81487D01*
X52498Y81473D01*
X52679Y81469D01*
Y80819D01*
X52498Y80814D01*
X52327Y80801D01*
X52166Y80779D01*
X52014Y80748D01*
X51873Y80708D01*
X51741Y80659D01*
X51620Y80601D01*
X51508Y80534D01*
X51406Y80459D01*
X51314Y80374D01*
Y81914D01*
X51406Y81829D01*
D02*
G37*
G36*
X294629Y77756D02*
X294487Y77877D01*
X294323Y77986D01*
X294136Y78081D01*
X293926Y78164D01*
X293694Y78234D01*
X293439Y78292D01*
X293161Y78337D01*
X292860Y78369D01*
X292191Y78394D01*
X292158Y79894D01*
X292504Y79901D01*
X293127Y79953D01*
X293404Y80000D01*
X293657Y80059D01*
X293886Y80132D01*
X294093Y80218D01*
X294275Y80317D01*
X294435Y80430D01*
X294571Y80555D01*
X294629Y77756D01*
D02*
G37*
G36*
X58375Y66675D02*
X58267Y66635D01*
X58157Y66585D01*
X58044Y66526D01*
X57929Y66457D01*
X57691Y66290D01*
X57569Y66193D01*
X57316Y65969D01*
X57187Y65843D01*
X56532Y66108D01*
X56660Y66243D01*
X56771Y66375D01*
X56863Y66503D01*
X56938Y66628D01*
X56995Y66749D01*
X57033Y66867D01*
X57054Y66981D01*
X57057Y67092D01*
X57043Y67199D01*
X57010Y67302D01*
X58375Y66675D01*
D02*
G37*
G36*
X110906Y64829D02*
X111008Y64754D01*
X111120Y64687D01*
X111241Y64629D01*
X111373Y64580D01*
X111514Y64540D01*
X111666Y64509D01*
X111827Y64487D01*
X111998Y64473D01*
X112179Y64469D01*
Y63819D01*
X111998Y63815D01*
X111827Y63801D01*
X111666Y63779D01*
X111514Y63748D01*
X111373Y63708D01*
X111241Y63659D01*
X111120Y63601D01*
X111008Y63534D01*
X110906Y63459D01*
X110814Y63374D01*
Y64914D01*
X110906Y64829D01*
D02*
G37*
G36*
X59292Y64067D02*
X59217Y63965D01*
X59150Y63854D01*
X59092Y63732D01*
X59043Y63600D01*
X59003Y63459D01*
X58972Y63307D01*
X58950Y63146D01*
X58936Y62975D01*
X58932Y62794D01*
X58282D01*
X58277Y62975D01*
X58264Y63146D01*
X58242Y63307D01*
X58211Y63459D01*
X58170Y63600D01*
X58122Y63732D01*
X58064Y63854D01*
X57997Y63965D01*
X57921Y64067D01*
X57837Y64160D01*
X59377D01*
X59292Y64067D01*
D02*
G37*
G36*
X74063Y62220D02*
X73935Y62085D01*
X73825Y61953D01*
X73732Y61824D01*
X73656Y61698D01*
X73598Y61575D01*
X73557Y61456D01*
X73533Y61339D01*
X73527Y61226D01*
X73538Y61115D01*
X73566Y61008D01*
X72208Y61697D01*
X72327Y61737D01*
X72447Y61787D01*
X72568Y61846D01*
X72689Y61914D01*
X72935Y62077D01*
X73060Y62173D01*
X73311Y62391D01*
X73438Y62514D01*
X74063Y62220D01*
D02*
G37*
G36*
X83406Y61829D02*
X83508Y61754D01*
X83620Y61687D01*
X83741Y61629D01*
X83873Y61580D01*
X84014Y61540D01*
X84166Y61509D01*
X84327Y61487D01*
X84498Y61474D01*
X84679Y61469D01*
Y60819D01*
X84498Y60814D01*
X84327Y60801D01*
X84166Y60779D01*
X84014Y60748D01*
X83873Y60708D01*
X83741Y60659D01*
X83620Y60601D01*
X83508Y60534D01*
X83406Y60459D01*
X83314Y60374D01*
Y61914D01*
X83406Y61829D01*
D02*
G37*
G36*
X121561Y57094D02*
X121575Y56933D01*
X121599Y56786D01*
X121632Y56651D01*
X121674Y56530D01*
X121726Y56423D01*
X121788Y56328D01*
X121858Y56247D01*
X121939Y56178D01*
X122028Y56124D01*
X120592Y55722D01*
X120652Y55828D01*
X120705Y55942D01*
X120752Y56064D01*
X120793Y56195D01*
X120828Y56334D01*
X120856Y56481D01*
X120894Y56800D01*
X120903Y56972D01*
X120906Y57152D01*
X121556Y57269D01*
X121561Y57094D01*
D02*
G37*
G36*
X75406Y50829D02*
X75508Y50754D01*
X75620Y50687D01*
X75741Y50629D01*
X75873Y50580D01*
X76014Y50540D01*
X76166Y50509D01*
X76327Y50487D01*
X76498Y50473D01*
X76679Y50469D01*
Y49819D01*
X76498Y49815D01*
X76327Y49801D01*
X76166Y49779D01*
X76014Y49748D01*
X75873Y49708D01*
X75741Y49659D01*
X75620Y49601D01*
X75508Y49534D01*
X75406Y49459D01*
X75314Y49374D01*
Y50914D01*
X75406Y50829D01*
D02*
G37*
G36*
X98713Y50211D02*
X98638Y50109D01*
X98571Y49997D01*
X98513Y49875D01*
X98464Y49744D01*
X98424Y49602D01*
X98393Y49451D01*
X98371Y49290D01*
X98357Y49119D01*
X98353Y48938D01*
X97703D01*
X97699Y49119D01*
X97685Y49290D01*
X97663Y49451D01*
X97632Y49602D01*
X97592Y49744D01*
X97543Y49875D01*
X97485Y49997D01*
X97418Y50109D01*
X97343Y50211D01*
X97258Y50303D01*
X98798D01*
X98713Y50211D01*
D02*
G37*
G36*
X93409Y49465D02*
X93352Y49341D01*
X93301Y49212D01*
X93257Y49076D01*
X93220Y48933D01*
X93189Y48785D01*
X93148Y48468D01*
X93138Y48301D01*
X93135Y48127D01*
X92485Y47945D01*
X92480Y48130D01*
X92465Y48301D01*
X92440Y48459D01*
X92405Y48604D01*
X92360Y48735D01*
X92305Y48852D01*
X92240Y48956D01*
X92165Y49047D01*
X92080Y49124D01*
X91985Y49187D01*
X93474Y49582D01*
X93409Y49465D01*
D02*
G37*
G36*
X91633Y45508D02*
X91652Y45382D01*
X91684Y45256D01*
X91729Y45129D01*
X91787Y45001D01*
X91859Y44873D01*
X91944Y44744D01*
X92042Y44614D01*
X92154Y44484D01*
X92279Y44353D01*
X91819Y43893D01*
X91688Y44018D01*
X91558Y44130D01*
X91428Y44228D01*
X91299Y44313D01*
X91171Y44385D01*
X91043Y44443D01*
X90916Y44488D01*
X90790Y44520D01*
X90664Y44539D01*
X90539Y44544D01*
X91628Y45633D01*
X91633Y45508D01*
D02*
G37*
G36*
X102868Y27270D02*
X102998Y27158D01*
X103128Y27060D01*
X103257Y26975D01*
X103385Y26904D01*
X103513Y26845D01*
X103640Y26800D01*
X103766Y26768D01*
X103892Y26749D01*
X104017Y26744D01*
X102928Y25655D01*
X102923Y25780D01*
X102904Y25906D01*
X102872Y26032D01*
X102827Y26159D01*
X102769Y26287D01*
X102697Y26415D01*
X102612Y26544D01*
X102514Y26674D01*
X102402Y26804D01*
X102277Y26935D01*
X102737Y27395D01*
X102868Y27270D01*
D02*
G37*
G36*
X50107Y26657D02*
X50122Y26485D01*
X50147Y26327D01*
X50182Y26182D01*
X50226Y26049D01*
X50281Y25930D01*
X50345Y25824D01*
X50420Y25731D01*
X50504Y25651D01*
X50599Y25584D01*
X49099Y25233D01*
X49166Y25348D01*
X49226Y25469D01*
X49279Y25597D01*
X49325Y25732D01*
X49364Y25874D01*
X49396Y26022D01*
X49420Y26177D01*
X49449Y26506D01*
X49452Y26681D01*
X50102Y26842D01*
X50107Y26657D01*
D02*
G37*
G36*
X72707Y15363D02*
X72619Y15449D01*
X72520Y15527D01*
X72411Y15595D01*
X72292Y15655D01*
X72162Y15705D01*
X72022Y15746D01*
X71872Y15778D01*
X71711Y15801D01*
X71540Y15814D01*
X71358Y15819D01*
X71384Y16469D01*
X71564Y16473D01*
X71896Y16508D01*
X72048Y16538D01*
X72191Y16577D01*
X72325Y16625D01*
X72449Y16681D01*
X72563Y16746D01*
X72669Y16819D01*
X72765Y16902D01*
X72707Y15363D01*
D02*
G37*
G36*
X119857Y16114D02*
X119871Y15943D01*
X119893Y15782D01*
X119924Y15630D01*
X119964Y15489D01*
X120013Y15357D01*
X120071Y15236D01*
X120138Y15124D01*
X120213Y15022D01*
X120298Y14930D01*
X118758Y14930D01*
X118842Y15022D01*
X118918Y15124D01*
X118985Y15236D01*
X119043Y15357D01*
X119092Y15489D01*
X119132Y15630D01*
X119163Y15782D01*
X119185Y15943D01*
X119199Y16114D01*
X119203Y16295D01*
X119853Y16295D01*
X119857Y16114D01*
D02*
G37*
G36*
X123136Y15874D02*
X123389Y15661D01*
X123515Y15569D01*
X123769Y15412D01*
X123897Y15349D01*
X124025Y15294D01*
X124153Y15250D01*
X124282Y15214D01*
X122963Y14419D01*
X122984Y14532D01*
X122988Y14648D01*
X122976Y14765D01*
X122947Y14885D01*
X122902Y15008D01*
X122841Y15133D01*
X122763Y15260D01*
X122668Y15389D01*
X122558Y15521D01*
X122431Y15655D01*
X123010Y15995D01*
X123136Y15874D01*
D02*
G37*
G36*
X132391Y15746D02*
X132647Y15534D01*
X132770Y15449D01*
X132890Y15379D01*
X133007Y15323D01*
X133121Y15281D01*
X133231Y15253D01*
X133338Y15240D01*
X133442Y15241D01*
X132431Y14230D01*
X132432Y14333D01*
X132419Y14441D01*
X132391Y14551D01*
X132349Y14665D01*
X132293Y14782D01*
X132223Y14902D01*
X132138Y15025D01*
X132039Y15151D01*
X131926Y15281D01*
X131798Y15414D01*
X132258Y15874D01*
X132391Y15746D01*
D02*
G37*
%LPC*%
G36*
X213528Y129133D02*
Y128644D01*
X214017D01*
X213821Y128937D01*
X213528Y129133D01*
D02*
G37*
G36*
X212528D02*
X212235Y128937D01*
X212039Y128644D01*
X212528D01*
Y129133D01*
D02*
G37*
G36*
X214017Y127644D02*
X213528D01*
Y127155D01*
X213821Y127351D01*
X214017Y127644D01*
D02*
G37*
G36*
X212528D02*
X212039D01*
X212235Y127351D01*
X212528Y127155D01*
Y127644D01*
D02*
G37*
G36*
X143028Y126133D02*
Y125644D01*
X143517D01*
X143321Y125937D01*
X143028Y126133D01*
D02*
G37*
G36*
X142028D02*
X141735Y125937D01*
X141539Y125644D01*
X142028D01*
Y126133D01*
D02*
G37*
G36*
X143517Y124644D02*
X143028D01*
Y124155D01*
X143321Y124351D01*
X143517Y124644D01*
D02*
G37*
G36*
X142028D02*
X141539D01*
X141735Y124351D01*
X142028Y124155D01*
Y124644D01*
D02*
G37*
G36*
X73528Y123133D02*
Y122644D01*
X74017D01*
X73821Y122937D01*
X73528Y123133D01*
D02*
G37*
G36*
X72528D02*
X72235Y122937D01*
X72039Y122644D01*
X72528D01*
Y123133D01*
D02*
G37*
G36*
X126000Y128526D02*
X125217Y128423D01*
X124487Y128121D01*
X123860Y127640D01*
X123380Y127013D01*
X123077Y126283D01*
X122974Y125500D01*
X123077Y124717D01*
X123380Y123987D01*
X123860Y123360D01*
X124487Y122880D01*
X125217Y122577D01*
X126000Y122474D01*
X126783Y122577D01*
X127513Y122880D01*
X128140Y123360D01*
X128621Y123987D01*
X128923Y124717D01*
X129026Y125500D01*
X128923Y126283D01*
X128621Y127013D01*
X128140Y127640D01*
X127513Y128121D01*
X126783Y128423D01*
X126000Y128526D01*
D02*
G37*
G36*
X164096Y125055D02*
X163471Y124931D01*
X162942Y124577D01*
X162588Y124048D01*
X162464Y123424D01*
X162588Y122800D01*
X162942Y122271D01*
X163471Y121917D01*
X164096Y121793D01*
X164720Y121917D01*
X165249Y122271D01*
X165603Y122800D01*
X165727Y123424D01*
X165603Y124048D01*
X165249Y124577D01*
X164720Y124931D01*
X164096Y125055D01*
D02*
G37*
G36*
X117028Y123281D02*
X116404Y123157D01*
X115875Y122803D01*
X115521Y122274D01*
X115425Y121791D01*
X114915D01*
X114875Y121992D01*
X114819Y122274D01*
X114465Y122803D01*
X113936Y123157D01*
X113312Y123281D01*
X112687Y123157D01*
X112158Y122803D01*
X111804Y122274D01*
X111680Y121650D01*
X111804Y121026D01*
X112158Y120496D01*
X112687Y120143D01*
X113312Y120019D01*
X113936Y120143D01*
X114465Y120496D01*
X114819Y121026D01*
X114915Y121509D01*
X115425D01*
X115465Y121308D01*
X115521Y121026D01*
X115875Y120496D01*
X116404Y120143D01*
X117028Y120019D01*
X117652Y120143D01*
X118182Y120496D01*
X118535Y121026D01*
X118659Y121650D01*
X118535Y122274D01*
X118182Y122803D01*
X117652Y123157D01*
X117028Y123281D01*
D02*
G37*
G36*
X77028Y124775D02*
X76404Y124651D01*
X75875Y124297D01*
X75521Y123768D01*
X75397Y123144D01*
X75521Y122520D01*
X75875Y121991D01*
X76404Y121637D01*
X77028Y121513D01*
X77652Y121637D01*
X78181Y121991D01*
X78535Y122520D01*
X78659Y123144D01*
X78535Y123768D01*
X78181Y124297D01*
X77652Y124651D01*
X77028Y124775D01*
D02*
G37*
G36*
X74017Y121644D02*
X73528D01*
Y121155D01*
X73821Y121351D01*
X74017Y121644D01*
D02*
G37*
G36*
X72528D02*
X72039D01*
X72235Y121351D01*
X72528Y121155D01*
Y121644D01*
D02*
G37*
G36*
X81028Y121633D02*
Y121144D01*
X81517D01*
X81321Y121437D01*
X81028Y121633D01*
D02*
G37*
G36*
X80028D02*
X79735Y121437D01*
X79539Y121144D01*
X80028D01*
Y121633D01*
D02*
G37*
G36*
X106553Y121436D02*
X106260Y121240D01*
X106064Y120947D01*
X106553D01*
Y121436D01*
D02*
G37*
G36*
X61894Y123910D02*
X61269Y123786D01*
X60740Y123432D01*
X60386Y122903D01*
X60262Y122278D01*
X60386Y121654D01*
X60740Y121125D01*
X61269Y120771D01*
X61894Y120647D01*
X62518Y120771D01*
X63047Y121125D01*
X63401Y121654D01*
X63525Y122278D01*
X63401Y122903D01*
X63047Y123432D01*
X62518Y123786D01*
X61894Y123910D01*
D02*
G37*
G36*
X109528Y123281D02*
X108904Y123157D01*
X108375Y122803D01*
X108021Y122274D01*
X107924Y121789D01*
X107573Y121546D01*
X107553Y121539D01*
Y120447D01*
Y119458D01*
X107846Y119654D01*
X108089Y120018D01*
X108101Y120078D01*
X108657Y120308D01*
X108904Y120143D01*
X109528Y120019D01*
X110152Y120143D01*
X110681Y120496D01*
X111035Y121026D01*
X111159Y121650D01*
X111035Y122274D01*
X110681Y122803D01*
X110152Y123157D01*
X109528Y123281D01*
D02*
G37*
G36*
X47528Y120208D02*
Y119719D01*
X48017D01*
X47821Y120012D01*
X47528Y120208D01*
D02*
G37*
G36*
X46528D02*
X46235Y120012D01*
X46039Y119719D01*
X46528D01*
Y120208D01*
D02*
G37*
G36*
X81517Y120144D02*
X81028D01*
Y119655D01*
X81321Y119851D01*
X81517Y120144D01*
D02*
G37*
G36*
X80028D02*
X79539D01*
X79735Y119851D01*
X80028Y119655D01*
Y120144D01*
D02*
G37*
G36*
X106553Y119947D02*
X106064D01*
X106260Y119654D01*
X106553Y119458D01*
Y119947D01*
D02*
G37*
G36*
X149028Y122275D02*
X148404Y122151D01*
X147874Y121798D01*
X147521Y121268D01*
X147397Y120644D01*
X147521Y120020D01*
X147874Y119491D01*
X148404Y119137D01*
X149028Y119013D01*
X149652Y119137D01*
X150181Y119491D01*
X150535Y120020D01*
X150659Y120644D01*
X150535Y121268D01*
X150181Y121798D01*
X149652Y122151D01*
X149028Y122275D01*
D02*
G37*
G36*
X147528Y117633D02*
Y117144D01*
X148017D01*
X147821Y117437D01*
X147528Y117633D01*
D02*
G37*
G36*
X146528D02*
X146235Y117437D01*
X146039Y117144D01*
X146528D01*
Y117633D01*
D02*
G37*
G36*
X148017Y116144D02*
X147528D01*
Y115655D01*
X147821Y115851D01*
X148017Y116144D01*
D02*
G37*
G36*
X146528D02*
X146039D01*
X146235Y115851D01*
X146528Y115655D01*
Y116144D01*
D02*
G37*
G36*
X164420Y117775D02*
X163795Y117651D01*
X163266Y117298D01*
X162912Y116769D01*
X162788Y116144D01*
X162912Y115520D01*
X163266Y114991D01*
X163795Y114637D01*
X164420Y114513D01*
X165044Y114637D01*
X165573Y114991D01*
X165927Y115520D01*
X166051Y116144D01*
X165927Y116769D01*
X165573Y117298D01*
X165044Y117651D01*
X164420Y117775D01*
D02*
G37*
G36*
X179028Y117775D02*
X178404Y117651D01*
X177875Y117297D01*
X177521Y116768D01*
X177397Y116144D01*
X177521Y115520D01*
X177875Y114990D01*
X178404Y114637D01*
X179028Y114513D01*
X179652Y114637D01*
X180182Y114990D01*
X180535Y115520D01*
X180659Y116144D01*
X180535Y116768D01*
X180182Y117297D01*
X179652Y117651D01*
X179028Y117775D01*
D02*
G37*
G36*
X175528Y108633D02*
Y108144D01*
X176017D01*
X175821Y108437D01*
X175528Y108633D01*
D02*
G37*
G36*
X174528D02*
X174235Y108437D01*
X174039Y108144D01*
X174528D01*
Y108633D01*
D02*
G37*
G36*
X193028Y110275D02*
X192404Y110151D01*
X191875Y109798D01*
X191521Y109268D01*
X191397Y108644D01*
X191521Y108020D01*
X191875Y107491D01*
X192404Y107137D01*
X193028Y107013D01*
X193652Y107137D01*
X194182Y107491D01*
X194535Y108020D01*
X194659Y108644D01*
X194535Y109268D01*
X194182Y109798D01*
X193652Y110151D01*
X193028Y110275D01*
D02*
G37*
G36*
X176017Y107144D02*
X175528D01*
Y106655D01*
X175821Y106851D01*
X176017Y107144D01*
D02*
G37*
G36*
X174528D02*
X174039D01*
X174235Y106851D01*
X174528Y106655D01*
Y107144D01*
D02*
G37*
G36*
X209528Y101775D02*
X208904Y101651D01*
X208375Y101297D01*
X208021Y100768D01*
X207897Y100144D01*
X208021Y99520D01*
X208375Y98990D01*
X208904Y98637D01*
X209528Y98513D01*
X210152Y98637D01*
X210682Y98990D01*
X211035Y99520D01*
X211159Y100144D01*
X211035Y100768D01*
X210682Y101297D01*
X210152Y101651D01*
X209528Y101775D01*
D02*
G37*
G36*
X172139Y100886D02*
X171515Y100762D01*
X170986Y100409D01*
X170632Y99879D01*
X170508Y99255D01*
X170632Y98631D01*
X170986Y98102D01*
X171515Y97748D01*
X172139Y97624D01*
X172764Y97748D01*
X173293Y98102D01*
X173646Y98631D01*
X173770Y99255D01*
X173646Y99879D01*
X173293Y100409D01*
X172764Y100762D01*
X172139Y100886D01*
D02*
G37*
G36*
X177028Y95275D02*
X176404Y95151D01*
X175874Y94797D01*
X175521Y94268D01*
X175397Y93644D01*
X175521Y93020D01*
X175793Y92613D01*
X175508Y92180D01*
X175028Y92275D01*
X174404Y92151D01*
X173874Y91798D01*
X173616Y91411D01*
X173092Y91481D01*
X173035Y91768D01*
X172681Y92298D01*
X172152Y92651D01*
X171528Y92775D01*
X170904Y92651D01*
X170375Y92298D01*
X170021Y91768D01*
X169897Y91144D01*
X170021Y90520D01*
X170375Y89991D01*
X170904Y89637D01*
X171528Y89513D01*
X172152Y89637D01*
X172681Y89991D01*
X172940Y90377D01*
X173464Y90307D01*
X173521Y90020D01*
X173874Y89490D01*
X174404Y89137D01*
X175028Y89013D01*
X175652Y89137D01*
X176181Y89490D01*
X176535Y90020D01*
X176659Y90644D01*
X176535Y91268D01*
X176263Y91675D01*
X176548Y92108D01*
X177028Y92013D01*
X177652Y92137D01*
X178182Y92491D01*
X178535Y93020D01*
X178659Y93644D01*
X178535Y94268D01*
X178182Y94797D01*
X177652Y95151D01*
X177028Y95275D01*
D02*
G37*
G36*
X183028Y92275D02*
X182404Y92151D01*
X181875Y91798D01*
X181521Y91268D01*
X181397Y90644D01*
X181521Y90020D01*
X181875Y89490D01*
X182404Y89137D01*
X183028Y89013D01*
X183652Y89137D01*
X184181Y89490D01*
X184535Y90020D01*
X184659Y90644D01*
X184535Y91268D01*
X184181Y91798D01*
X183652Y92151D01*
X183028Y92275D01*
D02*
G37*
G36*
X168528Y85633D02*
Y85144D01*
X169017D01*
X168821Y85437D01*
X168528Y85633D01*
D02*
G37*
G36*
X167528D02*
X167235Y85437D01*
X167039Y85144D01*
X167528D01*
Y85633D01*
D02*
G37*
G36*
X169017Y84144D02*
X168528D01*
Y83655D01*
X168821Y83851D01*
X169017Y84144D01*
D02*
G37*
G36*
X167528D02*
X167039D01*
X167235Y83851D01*
X167528Y83655D01*
Y84144D01*
D02*
G37*
G36*
X187528Y84275D02*
X186904Y84151D01*
X186374Y83798D01*
X186021Y83268D01*
X185897Y82644D01*
X186021Y82020D01*
X186374Y81490D01*
X186904Y81137D01*
X187528Y81013D01*
X188152Y81137D01*
X188681Y81490D01*
X189035Y82020D01*
X189159Y82644D01*
X189035Y83268D01*
X188681Y83798D01*
X188152Y84151D01*
X187528Y84275D01*
D02*
G37*
G36*
X173028Y76275D02*
X172404Y76151D01*
X171874Y75797D01*
X171778Y75653D01*
X171278D01*
X171181Y75797D01*
X170652Y76151D01*
X170028Y76275D01*
X169404Y76151D01*
X168875Y75797D01*
X168521Y75268D01*
X168397Y74644D01*
X168521Y74020D01*
X168875Y73491D01*
X169404Y73137D01*
X170028Y73013D01*
X170652Y73137D01*
X171181Y73491D01*
X171278Y73635D01*
X171778D01*
X171874Y73491D01*
X172404Y73137D01*
X173028Y73013D01*
X173652Y73137D01*
X174181Y73491D01*
X174535Y74020D01*
X174659Y74644D01*
X174535Y75268D01*
X174181Y75797D01*
X173652Y76151D01*
X173028Y76275D01*
D02*
G37*
G36*
X201028Y55775D02*
X200404Y55651D01*
X199874Y55297D01*
X199521Y54768D01*
X199397Y54144D01*
X199521Y53520D01*
X199874Y52991D01*
X200404Y52637D01*
X201028Y52513D01*
X201652Y52637D01*
X202182Y52991D01*
X202535Y53520D01*
X202659Y54144D01*
X202535Y54768D01*
X202182Y55297D01*
X201652Y55651D01*
X201028Y55775D01*
D02*
G37*
G36*
X161000Y42131D02*
X160376Y42007D01*
X159846Y41653D01*
X159493Y41124D01*
X159369Y40500D01*
X159493Y39876D01*
X159846Y39347D01*
X160376Y38993D01*
X161000Y38869D01*
X161624Y38993D01*
X162153Y39347D01*
X162507Y39876D01*
X162631Y40500D01*
X162507Y41124D01*
X162153Y41653D01*
X161624Y42007D01*
X161000Y42131D01*
D02*
G37*
G36*
X94383Y24966D02*
Y24477D01*
X94872D01*
X94676Y24770D01*
X94383Y24966D01*
D02*
G37*
G36*
X93383D02*
X93090Y24770D01*
X92894Y24477D01*
X93383D01*
Y24966D01*
D02*
G37*
G36*
X94872Y23477D02*
X94383D01*
Y22988D01*
X94676Y23184D01*
X94872Y23477D01*
D02*
G37*
G36*
X93383D02*
X92894D01*
X93090Y23184D01*
X93383Y22988D01*
Y23477D01*
D02*
G37*
G36*
X101528Y22275D02*
X100904Y22151D01*
X100374Y21798D01*
X100021Y21268D01*
X99897Y20644D01*
X100021Y20020D01*
X100374Y19490D01*
X100904Y19137D01*
X101528Y19013D01*
X102152Y19137D01*
X102682Y19490D01*
X103035Y20020D01*
X103159Y20644D01*
X103035Y21268D01*
X102682Y21798D01*
X102152Y22151D01*
X101528Y22275D01*
D02*
G37*
G36*
X164528Y20775D02*
X163904Y20651D01*
X163374Y20298D01*
X163021Y19768D01*
X162897Y19144D01*
X163021Y18520D01*
X163374Y17990D01*
X163904Y17637D01*
X164528Y17513D01*
X165152Y17637D01*
X165682Y17990D01*
X166035Y18520D01*
X166159Y19144D01*
X166035Y19768D01*
X165682Y20298D01*
X165152Y20651D01*
X164528Y20775D01*
D02*
G37*
G36*
X149528D02*
X148904Y20651D01*
X148374Y20298D01*
X148021Y19768D01*
X147897Y19144D01*
X148021Y18520D01*
X148374Y17990D01*
X148904Y17637D01*
X149528Y17513D01*
X150152Y17637D01*
X150681Y17990D01*
X151035Y18520D01*
X151159Y19144D01*
X151035Y19768D01*
X150681Y20298D01*
X150152Y20651D01*
X149528Y20775D01*
D02*
G37*
G36*
X84500Y18131D02*
X83876Y18007D01*
X83346Y17653D01*
X83011Y17152D01*
X82798Y17124D01*
X82702D01*
X82489Y17152D01*
X82153Y17653D01*
X81624Y18007D01*
X81000Y18131D01*
X80376Y18007D01*
X79847Y17653D01*
X79493Y17124D01*
X79369Y16500D01*
X79493Y15876D01*
X79847Y15347D01*
X80376Y14993D01*
X81000Y14869D01*
X81624Y14993D01*
X82153Y15347D01*
X82489Y15848D01*
X82702Y15876D01*
X82798D01*
X83011Y15848D01*
X83346Y15347D01*
X83876Y14993D01*
X84500Y14869D01*
X85124Y14993D01*
X85654Y15347D01*
X86007Y15876D01*
X86131Y16500D01*
X86007Y17124D01*
X85654Y17653D01*
X85124Y18007D01*
X84500Y18131D01*
D02*
G37*
G36*
X156528Y7633D02*
Y7144D01*
X157017D01*
X156821Y7437D01*
X156528Y7633D01*
D02*
G37*
G36*
X155528D02*
X155235Y7437D01*
X155039Y7144D01*
X155528D01*
Y7633D01*
D02*
G37*
G36*
X176528Y7133D02*
Y6644D01*
X177017D01*
X176821Y6937D01*
X176528Y7133D01*
D02*
G37*
G36*
X175528D02*
X175235Y6937D01*
X175039Y6644D01*
X175528D01*
Y7133D01*
D02*
G37*
G36*
X157017Y6144D02*
X156528D01*
Y5655D01*
X156821Y5851D01*
X157017Y6144D01*
D02*
G37*
G36*
X155528D02*
X155039D01*
X155235Y5851D01*
X155528Y5655D01*
Y6144D01*
D02*
G37*
G36*
X177017Y5644D02*
X176528D01*
Y5155D01*
X176821Y5351D01*
X177017Y5644D01*
D02*
G37*
G36*
X175528D02*
X175039D01*
X175235Y5351D01*
X175528Y5155D01*
Y5644D01*
D02*
G37*
G36*
X58028Y5133D02*
Y4644D01*
X58517D01*
X58321Y4937D01*
X58028Y5133D01*
D02*
G37*
G36*
X84500Y2989D02*
Y2500D01*
X84989D01*
X84793Y2793D01*
X84500Y2989D01*
D02*
G37*
G36*
X83500D02*
X83207Y2793D01*
X83011Y2500D01*
X83500D01*
Y2989D01*
D02*
G37*
%LPD*%
D106*
X110028Y64144D02*
X114356D01*
X121231Y55441D02*
Y57269D01*
X114356Y64144D02*
X121231Y57269D01*
X63028Y16144D02*
X73479D01*
X73521Y16102D01*
X48028Y99644D02*
X51528D01*
X53028Y94144D02*
X56103Y91069D01*
X59028D01*
X45028Y97644D02*
X48528Y94144D01*
X53028D01*
X47953Y99569D02*
X48028Y99644D01*
X51528D02*
X57528Y105644D01*
X47528Y89144D02*
X109028D01*
X41528Y95144D02*
X47528Y89144D01*
X35453Y99569D02*
X47953D01*
X35028Y99144D02*
X35453Y99569D01*
X71528Y95144D02*
Y102144D01*
X58447Y106144D02*
X67528D01*
X71528Y102144D01*
X68528Y107144D02*
X113028D01*
X62028Y113644D02*
X68528Y107144D01*
X113028D02*
X115528Y109644D01*
X57528Y105644D02*
X57947D01*
X58447Y106144D01*
X98028Y42866D02*
Y51089D01*
X58028Y67144D02*
Y67719D01*
X79528Y50144D02*
X104028Y25644D01*
X74528Y50144D02*
X79528D01*
X90528Y45644D02*
X119528Y16644D01*
Y14144D02*
Y16644D01*
Y14144D02*
X119528Y14144D01*
X121231Y55441D02*
X121528Y55144D01*
X54028Y25144D02*
Y49644D01*
Y25144D02*
X63028Y16144D01*
X54028Y49644D02*
X58607Y54223D01*
X124028Y14144D02*
Y14518D01*
X92810Y45736D02*
X124028Y14518D01*
X98028Y42866D02*
X125250Y15644D01*
X132028D01*
X92810Y45736D02*
Y49862D01*
X92528Y50144D02*
X92810Y49862D01*
X132028Y15644D02*
X133528Y14144D01*
X58607Y54223D02*
Y64945D01*
X90806Y61144D02*
X116103Y86441D01*
X82528Y61144D02*
X90806D01*
X116103Y86441D02*
Y86441D01*
X129103Y88219D02*
X131028Y90144D01*
X117881Y88219D02*
X129103D01*
X116103Y86441D02*
X117881Y88219D01*
X49777Y58893D02*
X58028Y67144D01*
X49777Y25144D02*
Y58893D01*
Y25144D02*
X49890Y25031D01*
X72528Y84144D02*
X79528Y77144D01*
X50528Y81144D02*
X56528D01*
X79528Y68144D02*
Y77144D01*
X72528Y60644D02*
Y61144D01*
X59528Y84144D02*
X72528D01*
Y61144D02*
X79528Y68144D01*
X56528Y81144D02*
X59528Y84144D01*
D107*
X238028Y135144D02*
X242335Y139451D01*
X275616Y79144D02*
X296528D01*
X19028Y90273D02*
Y123144D01*
Y90273D02*
X19050Y90251D01*
X19028Y123144D02*
X32528Y136644D01*
X19050Y88622D02*
Y90251D01*
Y88622D02*
X19528Y88144D01*
X32528Y136644D02*
X66028D01*
X172036Y152652D02*
X215979D01*
X153528Y134144D02*
X172036Y152652D01*
X68528Y134144D02*
X153528D01*
X66028Y136644D02*
X68528Y134144D01*
X238028Y95144D02*
Y135144D01*
Y95144D02*
X259616D01*
X275616Y79144D01*
D108*
X216487Y152144D02*
X217028Y151603D01*
X215979Y152652D02*
X216487Y152144D01*
X218528D01*
X224028Y146644D01*
X294028Y88144D02*
X299528Y93644D01*
Y134644D01*
X255372Y146644D02*
X267372Y134644D01*
X224028Y146644D02*
X255372D01*
X267372Y134644D02*
X299528D01*
D110*
X128028Y29644D02*
D03*
D111*
X357926Y-4306D02*
D03*
Y29749D02*
D03*
X358426Y115694D02*
D03*
Y149749D02*
D03*
D112*
X373674Y-4306D02*
D03*
Y29749D02*
D03*
X374174Y115694D02*
D03*
Y149749D02*
D03*
D113*
X359894Y24100D02*
D03*
Y1344D02*
D03*
X360394Y144100D02*
D03*
Y121344D02*
D03*
D114*
X117028Y64644D02*
D03*
X20500Y77000D02*
D03*
X107053Y120447D02*
D03*
X161000Y40500D02*
D03*
X109953Y45925D02*
D03*
X99500Y109500D02*
D03*
X96000D02*
D03*
X104000Y109341D02*
D03*
X109528Y121650D02*
D03*
X113312D02*
D03*
X117028D02*
D03*
X164028Y130600D02*
D03*
X84000Y2000D02*
D03*
X76528Y1144D02*
D03*
X73521Y16102D02*
D03*
X76992Y16350D02*
D03*
X84500Y16500D02*
D03*
X81000D02*
D03*
X352000Y149000D02*
D03*
X351000Y116500D02*
D03*
X351500Y-3500D02*
D03*
X207028Y140644D02*
D03*
X103953Y44144D02*
D03*
X106028Y49644D02*
D03*
X333528Y152644D02*
D03*
X93528Y5644D02*
D03*
X88528Y3144D02*
D03*
X93146Y2135D02*
D03*
X64028Y-4356D02*
D03*
X212528Y4144D02*
D03*
X222528Y13144D02*
D03*
X233028Y35144D02*
D03*
X266528Y12144D02*
D03*
X267028Y-2356D02*
D03*
X266937Y1209D02*
D03*
X267528Y5644D02*
D03*
X50528Y117644D02*
D03*
X296028Y70644D02*
D03*
Y37144D02*
D03*
X339528Y58144D02*
D03*
X331028Y115644D02*
D03*
X338677Y113010D02*
D03*
X323528Y110144D02*
D03*
X324028Y99144D02*
D03*
Y93644D02*
D03*
X339028Y52144D02*
D03*
X324028Y66144D02*
D03*
X339528Y64144D02*
D03*
X335528Y5644D02*
D03*
Y11644D02*
D03*
X350528Y28144D02*
D03*
X144740Y103644D02*
D03*
X59389Y108283D02*
D03*
X60028Y111644D02*
D03*
X62028Y129644D02*
D03*
X32528Y150144D02*
D03*
X18028Y128144D02*
D03*
X48028Y99644D02*
D03*
X61894Y122278D02*
D03*
X47028Y119219D02*
D03*
X57028Y97144D02*
D03*
X59028Y91069D02*
D03*
X50941Y91855D02*
D03*
X57199Y87069D02*
D03*
X48878D02*
D03*
X46917Y76755D02*
D03*
X59528Y152644D02*
D03*
X51528D02*
D03*
X63028D02*
D03*
X80528Y149144D02*
D03*
X124528Y130644D02*
D03*
X113028Y139644D02*
D03*
X131028Y137144D02*
D03*
X34528Y78144D02*
D03*
X39417Y78755D02*
D03*
X39528Y118144D02*
D03*
X59528Y103232D02*
D03*
X57028Y101644D02*
D03*
X27171Y98644D02*
D03*
X29096Y111867D02*
D03*
X35028Y99144D02*
D03*
X45028Y97644D02*
D03*
X41528Y95144D02*
D03*
X31528Y95644D02*
D03*
X32028Y125644D02*
D03*
X21983Y116644D02*
D03*
X37208Y114069D02*
D03*
X148528Y145144D02*
D03*
X144028Y146144D02*
D03*
X104528Y70144D02*
D03*
X118028Y76369D02*
D03*
X98028Y51089D02*
D03*
X50528Y81144D02*
D03*
X43528Y78144D02*
D03*
X58028Y67719D02*
D03*
X104028Y25644D02*
D03*
X90528Y45644D02*
D03*
X108028Y35644D02*
D03*
X121528Y55144D02*
D03*
X124028Y14144D02*
D03*
X133528D02*
D03*
X119528D02*
D03*
X142528Y125144D02*
D03*
X56028Y57644D02*
D03*
X302528Y114144D02*
D03*
X108028Y93144D02*
D03*
X87028Y99144D02*
D03*
X71528Y95144D02*
D03*
X71028Y74144D02*
D03*
X97028Y63644D02*
D03*
X110028Y64144D02*
D03*
X109528Y85144D02*
D03*
X284528Y87644D02*
D03*
X147028Y116644D02*
D03*
X213028Y128144D02*
D03*
X249028Y61644D02*
D03*
X175028Y107644D02*
D03*
X196028Y133644D02*
D03*
X339127Y33144D02*
D03*
X339028Y74644D02*
D03*
Y88144D02*
D03*
X196028Y149644D02*
D03*
X98528Y131144D02*
D03*
X94528Y130144D02*
D03*
X118528Y94144D02*
D03*
X56528Y61644D02*
D03*
X59028Y99144D02*
D03*
X80528Y120644D02*
D03*
X77028Y123144D02*
D03*
X90528Y110144D02*
D03*
X87028D02*
D03*
X83028Y109144D02*
D03*
X71028Y109644D02*
D03*
X75028D02*
D03*
X118028Y85644D02*
D03*
X82528Y61144D02*
D03*
X74528Y50144D02*
D03*
X92528D02*
D03*
X131028Y83144D02*
D03*
X130028Y76644D02*
D03*
X118028Y81644D02*
D03*
X118528Y90144D02*
D03*
Y106644D02*
D03*
X115528Y109644D02*
D03*
X118528Y100644D02*
D03*
X118028Y97144D02*
D03*
X57528Y-4356D02*
D03*
X97528Y24144D02*
D03*
X57528Y105644D02*
D03*
X109028Y89144D02*
D03*
X172139Y99255D02*
D03*
X50028Y24644D02*
D03*
X116036Y102636D02*
D03*
X131028Y87144D02*
D03*
Y90144D02*
D03*
X131528Y79644D02*
D03*
X135528Y92144D02*
D03*
X149063Y81725D02*
D03*
X77002Y104943D02*
D03*
X55028Y113644D02*
D03*
X177028Y93644D02*
D03*
X138231Y71219D02*
D03*
X186166Y132167D02*
D03*
X27130Y137644D02*
D03*
X339028Y145144D02*
D03*
X120916Y51866D02*
D03*
X193028Y108644D02*
D03*
X130028Y107144D02*
D03*
X173028Y74644D02*
D03*
X38028Y-6856D02*
D03*
X73028Y122144D02*
D03*
X124028Y114144D02*
D03*
X164096Y123424D02*
D03*
X117528Y-4856D02*
D03*
X72028Y66111D02*
D03*
X116008Y140884D02*
D03*
X124528Y140644D02*
D03*
X93883Y23977D02*
D03*
X101528Y20644D02*
D03*
X168028Y84644D02*
D03*
X156028Y6644D02*
D03*
X125028Y47359D02*
D03*
X149528Y19144D02*
D03*
X41690Y15166D02*
D03*
X44528Y16644D02*
D03*
X176028Y6144D02*
D03*
X57528Y4144D02*
D03*
X62028Y113644D02*
D03*
X42028Y123144D02*
D03*
X89528Y129144D02*
D03*
X187528Y82644D02*
D03*
X148028Y-356D02*
D03*
X40528Y144D02*
D03*
X219528Y121644D02*
D03*
X209528Y100144D02*
D03*
X201028Y54144D02*
D03*
X335028Y131644D02*
D03*
X338528Y130644D02*
D03*
X39630Y144144D02*
D03*
X179028Y116144D02*
D03*
X149028Y120644D02*
D03*
X203528Y145144D02*
D03*
X285528Y65644D02*
D03*
X311528Y101644D02*
D03*
X340028Y26794D02*
D03*
X219028Y115819D02*
D03*
X235029Y127491D02*
D03*
X144028Y71156D02*
D03*
X140028Y64219D02*
D03*
X144528Y63934D02*
D03*
X133028Y68644D02*
D03*
X175028Y90644D02*
D03*
X170028Y74644D02*
D03*
X133528Y63144D02*
D03*
X129528Y62644D02*
D03*
X171528Y91144D02*
D03*
X152033Y91107D02*
D03*
X68028Y113644D02*
D03*
X58607Y64945D02*
D03*
X72528Y60644D02*
D03*
X58477Y117968D02*
D03*
X293528Y17644D02*
D03*
X31028Y4144D02*
D03*
X150528Y61644D02*
D03*
X323028Y18144D02*
D03*
X318088Y20616D02*
D03*
X150528Y53719D02*
D03*
X144350D02*
D03*
X140028Y53434D02*
D03*
X313205Y22484D02*
D03*
X321644Y12237D02*
D03*
X313528Y17644D02*
D03*
X322790Y7053D02*
D03*
X306212Y21038D02*
D03*
X301028Y22644D02*
D03*
X321528Y1644D02*
D03*
X278528Y143144D02*
D03*
X279028Y146766D02*
D03*
X245028Y65644D02*
D03*
X229028Y152144D02*
D03*
X137528Y-3356D02*
D03*
X123028D02*
D03*
X127528D02*
D03*
X164420Y116144D02*
D03*
X138220Y112336D02*
D03*
X284028Y8644D02*
D03*
X278724Y21279D02*
D03*
X273902Y22062D02*
D03*
X268356Y21882D02*
D03*
X269528Y17144D02*
D03*
X321222Y-5787D02*
D03*
X295362Y21219D02*
D03*
X289028Y23144D02*
D03*
X285028Y20144D02*
D03*
X281028Y22644D02*
D03*
X183028Y90644D02*
D03*
X241528Y76644D02*
D03*
X268028Y107644D02*
D03*
X325528Y131644D02*
D03*
X40946Y-3855D02*
D03*
X164528Y19144D02*
D03*
X282028Y99144D02*
D03*
X268549Y103941D02*
D03*
X349464Y130406D02*
D03*
X347528Y133144D02*
D03*
X342528Y-5856D02*
D03*
D115*
X126000Y125500D02*
D03*
X318028Y137144D02*
D03*
X294028Y88144D02*
D03*
X299528Y134644D02*
D03*
D116*
X216487Y152144D02*
D03*
X19528Y88144D02*
D03*
X156528Y152144D02*
D03*
X296028Y79185D02*
D03*
X241528Y139185D02*
D03*
X238028Y95144D02*
D03*
M02*
