G04*
G04 #@! TF.GenerationSoftware,Altium Limited,Altium Designer,20.0.13 (296)*
G04*
G04 Layer_Color=32896*
%FSLAX25Y25*%
%MOIN*%
G70*
G01*
G75*
%ADD10C,0.01000*%
%ADD11C,0.00800*%
%ADD12C,0.00787*%
%ADD14C,0.01181*%
%ADD18C,0.00500*%
%ADD19C,0.00600*%
%ADD21C,0.00394*%
%ADD133C,0.00984*%
G36*
X260346Y8709D02*
X264096Y4959D01*
X260346Y1209D01*
Y8709D01*
D02*
G37*
G36*
X77000Y35500D02*
X76959Y35500D01*
X77000Y30000D01*
X55542Y29840D01*
X55500Y35500D01*
X55526Y35500D01*
X55489Y40463D01*
X76962Y40623D01*
X77000Y35500D01*
D02*
G37*
%LPC*%
G36*
X66223Y38960D02*
D01*
X66224Y38847D01*
D01*
X66223Y38960D01*
D02*
G37*
G36*
X63160Y39589D02*
X62676Y39585D01*
X62683Y38679D01*
X62679Y38683D01*
X62672Y38690D01*
X62661Y38701D01*
X62643Y38719D01*
X62621Y38737D01*
X62595Y38759D01*
X62566Y38784D01*
X62533Y38805D01*
X62456Y38852D01*
X62365Y38891D01*
X62317Y38909D01*
X62262Y38920D01*
X62208Y38927D01*
X62153Y38930D01*
X62120Y38930D01*
X62099Y38926D01*
X62070Y38922D01*
X62037Y38914D01*
X62001Y38907D01*
X61957Y38899D01*
X61870Y38870D01*
X61826Y38847D01*
X61779Y38825D01*
X61732Y38796D01*
X61689Y38763D01*
X61645Y38726D01*
X61602Y38682D01*
X61598Y38678D01*
X61591Y38671D01*
X61580Y38656D01*
X61566Y38638D01*
X61551Y38612D01*
X61533Y38583D01*
X61512Y38547D01*
X61490Y38506D01*
X61472Y38459D01*
X61451Y38408D01*
X61433Y38349D01*
X61415Y38287D01*
X61405Y38222D01*
X61395Y38149D01*
X61388Y38072D01*
X61385Y37989D01*
X61385Y37945D01*
X61389Y37912D01*
X61393Y37872D01*
X61397Y37829D01*
X61405Y37778D01*
X61416Y37723D01*
X61442Y37607D01*
X61461Y37549D01*
X61483Y37487D01*
X61509Y37429D01*
X61542Y37371D01*
X61576Y37320D01*
X61616Y37270D01*
X61620Y37266D01*
X61627Y37259D01*
X61638Y37248D01*
X61656Y37230D01*
X61678Y37212D01*
X61704Y37190D01*
X61733Y37169D01*
X61766Y37147D01*
X61806Y37122D01*
X61847Y37100D01*
X61941Y37061D01*
X61993Y37043D01*
X62044Y37033D01*
X62102Y37026D01*
X62160Y37023D01*
X61392Y37017D01*
D01*
X63179Y37030D01*
X63160Y39589D01*
D02*
G37*
G36*
X70321Y38991D02*
D01*
X70331Y37644D01*
X70327Y37673D01*
X70320Y37710D01*
X70312Y37753D01*
X70301Y37797D01*
X70282Y37844D01*
X70257Y37891D01*
X70253Y37898D01*
X70242Y37913D01*
X70227Y37935D01*
X70201Y37960D01*
X70176Y37989D01*
X70139Y38021D01*
X70099Y38050D01*
X70051Y38075D01*
X70044Y38079D01*
X70026Y38086D01*
X69997Y38097D01*
X69953Y38115D01*
X69898Y38132D01*
X69832Y38150D01*
X69752Y38168D01*
X69665Y38185D01*
X69661Y38185D01*
X69650Y38189D01*
X69632Y38192D01*
X69610Y38196D01*
X69581Y38199D01*
X69548Y38206D01*
X69475Y38224D01*
X69399Y38241D01*
X69318Y38259D01*
X69249Y38280D01*
X69216Y38291D01*
X69191Y38302D01*
X69190Y38349D01*
X69190Y38356D01*
X69190Y38371D01*
X69194Y38396D01*
X69197Y38429D01*
X69208Y38462D01*
X69218Y38495D01*
X69236Y38524D01*
X69262Y38550D01*
X69265Y38554D01*
X69276Y38561D01*
X69294Y38568D01*
X69320Y38583D01*
X69356Y38594D01*
X69399Y38602D01*
X69454Y38609D01*
X69520Y38614D01*
X69541Y38614D01*
X69563Y38610D01*
X69592Y38607D01*
X69625Y38600D01*
X69662Y38593D01*
X69695Y38579D01*
X69724Y38561D01*
X69727Y38557D01*
X69735Y38550D01*
X69749Y38539D01*
X69764Y38521D01*
X69786Y38495D01*
X69805Y38463D01*
X69823Y38427D01*
X69842Y38383D01*
X70274Y38466D01*
X70274Y38470D01*
X70270Y38477D01*
X70267Y38492D01*
X70259Y38510D01*
X70252Y38532D01*
X70241Y38557D01*
X70215Y38615D01*
X70178Y38677D01*
X70134Y38742D01*
X70082Y38803D01*
X70020Y38858D01*
X70016Y38858D01*
X70013Y38865D01*
X70002Y38868D01*
X69987Y38879D01*
X69965Y38886D01*
X69943Y38897D01*
X69914Y38911D01*
X69885Y38922D01*
X69848Y38933D01*
X69808Y38947D01*
X69765Y38958D01*
X69713Y38965D01*
X69662Y38975D01*
X69604Y38978D01*
X69546Y38985D01*
X69426Y38984D01*
X69400Y38980D01*
X69371Y38980D01*
X69298Y38972D01*
X69222Y38965D01*
X69142Y38949D01*
X69066Y38927D01*
X69033Y38916D01*
X69001Y38901D01*
X68997Y38901D01*
X68993Y38897D01*
X68975Y38886D01*
X68946Y38871D01*
X68914Y38849D01*
X68874Y38820D01*
X68838Y38787D01*
X68805Y38747D01*
X68776Y38706D01*
X68773Y38699D01*
X68765Y38684D01*
X68755Y38652D01*
X68751Y38633D01*
X68744Y38608D01*
X68737Y38582D01*
X68734Y38550D01*
X68727Y38513D01*
X68723Y38473D01*
X68720Y38429D01*
X68717Y38382D01*
X68714Y38331D01*
X68714Y38273D01*
X68726Y37709D01*
X68726Y37705D01*
X68726Y37698D01*
X68726Y37687D01*
X68726Y37669D01*
X68726Y37625D01*
X68723Y37574D01*
X68723Y37516D01*
X68716Y37457D01*
X68713Y37399D01*
X68706Y37352D01*
X68706Y37348D01*
X68703Y37334D01*
X68696Y37308D01*
X68689Y37279D01*
X68674Y37242D01*
X68660Y37202D01*
X68642Y37158D01*
X68621Y37111D01*
D01*
X69098Y37114D01*
X69098Y37118D01*
X69101Y37122D01*
X69105Y37136D01*
X69112Y37151D01*
X69119Y37169D01*
X69126Y37195D01*
X69133Y37224D01*
X69144Y37257D01*
X69144Y37260D01*
X69147Y37264D01*
X69151Y37279D01*
X69158Y37297D01*
X69162Y37312D01*
X69169Y37308D01*
X69184Y37293D01*
X69209Y37272D01*
X69242Y37247D01*
X69282Y37218D01*
X69326Y37185D01*
X69377Y37160D01*
X69429Y37135D01*
X69436Y37132D01*
X69454Y37128D01*
X69483Y37117D01*
X69520Y37107D01*
X69564Y37096D01*
X69615Y37089D01*
X69673Y37082D01*
X69731Y37079D01*
X68621Y37071D01*
D01*
X70335Y37084D01*
X70321Y38991D01*
D02*
G37*
G36*
X68336Y39628D02*
D01*
X68348Y38070D01*
X68344Y38102D01*
X68340Y38142D01*
X68336Y38186D01*
X68328Y38237D01*
X68321Y38288D01*
X68294Y38404D01*
X68276Y38462D01*
X68253Y38521D01*
X68228Y38579D01*
X68198Y38633D01*
X68165Y38684D01*
X68128Y38731D01*
X68125Y38734D01*
X68117Y38741D01*
X68106Y38752D01*
X68088Y38770D01*
X68066Y38788D01*
X68040Y38806D01*
X68011Y38828D01*
X67974Y38853D01*
X67938Y38875D01*
X67894Y38896D01*
X67803Y38936D01*
X67748Y38950D01*
X67693Y38960D01*
X67635Y38967D01*
X67573Y38970D01*
X67544Y38970D01*
X67522Y38966D01*
X67497Y38963D01*
X67464Y38955D01*
X67431Y38947D01*
X67391Y38936D01*
X67351Y38925D01*
X67308Y38906D01*
X67264Y38884D01*
X67221Y38862D01*
X67174Y38829D01*
X67130Y38796D01*
X67087Y38756D01*
X67044Y38712D01*
X67037Y39618D01*
X66553Y39614D01*
X66571Y37095D01*
X67019Y37099D01*
X67017Y37365D01*
X67021Y37357D01*
X67036Y37339D01*
X67061Y37310D01*
X67094Y37278D01*
X67131Y37242D01*
X67179Y37202D01*
X67230Y37166D01*
X67285Y37134D01*
X67292Y37130D01*
X67310Y37123D01*
X67343Y37112D01*
X67380Y37098D01*
X67427Y37084D01*
X67482Y37073D01*
X67536Y37066D01*
X67595Y37063D01*
X66572Y37056D01*
X68355Y37069D01*
X68336Y39628D01*
D02*
G37*
G36*
X73123Y39663D02*
X72362Y39658D01*
X71924Y37933D01*
X71463Y39651D01*
X70698Y39645D01*
X70717Y37126D01*
X73141Y37145D01*
X73123Y39663D01*
D02*
G37*
G36*
X65389Y38954D02*
X65349Y38954D01*
X65320Y38950D01*
X65287Y38946D01*
X65247Y38939D01*
X65204Y38931D01*
X65156Y38920D01*
X65106Y38905D01*
X65055Y38886D01*
X65000Y38864D01*
X64946Y38834D01*
X64895Y38805D01*
X64845Y38768D01*
X64794Y38724D01*
X64750Y38676D01*
X64747Y38673D01*
X64740Y38665D01*
X64729Y38647D01*
X64714Y38625D01*
X64697Y38596D01*
X64679Y38563D01*
X64657Y38519D01*
X64636Y38472D01*
X64614Y38417D01*
X64593Y38355D01*
X64575Y38289D01*
X64557Y38213D01*
X64543Y38132D01*
X64533Y38045D01*
X64527Y37954D01*
X64527Y37852D01*
X65736Y37861D01*
X65736Y37857D01*
X65736Y37850D01*
X65736Y37839D01*
X65733Y37825D01*
X65729Y37788D01*
X65722Y37737D01*
X65708Y37686D01*
X65687Y37628D01*
X65662Y37573D01*
X65626Y37525D01*
X65622Y37522D01*
X65604Y37507D01*
X65582Y37489D01*
X65549Y37466D01*
X65510Y37444D01*
X65459Y37426D01*
X65404Y37411D01*
X65346Y37407D01*
X65328Y37407D01*
X65306Y37410D01*
X65280Y37413D01*
X65251Y37421D01*
X65219Y37431D01*
X65186Y37446D01*
X65156Y37467D01*
X65153Y37471D01*
X65142Y37478D01*
X65127Y37492D01*
X65112Y37514D01*
X65090Y37543D01*
X65072Y37576D01*
X65053Y37619D01*
X65035Y37666D01*
X64555Y37583D01*
X64555Y37579D01*
X64559Y37572D01*
X64566Y37557D01*
X64573Y37539D01*
X64584Y37517D01*
X64596Y37492D01*
X64629Y37434D01*
X64669Y37369D01*
X64721Y37300D01*
X64783Y37239D01*
X64853Y37181D01*
X64856Y37181D01*
X64860Y37174D01*
X64875Y37170D01*
X64889Y37159D01*
X64908Y37149D01*
X64933Y37138D01*
X64959Y37127D01*
X64991Y37113D01*
X65065Y37088D01*
X65148Y37067D01*
X65247Y37053D01*
X65352Y37046D01*
X64533Y37040D01*
X66237Y37053D01*
X66224Y38834D01*
X66230Y38036D01*
X66226Y38069D01*
X66222Y38105D01*
X66218Y38148D01*
X66210Y38196D01*
X66199Y38250D01*
X66169Y38363D01*
X66150Y38421D01*
X66128Y38483D01*
X66098Y38541D01*
X66065Y38595D01*
X66028Y38649D01*
X65988Y38700D01*
X65984Y38704D01*
X65977Y38711D01*
X65962Y38725D01*
X65944Y38740D01*
X65922Y38758D01*
X65893Y38780D01*
X65860Y38805D01*
X65823Y38830D01*
X65783Y38851D01*
X65736Y38877D01*
X65688Y38898D01*
X65633Y38916D01*
X65579Y38930D01*
X65517Y38944D01*
X65455Y38951D01*
X65389Y38954D01*
D02*
G37*
G36*
X61222Y38883D02*
D01*
X61241Y36313D01*
X60833Y36310D01*
X60862Y36314D01*
X60895Y36314D01*
X60939Y36318D01*
X60982Y36326D01*
X61080Y36345D01*
X61121Y36724D01*
X61118Y36724D01*
X61103Y36720D01*
X61081Y36716D01*
X61052Y36712D01*
X61023Y36705D01*
X60987Y36701D01*
X60918Y36697D01*
X60889Y36696D01*
X60860Y36703D01*
X60823Y36710D01*
X60783Y36721D01*
X60743Y36739D01*
X60703Y36764D01*
X60669Y36797D01*
X60666Y36800D01*
X60655Y36815D01*
X60640Y36836D01*
X60622Y36865D01*
X60603Y36902D01*
X60581Y36945D01*
X60562Y36992D01*
X60544Y37047D01*
X61222Y38883D01*
X60708Y38879D01*
X60285Y37576D01*
X59846Y38873D01*
X59347Y38869D01*
D01*
X60005Y37112D01*
X60123Y36800D01*
X60127Y36793D01*
X60135Y36775D01*
X60149Y36745D01*
X60164Y36709D01*
X60183Y36669D01*
X60205Y36629D01*
X60227Y36593D01*
X60249Y36557D01*
X60253Y36553D01*
X60260Y36542D01*
X60271Y36528D01*
X60286Y36506D01*
X60326Y36463D01*
X60381Y36420D01*
X60385Y36416D01*
X60396Y36412D01*
X60410Y36402D01*
X60432Y36391D01*
X60458Y36380D01*
X60487Y36366D01*
X60524Y36351D01*
X60564Y36341D01*
X60567Y36341D01*
X60582Y36337D01*
X60604Y36330D01*
X60637Y36327D01*
X60673Y36320D01*
X60713Y36313D01*
X60760Y36310D01*
X59366Y36299D01*
D01*
X61241Y36313D01*
X61222Y38883D01*
D02*
G37*
G36*
X57284Y34092D02*
X57051Y33966D01*
X56578Y33963D01*
X56457Y34086D01*
X56215Y33884D01*
X56325Y33786D01*
X56341Y31569D01*
X56341Y31562D01*
X56338Y31544D01*
X56335Y31518D01*
X56327Y31493D01*
X56313Y31464D01*
X56295Y31438D01*
X56266Y31420D01*
X56248Y31416D01*
X56230Y31412D01*
X56139Y31411D01*
X56135Y31415D01*
X56124Y31426D01*
X56113Y31440D01*
X56098Y31462D01*
X56087Y31491D01*
X56076Y31531D01*
X56068Y31582D01*
X56068Y31589D01*
X56064Y31611D01*
X56061Y31640D01*
X56057Y31684D01*
X56056Y31738D01*
X56052Y31800D01*
X56048Y31873D01*
X56047Y31949D01*
X55909Y31948D01*
X55909Y31945D01*
X55909Y31938D01*
X55909Y31923D01*
X55909Y31905D01*
X55910Y31887D01*
X55910Y31861D01*
X55906Y31806D01*
X55907Y31745D01*
X55904Y31683D01*
X55901Y31624D01*
X55894Y31573D01*
X55894Y31570D01*
X55890Y31555D01*
X55883Y31533D01*
X55872Y31511D01*
X55858Y31486D01*
X55836Y31460D01*
X55811Y31438D01*
X55778Y31423D01*
X55778Y31420D01*
X55782Y31412D01*
X55789Y31402D01*
X55797Y31387D01*
X55822Y31351D01*
X55856Y31311D01*
X55900Y31268D01*
X55954Y31232D01*
X55984Y31217D01*
X56016Y31207D01*
X56049Y31199D01*
X56086Y31196D01*
X56286Y31198D01*
X56300Y31201D01*
X56322Y31202D01*
X56348Y31209D01*
X56377Y31213D01*
X56438Y31239D01*
X56471Y31254D01*
X56500Y31276D01*
X56529Y31298D01*
X56554Y31327D01*
X56572Y31364D01*
X56590Y31404D01*
X56601Y31451D01*
X56604Y31506D01*
X56587Y33814D01*
X57013Y33817D01*
X57013Y33813D01*
X57013Y33806D01*
X57013Y33788D01*
X57013Y33766D01*
X57013Y33740D01*
X57013Y33711D01*
X57014Y33675D01*
X57014Y33635D01*
X57014Y33591D01*
X57015Y33544D01*
X57015Y33438D01*
X57016Y33325D01*
X57021Y33202D01*
X57022Y33074D01*
X57026Y32947D01*
X57035Y32820D01*
X57039Y32696D01*
X57051Y32576D01*
X57059Y32467D01*
X57071Y32368D01*
X57078Y32325D01*
X57086Y32285D01*
X57086Y32281D01*
X57090Y32267D01*
X57094Y32245D01*
X57101Y32216D01*
X57112Y32183D01*
X57127Y32140D01*
X57142Y32096D01*
X57161Y32045D01*
X57183Y31991D01*
X57209Y31933D01*
X57238Y31875D01*
X57275Y31813D01*
X57312Y31751D01*
X57352Y31690D01*
X57400Y31628D01*
X57452Y31567D01*
X57455Y31563D01*
X57466Y31552D01*
X57481Y31538D01*
X57503Y31516D01*
X57529Y31487D01*
X57562Y31458D01*
X57602Y31426D01*
X57646Y31386D01*
X57693Y31346D01*
X57748Y31307D01*
X57803Y31264D01*
X57866Y31224D01*
X57935Y31181D01*
X58004Y31141D01*
X58078Y31102D01*
X58154Y31062D01*
X55781Y31045D01*
X58981Y31069D01*
X58971Y32291D01*
X58981Y31069D01*
X58154Y31062D01*
X58223Y31143D01*
X58219Y31147D01*
X58205Y31157D01*
X58183Y31172D01*
X58153Y31193D01*
X58120Y31222D01*
X58080Y31251D01*
X58036Y31287D01*
X57989Y31327D01*
X57889Y31417D01*
X57787Y31515D01*
X57688Y31620D01*
X57644Y31670D01*
X57603Y31724D01*
X57600Y31728D01*
X57592Y31739D01*
X57585Y31753D01*
X57570Y31775D01*
X57552Y31800D01*
X57533Y31837D01*
X57511Y31873D01*
X57489Y31916D01*
X57467Y31964D01*
X57445Y32014D01*
X57422Y32072D01*
X57400Y32131D01*
X57381Y32196D01*
X57363Y32261D01*
X57332Y32407D01*
X57332Y32410D01*
X57329Y32425D01*
X57325Y32454D01*
X57321Y32490D01*
X57317Y32538D01*
X57313Y32599D01*
X57309Y32676D01*
X57305Y32720D01*
X57301Y32767D01*
X57300Y32818D01*
X57296Y32872D01*
X57296Y32931D01*
X57292Y32993D01*
X57291Y33062D01*
X57287Y33131D01*
X57287Y33207D01*
X57286Y33287D01*
X57282Y33371D01*
X57281Y33458D01*
X57280Y33553D01*
X57279Y33651D01*
X57282Y33753D01*
X57282Y33862D01*
X57281Y33975D01*
X57284Y34092D01*
D02*
G37*
G36*
X64609Y34365D02*
X64214Y34180D01*
X64335Y34064D01*
X64336Y33871D01*
X63419Y33865D01*
X63213Y34056D01*
X62907Y33711D01*
X64188Y33721D01*
X64184Y33714D01*
X64170Y33695D01*
X64148Y33666D01*
X64116Y33630D01*
X64076Y33582D01*
X64025Y33531D01*
X63964Y33476D01*
X63892Y33413D01*
X63809Y33351D01*
X63711Y33288D01*
X63605Y33229D01*
X63486Y33166D01*
X63355Y33111D01*
X63214Y33062D01*
X63058Y33017D01*
X62887Y32980D01*
X62888Y32863D01*
X62898Y32863D01*
X62909Y32860D01*
X62928Y32856D01*
X62971Y32849D01*
X63023Y32831D01*
X63074Y32810D01*
X63125Y32778D01*
X63169Y32738D01*
X63187Y32716D01*
X63202Y32687D01*
X63205Y32687D01*
X63213Y32691D01*
X63224Y32698D01*
X63242Y32706D01*
X63260Y32717D01*
X63285Y32728D01*
X63347Y32757D01*
X63416Y32798D01*
X63496Y32846D01*
X63586Y32901D01*
X63677Y32964D01*
X63774Y33037D01*
X63868Y33114D01*
X63963Y33199D01*
X64053Y33290D01*
X64132Y33389D01*
X64208Y33496D01*
X64269Y33605D01*
X64298Y33664D01*
X64319Y33722D01*
X64337Y33722D01*
X64337Y33715D01*
X64337Y33697D01*
X64338Y33668D01*
X64338Y33628D01*
X64338Y33580D01*
X64339Y33529D01*
X64339Y33471D01*
X64336Y33413D01*
X64337Y33285D01*
X64337Y33227D01*
X64334Y33169D01*
X64334Y33114D01*
X64331Y33067D01*
X64331Y33027D01*
X64328Y32994D01*
X64585Y32890D01*
X64005Y32886D01*
X63866Y33009D01*
X63591Y32679D01*
X63613Y32679D01*
X63628Y32676D01*
X63650Y32676D01*
X63675Y32669D01*
X63708Y32662D01*
X63744Y32655D01*
X63788Y32641D01*
X63836Y32626D01*
X63890Y32605D01*
X63949Y32580D01*
X64015Y32551D01*
X64088Y32519D01*
X64168Y32480D01*
X64252Y32433D01*
X64118Y32348D01*
X64268Y32266D01*
X64268Y32200D01*
X63402Y32194D01*
X63197Y32385D01*
X62894Y32041D01*
X64270Y32051D01*
X64274Y31519D01*
X64274Y31516D01*
X64274Y31508D01*
X64277Y31494D01*
X64281Y31476D01*
X64285Y31454D01*
X64292Y31429D01*
X64303Y31403D01*
X64322Y31370D01*
X64340Y31342D01*
X64366Y31309D01*
X64395Y31277D01*
X64432Y31248D01*
X64472Y31215D01*
X64524Y31186D01*
X64578Y31161D01*
X64644Y31136D01*
X64644Y31140D01*
X64644Y31144D01*
X64648Y31155D01*
X64651Y31169D01*
X64655Y31187D01*
X64665Y31206D01*
X64680Y31228D01*
X64694Y31250D01*
X64716Y31275D01*
X64745Y31301D01*
X64777Y31327D01*
X64817Y31352D01*
X64868Y31378D01*
X64922Y31400D01*
X64988Y31423D01*
X65060Y31445D01*
X65059Y31576D01*
X65056Y31576D01*
X65045Y31572D01*
X65027Y31572D01*
X65005Y31569D01*
X64979Y31565D01*
X64947Y31561D01*
X64881Y31553D01*
X64808Y31542D01*
X64736Y31534D01*
X64707Y31530D01*
X64678Y31530D01*
X64652Y31526D01*
X64627Y31526D01*
X64616Y31529D01*
X64601Y31533D01*
X64583Y31544D01*
X64564Y31558D01*
X64550Y31580D01*
X64539Y31612D01*
X64535Y31656D01*
X64532Y32053D01*
X65547Y32060D01*
X65580Y32057D01*
X65624Y32057D01*
X65675Y32050D01*
X65733Y32044D01*
X65791Y32033D01*
X65853Y32019D01*
X65997Y32213D01*
X64530Y32202D01*
X64530Y32209D01*
X64530Y32228D01*
X64530Y32260D01*
X64530Y32304D01*
X64533Y32359D01*
X64533Y32428D01*
X64535Y32504D01*
X64539Y32595D01*
X64346Y32514D01*
X64013Y32737D01*
X65091Y32745D01*
X65229Y32717D01*
X65359Y32896D01*
X64620Y32891D01*
X64620Y32880D01*
X64620Y32876D01*
X64585Y32890D01*
X64620Y32891D01*
X64620Y32894D01*
X64620Y32916D01*
X64616Y32942D01*
X64616Y32978D01*
X64615Y33022D01*
X64611Y33069D01*
X64611Y33124D01*
X64611Y33182D01*
X64606Y33244D01*
X64606Y33309D01*
X64605Y33378D01*
X64601Y33528D01*
X64600Y33680D01*
X64603Y33677D01*
X64611Y33666D01*
X64622Y33652D01*
X64647Y33615D01*
X64684Y33565D01*
X64732Y33507D01*
X64791Y33438D01*
X64860Y33358D01*
X64941Y33275D01*
X65033Y33189D01*
X65135Y33098D01*
X65249Y33008D01*
X65377Y32918D01*
X65512Y32828D01*
X65662Y32742D01*
X65827Y32663D01*
X65998Y32588D01*
X66049Y32676D01*
X66045Y32676D01*
X66038Y32679D01*
X66027Y32686D01*
X66012Y32697D01*
X65994Y32708D01*
X65968Y32722D01*
X65913Y32755D01*
X65844Y32798D01*
X65767Y32852D01*
X65679Y32910D01*
X65588Y32978D01*
X65489Y33050D01*
X65390Y33129D01*
X65287Y33216D01*
X65188Y33310D01*
X65089Y33408D01*
X64994Y33509D01*
X64909Y33617D01*
X64828Y33726D01*
X65520Y33731D01*
X65553Y33728D01*
X65597Y33728D01*
X65648Y33721D01*
X65706Y33714D01*
X65764Y33704D01*
X65826Y33690D01*
X65974Y33884D01*
X64598Y33873D01*
X64598Y33877D01*
X64598Y33895D01*
X64598Y33906D01*
X64598Y33921D01*
X64598Y33942D01*
X64597Y33968D01*
X64601Y33997D01*
X64600Y34034D01*
X64600Y34074D01*
X64604Y34117D01*
X64603Y34168D01*
X64606Y34227D01*
X64606Y34292D01*
X64609Y34365D01*
D02*
G37*
G36*
X59995Y34207D02*
X59677Y33847D01*
X60838Y33856D01*
X60838Y33853D01*
X60838Y33842D01*
X60838Y33823D01*
X60842Y33794D01*
X60842Y33762D01*
X60843Y33722D01*
X60847Y33674D01*
X60851Y33623D01*
X60855Y33565D01*
X60859Y33500D01*
X60863Y33427D01*
X60867Y33350D01*
X60875Y33270D01*
X60879Y33183D01*
X60887Y33092D01*
X60895Y32994D01*
X60018Y32987D01*
X59773Y33219D01*
X59430Y32834D01*
X60722Y32843D01*
X60718Y32836D01*
X60711Y32814D01*
X60700Y32781D01*
X60683Y32737D01*
X60661Y32683D01*
X60632Y32621D01*
X60600Y32551D01*
X60564Y32478D01*
X60525Y32401D01*
X60482Y32321D01*
X60435Y32241D01*
X60381Y32160D01*
X60327Y32080D01*
X60266Y32006D01*
X60201Y31937D01*
X60136Y31871D01*
X60132Y31867D01*
X60118Y31856D01*
X60100Y31841D01*
X60071Y31819D01*
X60038Y31794D01*
X59995Y31764D01*
X59948Y31735D01*
X59897Y31701D01*
X59839Y31665D01*
X59777Y31631D01*
X59712Y31598D01*
X59639Y31565D01*
X59567Y31535D01*
X59491Y31506D01*
X59411Y31483D01*
X59331Y31464D01*
X59332Y31355D01*
X59342Y31355D01*
X59353Y31352D01*
X59372Y31352D01*
X59412Y31341D01*
X59463Y31327D01*
X59518Y31302D01*
X59572Y31269D01*
X59624Y31223D01*
X59646Y31197D01*
X59664Y31165D01*
X59671Y31168D01*
X59689Y31179D01*
X59722Y31198D01*
X59762Y31224D01*
X59809Y31253D01*
X59867Y31294D01*
X59929Y31338D01*
X59994Y31389D01*
X60066Y31444D01*
X60135Y31507D01*
X60211Y31576D01*
X60279Y31650D01*
X60352Y31730D01*
X60417Y31811D01*
X60478Y31902D01*
X60535Y31994D01*
X60539Y32001D01*
X60546Y32016D01*
X60560Y32041D01*
X60578Y32078D01*
X60600Y32122D01*
X60625Y32173D01*
X60650Y32228D01*
X60679Y32290D01*
X60707Y32355D01*
X60736Y32425D01*
X60786Y32567D01*
X60811Y32640D01*
X60828Y32710D01*
X60846Y32779D01*
X60856Y32844D01*
X60915Y32845D01*
X60915Y32841D01*
X60915Y32838D01*
X60918Y32827D01*
X60922Y32816D01*
X60930Y32779D01*
X60941Y32732D01*
X60956Y32674D01*
X60975Y32605D01*
X61001Y32532D01*
X61027Y32452D01*
X61060Y32365D01*
X61101Y32275D01*
X61142Y32184D01*
X61193Y32090D01*
X61245Y31999D01*
X61308Y31909D01*
X61374Y31825D01*
X61447Y31742D01*
X61451Y31739D01*
X61466Y31724D01*
X61488Y31703D01*
X61520Y31674D01*
X61561Y31637D01*
X61608Y31598D01*
X61663Y31554D01*
X61726Y31504D01*
X61795Y31454D01*
X61868Y31403D01*
X61952Y31349D01*
X62040Y31295D01*
X62135Y31245D01*
X62234Y31195D01*
X62336Y31148D01*
X62446Y31105D01*
X62492Y31193D01*
X62485Y31197D01*
X62467Y31207D01*
X62437Y31225D01*
X62397Y31247D01*
X62350Y31276D01*
X62295Y31312D01*
X62236Y31351D01*
X62170Y31394D01*
X62101Y31445D01*
X62028Y31499D01*
X61954Y31557D01*
X61881Y31622D01*
X61742Y31755D01*
X61676Y31828D01*
X61613Y31900D01*
X61610Y31904D01*
X61599Y31918D01*
X61584Y31940D01*
X61562Y31972D01*
X61536Y32009D01*
X61507Y32056D01*
X61474Y32110D01*
X61440Y32168D01*
X61407Y32237D01*
X61370Y32309D01*
X61333Y32386D01*
X61300Y32469D01*
X61266Y32556D01*
X61237Y32651D01*
X61207Y32745D01*
X61184Y32847D01*
X62014Y32853D01*
X62047Y32850D01*
X62090Y32850D01*
X62142Y32843D01*
X62200Y32836D01*
X62258Y32826D01*
X62320Y32812D01*
X62464Y33006D01*
X61168Y32996D01*
X61168Y33003D01*
X61168Y33021D01*
X61164Y33051D01*
X61160Y33094D01*
X61160Y33141D01*
X61156Y33196D01*
X61152Y33258D01*
X61148Y33323D01*
X61139Y33465D01*
X61135Y33607D01*
X61131Y33676D01*
X61126Y33742D01*
X61126Y33804D01*
X61126Y33858D01*
X61697Y33863D01*
X61730Y33859D01*
X61774Y33860D01*
X61825Y33853D01*
X61883Y33846D01*
X61941Y33835D01*
X62003Y33821D01*
X62147Y34015D01*
X60215Y34001D01*
X59995Y34207D01*
D02*
G37*
G36*
X58294Y34318D02*
X57927Y34151D01*
X58034Y34032D01*
X58038Y33449D01*
X57722Y33447D01*
X57722Y33451D01*
X57721Y33462D01*
X57721Y33480D01*
X57721Y33505D01*
X57721Y33534D01*
X57721Y33571D01*
X57720Y33611D01*
X57720Y33654D01*
X57723Y33749D01*
X57726Y33855D01*
X57729Y33964D01*
X57731Y34070D01*
X57376Y33903D01*
X57471Y33787D01*
X57472Y33784D01*
X57472Y33773D01*
X57472Y33755D01*
X57472Y33729D01*
X57472Y33704D01*
X57472Y33667D01*
X57473Y33631D01*
X57469Y33591D01*
X57470Y33503D01*
X57467Y33412D01*
X57464Y33325D01*
X57461Y33241D01*
X57724Y33134D01*
X57723Y33298D01*
X58614Y33305D01*
X58739Y33196D01*
X58934Y33398D01*
X58853Y33466D01*
X58853Y33470D01*
X58853Y33481D01*
X58853Y33499D01*
X58853Y33525D01*
X58853Y33554D01*
X58852Y33590D01*
X58852Y33630D01*
X58852Y33674D01*
X58855Y33769D01*
X58858Y33874D01*
X58860Y33983D01*
X58863Y34093D01*
X58493Y33941D01*
X58603Y33821D01*
X58606Y33454D01*
X58286Y33451D01*
X58286Y33459D01*
X58285Y33477D01*
X58285Y33506D01*
X58285Y33546D01*
X58285Y33597D01*
X58284Y33652D01*
X58284Y33713D01*
X58283Y33779D01*
X58286Y33917D01*
X58288Y34063D01*
X58288Y34132D01*
X58291Y34198D01*
X58290Y34263D01*
X58294Y34318D01*
D02*
G37*
G36*
X70818Y34040D02*
D01*
X70823Y33403D01*
X70819Y33403D01*
X70815Y33407D01*
X70804Y33410D01*
X70790Y33414D01*
X70753Y33432D01*
X70702Y33453D01*
X70640Y33482D01*
X70570Y33521D01*
X70494Y33572D01*
X70413Y33629D01*
X70410Y33633D01*
X70402Y33636D01*
X70391Y33647D01*
X70376Y33662D01*
X70336Y33698D01*
X70292Y33745D01*
X70241Y33803D01*
X70189Y33875D01*
X70141Y33951D01*
X70104Y34035D01*
X69711Y34032D01*
X69730Y31498D01*
X70837Y31507D01*
X70818Y34040D01*
D02*
G37*
G36*
X68674Y33977D02*
X67397Y33967D01*
X67400Y33516D01*
X68314Y33523D01*
X68393Y33094D01*
X68390Y33094D01*
X68386Y33097D01*
X68364Y33108D01*
X68331Y33119D01*
X68291Y33136D01*
X68240Y33151D01*
X68185Y33161D01*
X68123Y33172D01*
X68061Y33175D01*
X68029Y33175D01*
X68007Y33171D01*
X67981Y33167D01*
X67949Y33163D01*
X67912Y33156D01*
X67872Y33144D01*
X67789Y33115D01*
X67742Y33096D01*
X67698Y33074D01*
X67651Y33044D01*
X67604Y33011D01*
X67561Y32974D01*
X67517Y32934D01*
X67514Y32930D01*
X67506Y32923D01*
X67496Y32908D01*
X67481Y32890D01*
X67467Y32868D01*
X67445Y32839D01*
X67427Y32806D01*
X67406Y32770D01*
X67384Y32729D01*
X67366Y32682D01*
X67345Y32631D01*
X67331Y32580D01*
X67316Y32521D01*
X67306Y32459D01*
X67299Y32394D01*
X67296Y32325D01*
X67296Y32296D01*
X67300Y32274D01*
X67300Y32245D01*
X67308Y32212D01*
X67312Y32175D01*
X67319Y32139D01*
X67342Y32052D01*
X67375Y31958D01*
X67397Y31907D01*
X67420Y31860D01*
X67449Y31813D01*
X67482Y31765D01*
X67486Y31762D01*
X67493Y31751D01*
X67508Y31736D01*
X67526Y31715D01*
X67552Y31690D01*
X67585Y31661D01*
X67622Y31632D01*
X67662Y31603D01*
X67709Y31571D01*
X67761Y31542D01*
X67815Y31513D01*
X67878Y31488D01*
X67943Y31467D01*
X68012Y31453D01*
X68089Y31442D01*
X68169Y31439D01*
X68202Y31440D01*
X68227Y31443D01*
X68256Y31447D01*
X68293Y31451D01*
X68329Y31455D01*
X68373Y31463D01*
X68460Y31485D01*
X68558Y31522D01*
X68605Y31541D01*
X68652Y31567D01*
X68696Y31596D01*
X68739Y31629D01*
X68743Y31633D01*
X68750Y31637D01*
X68761Y31648D01*
X68775Y31662D01*
X68790Y31684D01*
X68811Y31706D01*
X68829Y31732D01*
X68851Y31761D01*
X68876Y31798D01*
X68898Y31834D01*
X68937Y31922D01*
X68973Y32021D01*
X68983Y32075D01*
X68994Y32133D01*
X68513Y32181D01*
X68513Y32174D01*
X68510Y32155D01*
X68502Y32122D01*
X68492Y32086D01*
X68477Y32046D01*
X68456Y32002D01*
X68427Y31962D01*
X68395Y31921D01*
X68391Y31918D01*
X68377Y31907D01*
X68355Y31892D01*
X68326Y31874D01*
X68293Y31855D01*
X68253Y31840D01*
X68206Y31829D01*
X68159Y31825D01*
X68152Y31825D01*
X68133Y31829D01*
X68104Y31832D01*
X68068Y31839D01*
X68028Y31853D01*
X67984Y31875D01*
X67940Y31907D01*
X67900Y31947D01*
X67896Y31954D01*
X67881Y31969D01*
X67866Y31998D01*
X67844Y32041D01*
X67826Y32092D01*
X67807Y32154D01*
X67795Y32230D01*
X67791Y32317D01*
X67791Y32321D01*
X67791Y32328D01*
X67791Y32339D01*
X67791Y32357D01*
X67794Y32397D01*
X67805Y32449D01*
X67815Y32507D01*
X67833Y32565D01*
X67858Y32620D01*
X67894Y32668D01*
X67898Y32671D01*
X67912Y32686D01*
X67937Y32704D01*
X67967Y32730D01*
X68006Y32752D01*
X68054Y32771D01*
X68108Y32786D01*
X68166Y32790D01*
X68188Y32790D01*
X68203Y32786D01*
X68239Y32779D01*
X68290Y32769D01*
X68349Y32748D01*
X68411Y32715D01*
X68444Y32694D01*
X68476Y32668D01*
X68510Y32640D01*
X68542Y32607D01*
X68932Y32664D01*
X68674Y33977D01*
D02*
G37*
G36*
X57695Y33138D02*
X57449Y32935D01*
X57544Y32842D01*
X57544Y32838D01*
X57544Y32823D01*
X57544Y32801D01*
X57544Y32772D01*
X57545Y32740D01*
X57545Y32699D01*
X57545Y32660D01*
X57546Y32612D01*
X57543Y32517D01*
X57543Y32423D01*
X57540Y32379D01*
X57541Y32335D01*
X57537Y32299D01*
X57537Y32266D01*
X57797Y32174D01*
X57796Y32312D01*
X58574Y32318D01*
X58580Y31593D01*
X57550Y32030D01*
X57525Y31920D01*
X57529Y31920D01*
X57536Y31913D01*
X57551Y31906D01*
X57569Y31899D01*
X57595Y31885D01*
X57624Y31870D01*
X57653Y31856D01*
X57690Y31838D01*
X57770Y31795D01*
X57862Y31745D01*
X57960Y31694D01*
X58059Y31637D01*
X58165Y31579D01*
X58264Y31518D01*
X58359Y31461D01*
X58447Y31403D01*
X58523Y31349D01*
X58560Y31324D01*
X58589Y31299D01*
X58615Y31277D01*
X58637Y31255D01*
X58652Y31234D01*
X58663Y31215D01*
X58883Y31479D01*
X58879Y31483D01*
X58872Y31497D01*
X58861Y31515D01*
X58850Y31541D01*
X58838Y31574D01*
X58831Y31613D01*
X58823Y31657D01*
X58827Y31704D01*
X58827Y31712D01*
X58826Y31726D01*
X58826Y31755D01*
X58826Y31792D01*
X58826Y31835D01*
X58825Y31890D01*
X58825Y31948D01*
X58824Y32010D01*
X58827Y32076D01*
X58827Y32149D01*
X58829Y32291D01*
X58832Y32432D01*
X58832Y32502D01*
X58835Y32567D01*
X58599Y32467D01*
X57794Y32461D01*
X57791Y32865D01*
X58512Y32871D01*
X58545Y32867D01*
X58588Y32868D01*
X58640Y32861D01*
X58698Y32854D01*
X58756Y32843D01*
X58818Y32829D01*
X58966Y33023D01*
X57790Y33014D01*
X57695Y33138D01*
D02*
G37*
G36*
X58956Y34323D02*
D01*
X58971Y32296D01*
D01*
X58956Y34323D01*
D02*
G37*
G36*
X72292Y34084D02*
X72248Y34083D01*
X72215Y34080D01*
X72175Y34076D01*
X72132Y34068D01*
X72081Y34060D01*
X72026Y34049D01*
X71968Y34034D01*
X71906Y34015D01*
X71845Y33993D01*
X71779Y33963D01*
X71718Y33934D01*
X71660Y33897D01*
X71598Y33853D01*
X71544Y33805D01*
X71540Y33805D01*
X71537Y33798D01*
X71526Y33787D01*
X71515Y33776D01*
X71501Y33757D01*
X71486Y33735D01*
X71447Y33684D01*
X71407Y33619D01*
X71364Y33538D01*
X71325Y33447D01*
X71289Y33341D01*
X71792Y33225D01*
X71792Y33228D01*
X71796Y33232D01*
X71796Y33243D01*
X71803Y33257D01*
X71813Y33290D01*
X71831Y33334D01*
X71856Y33385D01*
X71889Y33436D01*
X71932Y33488D01*
X71979Y33532D01*
X71986Y33535D01*
X72004Y33550D01*
X72034Y33569D01*
X72073Y33591D01*
X72124Y33613D01*
X72182Y33632D01*
X72248Y33647D01*
X72320Y33651D01*
X72346Y33651D01*
X72368Y33648D01*
X72390Y33644D01*
X72419Y33641D01*
X72481Y33626D01*
X72554Y33601D01*
X72631Y33566D01*
X72671Y33544D01*
X72707Y33519D01*
X72744Y33487D01*
X72777Y33450D01*
X72777Y33447D01*
X72784Y33439D01*
X72792Y33429D01*
X72803Y33411D01*
X72817Y33389D01*
X72832Y33363D01*
X72847Y33331D01*
X72862Y33294D01*
X72880Y33251D01*
X72895Y33204D01*
X72910Y33149D01*
X72925Y33091D01*
X72937Y33026D01*
X72944Y32956D01*
X72949Y32880D01*
X72953Y32796D01*
X72953Y32793D01*
X72953Y32775D01*
X72953Y32749D01*
X72950Y32720D01*
X72950Y32680D01*
X72943Y32632D01*
X72940Y32585D01*
X72933Y32531D01*
X72912Y32418D01*
X72884Y32304D01*
X72866Y32250D01*
X72841Y32199D01*
X72816Y32151D01*
X72787Y32111D01*
X72783Y32107D01*
X72780Y32103D01*
X72769Y32092D01*
X72754Y32078D01*
X72718Y32048D01*
X72668Y32012D01*
X72606Y31971D01*
X72530Y31942D01*
X72443Y31915D01*
X72395Y31911D01*
X72344Y31907D01*
X72326Y31907D01*
X72312Y31911D01*
X72272Y31914D01*
X72224Y31921D01*
X72173Y31939D01*
X72115Y31960D01*
X72056Y31989D01*
X71998Y32032D01*
X71990Y32039D01*
X71972Y32057D01*
X71946Y32086D01*
X71917Y32130D01*
X71880Y32188D01*
X71847Y32257D01*
X71813Y32340D01*
X71784Y32438D01*
X71290Y32282D01*
X71290Y32278D01*
X71293Y32263D01*
X71301Y32242D01*
X71312Y32213D01*
X71327Y32180D01*
X71342Y32140D01*
X71360Y32097D01*
X71382Y32049D01*
X71434Y31951D01*
X71500Y31850D01*
X71581Y31752D01*
X71625Y31709D01*
X71673Y31669D01*
X71676Y31666D01*
X71684Y31662D01*
X71698Y31651D01*
X71720Y31637D01*
X71746Y31623D01*
X71779Y31608D01*
X71815Y31590D01*
X71855Y31572D01*
X71903Y31551D01*
X71954Y31533D01*
X72009Y31519D01*
X72067Y31505D01*
X72129Y31491D01*
X72198Y31480D01*
X72268Y31477D01*
X72344Y31474D01*
X71296Y31466D01*
X73487Y31483D01*
X73477Y32793D01*
X73473Y32826D01*
X73473Y32869D01*
X73465Y32920D01*
X73457Y32982D01*
X73450Y33048D01*
X73435Y33124D01*
X73416Y33200D01*
X73393Y33280D01*
X73367Y33360D01*
X73334Y33444D01*
X73297Y33523D01*
X73253Y33599D01*
X73205Y33672D01*
X73146Y33741D01*
X73142Y33744D01*
X73131Y33755D01*
X73113Y33773D01*
X73087Y33795D01*
X73054Y33820D01*
X73014Y33849D01*
X72970Y33881D01*
X72915Y33914D01*
X72857Y33946D01*
X72795Y33978D01*
X72722Y34007D01*
X72649Y34032D01*
X72565Y34053D01*
X72481Y34071D01*
X72386Y34081D01*
X72292Y34084D01*
D02*
G37*
G36*
X76722Y34069D02*
X76212Y34066D01*
X76231Y31547D01*
X76741Y31551D01*
X76722Y34069D01*
D02*
G37*
G36*
X75725Y34062D02*
X74796Y34055D01*
X74756Y34051D01*
X74662Y34051D01*
X74560Y34042D01*
X74458Y34034D01*
X74414Y34030D01*
X74371Y34026D01*
X74334Y34019D01*
X74305Y34011D01*
X74302Y34011D01*
X74294Y34008D01*
X74283Y34004D01*
X74269Y34000D01*
X74229Y33982D01*
X74178Y33959D01*
X74124Y33926D01*
X74062Y33882D01*
X74005Y33827D01*
X73947Y33761D01*
X73947Y33758D01*
X73940Y33754D01*
X73932Y33743D01*
X73925Y33728D01*
X73911Y33706D01*
X73900Y33684D01*
X73886Y33659D01*
X73871Y33630D01*
X73846Y33557D01*
X73822Y33476D01*
X73808Y33378D01*
X73801Y33272D01*
X73801Y33232D01*
X73805Y33214D01*
X73805Y33189D01*
X73813Y33138D01*
X73824Y33076D01*
X73839Y33007D01*
X73862Y32941D01*
X73891Y32880D01*
X73895Y32873D01*
X73906Y32855D01*
X73925Y32825D01*
X73950Y32789D01*
X73980Y32753D01*
X74020Y32710D01*
X74060Y32670D01*
X74108Y32634D01*
X74115Y32630D01*
X74130Y32620D01*
X74156Y32605D01*
X74189Y32587D01*
X74229Y32566D01*
X74273Y32548D01*
X74320Y32530D01*
X74371Y32516D01*
X74378Y32516D01*
X74389Y32512D01*
X74404Y32512D01*
X74422Y32509D01*
X74448Y32506D01*
X74473Y32502D01*
X74506Y32502D01*
X74539Y32499D01*
X74579Y32495D01*
X74622Y32492D01*
X74670Y32489D01*
X74721Y32489D01*
X74775Y32486D01*
X75227Y32489D01*
X75234Y31539D01*
X73814Y31529D01*
X75743Y31543D01*
X75725Y34062D01*
D02*
G37*
G36*
X62470Y34225D02*
D01*
X62491Y31403D01*
X62470Y34225D01*
D02*
G37*
G36*
X66036Y34376D02*
D01*
X66059Y31239D01*
X66036Y34376D01*
D02*
G37*
%LPD*%
G36*
X62313Y38556D02*
X62345Y38553D01*
X62385Y38542D01*
X62433Y38528D01*
X62484Y38503D01*
X62532Y38470D01*
X62579Y38427D01*
X62583Y38420D01*
X62598Y38402D01*
X62616Y38369D01*
X62635Y38326D01*
X62657Y38267D01*
X62676Y38199D01*
X62691Y38115D01*
X62695Y38017D01*
X62695Y38013D01*
X62695Y38006D01*
X62695Y37991D01*
X62695Y37969D01*
X62692Y37947D01*
X62692Y37918D01*
X62686Y37856D01*
X62675Y37791D01*
X62661Y37722D01*
X62640Y37656D01*
X62611Y37597D01*
X62611Y37594D01*
X62604Y37590D01*
X62589Y37568D01*
X62560Y37539D01*
X62521Y37502D01*
X62474Y37465D01*
X62416Y37436D01*
X62350Y37413D01*
X62314Y37410D01*
X62274Y37406D01*
X62267Y37406D01*
X62248Y37409D01*
X62216Y37413D01*
X62179Y37423D01*
X62135Y37437D01*
X62091Y37462D01*
X62044Y37495D01*
X62000Y37538D01*
X61996Y37545D01*
X61981Y37564D01*
X61963Y37596D01*
X61941Y37643D01*
X61919Y37701D01*
X61900Y37774D01*
X61892Y37818D01*
X61885Y37865D01*
X61881Y37912D01*
X61880Y37967D01*
X61880Y37971D01*
X61880Y37981D01*
X61880Y37996D01*
X61880Y38018D01*
X61883Y38043D01*
X61887Y38072D01*
X61893Y38142D01*
X61907Y38215D01*
X61925Y38291D01*
X61954Y38361D01*
X61972Y38390D01*
X61993Y38419D01*
X61997Y38426D01*
X62015Y38441D01*
X62037Y38463D01*
X62073Y38489D01*
X62113Y38515D01*
X62164Y38537D01*
X62218Y38552D01*
X62283Y38560D01*
X62291Y38560D01*
X62313Y38556D01*
D02*
G37*
G36*
X62731Y37067D02*
X63179Y37070D01*
X63179Y37030D01*
X62186Y37023D01*
X62218Y37027D01*
X62258Y37034D01*
X62306Y37042D01*
X62357Y37057D01*
X62411Y37075D01*
X62469Y37101D01*
X62476Y37105D01*
X62494Y37116D01*
X62523Y37135D01*
X62560Y37160D01*
X62599Y37193D01*
X62643Y37230D01*
X62686Y37278D01*
X62729Y37333D01*
X62731Y37067D01*
D02*
G37*
G36*
X69211Y37982D02*
X69233Y37978D01*
X69266Y37968D01*
X69306Y37957D01*
X69361Y37943D01*
X69419Y37929D01*
X69492Y37914D01*
X69499Y37915D01*
X69510Y37911D01*
X69525Y37907D01*
X69558Y37901D01*
X69601Y37890D01*
X69645Y37879D01*
X69689Y37865D01*
X69726Y37847D01*
X69755Y37833D01*
X69758Y37829D01*
X69769Y37822D01*
X69784Y37808D01*
X69799Y37789D01*
X69817Y37764D01*
X69832Y37735D01*
X69843Y37702D01*
X69847Y37666D01*
X69847Y37662D01*
X69847Y37648D01*
X69844Y37630D01*
X69836Y37608D01*
X69829Y37578D01*
X69819Y37549D01*
X69801Y37520D01*
X69775Y37491D01*
X69772Y37487D01*
X69761Y37480D01*
X69747Y37469D01*
X69721Y37454D01*
X69696Y37439D01*
X69663Y37428D01*
X69623Y37420D01*
X69583Y37416D01*
X69561Y37416D01*
X69536Y37420D01*
X69503Y37427D01*
X69463Y37437D01*
X69423Y37452D01*
X69375Y37470D01*
X69331Y37498D01*
X69328Y37502D01*
X69317Y37509D01*
X69302Y37524D01*
X69284Y37542D01*
X69265Y37567D01*
X69247Y37592D01*
X69228Y37625D01*
X69217Y37658D01*
X69217Y37661D01*
X69214Y37669D01*
X69210Y37687D01*
X69206Y37709D01*
X69202Y37741D01*
X69198Y37781D01*
X69194Y37832D01*
X69194Y37890D01*
X69193Y37989D01*
X69197Y37989D01*
X69211Y37982D01*
D02*
G37*
G36*
X70335Y37084D02*
X69757Y37079D01*
X69779Y37083D01*
X69800Y37083D01*
X69829Y37087D01*
X69891Y37099D01*
X69964Y37117D01*
X70037Y37143D01*
X70109Y37180D01*
X70174Y37232D01*
X70174Y37235D01*
X70181Y37239D01*
X70199Y37261D01*
X70225Y37294D01*
X70253Y37338D01*
X70282Y37393D01*
X70307Y37458D01*
X70325Y37535D01*
X70328Y37575D01*
X70331Y37619D01*
X70335Y37084D01*
D02*
G37*
G36*
X67478Y38595D02*
X67510Y38591D01*
X67547Y38581D01*
X67594Y38566D01*
X67642Y38541D01*
X67689Y38509D01*
X67737Y38462D01*
X67741Y38455D01*
X67755Y38437D01*
X67774Y38404D01*
X67792Y38361D01*
X67815Y38302D01*
X67833Y38233D01*
X67849Y38150D01*
X67853Y38055D01*
X67853Y38052D01*
X67853Y38044D01*
X67853Y38026D01*
X67853Y38008D01*
X67850Y37982D01*
X67850Y37957D01*
X67843Y37895D01*
X67836Y37826D01*
X67822Y37753D01*
X67801Y37687D01*
X67790Y37658D01*
X67776Y37632D01*
X67776Y37629D01*
X67769Y37625D01*
X67754Y37603D01*
X67729Y37574D01*
X67693Y37541D01*
X67646Y37504D01*
X67592Y37475D01*
X67526Y37452D01*
X67490Y37448D01*
X67453Y37444D01*
X67446Y37444D01*
X67424Y37448D01*
X67395Y37451D01*
X67355Y37462D01*
X67311Y37476D01*
X67264Y37501D01*
X67216Y37534D01*
X67168Y37580D01*
X67165Y37588D01*
X67150Y37606D01*
X67132Y37639D01*
X67110Y37686D01*
X67087Y37744D01*
X67068Y37816D01*
X67053Y37904D01*
X67049Y38002D01*
X67049Y38006D01*
X67049Y38016D01*
X67049Y38031D01*
X67049Y38053D01*
X67052Y38078D01*
X67055Y38111D01*
X67062Y38177D01*
X67076Y38253D01*
X67094Y38326D01*
X67122Y38399D01*
X67140Y38428D01*
X67162Y38458D01*
X67165Y38465D01*
X67184Y38480D01*
X67205Y38502D01*
X67238Y38527D01*
X67281Y38553D01*
X67329Y38575D01*
X67387Y38590D01*
X67449Y38598D01*
X67456Y38598D01*
X67478Y38595D01*
D02*
G37*
G36*
X68355Y37069D02*
X67624Y37063D01*
X67646Y37067D01*
X67675Y37071D01*
X67704Y37078D01*
X67740Y37086D01*
X67780Y37097D01*
X67820Y37108D01*
X67864Y37127D01*
X67907Y37146D01*
X67954Y37171D01*
X67998Y37201D01*
X68045Y37234D01*
X68088Y37274D01*
X68131Y37318D01*
X68135Y37322D01*
X68142Y37329D01*
X68153Y37344D01*
X68164Y37366D01*
X68182Y37391D01*
X68200Y37424D01*
X68221Y37461D01*
X68239Y37505D01*
X68261Y37552D01*
X68282Y37603D01*
X68300Y37662D01*
X68314Y37724D01*
X68328Y37793D01*
X68339Y37866D01*
X68345Y37942D01*
X68348Y38026D01*
X68355Y37069D01*
D02*
G37*
G36*
X72672Y37141D02*
X72177Y37137D01*
X72657Y39121D01*
X72672Y37141D01*
D02*
G37*
G36*
X71685Y37134D02*
X71187Y37130D01*
X71176Y39110D01*
X71685Y37134D01*
D02*
G37*
G36*
X65417Y38576D02*
X65454Y38569D01*
X65494Y38554D01*
X65538Y38537D01*
X65582Y38508D01*
X65622Y38468D01*
X65626Y38464D01*
X65637Y38446D01*
X65655Y38421D01*
X65674Y38385D01*
X65696Y38341D01*
X65711Y38287D01*
X65722Y38225D01*
X65726Y38156D01*
X65006Y38150D01*
X65006Y38154D01*
X65006Y38161D01*
X65005Y38169D01*
X65009Y38183D01*
X65012Y38223D01*
X65019Y38267D01*
X65034Y38318D01*
X65051Y38373D01*
X65080Y38424D01*
X65113Y38468D01*
X65116Y38472D01*
X65131Y38486D01*
X65152Y38505D01*
X65181Y38527D01*
X65218Y38545D01*
X65261Y38564D01*
X65308Y38579D01*
X65363Y38583D01*
X65388Y38583D01*
X65417Y38576D01*
D02*
G37*
G36*
X66237Y37053D02*
X65374Y37047D01*
X65396Y37050D01*
X65429Y37051D01*
X65469Y37058D01*
X65516Y37066D01*
X65567Y37073D01*
X65618Y37088D01*
X65676Y37103D01*
X65734Y37126D01*
X65792Y37152D01*
X65850Y37181D01*
X65908Y37218D01*
X65962Y37258D01*
X66009Y37306D01*
X66056Y37361D01*
X66060Y37365D01*
X66063Y37372D01*
X66071Y37387D01*
X66085Y37405D01*
X66096Y37431D01*
X66110Y37460D01*
X66128Y37493D01*
X66142Y37533D01*
X66160Y37577D01*
X66174Y37624D01*
X66192Y37675D01*
X66203Y37733D01*
X66213Y37792D01*
X66224Y37854D01*
X66227Y37923D01*
X66230Y37992D01*
X66237Y37053D01*
D02*
G37*
G36*
X70204Y33322D02*
X70212Y33315D01*
X70226Y33304D01*
X70248Y33286D01*
X70274Y33264D01*
X70303Y33243D01*
X70340Y33217D01*
X70380Y33189D01*
X70424Y33160D01*
X70472Y33131D01*
X70523Y33099D01*
X70578Y33070D01*
X70694Y33016D01*
X70826Y32966D01*
X70837Y31507D01*
X70214Y31502D01*
X70201Y33325D01*
X70204Y33322D01*
D02*
G37*
G36*
X73487Y31483D02*
X72366Y31474D01*
X72391Y31478D01*
X72428Y31482D01*
X72468Y31486D01*
X72519Y31494D01*
X72573Y31505D01*
X72635Y31520D01*
X72697Y31539D01*
X72762Y31561D01*
X72831Y31591D01*
X72900Y31624D01*
X72969Y31661D01*
X73037Y31709D01*
X73103Y31760D01*
X73164Y31822D01*
X73168Y31826D01*
X73178Y31837D01*
X73193Y31859D01*
X73215Y31885D01*
X73236Y31921D01*
X73265Y31962D01*
X73294Y32013D01*
X73322Y32071D01*
X73351Y32133D01*
X73380Y32203D01*
X73408Y32283D01*
X73429Y32367D01*
X73450Y32454D01*
X73464Y32553D01*
X73475Y32655D01*
X73477Y32764D01*
X73487Y31483D01*
D02*
G37*
G36*
X75223Y32915D02*
X74874Y32913D01*
X74849Y32916D01*
X74783Y32916D01*
X74717Y32919D01*
X74652Y32926D01*
X74594Y32936D01*
X74568Y32939D01*
X74546Y32947D01*
X74542Y32950D01*
X74528Y32954D01*
X74510Y32965D01*
X74488Y32975D01*
X74462Y32993D01*
X74436Y33015D01*
X74407Y33040D01*
X74385Y33069D01*
X74381Y33073D01*
X74374Y33084D01*
X74367Y33102D01*
X74356Y33127D01*
X74344Y33156D01*
X74333Y33189D01*
X74329Y33225D01*
X74325Y33265D01*
X74325Y33273D01*
X74325Y33287D01*
X74329Y33313D01*
X74336Y33345D01*
X74346Y33382D01*
X74361Y33422D01*
X74379Y33459D01*
X74407Y33495D01*
X74411Y33499D01*
X74422Y33510D01*
X74440Y33525D01*
X74462Y33543D01*
X74491Y33565D01*
X74527Y33584D01*
X74567Y33598D01*
X74610Y33610D01*
X74614Y33610D01*
X74629Y33613D01*
X74654Y33617D01*
X74690Y33621D01*
X74738Y33621D01*
X74770Y33625D01*
X74803Y33626D01*
X74840Y33630D01*
X75218Y33632D01*
X75223Y32915D01*
D02*
G37*
D10*
X277836Y149144D02*
G03*
X277836Y149144I-3808J0D01*
G01*
Y137592D02*
G03*
X277836Y137592I-3808J0D01*
G01*
X321528Y28985D02*
X326350D01*
X337850D01*
Y117085D01*
X326250D02*
X337850D01*
X321528D02*
X326250D01*
X322950Y32985D02*
X325450D01*
X323050Y113085D02*
X325250D01*
X322750Y57785D02*
X325050D01*
X323050Y85385D02*
X325350D01*
X388528Y122895D02*
X394730D01*
Y23295D02*
Y122895D01*
X388528Y23295D02*
X394730D01*
X397250Y20705D02*
Y125825D01*
X321420D02*
X397250D01*
X321420Y20705D02*
Y125825D01*
Y20705D02*
X397250D01*
X287028Y-6356D02*
Y16644D01*
X319528Y-6356D02*
Y16144D01*
X287028Y-6356D02*
X319528D01*
D11*
X166610Y17979D02*
G03*
X159746Y17979I-3432J-8335D01*
G01*
Y1309D02*
G03*
X166610Y1309I3432J8335D01*
G01*
X203228Y135274D02*
G03*
X205069Y133433I1841J0D01*
G01*
X208978Y133444D02*
G03*
X210819Y135285I0J1841D01*
G01*
Y146503D02*
G03*
X208978Y148344I-1841J0D01*
G01*
X205069D02*
G03*
X203228Y146503I0J-1841D01*
G01*
X218960Y148979D02*
G03*
X212096Y148979I-3432J-8335D01*
G01*
Y132309D02*
G03*
X218960Y132309I3432J8335D01*
G01*
X145016Y1309D02*
G03*
X151880Y1309I3432J8335D01*
G01*
Y17979D02*
G03*
X145016Y17979I-3432J-8335D01*
G01*
X166678Y1644D02*
Y17644D01*
X159678Y1644D02*
Y17644D01*
X160678Y8644D02*
X165678D01*
X160678Y10644D02*
X165678D01*
X205169Y148344D02*
X208878D01*
X210828Y135233D02*
Y146453D01*
X203228Y135374D02*
Y146455D01*
X205178Y133444D02*
X208878D01*
X219028Y132644D02*
Y148644D01*
X212028Y132644D02*
Y148644D01*
X213028Y139644D02*
X218028D01*
X213028Y141644D02*
X218028D01*
X145948Y10644D02*
X150948D01*
X145948Y8644D02*
X150948D01*
X144948Y1644D02*
Y17644D01*
X151948Y1644D02*
Y17644D01*
D12*
X51996Y-6966D02*
G03*
X53571Y-5391I-0J1575D01*
G01*
X53571Y-2321D02*
G03*
X51996Y-746I-1575J0D01*
G01*
X43060Y-746D02*
G03*
X41485Y-2321I0J-1575D01*
G01*
Y-5391D02*
G03*
X43060Y-6966I1575J0D01*
G01*
X127250Y137179D02*
G03*
X125675Y138754I-1575J0D01*
G01*
X125675Y132534D02*
G03*
X127250Y134109I-0J1575D01*
G01*
X115163Y134109D02*
G03*
X116738Y132534I1575J0D01*
G01*
X116738Y138754D02*
G03*
X115163Y137179I0J-1575D01*
G01*
X112571Y137179D02*
G03*
X110996Y138754I-1575J0D01*
G01*
X110996Y132534D02*
G03*
X112571Y134109I-0J1575D01*
G01*
X100485Y134109D02*
G03*
X102059Y132534I1575J0D01*
G01*
X102059Y138754D02*
G03*
X100485Y137179I0J-1575D01*
G01*
X35638Y146581D02*
G03*
X34063Y148156I-1575J-0D01*
G01*
X30993Y148156D02*
G03*
X29418Y146581I0J-1575D01*
G01*
X29418Y137644D02*
G03*
X30993Y136069I1575J0D01*
G01*
X34063Y136069D02*
G03*
X35638Y137644I0J1575D01*
G01*
X20534Y132002D02*
G03*
X18959Y130427I0J-1575D01*
G01*
Y127356D02*
G03*
X20534Y125781I1575J0D01*
G01*
X29471Y125781D02*
G03*
X31046Y127356I-0J1575D01*
G01*
Y130427D02*
G03*
X29471Y132002I-1575J0D01*
G01*
X43761Y118534D02*
G03*
X45335Y120109I-0J1575D01*
G01*
Y123179D02*
G03*
X43761Y124754I-1575J0D01*
G01*
X34824Y124754D02*
G03*
X33249Y123179I0J-1575D01*
G01*
Y120109D02*
G03*
X34824Y118534I1575J0D01*
G01*
X102221Y-2321D02*
G03*
X100646Y-746I-1575J0D01*
G01*
Y-6966D02*
G03*
X102221Y-5391I-0J1575D01*
G01*
X90134Y-5391D02*
G03*
X91709Y-6966I1575J0D01*
G01*
Y-746D02*
G03*
X90134Y-2321I0J-1575D01*
G01*
X103134Y-5391D02*
G03*
X104709Y-6966I1575J0D01*
G01*
Y-746D02*
G03*
X103134Y-2321I0J-1575D01*
G01*
X115221D02*
G03*
X113646Y-746I-1575J0D01*
G01*
X113646Y-6966D02*
G03*
X115221Y-5391I-0J1575D01*
G01*
X135169Y140675D02*
G03*
X136744Y139101I1575J0D01*
G01*
X139815D02*
G03*
X141390Y140675I0J1575D01*
G01*
X141390Y149612D02*
G03*
X139815Y151187I-1575J-0D01*
G01*
X136744D02*
G03*
X135169Y149612I0J-1575D01*
G01*
X132325Y138997D02*
G03*
X133899Y140572I0J1575D01*
G01*
X127679D02*
G03*
X129254Y138997I1575J0D01*
G01*
X129254Y151083D02*
G03*
X127679Y149509I0J-1575D01*
G01*
X133899D02*
G03*
X132325Y151083I-1575J-0D01*
G01*
X65473Y149087D02*
G03*
X67048Y147512I1575J0D01*
G01*
X67048Y153732D02*
G03*
X65473Y152157I0J-1575D01*
G01*
X77560D02*
G03*
X75985Y153732I-1575J0D01*
G01*
X75985Y147512D02*
G03*
X77559Y149087I-0J1575D01*
G01*
X33529Y127356D02*
G03*
X35104Y125781I1575J0D01*
G01*
Y132002D02*
G03*
X33529Y130427I0J-1575D01*
G01*
X45616Y130427D02*
G03*
X44041Y132002I-1575J0D01*
G01*
X44041Y125781D02*
G03*
X45616Y127356I-0J1575D01*
G01*
X58382Y119168D02*
G03*
X59957Y120743I-0J1575D01*
G01*
X59957Y123814D02*
G03*
X58382Y125389I-1575J0D01*
G01*
X49445Y125389D02*
G03*
X47870Y123814I0J-1575D01*
G01*
Y120743D02*
G03*
X49445Y119168I1575J0D01*
G01*
X344063Y125601D02*
G03*
X345638Y127175I0J1575D01*
G01*
X339418D02*
G03*
X340993Y125601I1575J0D01*
G01*
X340993Y137687D02*
G03*
X339418Y136112I0J-1575D01*
G01*
X345638Y136112D02*
G03*
X344063Y137687I-1575J-0D01*
G01*
X336071Y149179D02*
G03*
X334496Y150754I-1575J0D01*
G01*
Y144534D02*
G03*
X336071Y146109I-0J1575D01*
G01*
X323985D02*
G03*
X325559Y144534I1575J0D01*
G01*
X325559Y150754D02*
G03*
X323985Y149179I0J-1575D01*
G01*
X181063Y118069D02*
G03*
X182638Y119644I0J1575D01*
G01*
X176418D02*
G03*
X177993Y118069I1575J0D01*
G01*
X177993Y130156D02*
G03*
X176418Y128581I0J-1575D01*
G01*
X182638D02*
G03*
X181063Y130156I-1575J-0D01*
G01*
X200067Y129187D02*
G03*
X198493Y127612I0J-1575D01*
G01*
X204713D02*
G03*
X203138Y129187I-1575J-0D01*
G01*
X203138Y117101D02*
G03*
X204713Y118675I0J1575D01*
G01*
X198493Y118675D02*
G03*
X200067Y117101I1575J0D01*
G01*
X149759Y91085D02*
G03*
X151334Y92660I0J1575D01*
G01*
X145114Y92660D02*
G03*
X146689Y91085I1575J0D01*
G01*
X146689Y103172D02*
G03*
X145114Y101597I0J-1575D01*
G01*
X151334Y101597D02*
G03*
X149759Y103172I-1575J-0D01*
G01*
X286063Y71601D02*
G03*
X287638Y73176I0J1575D01*
G01*
X281418Y73176D02*
G03*
X282993Y71601I1575J0D01*
G01*
X282993Y83687D02*
G03*
X281418Y82112I0J-1575D01*
G01*
X287638Y82112D02*
G03*
X286063Y83687I-1575J-0D01*
G01*
X122571Y47679D02*
G03*
X120997Y49254I-1575J0D01*
G01*
X120997Y43034D02*
G03*
X122571Y44609I-0J1575D01*
G01*
X110485Y44609D02*
G03*
X112060Y43034I1575J0D01*
G01*
Y49254D02*
G03*
X110485Y47679I0J-1575D01*
G01*
X37820Y10783D02*
G03*
X39395Y12357I0J1575D01*
G01*
X33174D02*
G03*
X34749Y10783I1575J0D01*
G01*
X34749Y22869D02*
G03*
X33174Y21294I0J-1575D01*
G01*
X39395D02*
G03*
X37820Y22869I-1575J-0D01*
G01*
X50493Y67719D02*
G03*
X48918Y66144I0J-1575D01*
G01*
X55138D02*
G03*
X53563Y67719I-1575J-0D01*
G01*
X53563Y55632D02*
G03*
X55138Y57207I0J1575D01*
G01*
X48918Y57207D02*
G03*
X50493Y55632I1575J0D01*
G01*
X88193Y138365D02*
G03*
X86619Y136790I0J-1575D01*
G01*
Y133719D02*
G03*
X88193Y132144I1575J0D01*
G01*
X97130D02*
G03*
X98705Y133719I-0J1575D01*
G01*
X98705Y136790D02*
G03*
X97130Y138365I-1575J0D01*
G01*
X95496Y101534D02*
G03*
X97071Y103109I-0J1575D01*
G01*
Y106179D02*
G03*
X95496Y107754I-1575J0D01*
G01*
X86559Y107754D02*
G03*
X84985Y106179I0J-1575D01*
G01*
Y103109D02*
G03*
X86559Y101534I1575J0D01*
G01*
X98922Y66979D02*
G03*
X97348Y65404I0J-1575D01*
G01*
Y62334D02*
G03*
X98922Y60759I1575J0D01*
G01*
X107859Y60759D02*
G03*
X109434Y62334I-0J1575D01*
G01*
Y65405D02*
G03*
X107859Y66979I-1575J0D01*
G01*
X76152Y106179D02*
G03*
X74577Y107754I-1575J-0D01*
G01*
X71506D02*
G03*
X69931Y106179I0J-1575D01*
G01*
X69931Y97242D02*
G03*
X71506Y95668I1575J0D01*
G01*
X74577D02*
G03*
X76152Y97242I0J1575D01*
G01*
X110918Y85207D02*
G03*
X112493Y83632I1575J0D01*
G01*
X115563D02*
G03*
X117138Y85207I0J1575D01*
G01*
X117138Y94144D02*
G03*
X115563Y95719I-1575J-0D01*
G01*
X112493D02*
G03*
X110918Y94144I0J-1575D01*
G01*
X65918Y-5930D02*
G03*
X67493Y-7505I1575J0D01*
G01*
X70564Y-7505D02*
G03*
X72139Y-5930I0J1575D01*
G01*
Y3007D02*
G03*
X70564Y4582I-1575J-0D01*
G01*
X67493D02*
G03*
X65918Y3007I0J-1575D01*
G01*
X75091Y-746D02*
G03*
X73516Y-2321I0J-1575D01*
G01*
X73516Y-5391D02*
G03*
X75091Y-6966I1575J0D01*
G01*
X84028D02*
G03*
X85603Y-5391I-0J1575D01*
G01*
X85603Y-2321D02*
G03*
X84028Y-746I-1575J0D01*
G01*
X145485Y84609D02*
G03*
X147060Y83034I1575J0D01*
G01*
X147060Y89254D02*
G03*
X145485Y87679I0J-1575D01*
G01*
X157571Y87679D02*
G03*
X155997Y89254I-1575J0D01*
G01*
X155997Y83034D02*
G03*
X157571Y84609I-0J1575D01*
G01*
X297671Y39194D02*
G03*
X299246Y40769I0J1575D01*
G01*
X293026D02*
G03*
X294601Y39194I1575J0D01*
G01*
X294601Y51281D02*
G03*
X293026Y49706I0J-1575D01*
G01*
X299246Y49706D02*
G03*
X297671Y51281I-1575J-0D01*
G01*
X77638Y77113D02*
G03*
X76063Y78687I-1575J-0D01*
G01*
X72993Y78687D02*
G03*
X71418Y77113I0J-1575D01*
G01*
X71418Y68176D02*
G03*
X72993Y66601I1575J0D01*
G01*
X76063D02*
G03*
X77638Y68176I0J1575D01*
G01*
X308269Y40648D02*
G03*
X309844Y39073I1575J0D01*
G01*
X312915D02*
G03*
X314490Y40648I0J1575D01*
G01*
X314490Y49585D02*
G03*
X312915Y51160I-1575J-0D01*
G01*
X309844D02*
G03*
X308269Y49585I0J-1575D01*
G01*
X300912Y40769D02*
G03*
X302487Y39194I1575J0D01*
G01*
X305558Y39194D02*
G03*
X307133Y40769I0J1575D01*
G01*
X307133Y49706D02*
G03*
X305558Y51281I-1575J-0D01*
G01*
X302487D02*
G03*
X300912Y49706I0J-1575D01*
G01*
X315857Y40581D02*
G03*
X317432Y39007I1575J0D01*
G01*
X320503D02*
G03*
X322078Y40581I0J1575D01*
G01*
Y49518D02*
G03*
X320503Y51093I-1575J-0D01*
G01*
X317432D02*
G03*
X315857Y49518I0J-1575D01*
G01*
X312329Y53694D02*
G03*
X313904Y52120I1575J0D01*
G01*
X316975Y52120D02*
G03*
X318550Y53694I0J1575D01*
G01*
X318550Y62631D02*
G03*
X316975Y64206I-1575J-0D01*
G01*
X313904D02*
G03*
X312329Y62631I0J-1575D01*
G01*
X310638Y116112D02*
G03*
X309063Y117687I-1575J-0D01*
G01*
X305993D02*
G03*
X304418Y116112I0J-1575D01*
G01*
Y107176D02*
G03*
X305993Y105601I1575J0D01*
G01*
X309063D02*
G03*
X310638Y107176I0J1575D01*
G01*
X296960Y95010D02*
G03*
X298535Y93435I1575J0D01*
G01*
X301606D02*
G03*
X303181Y95010I0J1575D01*
G01*
X303181Y103947D02*
G03*
X301606Y105522I-1575J-0D01*
G01*
X298535D02*
G03*
X296960Y103947I0J-1575D01*
G01*
X47552Y127870D02*
G03*
X49127Y126295I1575J0D01*
G01*
Y132516D02*
G03*
X47552Y130941I0J-1575D01*
G01*
X59639Y130941D02*
G03*
X58064Y132516I-1575J0D01*
G01*
X58064Y126295D02*
G03*
X59639Y127870I-0J1575D01*
G01*
X32155Y-635D02*
G03*
X33730Y-2210I1575J0D01*
G01*
X36801D02*
G03*
X38376Y-635I0J1575D01*
G01*
Y8302D02*
G03*
X36801Y9877I-1575J-0D01*
G01*
X33730D02*
G03*
X32155Y8302I0J-1575D01*
G01*
X43060Y-6966D02*
X45953D01*
X53571Y-5391D02*
Y-2321D01*
X41485Y-5391D02*
Y-2321D01*
X49103Y-6966D02*
X51996D01*
X49103Y-746D02*
X51996D01*
X43060D02*
X45953D01*
X122781Y132534D02*
X125675D01*
X116738D02*
X119632D01*
X116738Y138754D02*
X119632D01*
X127250Y134108D02*
Y137179D01*
X115163Y134108D02*
Y137179D01*
X122781Y138754D02*
X125675D01*
X108103Y132534D02*
X110996Y132534D01*
X102059D02*
X104953D01*
X102059Y138754D02*
X104953D01*
X112571Y134109D02*
Y137179D01*
X100485Y134109D02*
Y137179D01*
X108103Y138754D02*
X110996Y138754D01*
X35638Y137644D02*
Y140538D01*
X30993Y148156D02*
X34063D01*
X30993Y136069D02*
X34063D01*
X35638Y143687D02*
Y146581D01*
X29418Y143687D02*
Y146581D01*
Y137644D02*
Y140538D01*
X26577Y132002D02*
X29471D01*
X18959Y127356D02*
Y130427D01*
X31046Y127356D02*
Y130427D01*
X20534Y132002D02*
X23428D01*
X20534Y125781D02*
X23428D01*
X26577D02*
X29471D01*
X34824Y118534D02*
X37717D01*
X45335Y120109D02*
Y123179D01*
X33249Y120109D02*
Y123179D01*
X40867Y118534D02*
X43761D01*
X40867Y124754D02*
X43761D01*
X34824D02*
X37717D01*
X97752Y-6966D02*
X100646D01*
X91709D02*
X94603D01*
X91709Y-746D02*
X94603D01*
X102221Y-5391D02*
Y-2321D01*
X90134Y-5391D02*
Y-2321D01*
X97752Y-746D02*
X100646D01*
X104709D02*
X107603D01*
X110752D02*
X113646D01*
X110752Y-6966D02*
X113646D01*
X103134Y-5391D02*
Y-2321D01*
X115221Y-5391D02*
Y-2321D01*
X104709Y-6966D02*
X107603D01*
X135170Y146719D02*
Y149612D01*
X136744Y139101D02*
X139815D01*
X136744Y151187D02*
X139815D01*
X135170Y140675D02*
Y143569D01*
X141390Y140675D02*
Y143569D01*
X141390Y146719D02*
Y149613D01*
X127679Y140572D02*
Y143465D01*
Y146615D02*
Y149509D01*
X133899Y146615D02*
Y149509D01*
X129254Y138997D02*
X132325D01*
X129254Y151084D02*
X132325D01*
X133899Y140572D02*
Y143465D01*
X67048Y153732D02*
X69941D01*
X73091D02*
X75985D01*
X73091Y147512D02*
X75985Y147512D01*
X65473Y149087D02*
Y152157D01*
X77559Y149087D02*
Y152158D01*
X67048Y147512D02*
X69941D01*
X35104Y132002D02*
X37998D01*
X41147D02*
X44041D01*
X41147Y125781D02*
X44041D01*
X33529Y127356D02*
Y130427D01*
X45616Y127356D02*
Y130427D01*
X35104Y125781D02*
X37998D01*
X49445Y119168D02*
X52339D01*
X59957Y120743D02*
Y123814D01*
X47870Y120743D02*
Y123814D01*
X55488Y119168D02*
X58382D01*
X55488Y125389D02*
X58382D01*
X49445D02*
X52339D01*
X339418Y127175D02*
Y130069D01*
Y133219D02*
Y136112D01*
X345638Y133219D02*
Y136112D01*
X340993Y125601D02*
X344063D01*
X340993Y137687D02*
X344063D01*
X345638Y127175D02*
Y130069D01*
X331603Y144534D02*
X334497D01*
X325560D02*
X328453D01*
X325560Y150754D02*
X328453D01*
X336071Y146109D02*
Y149179D01*
X323985Y146109D02*
X323985Y149179D01*
X331603Y150754D02*
X334496D01*
X176418Y119644D02*
Y122538D01*
Y125687D02*
Y128581D01*
X182638Y125687D02*
Y128581D01*
X177993Y118069D02*
X181063D01*
X177993Y130156D02*
X181063D01*
X182638Y119644D02*
Y122538D01*
X204713Y124719D02*
Y127612D01*
Y118675D02*
Y121569D01*
X198493Y118675D02*
Y121569D01*
X200067Y129187D02*
X203138D01*
X200067Y117101D02*
X203138D01*
X198493Y124719D02*
Y127612D01*
X145114Y92660D02*
Y95554D01*
Y98703D02*
Y101597D01*
X151334Y98703D02*
Y101597D01*
X146689Y91085D02*
X149759D01*
X146689Y103172D02*
X149759D01*
X151334Y92660D02*
Y95554D01*
X281418Y73176D02*
Y76069D01*
Y79219D02*
Y82113D01*
X287638Y79219D02*
Y82113D01*
X282993Y71601D02*
X286063D01*
X282993Y83687D02*
X286063D01*
X287638Y73176D02*
Y76069D01*
X118103Y43034D02*
X120996D01*
X112059D02*
X114953D01*
X112059Y49254D02*
X114953D01*
X122571Y44609D02*
Y47679D01*
X110485Y44609D02*
Y47679D01*
X118103Y49254D02*
X120996D01*
X33174Y12358D02*
Y15251D01*
Y18401D02*
Y21294D01*
X39395Y18401D02*
Y21294D01*
X34749Y10783D02*
X37820D01*
X34749Y22869D02*
X37820D01*
X39395Y12358D02*
Y15251D01*
X55138Y63251D02*
Y66144D01*
Y57207D02*
Y60101D01*
X48918Y57207D02*
Y60101D01*
X50492Y67719D02*
X53563D01*
X50492Y55632D02*
X53563D01*
X48918Y63250D02*
Y66144D01*
X94237Y138365D02*
X97130D01*
X86618Y133719D02*
X86619Y136790D01*
X98705Y133719D02*
Y136790D01*
X88193Y138365D02*
X91087D01*
X88193Y132144D02*
X91087Y132144D01*
X94237D02*
X97130D01*
X86559Y101534D02*
X89453D01*
X97071Y103109D02*
Y106179D01*
X84985Y103109D02*
Y106179D01*
X92603Y101534D02*
X95496D01*
X92603Y107754D02*
X95496D01*
X86559D02*
X89453D01*
X104966Y66979D02*
X107859D01*
X97347Y62334D02*
Y65404D01*
X109434Y62334D02*
Y65404D01*
X98922Y66979D02*
X101816D01*
X98922Y60759D02*
X101816D01*
X104966D02*
X107859D01*
X76152Y100136D02*
X76152Y97242D01*
X71506Y107754D02*
X74577D01*
X71506Y95668D02*
X74577D01*
X76152Y103286D02*
Y106179D01*
X69931Y103286D02*
Y106179D01*
Y97242D02*
Y100136D01*
X110918Y91250D02*
Y94144D01*
X112493Y83632D02*
X115563D01*
X112493Y95719D02*
X115563D01*
X110918Y85207D02*
Y88101D01*
X117138Y85207D02*
Y88101D01*
Y91250D02*
Y94144D01*
X65918Y113D02*
Y3007D01*
X67493Y-7505D02*
X70564D01*
X67493Y4582D02*
X70564D01*
X65918Y-5930D02*
Y-3036D01*
X72138Y-5930D02*
Y-3036D01*
Y113D02*
Y3007D01*
X81134Y-746D02*
X84028D01*
X73516Y-5391D02*
Y-2321D01*
X85603Y-5391D02*
Y-2321D01*
X75091Y-746D02*
X77985D01*
X75091Y-6966D02*
X77985D01*
X81134D02*
X84028D01*
X147060Y89254D02*
X149953D01*
X153103D02*
X155997D01*
X153103Y83034D02*
X155997D01*
X145485Y84609D02*
Y87679D01*
X157571Y84609D02*
Y87679D01*
X147060Y83034D02*
X149953D01*
X293026Y40769D02*
Y43663D01*
Y46812D02*
Y49706D01*
X299246Y46812D02*
Y49706D01*
X294601Y39194D02*
X297671D01*
X294601Y51281D02*
X297671D01*
X299246Y40769D02*
Y43663D01*
X77638Y68175D02*
Y71069D01*
X72993Y78687D02*
X76063Y78687D01*
X72993Y66601D02*
X76064D01*
X77638Y77112D02*
X77638Y74219D01*
X71418D02*
Y77113D01*
X71418Y71069D02*
X71418Y68176D01*
X308269Y46691D02*
Y49585D01*
X309844Y39073D02*
X312915D01*
X309844Y51160D02*
X312915D01*
X308269Y40648D02*
Y43542D01*
X314489Y40648D02*
Y43541D01*
Y46691D02*
Y49585D01*
X300912Y46812D02*
Y49706D01*
X302487Y39194D02*
X305558D01*
X302487Y51281D02*
X305558D01*
X300912Y40769D02*
Y43663D01*
X307133Y40769D02*
Y43663D01*
Y46812D02*
Y49706D01*
X315857Y46625D02*
Y49518D01*
X317432Y39007D02*
X320503D01*
X317432Y51093D02*
X320503D01*
X315857Y40581D02*
Y43475D01*
X322078Y40581D02*
Y43475D01*
Y46625D02*
Y49518D01*
X312329Y59738D02*
Y62632D01*
X313904Y52120D02*
X316975D01*
X313904Y64206D02*
X316975D01*
X312329Y53695D02*
Y56588D01*
X318550Y53695D02*
Y56588D01*
Y59738D02*
Y62632D01*
X310638Y107176D02*
Y110069D01*
X305993Y117687D02*
X309063D01*
X305993Y105601D02*
X309063D01*
X310638Y113219D02*
Y116113D01*
X304418Y113219D02*
Y116113D01*
Y107176D02*
Y110069D01*
X296960Y101053D02*
Y103947D01*
X298535Y93435D02*
X301606D01*
X298535Y105521D02*
X301606D01*
X296960Y95010D02*
Y97903D01*
X303181Y95010D02*
Y97903D01*
Y101053D02*
Y103947D01*
X49127Y132516D02*
X52021D01*
X55171D02*
X58064D01*
X55171Y126296D02*
X58064D01*
X47553Y127870D02*
Y130941D01*
X59639Y127870D02*
Y130941D01*
X49127Y126296D02*
X52021D01*
X32155Y5408D02*
Y8302D01*
X33730Y-2210D02*
X36801D01*
X33730Y9877D02*
X36801D01*
X32155Y-635D02*
Y2259D01*
X38376Y-635D02*
Y2259D01*
Y5408D02*
Y8302D01*
X100998Y19181D02*
X106805D01*
X100998Y8945D02*
X106805D01*
Y10717D01*
Y17410D02*
Y19181D01*
X266630Y151522D02*
X268466D01*
Y148767D01*
X266630D01*
X268466Y150144D02*
X267548D01*
X263875Y151062D02*
X264334Y151522D01*
X265252D01*
X265711Y151062D01*
Y150603D01*
X265252Y150144D01*
X264334D01*
X263875Y149685D01*
Y149226D01*
X264334Y148767D01*
X265252D01*
X265711Y149226D01*
X262956Y148767D02*
Y151522D01*
X261579D01*
X261120Y151062D01*
Y150144D01*
X261579Y149685D01*
X262956D01*
X260201Y151062D02*
X259742Y151522D01*
X258824D01*
X258365Y151062D01*
Y150603D01*
X258824Y150144D01*
X258365Y149685D01*
Y149226D01*
X258824Y148767D01*
X259742D01*
X260201Y149226D01*
Y149685D01*
X259742Y150144D01*
X260201Y150603D01*
Y151062D01*
X259742Y150144D02*
X258824D01*
X255610Y148767D02*
X257446D01*
X255610Y150603D01*
Y151062D01*
X256069Y151522D01*
X256987D01*
X257446Y151062D01*
X252855Y151522D02*
X253773Y151062D01*
X254691Y150144D01*
Y149226D01*
X254232Y148767D01*
X253314D01*
X252855Y149226D01*
Y149685D01*
X253314Y150144D01*
X254691D01*
X250100Y151522D02*
X251018Y151062D01*
X251936Y150144D01*
Y149226D01*
X251477Y148767D01*
X250559D01*
X250100Y149226D01*
Y149685D01*
X250559Y150144D01*
X251936D01*
X249181Y151522D02*
X247345D01*
X248263D01*
Y148767D01*
X246426Y151522D02*
X244590Y148767D01*
Y151522D02*
X246426Y148767D01*
X266630Y139022D02*
X268466D01*
Y136267D01*
X266630D01*
X268466Y137644D02*
X267548D01*
X263875Y138562D02*
X264334Y139022D01*
X265252D01*
X265711Y138562D01*
Y138103D01*
X265252Y137644D01*
X264334D01*
X263875Y137185D01*
Y136726D01*
X264334Y136267D01*
X265252D01*
X265711Y136726D01*
X262956Y136267D02*
Y139022D01*
X261579D01*
X261120Y138562D01*
Y137644D01*
X261579Y137185D01*
X262956D01*
X260201Y138562D02*
X259742Y139022D01*
X258824D01*
X258365Y138562D01*
Y138103D01*
X258824Y137644D01*
X258365Y137185D01*
Y136726D01*
X258824Y136267D01*
X259742D01*
X260201Y136726D01*
Y137185D01*
X259742Y137644D01*
X260201Y138103D01*
Y138562D01*
X259742Y137644D02*
X258824D01*
X255610Y136267D02*
X257446D01*
X255610Y138103D01*
Y138562D01*
X256069Y139022D01*
X256987D01*
X257446Y138562D01*
X252855Y139022D02*
X253773Y138562D01*
X254691Y137644D01*
Y136726D01*
X254232Y136267D01*
X253314D01*
X252855Y136726D01*
Y137185D01*
X253314Y137644D01*
X254691D01*
X250100Y139022D02*
X251018Y138562D01*
X251936Y137644D01*
Y136726D01*
X251477Y136267D01*
X250559D01*
X250100Y136726D01*
Y137185D01*
X250559Y137644D01*
X251936D01*
X249181Y136267D02*
Y139022D01*
X247804D01*
X247345Y138562D01*
Y137644D01*
X247804Y137185D01*
X249181D01*
X248263D02*
X247345Y136267D01*
X246426Y139022D02*
X244590Y136267D01*
Y139022D02*
X246426Y136267D01*
D14*
X335556Y128581D02*
G03*
X335556Y128581I-591J0D01*
G01*
X337888Y121530D02*
G03*
X337888Y121530I-591J0D01*
G01*
D18*
X169579Y9545D02*
Y10745D01*
X172779Y9545D02*
Y10745D01*
X154578Y9619D02*
Y10819D01*
X157778Y9619D02*
Y10819D01*
X47005Y19567D02*
X48205D01*
X47005Y22767D02*
X48205D01*
X163582Y95244D02*
X164782D01*
X163582Y92044D02*
X164782D01*
X70582Y10468D02*
Y11668D01*
X67382Y10468D02*
Y11668D01*
X90113Y9318D02*
Y10518D01*
X86913Y9318D02*
Y10518D01*
X140278Y133710D02*
X141478D01*
X140278Y130510D02*
X141478D01*
X70581Y146244D02*
X71782D01*
X70582Y143044D02*
X71781D01*
X105929Y129940D02*
X107129Y129940D01*
X105929Y126740D02*
X107129D01*
X303427Y81545D02*
X304627D01*
X303427Y84745D02*
X304627D01*
X303423Y87186D02*
X304623D01*
X303423Y90386D02*
X304623D01*
X296936Y53607D02*
Y60299D01*
X297723Y53607D02*
Y60299D01*
X294771Y53607D02*
X306188D01*
X294771Y60299D02*
X306179D01*
X297330Y53607D02*
Y60299D01*
X293590D02*
X294771D01*
X293590D02*
X294771Y59709D01*
X293590Y60299D02*
X294771Y60890D01*
Y59709D02*
Y60890D01*
X293590Y59709D02*
Y60890D01*
X303563Y65918D02*
X304763D01*
X303563Y62718D02*
X304763D01*
X234429Y135045D02*
Y136245D01*
X237629Y135045D02*
Y136245D01*
X211274Y120744D02*
X212474D01*
X211274Y117544D02*
X212474D01*
X156192Y117242D02*
X157391D01*
X156191Y114042D02*
X157391D01*
X154121Y130510D02*
X155322Y130511D01*
X154121Y133710D02*
X155322D01*
X153428Y96198D02*
Y97398D01*
X156628Y96198D02*
Y97398D01*
X163429Y101243D02*
X164629D01*
X163429Y98043D02*
X164629D01*
X303430Y68968D02*
X304630D01*
X303430Y72168D02*
X304630D01*
X303423Y78481D02*
X304623D01*
X303423Y75281D02*
X304623D01*
X308577Y98052D02*
Y99252D01*
X305377Y98052D02*
Y99252D01*
X283479Y57898D02*
Y59098D01*
X286679Y57898D02*
Y59098D01*
X260346Y8709D02*
X264096Y4959D01*
X260346Y1209D02*
X264096Y4959D01*
X260346Y1209D02*
Y8709D01*
X344627Y14543D02*
Y15743D01*
X341427Y14543D02*
Y15743D01*
X194429Y55545D02*
Y56745D01*
X197629Y55545D02*
Y56745D01*
X138367Y4718D02*
Y5918D01*
X135167Y4718D02*
Y5918D01*
X120971D02*
X120971Y4718D01*
X124171D02*
Y5918D01*
X128066Y4718D02*
Y5918D01*
X131266Y4718D02*
Y5918D01*
X59412Y19251D02*
X60612D01*
X59412Y22451D02*
X60612D01*
X161128Y142090D02*
X161128Y140890D01*
X157928D02*
Y142090D01*
X344128Y1698D02*
Y2898D01*
X340928Y1698D02*
Y2898D01*
X195429Y19045D02*
Y20245D01*
X198629Y19045D02*
Y20245D01*
X188617Y19045D02*
Y20245D01*
X191817Y19045D02*
Y20245D01*
X86401Y19399D02*
X87600D01*
X86401Y22599D02*
X87600D01*
X73392Y19249D02*
X74592D01*
X73392Y22449D02*
X74592D01*
X191002Y129245D02*
X192202D01*
X191002Y126045D02*
X192202D01*
X233927Y147543D02*
Y148743D01*
X237127Y147543D02*
Y148743D01*
X274927Y98543D02*
Y99743D01*
X278127Y98543D02*
Y99743D01*
X52427Y89043D02*
Y90243D01*
X55627Y90243D02*
X55627Y89043D01*
X156429Y123243D02*
X157629D01*
X156429Y120043D02*
X157629Y120043D01*
X112103Y13273D02*
Y14473D01*
X115303Y13273D02*
Y14473D01*
X102373Y6473D02*
X103573D01*
X102373Y3273D02*
X103573D01*
D19*
X337233Y125619D02*
Y134055D01*
X324822D02*
X337233D01*
X324822Y125619D02*
Y134055D01*
Y125619D02*
X337233D01*
X146583Y141651D02*
X150169D01*
X150323Y148550D02*
X154424D01*
Y141651D02*
Y148550D01*
X142328D02*
X146429D01*
X142328Y141651D02*
Y148550D01*
D21*
X209046Y-10574D02*
Y83914D01*
X275975D01*
Y-10574D02*
Y83914D01*
X209046Y-10574D02*
X275975D01*
X390288Y25667D02*
Y25011D01*
X389960Y24683D01*
X388648D01*
X388320Y25011D01*
Y25667D01*
X388648Y25995D01*
X389960D01*
X390288Y25667D01*
Y26651D02*
X388320D01*
Y27962D01*
X390288Y29930D02*
Y28618D01*
X388320D01*
Y29930D01*
X389304Y28618D02*
Y29274D01*
X390288Y30586D02*
X388320D01*
Y31570D01*
X388648Y31898D01*
X389960D01*
X390288Y31570D01*
Y30586D01*
X387992Y32554D02*
Y33866D01*
X388320Y34522D02*
Y35178D01*
Y34850D01*
X390288D01*
X389960Y34522D01*
X388320Y37474D02*
Y36162D01*
X389632Y37474D01*
X389960D01*
X390288Y37146D01*
Y36490D01*
X389960Y36162D01*
Y38130D02*
X390288Y38458D01*
Y39114D01*
X389960Y39442D01*
X389632D01*
X389304Y39114D01*
X388976Y39442D01*
X388648D01*
X388320Y39114D01*
Y38458D01*
X388648Y38130D01*
X388976D01*
X389304Y38458D01*
X389632Y38130D01*
X389960D01*
X389304Y38458D02*
Y39114D01*
X390288Y40098D02*
X388320Y41410D01*
X390288D02*
X388320Y40098D01*
X390288Y43377D02*
X389960Y42721D01*
X389304Y42065D01*
X388648D01*
X388320Y42393D01*
Y43049D01*
X388648Y43377D01*
X388976D01*
X389304Y43049D01*
Y42065D01*
X388320Y45017D02*
X390288D01*
X389304Y44033D01*
Y45345D01*
X341422Y32538D02*
Y33194D01*
Y32866D01*
X343390D01*
X343062Y32538D01*
X343062Y111038D02*
X343390Y111365D01*
Y112021D01*
X343062Y112349D01*
X342734D01*
X342406Y112021D01*
Y111694D01*
Y112021D01*
X342078Y112349D01*
X341750D01*
X341422Y112021D01*
Y111365D01*
X341750Y111038D01*
X343062Y113005D02*
X343390Y113333D01*
Y113989D01*
X343062Y114317D01*
X341750D01*
X341422Y113989D01*
Y113333D01*
X341750Y113005D01*
X343062D01*
X271134Y33006D02*
Y31038D01*
X269822D01*
X268182Y33006D02*
X268839D01*
X269166Y32678D01*
Y31366D01*
X268839Y31038D01*
X268182D01*
X267854Y31366D01*
Y32678D01*
X268182Y33006D01*
X267199Y31038D02*
Y33006D01*
X266215D01*
X265887Y32678D01*
Y32022D01*
X266215Y31694D01*
X267199D01*
X266543D02*
X265887Y31038D01*
X265231D02*
Y32350D01*
X264575Y33006D01*
X263919Y32350D01*
Y31038D01*
Y32022D01*
X265231D01*
X263263D02*
X261951D01*
X261295Y32678D02*
X260967Y33006D01*
X260311D01*
X259983Y32678D01*
Y31366D01*
X260311Y31038D01*
X260967D01*
X261295Y31366D01*
Y32678D01*
X258015Y31038D02*
X259327D01*
X258015Y32350D01*
Y32678D01*
X258343Y33006D01*
X258999D01*
X259327Y32678D01*
X140308Y11660D02*
Y13628D01*
X139324D01*
X138996Y13300D01*
Y12644D01*
X139324Y12316D01*
X140308D01*
X139652D02*
X138996Y11660D01*
X138340Y13300D02*
X138012Y13628D01*
X137356D01*
X137028Y13300D01*
Y12972D01*
X137356Y12644D01*
X137684D01*
X137356D01*
X137028Y12316D01*
Y11988D01*
X137356Y11660D01*
X138012D01*
X138340Y11988D01*
X136372Y12644D02*
X135060D01*
X134404Y11660D02*
X133748D01*
X134076D01*
Y13628D01*
X134404Y13300D01*
X198652Y62160D02*
Y64128D01*
X197668D01*
X197340Y63800D01*
Y63144D01*
X197668Y62816D01*
X198652D01*
X197996D02*
X197340Y62160D01*
X195372Y64128D02*
X196684D01*
Y63144D01*
X196028Y63472D01*
X195700D01*
X195372Y63144D01*
Y62488D01*
X195700Y62160D01*
X196356D01*
X196684Y62488D01*
X194716Y63800D02*
X194388Y64128D01*
X193732D01*
X193404Y63800D01*
Y62488D01*
X193732Y62160D01*
X194388D01*
X194716Y62488D01*
Y63800D01*
X289152Y48660D02*
Y50628D01*
X288168D01*
X287840Y50300D01*
Y49644D01*
X288168Y49316D01*
X289152D01*
X288496D02*
X287840Y48660D01*
X286200D02*
Y50628D01*
X287184Y49644D01*
X285872D01*
X285216Y48988D02*
X284888Y48660D01*
X284232D01*
X283904Y48988D01*
Y50300D01*
X284232Y50628D01*
X284888D01*
X285216Y50300D01*
Y49972D01*
X284888Y49644D01*
X283904D01*
X259972Y16128D02*
Y14160D01*
X258660D01*
X258004Y16128D02*
X257348D01*
X257676D01*
Y14160D01*
X258004D01*
X257348D01*
X256364D02*
Y16128D01*
X255052Y14160D01*
Y16128D01*
X253084D02*
X254396D01*
Y14160D01*
X253084D01*
X254396Y15144D02*
X253740D01*
X148528Y21800D02*
X148856Y22128D01*
X149512D01*
X149840Y21800D01*
Y20488D01*
X149512Y20160D01*
X148856D01*
X148528Y20488D01*
X147872Y20160D02*
X147216D01*
X147544D01*
Y22128D01*
X147872Y21800D01*
X163856D02*
X164184Y22128D01*
X164840D01*
X165168Y21800D01*
Y20488D01*
X164840Y20160D01*
X164184D01*
X163856Y20488D01*
X161888Y20160D02*
X163200D01*
X161888Y21472D01*
Y21800D01*
X162216Y22128D01*
X162872D01*
X163200Y21800D01*
X62372Y151472D02*
X62044Y151800D01*
Y152456D01*
X62372Y152784D01*
X63684D01*
X64012Y152456D01*
Y151800D01*
X63684Y151472D01*
X62372Y150816D02*
X62044Y150488D01*
Y149832D01*
X62372Y149504D01*
X62700D01*
X63028Y149832D01*
Y150160D01*
Y149832D01*
X63356Y149504D01*
X63684D01*
X64012Y149832D01*
Y150488D01*
X63684Y150816D01*
X115816Y100184D02*
X116144Y100512D01*
X116800D01*
X117128Y100184D01*
Y98872D01*
X116800Y98544D01*
X116144D01*
X115816Y98872D01*
X114176Y98544D02*
Y100512D01*
X115160Y99528D01*
X113848D01*
X103356Y105800D02*
X103684Y106128D01*
X104340D01*
X104668Y105800D01*
Y104488D01*
X104340Y104160D01*
X103684D01*
X103356Y104488D01*
X101388Y106128D02*
X102044Y105800D01*
X102700Y105144D01*
Y104488D01*
X102372Y104160D01*
X101716D01*
X101388Y104488D01*
Y104816D01*
X101716Y105144D01*
X102700D01*
X74816Y112184D02*
X75144Y112512D01*
X75800D01*
X76128Y112184D01*
Y110872D01*
X75800Y110544D01*
X75144D01*
X74816Y110872D01*
X74160Y112512D02*
X72848D01*
Y112184D01*
X74160Y110872D01*
Y110544D01*
X76316Y83084D02*
X76644Y83412D01*
X77300D01*
X77628Y83084D01*
Y81772D01*
X77300Y81444D01*
X76644D01*
X76316Y81772D01*
X75660Y83084D02*
X75332Y83412D01*
X74676D01*
X74348Y83084D01*
Y82756D01*
X74676Y82428D01*
X74348Y82100D01*
Y81772D01*
X74676Y81444D01*
X75332D01*
X75660Y81772D01*
Y82100D01*
X75332Y82428D01*
X75660Y82756D01*
Y83084D01*
X75332Y82428D02*
X74676D01*
X91667Y64614D02*
X91339Y64943D01*
Y65598D01*
X91667Y65926D01*
X92979D01*
X93307Y65598D01*
Y64943D01*
X92979Y64614D01*
Y63959D02*
X93307Y63631D01*
Y62975D01*
X92979Y62647D01*
X91667D01*
X91339Y62975D01*
Y63631D01*
X91667Y63959D01*
X91996D01*
X92323Y63631D01*
Y62647D01*
X131348Y153800D02*
X131676Y154128D01*
X132332D01*
X132660Y153800D01*
Y152488D01*
X132332Y152160D01*
X131676D01*
X131348Y152488D01*
X130692Y152160D02*
X130036D01*
X130364D01*
Y154128D01*
X130692Y153800D01*
X129052Y152160D02*
X128396D01*
X128724D01*
Y154128D01*
X129052Y153800D01*
X121176Y141800D02*
X121504Y142128D01*
X122160D01*
X122488Y141800D01*
Y140488D01*
X122160Y140160D01*
X121504D01*
X121176Y140488D01*
X120520Y140160D02*
X119864D01*
X120192D01*
Y142128D01*
X120520Y141800D01*
X117568Y140160D02*
X118880D01*
X117568Y141472D01*
Y141800D01*
X117896Y142128D01*
X118552D01*
X118880Y141800D01*
X140176Y153800D02*
X140504Y154128D01*
X141160D01*
X141488Y153800D01*
Y152488D01*
X141160Y152160D01*
X140504D01*
X140176Y152488D01*
X139520Y152160D02*
X138864D01*
X139192D01*
Y154128D01*
X139520Y153800D01*
X136896Y152160D02*
Y154128D01*
X137880Y153144D01*
X136568D01*
X47676Y74332D02*
X48004Y74660D01*
X48660D01*
X48988Y74332D01*
Y73020D01*
X48660Y72692D01*
X48004D01*
X47676Y73020D01*
X47020Y72692D02*
X46364D01*
X46692D01*
Y74660D01*
X47020Y74332D01*
X44068Y74660D02*
X45380D01*
Y73676D01*
X44724Y74004D01*
X44396D01*
X44068Y73676D01*
Y73020D01*
X44396Y72692D01*
X45052D01*
X45380Y73020D01*
X117676Y40300D02*
X118004Y40628D01*
X118660D01*
X118988Y40300D01*
Y38988D01*
X118660Y38660D01*
X118004D01*
X117676Y38988D01*
X117020Y38660D02*
X116364D01*
X116692D01*
Y40628D01*
X117020Y40300D01*
X114068Y40628D02*
X114724Y40300D01*
X115380Y39644D01*
Y38988D01*
X115052Y38660D01*
X114396D01*
X114068Y38988D01*
Y39316D01*
X114396Y39644D01*
X115380D01*
X94176Y141300D02*
X94504Y141628D01*
X95160D01*
X95488Y141300D01*
Y139988D01*
X95160Y139660D01*
X94504D01*
X94176Y139988D01*
X93520Y139660D02*
X92864D01*
X93192D01*
Y141628D01*
X93520Y141300D01*
X91880Y141628D02*
X90568D01*
Y141300D01*
X91880Y139988D01*
Y139660D01*
X107676Y141300D02*
X108004Y141628D01*
X108660D01*
X108988Y141300D01*
Y139988D01*
X108660Y139660D01*
X108004D01*
X107676Y139988D01*
X107020Y139660D02*
X106364D01*
X106692D01*
Y141628D01*
X107020Y141300D01*
X105380D02*
X105052Y141628D01*
X104396D01*
X104068Y141300D01*
Y140972D01*
X104396Y140644D01*
X104068Y140316D01*
Y139988D01*
X104396Y139660D01*
X105052D01*
X105380Y139988D01*
Y140316D01*
X105052Y140644D01*
X105380Y140972D01*
Y141300D01*
X105052Y140644D02*
X104396D01*
X286176Y70300D02*
X286504Y70628D01*
X287160D01*
X287488Y70300D01*
Y68988D01*
X287160Y68660D01*
X286504D01*
X286176Y68988D01*
X285520Y68660D02*
X284864D01*
X285192D01*
Y70628D01*
X285520Y70300D01*
X283880Y68988D02*
X283552Y68660D01*
X282896D01*
X282568Y68988D01*
Y70300D01*
X282896Y70628D01*
X283552D01*
X283880Y70300D01*
Y69972D01*
X283552Y69644D01*
X282568D01*
X181012Y132800D02*
X181340Y133128D01*
X181996D01*
X182324Y132800D01*
Y131488D01*
X181996Y131160D01*
X181340D01*
X181012Y131488D01*
X179044Y131160D02*
X180356D01*
X179044Y132472D01*
Y132800D01*
X179372Y133128D01*
X180028D01*
X180356Y132800D01*
X178388Y131160D02*
X177732D01*
X178060D01*
Y133128D01*
X178388Y132800D01*
X208340Y150800D02*
X208668Y151128D01*
X209324D01*
X209652Y150800D01*
Y149488D01*
X209324Y149160D01*
X208668D01*
X208340Y149488D01*
X206372Y149160D02*
X207684D01*
X206372Y150472D01*
Y150800D01*
X206700Y151128D01*
X207356D01*
X207684Y150800D01*
X204404Y149160D02*
X205716D01*
X204404Y150472D01*
Y150800D01*
X204732Y151128D01*
X205388D01*
X205716Y150800D01*
X217340Y152300D02*
X217668Y152628D01*
X218324D01*
X218652Y152300D01*
Y150988D01*
X218324Y150660D01*
X217668D01*
X217340Y150988D01*
X215372Y150660D02*
X216684D01*
X215372Y151972D01*
Y152300D01*
X215700Y152628D01*
X216356D01*
X216684Y152300D01*
X214716D02*
X214388Y152628D01*
X213732D01*
X213404Y152300D01*
Y151972D01*
X213732Y151644D01*
X214060D01*
X213732D01*
X213404Y151316D01*
Y150988D01*
X213732Y150660D01*
X214388D01*
X214716Y150988D01*
X202840Y132300D02*
X203168Y132628D01*
X203824D01*
X204152Y132300D01*
Y130988D01*
X203824Y130660D01*
X203168D01*
X202840Y130988D01*
X200872Y130660D02*
X202184D01*
X200872Y131972D01*
Y132300D01*
X201200Y132628D01*
X201856D01*
X202184Y132300D01*
X198904Y132628D02*
X199560Y132300D01*
X200216Y131644D01*
Y130988D01*
X199888Y130660D01*
X199232D01*
X198904Y130988D01*
Y131316D01*
X199232Y131644D01*
X200216D01*
X344340Y140800D02*
X344668Y141128D01*
X345324D01*
X345652Y140800D01*
Y139488D01*
X345324Y139160D01*
X344668D01*
X344340Y139488D01*
X342372Y139160D02*
X343684D01*
X342372Y140472D01*
Y140800D01*
X342700Y141128D01*
X343356D01*
X343684Y140800D01*
X341716D02*
X341388Y141128D01*
X340732D01*
X340404Y140800D01*
Y140472D01*
X340732Y140144D01*
X340404Y139816D01*
Y139488D01*
X340732Y139160D01*
X341388D01*
X341716Y139488D01*
Y139816D01*
X341388Y140144D01*
X341716Y140472D01*
Y140800D01*
X341388Y140144D02*
X340732D01*
X331340Y153800D02*
X331668Y154128D01*
X332324D01*
X332652Y153800D01*
Y152488D01*
X332324Y152160D01*
X331668D01*
X331340Y152488D01*
X329372Y152160D02*
X330684D01*
X329372Y153472D01*
Y153800D01*
X329700Y154128D01*
X330356D01*
X330684Y153800D01*
X328716Y152488D02*
X328388Y152160D01*
X327732D01*
X327404Y152488D01*
Y153800D01*
X327732Y154128D01*
X328388D01*
X328716Y153800D01*
Y153472D01*
X328388Y153144D01*
X327404D01*
X296012Y34800D02*
X296340Y35128D01*
X296996D01*
X297324Y34800D01*
Y33488D01*
X296996Y33160D01*
X296340D01*
X296012Y33488D01*
X295356Y34800D02*
X295028Y35128D01*
X294372D01*
X294044Y34800D01*
Y34472D01*
X294372Y34144D01*
X294700D01*
X294372D01*
X294044Y33816D01*
Y33488D01*
X294372Y33160D01*
X295028D01*
X295356Y33488D01*
X293388Y33160D02*
X292732D01*
X293060D01*
Y35128D01*
X293388Y34800D01*
X33840Y150800D02*
X34168Y151128D01*
X34824D01*
X35152Y150800D01*
Y149488D01*
X34824Y149160D01*
X34168D01*
X33840Y149488D01*
X33184Y150800D02*
X32856Y151128D01*
X32200D01*
X31872Y150800D01*
Y150472D01*
X32200Y150144D01*
X32528D01*
X32200D01*
X31872Y149816D01*
Y149488D01*
X32200Y149160D01*
X32856D01*
X33184Y149488D01*
X31216Y150800D02*
X30888Y151128D01*
X30232D01*
X29904Y150800D01*
Y150472D01*
X30232Y150144D01*
X30560D01*
X30232D01*
X29904Y149816D01*
Y149488D01*
X30232Y149160D01*
X30888D01*
X31216Y149488D01*
X312340Y34800D02*
X312668Y35128D01*
X313324D01*
X313652Y34800D01*
Y33488D01*
X313324Y33160D01*
X312668D01*
X312340Y33488D01*
X311684Y34800D02*
X311356Y35128D01*
X310700D01*
X310372Y34800D01*
Y34472D01*
X310700Y34144D01*
X311028D01*
X310700D01*
X310372Y33816D01*
Y33488D01*
X310700Y33160D01*
X311356D01*
X311684Y33488D01*
X308732Y33160D02*
Y35128D01*
X309716Y34144D01*
X308404D01*
X304340Y34800D02*
X304668Y35128D01*
X305324D01*
X305652Y34800D01*
Y33488D01*
X305324Y33160D01*
X304668D01*
X304340Y33488D01*
X303684Y34800D02*
X303356Y35128D01*
X302700D01*
X302372Y34800D01*
Y34472D01*
X302700Y34144D01*
X303028D01*
X302700D01*
X302372Y33816D01*
Y33488D01*
X302700Y33160D01*
X303356D01*
X303684Y33488D01*
X300404Y35128D02*
X301716D01*
Y34144D01*
X301060Y34472D01*
X300732D01*
X300404Y34144D01*
Y33488D01*
X300732Y33160D01*
X301388D01*
X301716Y33488D01*
X87372Y-3544D02*
X87044Y-3216D01*
Y-2560D01*
X87372Y-2232D01*
X88684D01*
X89012Y-2560D01*
Y-3216D01*
X88684Y-3544D01*
X87372Y-4200D02*
X87044Y-4528D01*
Y-5184D01*
X87372Y-5512D01*
X87700D01*
X88028Y-5184D01*
Y-4856D01*
Y-5184D01*
X88356Y-5512D01*
X88684D01*
X89012Y-5184D01*
Y-4528D01*
X88684Y-4200D01*
X87044Y-7480D02*
X87372Y-6824D01*
X88028Y-6168D01*
X88684D01*
X89012Y-6496D01*
Y-7152D01*
X88684Y-7480D01*
X88356D01*
X88028Y-7152D01*
Y-6168D01*
X113340Y1800D02*
X113668Y2128D01*
X114324D01*
X114652Y1800D01*
Y488D01*
X114324Y160D01*
X113668D01*
X113340Y488D01*
X112684Y1800D02*
X112356Y2128D01*
X111700D01*
X111372Y1800D01*
Y1472D01*
X111700Y1144D01*
X112028D01*
X111700D01*
X111372Y816D01*
Y488D01*
X111700Y160D01*
X112356D01*
X112684Y488D01*
X110716Y2128D02*
X109404D01*
Y1800D01*
X110716Y488D01*
Y160D01*
X319840Y34800D02*
X320168Y35128D01*
X320824D01*
X321152Y34800D01*
Y33488D01*
X320824Y33160D01*
X320168D01*
X319840Y33488D01*
X319184Y34800D02*
X318856Y35128D01*
X318200D01*
X317872Y34800D01*
Y34472D01*
X318200Y34144D01*
X318528D01*
X318200D01*
X317872Y33816D01*
Y33488D01*
X318200Y33160D01*
X318856D01*
X319184Y33488D01*
X317216Y34800D02*
X316888Y35128D01*
X316232D01*
X315904Y34800D01*
Y34472D01*
X316232Y34144D01*
X315904Y33816D01*
Y33488D01*
X316232Y33160D01*
X316888D01*
X317216Y33488D01*
Y33816D01*
X316888Y34144D01*
X317216Y34472D01*
Y34800D01*
X316888Y34144D02*
X316232D01*
X324684Y52332D02*
X325012Y52004D01*
Y51348D01*
X324684Y51020D01*
X323372D01*
X323044Y51348D01*
Y52004D01*
X323372Y52332D01*
X324684Y52988D02*
X325012Y53316D01*
Y53972D01*
X324684Y54300D01*
X324356D01*
X324028Y53972D01*
Y53644D01*
Y53972D01*
X323700Y54300D01*
X323372D01*
X323044Y53972D01*
Y53316D01*
X323372Y52988D01*
Y54956D02*
X323044Y55284D01*
Y55940D01*
X323372Y56268D01*
X324684D01*
X325012Y55940D01*
Y55284D01*
X324684Y54956D01*
X324356D01*
X324028Y55284D01*
Y56268D01*
X308340Y120300D02*
X308668Y120628D01*
X309324D01*
X309652Y120300D01*
Y118988D01*
X309324Y118660D01*
X308668D01*
X308340Y118988D01*
X306700Y118660D02*
Y120628D01*
X307684Y119644D01*
X306372D01*
X305716Y120300D02*
X305388Y120628D01*
X304732D01*
X304404Y120300D01*
Y118988D01*
X304732Y118660D01*
X305388D01*
X305716Y118988D01*
Y120300D01*
X292012Y99800D02*
X292340Y100128D01*
X292996D01*
X293324Y99800D01*
Y98488D01*
X292996Y98160D01*
X292340D01*
X292012Y98488D01*
X290372Y98160D02*
Y100128D01*
X291356Y99144D01*
X290044D01*
X289388Y98160D02*
X288732D01*
X289060D01*
Y100128D01*
X289388Y99800D01*
X81340Y1800D02*
X81668Y2128D01*
X82324D01*
X82652Y1800D01*
Y488D01*
X82324Y160D01*
X81668D01*
X81340Y488D01*
X79700Y160D02*
Y2128D01*
X80684Y1144D01*
X79372D01*
X77404Y160D02*
X78716D01*
X77404Y1472D01*
Y1800D01*
X77732Y2128D01*
X78388D01*
X78716Y1800D01*
X62872Y-544D02*
X62544Y-216D01*
Y440D01*
X62872Y768D01*
X64184D01*
X64512Y440D01*
Y-216D01*
X64184Y-544D01*
X64512Y-2184D02*
X62544D01*
X63528Y-1200D01*
Y-2512D01*
X62872Y-3168D02*
X62544Y-3496D01*
Y-4152D01*
X62872Y-4480D01*
X63200D01*
X63528Y-4152D01*
Y-3824D01*
Y-4152D01*
X63856Y-4480D01*
X64184D01*
X64512Y-4152D01*
Y-3496D01*
X64184Y-3168D01*
X55340Y117300D02*
X55668Y117628D01*
X56324D01*
X56652Y117300D01*
Y115988D01*
X56324Y115660D01*
X55668D01*
X55340Y115988D01*
X53700Y115660D02*
Y117628D01*
X54684Y116644D01*
X53372D01*
X51732Y115660D02*
Y117628D01*
X52716Y116644D01*
X51404D01*
X41340Y134800D02*
X41668Y135128D01*
X42324D01*
X42652Y134800D01*
Y133488D01*
X42324Y133160D01*
X41668D01*
X41340Y133488D01*
X39700Y133160D02*
Y135128D01*
X40684Y134144D01*
X39372D01*
X37404Y135128D02*
X38716D01*
Y134144D01*
X38060Y134472D01*
X37732D01*
X37404Y134144D01*
Y133488D01*
X37732Y133160D01*
X38388D01*
X38716Y133488D01*
X26840Y134800D02*
X27168Y135128D01*
X27824D01*
X28152Y134800D01*
Y133488D01*
X27824Y133160D01*
X27168D01*
X26840Y133488D01*
X25200Y133160D02*
Y135128D01*
X26184Y134144D01*
X24872D01*
X22904Y135128D02*
X23560Y134800D01*
X24216Y134144D01*
Y133488D01*
X23888Y133160D01*
X23232D01*
X22904Y133488D01*
Y133816D01*
X23232Y134144D01*
X24216D01*
X40840Y117300D02*
X41168Y117628D01*
X41824D01*
X42152Y117300D01*
Y115988D01*
X41824Y115660D01*
X41168D01*
X40840Y115988D01*
X39200Y115660D02*
Y117628D01*
X40184Y116644D01*
X38872D01*
X38216Y117628D02*
X36904D01*
Y117300D01*
X38216Y115988D01*
Y115660D01*
X55340Y134800D02*
X55668Y135128D01*
X56324D01*
X56652Y134800D01*
Y133488D01*
X56324Y133160D01*
X55668D01*
X55340Y133488D01*
X53700Y133160D02*
Y135128D01*
X54684Y134144D01*
X53372D01*
X52716Y134800D02*
X52388Y135128D01*
X51732D01*
X51404Y134800D01*
Y134472D01*
X51732Y134144D01*
X51404Y133816D01*
Y133488D01*
X51732Y133160D01*
X52388D01*
X52716Y133488D01*
Y133816D01*
X52388Y134144D01*
X52716Y134472D01*
Y134800D01*
X52388Y134144D02*
X51732D01*
X37840Y25800D02*
X38168Y26128D01*
X38824D01*
X39152Y25800D01*
Y24488D01*
X38824Y24160D01*
X38168D01*
X37840Y24488D01*
X35872Y26128D02*
X37184D01*
Y25144D01*
X36528Y25472D01*
X36200D01*
X35872Y25144D01*
Y24488D01*
X36200Y24160D01*
X36856D01*
X37184Y24488D01*
X35216Y25800D02*
X34888Y26128D01*
X34232D01*
X33904Y25800D01*
Y24488D01*
X34232Y24160D01*
X34888D01*
X35216Y24488D01*
Y25800D01*
X29012Y8800D02*
X29340Y9128D01*
X29996D01*
X30324Y8800D01*
Y7488D01*
X29996Y7160D01*
X29340D01*
X29012Y7488D01*
X27044Y9128D02*
X28356D01*
Y8144D01*
X27700Y8472D01*
X27372D01*
X27044Y8144D01*
Y7488D01*
X27372Y7160D01*
X28028D01*
X28356Y7488D01*
X26388Y7160D02*
X25732D01*
X26060D01*
Y9128D01*
X26388Y8800D01*
X49340Y2300D02*
X49668Y2628D01*
X50324D01*
X50652Y2300D01*
Y988D01*
X50324Y660D01*
X49668D01*
X49340Y988D01*
X47372Y2628D02*
X48684D01*
Y1644D01*
X48028Y1972D01*
X47700D01*
X47372Y1644D01*
Y988D01*
X47700Y660D01*
X48356D01*
X48684Y988D01*
X45404Y660D02*
X46716D01*
X45404Y1972D01*
Y2300D01*
X45732Y2628D01*
X46388D01*
X46716Y2300D01*
X102681Y22488D02*
Y23800D01*
X103009Y24128D01*
X103665D01*
X103993Y23800D01*
Y22488D01*
X103665Y22160D01*
X103009D01*
X103337Y22816D02*
X102681Y22160D01*
X103009D02*
X102681Y22488D01*
X102025Y22160D02*
X101369D01*
X101697D01*
Y24128D01*
X102025Y23800D01*
X123340Y11660D02*
Y13628D01*
X122356D01*
X122028Y13300D01*
Y12644D01*
X122356Y12316D01*
X123340D01*
X122684D02*
X122028Y11660D01*
X121372D02*
X120716D01*
X121044D01*
Y13628D01*
X121372Y13300D01*
X158168Y16660D02*
Y18628D01*
X157184D01*
X156856Y18300D01*
Y17644D01*
X157184Y17316D01*
X158168D01*
X157512D02*
X156856Y16660D01*
X154888D02*
X156200D01*
X154888Y17972D01*
Y18300D01*
X155216Y18628D01*
X155872D01*
X156200Y18300D01*
X131168Y11660D02*
Y13628D01*
X130184D01*
X129856Y13300D01*
Y12644D01*
X130184Y12316D01*
X131168D01*
X130512D02*
X129856Y11660D01*
X129200Y13300D02*
X128872Y13628D01*
X128216D01*
X127888Y13300D01*
Y12972D01*
X128216Y12644D01*
X128544D01*
X128216D01*
X127888Y12316D01*
Y11988D01*
X128216Y11660D01*
X128872D01*
X129200Y11988D01*
X172668Y16160D02*
Y18128D01*
X171684D01*
X171356Y17800D01*
Y17144D01*
X171684Y16816D01*
X172668D01*
X172012D02*
X171356Y16160D01*
X169716D02*
Y18128D01*
X170700Y17144D01*
X169388D01*
X64012Y145284D02*
X62044D01*
Y144300D01*
X62372Y143972D01*
X63028D01*
X63356Y144300D01*
Y145284D01*
Y144628D02*
X64012Y143972D01*
X62044Y142004D02*
Y143316D01*
X63028D01*
X62700Y142660D01*
Y142332D01*
X63028Y142004D01*
X63684D01*
X64012Y142332D01*
Y142988D01*
X63684Y143316D01*
X153617Y137061D02*
Y135093D01*
X154601D01*
X154929Y135421D01*
Y136077D01*
X154601Y136405D01*
X153617D01*
X154273D02*
X154929Y137061D01*
X155585Y135093D02*
X156897D01*
Y135421D01*
X155585Y136733D01*
Y137061D01*
X161168Y147660D02*
Y149628D01*
X160184D01*
X159856Y149300D01*
Y148644D01*
X160184Y148316D01*
X161168D01*
X160512D02*
X159856Y147660D01*
X159200Y149300D02*
X158872Y149628D01*
X158216D01*
X157888Y149300D01*
Y148972D01*
X158216Y148644D01*
X157888Y148316D01*
Y147988D01*
X158216Y147660D01*
X158872D01*
X159200Y147988D01*
Y148316D01*
X158872Y148644D01*
X159200Y148972D01*
Y149300D01*
X158872Y148644D02*
X158216D01*
X142168Y127160D02*
Y129128D01*
X141184D01*
X140856Y128800D01*
Y128144D01*
X141184Y127816D01*
X142168D01*
X141512D02*
X140856Y127160D01*
X140200Y127488D02*
X139872Y127160D01*
X139216D01*
X138888Y127488D01*
Y128800D01*
X139216Y129128D01*
X139872D01*
X140200Y128800D01*
Y128472D01*
X139872Y128144D01*
X138888D01*
X108988Y122660D02*
Y124628D01*
X108004D01*
X107676Y124300D01*
Y123644D01*
X108004Y123316D01*
X108988D01*
X108332D02*
X107676Y122660D01*
X107020D02*
X106364D01*
X106692D01*
Y124628D01*
X107020Y124300D01*
X105380D02*
X105052Y124628D01*
X104396D01*
X104068Y124300D01*
Y122988D01*
X104396Y122660D01*
X105052D01*
X105380Y122988D01*
Y124300D01*
X199160Y26160D02*
Y28128D01*
X198176D01*
X197848Y27800D01*
Y27144D01*
X198176Y26816D01*
X199160D01*
X198504D02*
X197848Y26160D01*
X197192D02*
X196536D01*
X196864D01*
Y28128D01*
X197192Y27800D01*
X195552Y26160D02*
X194896D01*
X195224D01*
Y28128D01*
X195552Y27800D01*
X191988Y26160D02*
Y28128D01*
X191004D01*
X190676Y27800D01*
Y27144D01*
X191004Y26816D01*
X191988D01*
X191332D02*
X190676Y26160D01*
X190020D02*
X189364D01*
X189692D01*
Y28128D01*
X190020Y27800D01*
X187068Y26160D02*
X188380D01*
X187068Y27472D01*
Y27800D01*
X187396Y28128D01*
X188052D01*
X188380Y27800D01*
X231988Y144160D02*
Y146128D01*
X231004D01*
X230676Y145800D01*
Y145144D01*
X231004Y144816D01*
X231988D01*
X231332D02*
X230676Y144160D01*
X230020D02*
X229364D01*
X229692D01*
Y146128D01*
X230020Y145800D01*
X227396Y144160D02*
Y146128D01*
X228380Y145144D01*
X227068D01*
X232488Y131160D02*
Y133128D01*
X231504D01*
X231176Y132800D01*
Y132144D01*
X231504Y131816D01*
X232488D01*
X231832D02*
X231176Y131160D01*
X230520D02*
X229864D01*
X230192D01*
Y133128D01*
X230520Y132800D01*
X227568Y133128D02*
X228880D01*
Y132144D01*
X228224Y132472D01*
X227896D01*
X227568Y132144D01*
Y131488D01*
X227896Y131160D01*
X228552D01*
X228880Y131488D01*
X279128Y107644D02*
Y109612D01*
X278144D01*
X277816Y109284D01*
Y108628D01*
X278144Y108300D01*
X279128D01*
X278472D02*
X277816Y107644D01*
X277160D02*
X276504D01*
X276832D01*
Y109612D01*
X277160Y109284D01*
X274208Y109612D02*
X274864Y109284D01*
X275520Y108628D01*
Y107972D01*
X275192Y107644D01*
X274536D01*
X274208Y107972D01*
Y108300D01*
X274536Y108628D01*
X275520D01*
X194488Y130660D02*
Y132628D01*
X193504D01*
X193176Y132300D01*
Y131644D01*
X193504Y131316D01*
X194488D01*
X193832D02*
X193176Y130660D01*
X192520D02*
X191864D01*
X192192D01*
Y132628D01*
X192520Y132300D01*
X190880Y130988D02*
X190552Y130660D01*
X189896D01*
X189568Y130988D01*
Y132300D01*
X189896Y132628D01*
X190552D01*
X190880Y132300D01*
Y131972D01*
X190552Y131644D01*
X189568D01*
X56628Y98144D02*
Y100112D01*
X55644D01*
X55316Y99784D01*
Y99128D01*
X55644Y98800D01*
X56628D01*
X55972D02*
X55316Y98144D01*
X53348D02*
X54660D01*
X53348Y99456D01*
Y99784D01*
X53676Y100112D01*
X54332D01*
X54660Y99784D01*
X51708Y98144D02*
Y100112D01*
X52692Y99128D01*
X51380D01*
X215152Y122660D02*
Y124628D01*
X214168D01*
X213840Y124300D01*
Y123644D01*
X214168Y123316D01*
X215152D01*
X214496D02*
X213840Y122660D01*
X211872D02*
X213184D01*
X211872Y123972D01*
Y124300D01*
X212200Y124628D01*
X212856D01*
X213184Y124300D01*
X209904Y124628D02*
X210560Y124300D01*
X211216Y123644D01*
Y122988D01*
X210888Y122660D01*
X210232D01*
X209904Y122988D01*
Y123316D01*
X210232Y123644D01*
X211216D01*
X318152Y75660D02*
Y77628D01*
X317168D01*
X316840Y77300D01*
Y76644D01*
X317168Y76316D01*
X318152D01*
X317496D02*
X316840Y75660D01*
X314872D02*
X316184D01*
X314872Y76972D01*
Y77300D01*
X315200Y77628D01*
X315856D01*
X316184Y77300D01*
X314216Y77628D02*
X312904D01*
Y77300D01*
X314216Y75988D01*
Y75660D01*
X318152Y70160D02*
Y72128D01*
X317168D01*
X316840Y71800D01*
Y71144D01*
X317168Y70816D01*
X318152D01*
X317496D02*
X316840Y70160D01*
X314872D02*
X316184D01*
X314872Y71472D01*
Y71800D01*
X315200Y72128D01*
X315856D01*
X316184Y71800D01*
X314216D02*
X313888Y72128D01*
X313232D01*
X312904Y71800D01*
Y71472D01*
X313232Y71144D01*
X312904Y70816D01*
Y70488D01*
X313232Y70160D01*
X313888D01*
X314216Y70488D01*
Y70816D01*
X313888Y71144D01*
X314216Y71472D01*
Y71800D01*
X313888Y71144D02*
X313232D01*
X150012Y117768D02*
X148044D01*
Y116784D01*
X148372Y116456D01*
X149028D01*
X149356Y116784D01*
Y117768D01*
Y117112D02*
X150012Y116456D01*
Y114488D02*
Y115800D01*
X148700Y114488D01*
X148372D01*
X148044Y114816D01*
Y115472D01*
X148372Y115800D01*
X149684Y113832D02*
X150012Y113504D01*
Y112848D01*
X149684Y112520D01*
X148372D01*
X148044Y112848D01*
Y113504D01*
X148372Y113832D01*
X148700D01*
X149028Y113504D01*
Y112520D01*
X318152Y65660D02*
Y67628D01*
X317168D01*
X316840Y67300D01*
Y66644D01*
X317168Y66316D01*
X318152D01*
X317496D02*
X316840Y65660D01*
X316184Y67300D02*
X315856Y67628D01*
X315200D01*
X314872Y67300D01*
Y66972D01*
X315200Y66644D01*
X315528D01*
X315200D01*
X314872Y66316D01*
Y65988D01*
X315200Y65660D01*
X315856D01*
X316184Y65988D01*
X314216Y67300D02*
X313888Y67628D01*
X313232D01*
X312904Y67300D01*
Y65988D01*
X313232Y65660D01*
X313888D01*
X314216Y65988D01*
Y67300D01*
X150012Y123940D02*
X148044D01*
Y122956D01*
X148372Y122628D01*
X149028D01*
X149356Y122956D01*
Y123940D01*
Y123284D02*
X150012Y122628D01*
X148372Y121972D02*
X148044Y121644D01*
Y120988D01*
X148372Y120660D01*
X148700D01*
X149028Y120988D01*
Y121316D01*
Y120988D01*
X149356Y120660D01*
X149684D01*
X150012Y120988D01*
Y121644D01*
X149684Y121972D01*
X150012Y120004D02*
Y119348D01*
Y119676D01*
X148044D01*
X148372Y120004D01*
X116152Y20160D02*
Y22128D01*
X115168D01*
X114840Y21800D01*
Y21144D01*
X115168Y20816D01*
X116152D01*
X115496D02*
X114840Y20160D01*
X114184Y21800D02*
X113856Y22128D01*
X113200D01*
X112872Y21800D01*
Y21472D01*
X113200Y21144D01*
X113528D01*
X113200D01*
X112872Y20816D01*
Y20488D01*
X113200Y20160D01*
X113856D01*
X114184Y20488D01*
X110904Y20160D02*
X112216D01*
X110904Y21472D01*
Y21800D01*
X111232Y22128D01*
X111888D01*
X112216Y21800D01*
X96512Y7268D02*
X94544D01*
Y6284D01*
X94872Y5956D01*
X95528D01*
X95856Y6284D01*
Y7268D01*
Y6612D02*
X96512Y5956D01*
X94872Y5300D02*
X94544Y4972D01*
Y4316D01*
X94872Y3988D01*
X95200D01*
X95528Y4316D01*
Y4644D01*
Y4316D01*
X95856Y3988D01*
X96184D01*
X96512Y4316D01*
Y4972D01*
X96184Y5300D01*
X94872Y3332D02*
X94544Y3004D01*
Y2348D01*
X94872Y2020D01*
X95200D01*
X95528Y2348D01*
Y2676D01*
Y2348D01*
X95856Y2020D01*
X96184D01*
X96512Y2348D01*
Y3004D01*
X96184Y3332D01*
X318152Y88660D02*
Y90628D01*
X317168D01*
X316840Y90300D01*
Y89644D01*
X317168Y89316D01*
X318152D01*
X317496D02*
X316840Y88660D01*
X316184Y90300D02*
X315856Y90628D01*
X315200D01*
X314872Y90300D01*
Y89972D01*
X315200Y89644D01*
X315528D01*
X315200D01*
X314872Y89316D01*
Y88988D01*
X315200Y88660D01*
X315856D01*
X316184Y88988D01*
X312904Y90628D02*
X313560Y90300D01*
X314216Y89644D01*
Y88988D01*
X313888Y88660D01*
X313232D01*
X312904Y88988D01*
Y89316D01*
X313232Y89644D01*
X314216D01*
X318152Y94160D02*
Y96128D01*
X317168D01*
X316840Y95800D01*
Y95144D01*
X317168Y94816D01*
X318152D01*
X317496D02*
X316840Y94160D01*
X316184Y95800D02*
X315856Y96128D01*
X315200D01*
X314872Y95800D01*
Y95472D01*
X315200Y95144D01*
X315528D01*
X315200D01*
X314872Y94816D01*
Y94488D01*
X315200Y94160D01*
X315856D01*
X316184Y94488D01*
X314216Y96128D02*
X312904D01*
Y95800D01*
X314216Y94488D01*
Y94160D01*
X85012Y12768D02*
X83044D01*
Y11784D01*
X83372Y11456D01*
X84028D01*
X84356Y11784D01*
Y12768D01*
Y12112D02*
X85012Y11456D01*
X83372Y10800D02*
X83044Y10472D01*
Y9816D01*
X83372Y9488D01*
X83700D01*
X84028Y9816D01*
Y10144D01*
Y9816D01*
X84356Y9488D01*
X84684D01*
X85012Y9816D01*
Y10472D01*
X84684Y10800D01*
X83372Y8832D02*
X83044Y8504D01*
Y7848D01*
X83372Y7520D01*
X83700D01*
X84028Y7848D01*
X84356Y7520D01*
X84684D01*
X85012Y7848D01*
Y8504D01*
X84684Y8832D01*
X84356D01*
X84028Y8504D01*
X83700Y8832D01*
X83372D01*
X84028Y8504D02*
Y7848D01*
X92683Y26377D02*
Y28345D01*
X91699D01*
X91371Y28017D01*
Y27361D01*
X91699Y27033D01*
X92683D01*
X92027D02*
X91371Y26377D01*
X90715Y28017D02*
X90387Y28345D01*
X89732D01*
X89403Y28017D01*
Y27689D01*
X89732Y27361D01*
X90060D01*
X89732D01*
X89403Y27033D01*
Y26705D01*
X89732Y26377D01*
X90387D01*
X90715Y26705D01*
X88748D02*
X88420Y26377D01*
X87764D01*
X87436Y26705D01*
Y28017D01*
X87764Y28345D01*
X88420D01*
X88748Y28017D01*
Y27689D01*
X88420Y27361D01*
X87436D01*
X65512Y13768D02*
X63544D01*
Y12784D01*
X63872Y12456D01*
X64528D01*
X64856Y12784D01*
Y13768D01*
Y13112D02*
X65512Y12456D01*
Y10816D02*
X63544D01*
X64528Y11800D01*
Y10488D01*
X63872Y9832D02*
X63544Y9504D01*
Y8848D01*
X63872Y8520D01*
X65184D01*
X65512Y8848D01*
Y9504D01*
X65184Y9832D01*
X63872D01*
X79678Y26228D02*
Y28196D01*
X78694D01*
X78366Y27868D01*
Y27213D01*
X78694Y26884D01*
X79678D01*
X79022D02*
X78366Y26228D01*
X76726D02*
Y28196D01*
X77710Y27213D01*
X76398D01*
X75742Y26228D02*
X75086D01*
X75414D01*
Y28196D01*
X75742Y27868D01*
X50152Y24660D02*
Y26628D01*
X49168D01*
X48840Y26300D01*
Y25644D01*
X49168Y25316D01*
X50152D01*
X49496D02*
X48840Y24660D01*
X47200D02*
Y26628D01*
X48184Y25644D01*
X46872D01*
X44904Y24660D02*
X46216D01*
X44904Y25972D01*
Y26300D01*
X45232Y26628D01*
X45888D01*
X46216Y26300D01*
X63152Y24160D02*
Y26128D01*
X62168D01*
X61840Y25800D01*
Y25144D01*
X62168Y24816D01*
X63152D01*
X62496D02*
X61840Y24160D01*
X60200D02*
Y26128D01*
X61184Y25144D01*
X59872D01*
X59216Y25800D02*
X58888Y26128D01*
X58232D01*
X57904Y25800D01*
Y25472D01*
X58232Y25144D01*
X58560D01*
X58232D01*
X57904Y24816D01*
Y24488D01*
X58232Y24160D01*
X58888D01*
X59216Y24488D01*
X154168Y154128D02*
Y152488D01*
X153840Y152160D01*
X153184D01*
X152856Y152488D01*
Y154128D01*
X150888Y152160D02*
X152200D01*
X150888Y153472D01*
Y153800D01*
X151216Y154128D01*
X151872D01*
X152200Y153800D01*
X255668Y33128D02*
Y31488D01*
X255340Y31160D01*
X254684D01*
X254356Y31488D01*
Y33128D01*
X252388D02*
X253700D01*
Y32144D01*
X253044Y32472D01*
X252716D01*
X252388Y32144D01*
Y31488D01*
X252716Y31160D01*
X253372D01*
X253700Y31488D01*
X322168Y132128D02*
Y130488D01*
X321840Y130160D01*
X321184D01*
X320856Y130488D01*
Y132128D01*
X320200D02*
X318888D01*
Y131800D01*
X320200Y130488D01*
Y130160D01*
X454644Y130712D02*
X455300D01*
X455628Y130384D01*
Y129072D01*
X455300Y128744D01*
X454644D01*
X454316Y129072D01*
Y130384D01*
X454644Y130712D01*
X453660D02*
Y128744D01*
X452348D01*
X450380Y130712D02*
X451692D01*
Y128744D01*
X450380D01*
X451692Y129728D02*
X451036D01*
X449724Y130712D02*
Y128744D01*
X448740D01*
X448413Y129072D01*
Y130384D01*
X448740Y130712D01*
X449724D01*
X447757Y128744D02*
X447101D01*
X447429D01*
Y130712D01*
X447757Y130384D01*
X293840Y64128D02*
Y62160D01*
X292856D01*
X292528Y62488D01*
Y63800D01*
X292856Y64128D01*
X293840D01*
X291872Y62160D02*
X291216D01*
X291544D01*
Y64128D01*
X291872Y63800D01*
X318152Y82160D02*
Y84128D01*
X317168D01*
X316840Y83800D01*
Y83144D01*
X317168Y82816D01*
X318152D01*
X317496D02*
X316840Y82160D01*
X316184Y83800D02*
X315856Y84128D01*
X315200D01*
X314872Y83800D01*
Y83472D01*
X315200Y83144D01*
X315528D01*
X315200D01*
X314872Y82816D01*
Y82488D01*
X315200Y82160D01*
X315856D01*
X316184Y82488D01*
X312904Y84128D02*
X314216D01*
Y83144D01*
X313560Y83472D01*
X313232D01*
X312904Y83144D01*
Y82488D01*
X313232Y82160D01*
X313888D01*
X314216Y82488D01*
X338152Y4660D02*
Y6628D01*
X337168D01*
X336840Y6300D01*
Y5644D01*
X337168Y5316D01*
X338152D01*
X337496D02*
X336840Y4660D01*
X335200D02*
Y6628D01*
X336184Y5644D01*
X334872D01*
X334216Y6628D02*
X332904D01*
Y6300D01*
X334216Y4988D01*
Y4660D01*
X339152Y17160D02*
Y19128D01*
X338168D01*
X337840Y18800D01*
Y18144D01*
X338168Y17816D01*
X339152D01*
X338496D02*
X337840Y17160D01*
X336200D02*
Y19128D01*
X337184Y18144D01*
X335872D01*
X335216Y18800D02*
X334888Y19128D01*
X334232D01*
X333904Y18800D01*
Y18472D01*
X334232Y18144D01*
X333904Y17816D01*
Y17488D01*
X334232Y17160D01*
X334888D01*
X335216Y17488D01*
Y17816D01*
X334888Y18144D01*
X335216Y18472D01*
Y18800D01*
X334888Y18144D02*
X334232D01*
X142840Y100800D02*
X143168Y101128D01*
X143824D01*
X144152Y100800D01*
Y99488D01*
X143824Y99160D01*
X143168D01*
X142840Y99488D01*
X142184Y100800D02*
X141856Y101128D01*
X141200D01*
X140872Y100800D01*
Y100472D01*
X141200Y100144D01*
X141528D01*
X141200D01*
X140872Y99816D01*
Y99488D01*
X141200Y99160D01*
X141856D01*
X142184Y99488D01*
X140216Y100800D02*
X139888Y101128D01*
X139232D01*
X138904Y100800D01*
Y99488D01*
X139232Y99160D01*
X139888D01*
X140216Y99488D01*
Y100800D01*
X143340Y86800D02*
X143668Y87128D01*
X144324D01*
X144652Y86800D01*
Y85488D01*
X144324Y85160D01*
X143668D01*
X143340Y85488D01*
X142684Y86800D02*
X142356Y87128D01*
X141700D01*
X141372Y86800D01*
Y86472D01*
X141700Y86144D01*
X142028D01*
X141700D01*
X141372Y85816D01*
Y85488D01*
X141700Y85160D01*
X142356D01*
X142684Y85488D01*
X139404Y85160D02*
X140716D01*
X139404Y86472D01*
Y86800D01*
X139732Y87128D01*
X140388D01*
X140716Y86800D01*
X157652Y104160D02*
Y106128D01*
X156668D01*
X156340Y105800D01*
Y105144D01*
X156668Y104816D01*
X157652D01*
X156996D02*
X156340Y104160D01*
X155684Y105800D02*
X155356Y106128D01*
X154700D01*
X154372Y105800D01*
Y105472D01*
X154700Y105144D01*
X155028D01*
X154700D01*
X154372Y104816D01*
Y104488D01*
X154700Y104160D01*
X155356D01*
X155684Y104488D01*
X152732Y104160D02*
Y106128D01*
X153716Y105144D01*
X152404D01*
X168652Y103160D02*
Y105128D01*
X167668D01*
X167340Y104800D01*
Y104144D01*
X167668Y103816D01*
X168652D01*
X167996D02*
X167340Y103160D01*
X165700D02*
Y105128D01*
X166684Y104144D01*
X165372D01*
X163732Y103160D02*
Y105128D01*
X164716Y104144D01*
X163404D01*
X168152Y88660D02*
Y90628D01*
X167168D01*
X166840Y90300D01*
Y89644D01*
X167168Y89316D01*
X168152D01*
X167496D02*
X166840Y88660D01*
X165200D02*
Y90628D01*
X166184Y89644D01*
X164872D01*
X162904Y90628D02*
X164216D01*
Y89644D01*
X163560Y89972D01*
X163232D01*
X162904Y89644D01*
Y88988D01*
X163232Y88660D01*
X163888D01*
X164216Y88988D01*
D133*
X101982Y17311D02*
G03*
X101982Y17311I-492J0D01*
G01*
M02*
