G04*
G04 #@! TF.GenerationSoftware,Altium Limited,Altium Designer,20.0.13 (296)*
G04*
G04 Layer_Physical_Order=2*
G04 Layer_Color=39423*
%FSLAX25Y25*%
%MOIN*%
G70*
G01*
G75*
%ADD110C,0.18000*%
%ADD111O,0.08268X0.03937*%
%ADD112O,0.06299X0.03937*%
%ADD113C,0.02559*%
%ADD114C,0.02200*%
%ADD115C,0.05000*%
%ADD116C,0.04000*%
G36*
X378028Y154303D02*
X378140Y154256D01*
X378187Y154144D01*
X378209D01*
Y113144D01*
X378187D01*
X378140Y113032D01*
X378028Y112985D01*
Y112963D01*
X354028D01*
Y112982D01*
X353324Y112843D01*
X352728Y112444D01*
X352329Y111848D01*
X352189Y111144D01*
X352209D01*
Y34144D01*
X352189D01*
X352329Y33440D01*
X352728Y32844D01*
X353324Y32445D01*
X354028Y32305D01*
Y32325D01*
X377528D01*
Y32304D01*
X377780Y32253D01*
X377994Y32110D01*
X378137Y31896D01*
X378187Y31644D01*
X378209D01*
Y-8299D01*
X378190Y-8307D01*
X378182Y-8326D01*
X39540D01*
X39304Y-7826D01*
X39535Y-7480D01*
X39659Y-6856D01*
X39535Y-6232D01*
X39182Y-5703D01*
X38652Y-5349D01*
X38028Y-5225D01*
X37404Y-5349D01*
X36874Y-5703D01*
X36521Y-6232D01*
X36397Y-6856D01*
X36521Y-7480D01*
X36752Y-7826D01*
X36516Y-8326D01*
X20748D01*
X20743Y-8327D01*
X19666Y-8185D01*
X18657Y-7767D01*
X17790Y-7102D01*
X17126Y-6236D01*
X16708Y-5227D01*
X16603Y-4433D01*
X16592Y-3937D01*
X16429Y-2700D01*
X15951Y-1547D01*
X15192Y-557D01*
X14201Y203D01*
X13048Y681D01*
X11811Y844D01*
Y819D01*
X819D01*
Y59850D01*
X11415D01*
X11540Y59834D01*
X12419Y59949D01*
X13237Y60288D01*
X13940Y60828D01*
X14480Y61531D01*
X14819Y62349D01*
X14934Y63228D01*
X14819Y64106D01*
X14480Y64925D01*
X13940Y65628D01*
X13237Y66167D01*
X12419Y66506D01*
X11540Y66622D01*
X11417Y66606D01*
X11417Y66606D01*
X819D01*
Y77369D01*
X11811D01*
Y77344D01*
X13048Y77507D01*
X14201Y77985D01*
X15192Y78745D01*
X15951Y79735D01*
X16429Y80888D01*
X16592Y82125D01*
X16592D01*
X16567Y82144D01*
Y87653D01*
X17067Y87702D01*
X17173Y87169D01*
X17726Y86342D01*
X18553Y85789D01*
X19528Y85595D01*
X20504Y85789D01*
X21330Y86342D01*
X21883Y87169D01*
X22077Y88144D01*
X21883Y89119D01*
X21330Y89946D01*
X20504Y90499D01*
X19528Y90693D01*
X18553Y90499D01*
X17726Y89946D01*
X17173Y89119D01*
X17067Y88586D01*
X16567Y88635D01*
Y149550D01*
X16628Y149860D01*
Y151426D01*
X16638D01*
X16736Y152173D01*
X17025Y152871D01*
X17484Y153469D01*
X18083Y153928D01*
X18780Y154217D01*
X19528Y154316D01*
Y154325D01*
X154461D01*
X154645Y153825D01*
X154173Y153120D01*
X153979Y152144D01*
X154173Y151169D01*
X154726Y150342D01*
X155552Y149789D01*
X156528Y149595D01*
X157503Y149789D01*
X158330Y150342D01*
X158883Y151169D01*
X159077Y152144D01*
X158883Y153120D01*
X158411Y153825D01*
X158595Y154325D01*
X214420D01*
X214603Y153825D01*
X214132Y153120D01*
X213938Y152144D01*
X214132Y151169D01*
X214684Y150342D01*
X215511Y149789D01*
X216487Y149595D01*
X217462Y149789D01*
X218289Y150342D01*
X218842Y151169D01*
X219036Y152144D01*
X218842Y153120D01*
X218370Y153825D01*
X218554Y154325D01*
X378028D01*
Y154303D01*
D02*
G37*
%LPC*%
G36*
X229028Y153775D02*
X228404Y153651D01*
X227874Y153297D01*
X227521Y152768D01*
X227397Y152144D01*
X227521Y151520D01*
X227874Y150990D01*
X228404Y150637D01*
X229028Y150513D01*
X229652Y150637D01*
X230182Y150990D01*
X230535Y151520D01*
X230659Y152144D01*
X230535Y152768D01*
X230182Y153297D01*
X229652Y153651D01*
X229028Y153775D01*
D02*
G37*
G36*
X80528Y150775D02*
X79904Y150651D01*
X79374Y150297D01*
X79021Y149768D01*
X78897Y149144D01*
X79021Y148520D01*
X79374Y147991D01*
X79904Y147637D01*
X80528Y147513D01*
X81152Y147637D01*
X81682Y147991D01*
X82035Y148520D01*
X82159Y149144D01*
X82035Y149768D01*
X81682Y150297D01*
X81152Y150651D01*
X80528Y150775D01*
D02*
G37*
G36*
X203528Y146775D02*
X202904Y146651D01*
X202375Y146298D01*
X202021Y145768D01*
X201897Y145144D01*
X202021Y144520D01*
X202375Y143991D01*
X202904Y143637D01*
X203528Y143513D01*
X204152Y143637D01*
X204681Y143991D01*
X205035Y144520D01*
X205159Y145144D01*
X205035Y145768D01*
X204681Y146298D01*
X204152Y146651D01*
X203528Y146775D01*
D02*
G37*
G36*
X39630Y145775D02*
X39006Y145651D01*
X38476Y145298D01*
X38123Y144768D01*
X37999Y144144D01*
X38123Y143520D01*
X38476Y142991D01*
X39006Y142637D01*
X39630Y142513D01*
X40254Y142637D01*
X40784Y142991D01*
X41137Y143520D01*
X41261Y144144D01*
X41137Y144768D01*
X40784Y145298D01*
X40254Y145651D01*
X39630Y145775D01*
D02*
G37*
G36*
X360394Y145914D02*
X359700Y145776D01*
X359111Y145383D01*
X358718Y144794D01*
X358580Y144100D01*
X358718Y143405D01*
X359111Y142817D01*
X359700Y142423D01*
X360394Y142285D01*
X361089Y142423D01*
X361677Y142817D01*
X362071Y143405D01*
X362209Y144100D01*
X362071Y144794D01*
X361677Y145383D01*
X361089Y145776D01*
X360394Y145914D01*
D02*
G37*
G36*
X279028Y148397D02*
X278404Y148273D01*
X277874Y147919D01*
X277521Y147390D01*
X277397Y146766D01*
X277521Y146142D01*
X277874Y145612D01*
X278402Y145260D01*
X278404Y145249D01*
X278399Y144750D01*
X277904Y144651D01*
X277375Y144298D01*
X277021Y143768D01*
X276897Y143144D01*
X277021Y142520D01*
X277375Y141990D01*
X277904Y141637D01*
X278528Y141513D01*
X279152Y141637D01*
X279681Y141990D01*
X280035Y142520D01*
X280159Y143144D01*
X280035Y143768D01*
X279681Y144298D01*
X279154Y144650D01*
X279152Y144660D01*
X279157Y145160D01*
X279652Y145259D01*
X280182Y145612D01*
X280535Y146142D01*
X280659Y146766D01*
X280535Y147390D01*
X280182Y147919D01*
X279652Y148273D01*
X279028Y148397D01*
D02*
G37*
G36*
X116008Y142515D02*
X115384Y142391D01*
X114855Y142037D01*
X114501Y141508D01*
X114377Y140884D01*
X114501Y140260D01*
X114855Y139730D01*
X115384Y139377D01*
X116008Y139253D01*
X116632Y139377D01*
X117162Y139730D01*
X117515Y140260D01*
X117639Y140884D01*
X117515Y141508D01*
X117162Y142037D01*
X116632Y142391D01*
X116008Y142515D01*
D02*
G37*
G36*
X124528Y142275D02*
X123904Y142151D01*
X123374Y141797D01*
X123021Y141268D01*
X122897Y140644D01*
X123021Y140020D01*
X123374Y139490D01*
X123904Y139137D01*
X124528Y139013D01*
X125152Y139137D01*
X125681Y139490D01*
X126035Y140020D01*
X126159Y140644D01*
X126035Y141268D01*
X125681Y141797D01*
X125152Y142151D01*
X124528Y142275D01*
D02*
G37*
G36*
X241528Y141734D02*
X240553Y141540D01*
X239726Y140988D01*
X239173Y140161D01*
X238979Y139185D01*
X239173Y138210D01*
X239726Y137383D01*
X240553Y136830D01*
X241528Y136636D01*
X242503Y136830D01*
X243330Y137383D01*
X243883Y138210D01*
X244077Y139185D01*
X243883Y140161D01*
X243330Y140988D01*
X242503Y141540D01*
X241528Y141734D01*
D02*
G37*
G36*
X27130Y139275D02*
X26506Y139151D01*
X25976Y138797D01*
X25623Y138268D01*
X25499Y137644D01*
X25623Y137020D01*
X25976Y136490D01*
X26506Y136137D01*
X27130Y136013D01*
X27754Y136137D01*
X28284Y136490D01*
X28637Y137020D01*
X28761Y137644D01*
X28637Y138268D01*
X28284Y138797D01*
X27754Y139151D01*
X27130Y139275D01*
D02*
G37*
G36*
X318028Y140170D02*
X317245Y140067D01*
X316515Y139764D01*
X315888Y139284D01*
X315407Y138657D01*
X315105Y137927D01*
X315002Y137144D01*
X315105Y136361D01*
X315407Y135631D01*
X315888Y135004D01*
X316515Y134523D01*
X317245Y134221D01*
X318028Y134118D01*
X318811Y134221D01*
X319541Y134523D01*
X320168Y135004D01*
X320649Y135631D01*
X320951Y136361D01*
X321054Y137144D01*
X320951Y137927D01*
X320649Y138657D01*
X320168Y139284D01*
X319541Y139764D01*
X318811Y140067D01*
X318028Y140170D01*
D02*
G37*
G36*
X196028Y135275D02*
X195404Y135151D01*
X194875Y134798D01*
X194521Y134268D01*
X194397Y133644D01*
X194521Y133020D01*
X194875Y132491D01*
X195404Y132137D01*
X196028Y132013D01*
X196652Y132137D01*
X197181Y132491D01*
X197535Y133020D01*
X197659Y133644D01*
X197535Y134268D01*
X197181Y134798D01*
X196652Y135151D01*
X196028Y135275D01*
D02*
G37*
G36*
X299528Y137670D02*
X298745Y137567D01*
X298015Y137265D01*
X297388Y136784D01*
X296907Y136157D01*
X296605Y135427D01*
X296502Y134644D01*
X296605Y133861D01*
X296907Y133131D01*
X297388Y132504D01*
X298015Y132024D01*
X298745Y131721D01*
X299528Y131618D01*
X300311Y131721D01*
X301041Y132024D01*
X301668Y132504D01*
X302149Y133131D01*
X302451Y133861D01*
X302554Y134644D01*
X302451Y135427D01*
X302149Y136157D01*
X301668Y136784D01*
X301041Y137265D01*
X300311Y137567D01*
X299528Y137670D01*
D02*
G37*
G36*
X186166Y133799D02*
X185542Y133675D01*
X185012Y133321D01*
X184659Y132792D01*
X184535Y132167D01*
X184659Y131543D01*
X185012Y131014D01*
X185542Y130660D01*
X186166Y130536D01*
X186790Y130660D01*
X187320Y131014D01*
X187673Y131543D01*
X187797Y132167D01*
X187673Y132792D01*
X187320Y133321D01*
X186790Y133675D01*
X186166Y133799D01*
D02*
G37*
G36*
X335028Y133275D02*
X334404Y133151D01*
X333875Y132798D01*
X333521Y132268D01*
X333397Y131644D01*
X333521Y131020D01*
X333875Y130491D01*
X334404Y130137D01*
X335028Y130013D01*
X335652Y130137D01*
X336181Y130491D01*
X336535Y131020D01*
X336659Y131644D01*
X336535Y132268D01*
X336181Y132798D01*
X335652Y133151D01*
X335028Y133275D01*
D02*
G37*
G36*
X325528D02*
X324904Y133151D01*
X324375Y132798D01*
X324021Y132268D01*
X323897Y131644D01*
X324021Y131020D01*
X324375Y130491D01*
X324904Y130137D01*
X325528Y130013D01*
X326152Y130137D01*
X326681Y130491D01*
X327035Y131020D01*
X327159Y131644D01*
X327035Y132268D01*
X326681Y132798D01*
X326152Y133151D01*
X325528Y133275D01*
D02*
G37*
G36*
X98528Y132775D02*
X97904Y132651D01*
X97374Y132298D01*
X97021Y131768D01*
X96897Y131144D01*
X97021Y130520D01*
X97374Y129990D01*
X97904Y129637D01*
X98528Y129513D01*
X99152Y129637D01*
X99682Y129990D01*
X100035Y130520D01*
X100159Y131144D01*
X100035Y131768D01*
X99682Y132298D01*
X99152Y132651D01*
X98528Y132775D01*
D02*
G37*
G36*
X347528Y134775D02*
X346904Y134651D01*
X346375Y134298D01*
X346021Y133768D01*
X345897Y133144D01*
X346021Y132520D01*
X346375Y131991D01*
X346904Y131637D01*
X347528Y131513D01*
X347700Y131547D01*
X348001Y131097D01*
X347957Y131031D01*
X347833Y130406D01*
X347957Y129782D01*
X348310Y129253D01*
X348840Y128899D01*
X349464Y128775D01*
X350088Y128899D01*
X350618Y129253D01*
X350971Y129782D01*
X351095Y130406D01*
X350971Y131031D01*
X350618Y131560D01*
X350088Y131914D01*
X349464Y132038D01*
X349292Y132003D01*
X348991Y132453D01*
X349035Y132520D01*
X349159Y133144D01*
X349035Y133768D01*
X348681Y134298D01*
X348152Y134651D01*
X347528Y134775D01*
D02*
G37*
G36*
X94528Y131775D02*
X93904Y131651D01*
X93375Y131298D01*
X93021Y130768D01*
X92897Y130144D01*
X93021Y129520D01*
X93375Y128990D01*
X93904Y128637D01*
X94528Y128513D01*
X95152Y128637D01*
X95682Y128990D01*
X96035Y129520D01*
X96159Y130144D01*
X96035Y130768D01*
X95682Y131298D01*
X95152Y131651D01*
X94528Y131775D01*
D02*
G37*
G36*
X213028Y129775D02*
X212404Y129651D01*
X211875Y129297D01*
X211521Y128768D01*
X211397Y128144D01*
X211521Y127520D01*
X211875Y126990D01*
X212404Y126637D01*
X213028Y126513D01*
X213652Y126637D01*
X214181Y126990D01*
X214535Y127520D01*
X214659Y128144D01*
X214535Y128768D01*
X214181Y129297D01*
X213652Y129651D01*
X213028Y129775D01*
D02*
G37*
G36*
X235029Y129122D02*
X234405Y128998D01*
X233875Y128645D01*
X233522Y128115D01*
X233398Y127491D01*
X233522Y126867D01*
X233875Y126338D01*
X234405Y125984D01*
X235029Y125860D01*
X235653Y125984D01*
X236182Y126338D01*
X236536Y126867D01*
X236660Y127491D01*
X236536Y128115D01*
X236182Y128645D01*
X235653Y128998D01*
X235029Y129122D01*
D02*
G37*
G36*
X142528Y126775D02*
X141904Y126651D01*
X141375Y126297D01*
X141021Y125768D01*
X140897Y125144D01*
X141021Y124520D01*
X141375Y123990D01*
X141904Y123637D01*
X142528Y123513D01*
X143152Y123637D01*
X143682Y123990D01*
X144035Y124520D01*
X144159Y125144D01*
X144035Y125768D01*
X143682Y126297D01*
X143152Y126651D01*
X142528Y126775D01*
D02*
G37*
G36*
X126000Y128526D02*
X125217Y128423D01*
X124487Y128121D01*
X123860Y127640D01*
X123380Y127013D01*
X123077Y126283D01*
X122974Y125500D01*
X123077Y124717D01*
X123380Y123987D01*
X123860Y123360D01*
X124487Y122880D01*
X125217Y122577D01*
X126000Y122474D01*
X126783Y122577D01*
X127513Y122880D01*
X128140Y123360D01*
X128621Y123987D01*
X128923Y124717D01*
X129026Y125500D01*
X128923Y126283D01*
X128621Y127013D01*
X128140Y127640D01*
X127513Y128121D01*
X126783Y128423D01*
X126000Y128526D01*
D02*
G37*
G36*
X109528Y123281D02*
X108904Y123157D01*
X108375Y122803D01*
X108021Y122274D01*
X107456Y121998D01*
X107053Y122078D01*
X106429Y121954D01*
X105900Y121600D01*
X105546Y121071D01*
X105422Y120447D01*
X105546Y119823D01*
X105900Y119293D01*
X106429Y118940D01*
X107053Y118816D01*
X107677Y118940D01*
X108207Y119293D01*
X108560Y119823D01*
X109125Y120099D01*
X109528Y120019D01*
X110152Y120143D01*
X110681Y120496D01*
X111035Y121026D01*
X111159Y121650D01*
X111035Y122274D01*
X110681Y122803D01*
X110152Y123157D01*
X109528Y123281D01*
D02*
G37*
G36*
X164096Y125055D02*
X163471Y124931D01*
X162942Y124577D01*
X162588Y124048D01*
X162464Y123424D01*
X162588Y122800D01*
X162942Y122271D01*
X163471Y121917D01*
X164096Y121793D01*
X164720Y121917D01*
X165249Y122271D01*
X165603Y122800D01*
X165727Y123424D01*
X165603Y124048D01*
X165249Y124577D01*
X164720Y124931D01*
X164096Y125055D01*
D02*
G37*
G36*
X117028Y123281D02*
X116404Y123157D01*
X115875Y122803D01*
X115521Y122274D01*
X115425Y121791D01*
X114915D01*
X114875Y121992D01*
X114819Y122274D01*
X114465Y122803D01*
X113936Y123157D01*
X113312Y123281D01*
X112687Y123157D01*
X112158Y122803D01*
X111804Y122274D01*
X111680Y121650D01*
X111804Y121026D01*
X112158Y120496D01*
X112687Y120143D01*
X113312Y120019D01*
X113936Y120143D01*
X114465Y120496D01*
X114819Y121026D01*
X114915Y121509D01*
X115425D01*
X115465Y121308D01*
X115521Y121026D01*
X115875Y120496D01*
X116404Y120143D01*
X117028Y120019D01*
X117652Y120143D01*
X118182Y120496D01*
X118535Y121026D01*
X118659Y121650D01*
X118535Y122274D01*
X118182Y122803D01*
X117652Y123157D01*
X117028Y123281D01*
D02*
G37*
G36*
X77028Y124775D02*
X76404Y124651D01*
X75875Y124297D01*
X75521Y123768D01*
X75397Y123144D01*
X75521Y122520D01*
X75875Y121991D01*
X76404Y121637D01*
X77028Y121513D01*
X77652Y121637D01*
X78181Y121991D01*
X78535Y122520D01*
X78659Y123144D01*
X78535Y123768D01*
X78181Y124297D01*
X77652Y124651D01*
X77028Y124775D01*
D02*
G37*
G36*
X73028Y123775D02*
X72404Y123651D01*
X71874Y123298D01*
X71521Y122768D01*
X71397Y122144D01*
X71521Y121520D01*
X71874Y120991D01*
X72404Y120637D01*
X73028Y120513D01*
X73652Y120637D01*
X74181Y120991D01*
X74535Y121520D01*
X74659Y122144D01*
X74535Y122768D01*
X74181Y123298D01*
X73652Y123651D01*
X73028Y123775D01*
D02*
G37*
G36*
X360394Y123158D02*
X359700Y123020D01*
X359111Y122627D01*
X358718Y122038D01*
X358580Y121344D01*
X358718Y120649D01*
X359111Y120061D01*
X359700Y119667D01*
X360394Y119529D01*
X361089Y119667D01*
X361677Y120061D01*
X362071Y120649D01*
X362209Y121344D01*
X362071Y122038D01*
X361677Y122627D01*
X361089Y123020D01*
X360394Y123158D01*
D02*
G37*
G36*
X80528Y122275D02*
X79904Y122151D01*
X79374Y121798D01*
X79021Y121268D01*
X78897Y120644D01*
X79021Y120020D01*
X79374Y119491D01*
X79904Y119137D01*
X80528Y119013D01*
X81152Y119137D01*
X81682Y119491D01*
X82035Y120020D01*
X82159Y120644D01*
X82035Y121268D01*
X81682Y121798D01*
X81152Y122151D01*
X80528Y122275D01*
D02*
G37*
G36*
X47028Y120850D02*
X46404Y120726D01*
X45875Y120372D01*
X45521Y119843D01*
X45397Y119219D01*
X45521Y118595D01*
X45875Y118066D01*
X46404Y117712D01*
X47028Y117588D01*
X47652Y117712D01*
X48182Y118066D01*
X48535Y118595D01*
X48659Y119219D01*
X48535Y119843D01*
X48182Y120372D01*
X47652Y120726D01*
X47028Y120850D01*
D02*
G37*
G36*
X58477Y119599D02*
X57853Y119475D01*
X57323Y119121D01*
X56970Y118592D01*
X56845Y117968D01*
X56970Y117343D01*
X57323Y116814D01*
X57853Y116461D01*
X58477Y116336D01*
X59101Y116461D01*
X59630Y116814D01*
X59984Y117343D01*
X60108Y117968D01*
X59984Y118592D01*
X59630Y119121D01*
X59101Y119475D01*
X58477Y119599D01*
D02*
G37*
G36*
X50528Y119275D02*
X49904Y119151D01*
X49374Y118798D01*
X49021Y118268D01*
X48897Y117644D01*
X49021Y117020D01*
X49374Y116490D01*
X49904Y116137D01*
X50528Y116013D01*
X51152Y116137D01*
X51682Y116490D01*
X52035Y117020D01*
X52159Y117644D01*
X52035Y118268D01*
X51682Y118798D01*
X51152Y119151D01*
X50528Y119275D01*
D02*
G37*
G36*
X147028Y118275D02*
X146404Y118151D01*
X145875Y117798D01*
X145521Y117268D01*
X145397Y116644D01*
X145521Y116020D01*
X145875Y115490D01*
X146404Y115137D01*
X147028Y115013D01*
X147652Y115137D01*
X148181Y115490D01*
X148535Y116020D01*
X148659Y116644D01*
X148535Y117268D01*
X148181Y117798D01*
X147652Y118151D01*
X147028Y118275D01*
D02*
G37*
G36*
X164420Y117775D02*
X163795Y117651D01*
X163266Y117298D01*
X162912Y116769D01*
X162788Y116144D01*
X162912Y115520D01*
X163266Y114991D01*
X163795Y114637D01*
X164420Y114513D01*
X165044Y114637D01*
X165573Y114991D01*
X165927Y115520D01*
X166051Y116144D01*
X165927Y116769D01*
X165573Y117298D01*
X165044Y117651D01*
X164420Y117775D01*
D02*
G37*
G36*
X219028Y117450D02*
X218404Y117326D01*
X217875Y116972D01*
X217521Y116443D01*
X217397Y115819D01*
X217521Y115195D01*
X217875Y114665D01*
X218404Y114312D01*
X219028Y114188D01*
X219652Y114312D01*
X220181Y114665D01*
X220535Y115195D01*
X220659Y115819D01*
X220535Y116443D01*
X220181Y116972D01*
X219652Y117326D01*
X219028Y117450D01*
D02*
G37*
G36*
X124028Y115775D02*
X123404Y115651D01*
X122874Y115297D01*
X122521Y114768D01*
X122397Y114144D01*
X122521Y113520D01*
X122874Y112990D01*
X123404Y112637D01*
X124028Y112513D01*
X124652Y112637D01*
X125181Y112990D01*
X125535Y113520D01*
X125659Y114144D01*
X125535Y114768D01*
X125181Y115297D01*
X124652Y115651D01*
X124028Y115775D01*
D02*
G37*
G36*
X68028Y115275D02*
X67404Y115151D01*
X66874Y114797D01*
X66521Y114268D01*
X66397Y113644D01*
X66521Y113020D01*
X66874Y112490D01*
X67404Y112137D01*
X68028Y112013D01*
X68652Y112137D01*
X69182Y112490D01*
X69535Y113020D01*
X69659Y113644D01*
X69535Y114268D01*
X69182Y114797D01*
X68652Y115151D01*
X68028Y115275D01*
D02*
G37*
G36*
X90528Y111775D02*
X89904Y111651D01*
X89375Y111298D01*
X89039Y110796D01*
X88826Y110768D01*
X88730D01*
X88517Y110796D01*
X88182Y111298D01*
X87652Y111651D01*
X87028Y111775D01*
X86404Y111651D01*
X85874Y111298D01*
X85521Y110768D01*
X85397Y110144D01*
X85521Y109520D01*
X85874Y108991D01*
X86404Y108637D01*
X87028Y108513D01*
X87652Y108637D01*
X88182Y108991D01*
X88517Y109492D01*
X88730Y109520D01*
X88826D01*
X89039Y109492D01*
X89375Y108991D01*
X89904Y108637D01*
X90528Y108513D01*
X91152Y108637D01*
X91681Y108991D01*
X92035Y109520D01*
X92159Y110144D01*
X92035Y110768D01*
X91681Y111298D01*
X91152Y111651D01*
X90528Y111775D01*
D02*
G37*
G36*
X138220Y113967D02*
X137596Y113843D01*
X137066Y113489D01*
X136713Y112960D01*
X136589Y112336D01*
X136713Y111712D01*
X137066Y111182D01*
X137596Y110829D01*
X138220Y110705D01*
X138844Y110829D01*
X139374Y111182D01*
X139727Y111712D01*
X139851Y112336D01*
X139727Y112960D01*
X139374Y113489D01*
X138844Y113843D01*
X138220Y113967D01*
D02*
G37*
G36*
X62028Y115275D02*
X61404Y115151D01*
X60874Y114797D01*
X60521Y114268D01*
X60410Y113709D01*
X60316Y113541D01*
X60131Y113356D01*
X59963Y113262D01*
X59404Y113151D01*
X58874Y112797D01*
X58521Y112268D01*
X58397Y111644D01*
X58521Y111020D01*
X58874Y110491D01*
X59404Y110137D01*
X60028Y110013D01*
X60652Y110137D01*
X61181Y110491D01*
X61535Y111020D01*
X61646Y111579D01*
X61740Y111747D01*
X61925Y111932D01*
X62093Y112026D01*
X62652Y112137D01*
X63182Y112490D01*
X63535Y113020D01*
X63659Y113644D01*
X63535Y114268D01*
X63182Y114797D01*
X62652Y115151D01*
X62028Y115275D01*
D02*
G37*
G36*
X115528Y111275D02*
X114904Y111151D01*
X114374Y110798D01*
X114021Y110268D01*
X113897Y109644D01*
X114021Y109020D01*
X114374Y108491D01*
X114904Y108137D01*
X115528Y108013D01*
X116152Y108137D01*
X116682Y108491D01*
X117035Y109020D01*
X117159Y109644D01*
X117035Y110268D01*
X116682Y110798D01*
X116152Y111151D01*
X115528Y111275D01*
D02*
G37*
G36*
X75028D02*
X74404Y111151D01*
X73874Y110798D01*
X73521Y110268D01*
X73397Y109644D01*
X73521Y109020D01*
X73874Y108491D01*
X74404Y108137D01*
X75028Y108013D01*
X75652Y108137D01*
X76182Y108491D01*
X76535Y109020D01*
X76659Y109644D01*
X76535Y110268D01*
X76182Y110798D01*
X75652Y111151D01*
X75028Y111275D01*
D02*
G37*
G36*
X71028D02*
X70404Y111151D01*
X69875Y110798D01*
X69521Y110268D01*
X69397Y109644D01*
X69521Y109020D01*
X69875Y108491D01*
X70404Y108137D01*
X71028Y108013D01*
X71652Y108137D01*
X72181Y108491D01*
X72535Y109020D01*
X72659Y109644D01*
X72535Y110268D01*
X72181Y110798D01*
X71652Y111151D01*
X71028Y111275D01*
D02*
G37*
G36*
X96000Y111131D02*
X95376Y111007D01*
X94846Y110653D01*
X94493Y110124D01*
X94369Y109500D01*
X94493Y108876D01*
X94846Y108346D01*
X95376Y107993D01*
X96000Y107869D01*
X96624Y107993D01*
X97154Y108346D01*
X97507Y108876D01*
X97631Y109500D01*
X97507Y110124D01*
X97154Y110653D01*
X96624Y111007D01*
X96000Y111131D01*
D02*
G37*
G36*
X104000Y110972D02*
X103376Y110848D01*
X102847Y110495D01*
X102493Y109965D01*
X102369Y109341D01*
X102493Y108717D01*
X102847Y108188D01*
X103376Y107834D01*
X104000Y107710D01*
X104624Y107834D01*
X105154Y108188D01*
X105507Y108717D01*
X105631Y109341D01*
X105507Y109965D01*
X105154Y110495D01*
X104624Y110848D01*
X104000Y110972D01*
D02*
G37*
G36*
X83028Y110775D02*
X82404Y110651D01*
X81875Y110298D01*
X81521Y109768D01*
X81397Y109144D01*
X81521Y108520D01*
X81875Y107991D01*
X82404Y107637D01*
X83028Y107513D01*
X83652Y107637D01*
X84181Y107991D01*
X84535Y108520D01*
X84659Y109144D01*
X84535Y109768D01*
X84181Y110298D01*
X83652Y110651D01*
X83028Y110775D01*
D02*
G37*
G36*
X193028Y110275D02*
X192404Y110151D01*
X191875Y109798D01*
X191521Y109268D01*
X191397Y108644D01*
X191521Y108020D01*
X191875Y107491D01*
X192404Y107137D01*
X193028Y107013D01*
X193652Y107137D01*
X194182Y107491D01*
X194535Y108020D01*
X194659Y108644D01*
X194535Y109268D01*
X194182Y109798D01*
X193652Y110151D01*
X193028Y110275D01*
D02*
G37*
G36*
X268028Y109275D02*
X267404Y109151D01*
X266875Y108798D01*
X266521Y108268D01*
X266397Y107644D01*
X266521Y107020D01*
X266875Y106491D01*
X267404Y106137D01*
X268028Y106013D01*
X268652Y106137D01*
X269181Y106491D01*
X269535Y107020D01*
X269659Y107644D01*
X269535Y108268D01*
X269181Y108798D01*
X268652Y109151D01*
X268028Y109275D01*
D02*
G37*
G36*
X175028D02*
X174404Y109151D01*
X173874Y108798D01*
X173521Y108268D01*
X173397Y107644D01*
X173521Y107020D01*
X173874Y106491D01*
X174404Y106137D01*
X175028Y106013D01*
X175652Y106137D01*
X176181Y106491D01*
X176535Y107020D01*
X176659Y107644D01*
X176535Y108268D01*
X176181Y108798D01*
X175652Y109151D01*
X175028Y109275D01*
D02*
G37*
G36*
X118528Y108275D02*
X117904Y108151D01*
X117375Y107798D01*
X117021Y107268D01*
X116897Y106644D01*
X117021Y106020D01*
X117375Y105491D01*
X117904Y105137D01*
X118528Y105013D01*
X119152Y105137D01*
X119682Y105491D01*
X120035Y106020D01*
X120159Y106644D01*
X120035Y107268D01*
X119682Y107798D01*
X119152Y108151D01*
X118528Y108275D01*
D02*
G37*
G36*
X39528Y119775D02*
X38904Y119651D01*
X38375Y119298D01*
X38021Y118768D01*
X37897Y118144D01*
X38021Y117520D01*
X38375Y116990D01*
X38904Y116637D01*
X39208Y116576D01*
X39158Y116076D01*
X37584D01*
X37584Y116007D01*
X37208Y115700D01*
X36584Y115576D01*
X36055Y115223D01*
X35701Y114693D01*
X35577Y114069D01*
X35701Y113445D01*
X36055Y112916D01*
X36584Y112562D01*
X37208Y112438D01*
X37566Y112143D01*
X37528Y103644D01*
X56028D01*
Y104177D01*
X56528Y104388D01*
X56904Y104137D01*
X57528Y104013D01*
X57576Y104022D01*
X57934Y103628D01*
X57679Y103216D01*
X57419Y103198D01*
X57028Y103275D01*
X56404Y103151D01*
X55875Y102797D01*
X55521Y102268D01*
X55397Y101644D01*
X55521Y101020D01*
X55875Y100490D01*
X56404Y100137D01*
X57028Y100013D01*
X57101Y100027D01*
X57196Y99969D01*
X57486Y99594D01*
X57410Y99209D01*
X57316Y99041D01*
X57131Y98856D01*
X56963Y98762D01*
X56404Y98651D01*
X55875Y98298D01*
X55521Y97768D01*
X55397Y97144D01*
X55521Y96520D01*
X55875Y95991D01*
X56404Y95637D01*
X57028Y95513D01*
X57652Y95637D01*
X58182Y95991D01*
X58535Y96520D01*
X58646Y97079D01*
X58740Y97247D01*
X58925Y97432D01*
X59093Y97526D01*
X59652Y97637D01*
X60181Y97991D01*
X60535Y98520D01*
X60659Y99144D01*
X60535Y99768D01*
X60181Y100297D01*
X59652Y100651D01*
X59028Y100775D01*
X58955Y100761D01*
X58860Y100819D01*
X58570Y101194D01*
X58597Y101328D01*
X58852Y101658D01*
X59137Y101678D01*
X59528Y101600D01*
X60152Y101724D01*
X60681Y102078D01*
X61035Y102607D01*
X61159Y103232D01*
X61035Y103856D01*
X60681Y104385D01*
X60152Y104739D01*
X59528Y104863D01*
X59480Y104853D01*
X59088Y105285D01*
X59159Y105644D01*
X59035Y106268D01*
X58681Y106798D01*
X58152Y107151D01*
X57528Y107275D01*
X56904Y107151D01*
X56528Y106900D01*
X56028Y107111D01*
Y112644D01*
X51528D01*
X51234Y112658D01*
X50657Y112773D01*
X50114Y112998D01*
X49625Y113325D01*
X49209Y113741D01*
X48882Y114230D01*
X48657Y114773D01*
X48542Y115350D01*
X48528Y115644D01*
Y115730D01*
X48462Y115889D01*
X48340Y116010D01*
X48182Y116076D01*
X39898D01*
X39848Y116576D01*
X40152Y116637D01*
X40681Y116990D01*
X41035Y117520D01*
X41159Y118144D01*
X41035Y118768D01*
X40681Y119298D01*
X40152Y119651D01*
X39528Y119775D01*
D02*
G37*
G36*
X34773Y116144D02*
X22028Y116144D01*
X22028Y103144D01*
X22018Y103047D01*
X21905Y102846D01*
X21528Y102644D01*
X22283D01*
X22365Y102644D01*
X35028D01*
X35028Y115644D01*
X35038Y115742D01*
X35151Y115942D01*
X35528Y116144D01*
X34773D01*
D02*
G37*
G36*
X268549Y105572D02*
X267925Y105448D01*
X267396Y105094D01*
X267042Y104565D01*
X266918Y103941D01*
X267042Y103316D01*
X267396Y102787D01*
X267925Y102433D01*
X268549Y102309D01*
X269174Y102433D01*
X269703Y102787D01*
X270056Y103316D01*
X270181Y103941D01*
X270056Y104565D01*
X269703Y105094D01*
X269174Y105448D01*
X268549Y105572D01*
D02*
G37*
G36*
X144740Y105275D02*
X144115Y105151D01*
X143586Y104797D01*
X143233Y104268D01*
X143108Y103644D01*
X143233Y103020D01*
X143586Y102490D01*
X144115Y102137D01*
X144740Y102013D01*
X145364Y102137D01*
X145893Y102490D01*
X146247Y103020D01*
X146371Y103644D01*
X146247Y104268D01*
X145893Y104797D01*
X145364Y105151D01*
X144740Y105275D01*
D02*
G37*
G36*
X48028Y101275D02*
X47404Y101151D01*
X46874Y100797D01*
X46521Y100268D01*
X46397Y99644D01*
X46492Y99164D01*
X46059Y98879D01*
X45652Y99151D01*
X45028Y99275D01*
X44404Y99151D01*
X43874Y98798D01*
X43521Y98268D01*
X43397Y97644D01*
X43521Y97020D01*
X43874Y96491D01*
X44404Y96137D01*
X45028Y96013D01*
X45652Y96137D01*
X46181Y96491D01*
X46535Y97020D01*
X46659Y97644D01*
X46564Y98124D01*
X46997Y98409D01*
X47404Y98137D01*
X48028Y98013D01*
X48652Y98137D01*
X49182Y98491D01*
X49535Y99020D01*
X49659Y99644D01*
X49535Y100268D01*
X49182Y100797D01*
X48652Y101151D01*
X48028Y101275D01*
D02*
G37*
G36*
X282028Y100775D02*
X281404Y100651D01*
X280874Y100297D01*
X280521Y99768D01*
X280397Y99144D01*
X280521Y98520D01*
X280874Y97991D01*
X281404Y97637D01*
X282028Y97513D01*
X282652Y97637D01*
X283182Y97991D01*
X283535Y98520D01*
X283659Y99144D01*
X283535Y99768D01*
X283182Y100297D01*
X282652Y100651D01*
X282028Y100775D01*
D02*
G37*
G36*
X87028D02*
X86404Y100651D01*
X85874Y100297D01*
X85521Y99768D01*
X85397Y99144D01*
X85521Y98520D01*
X85874Y97991D01*
X86404Y97637D01*
X87028Y97513D01*
X87652Y97637D01*
X88182Y97991D01*
X88535Y98520D01*
X88659Y99144D01*
X88535Y99768D01*
X88182Y100297D01*
X87652Y100651D01*
X87028Y100775D01*
D02*
G37*
G36*
X35028D02*
X34404Y100651D01*
X33874Y100297D01*
X33521Y99768D01*
X33397Y99144D01*
X33521Y98520D01*
X33874Y97991D01*
X34404Y97637D01*
X35028Y97513D01*
X35652Y97637D01*
X36182Y97991D01*
X36535Y98520D01*
X36659Y99144D01*
X36535Y99768D01*
X36182Y100297D01*
X35652Y100651D01*
X35028Y100775D01*
D02*
G37*
G36*
X31528Y97275D02*
X30904Y97151D01*
X30375Y96798D01*
X30021Y96268D01*
X29897Y95644D01*
X30021Y95020D01*
X30375Y94490D01*
X30904Y94137D01*
X31528Y94013D01*
X32152Y94137D01*
X32682Y94490D01*
X33035Y95020D01*
X33159Y95644D01*
X33035Y96268D01*
X32682Y96798D01*
X32152Y97151D01*
X31528Y97275D01*
D02*
G37*
G36*
X71528Y96775D02*
X70904Y96651D01*
X70375Y96298D01*
X70021Y95768D01*
X69897Y95144D01*
X70021Y94520D01*
X70375Y93990D01*
X70904Y93637D01*
X71528Y93513D01*
X72152Y93637D01*
X72681Y93990D01*
X73035Y94520D01*
X73159Y95144D01*
X73035Y95768D01*
X72681Y96298D01*
X72152Y96651D01*
X71528Y96775D01*
D02*
G37*
G36*
X41528D02*
X40904Y96651D01*
X40374Y96298D01*
X40021Y95768D01*
X39897Y95144D01*
X40021Y94520D01*
X40374Y93990D01*
X40904Y93637D01*
X41528Y93513D01*
X42152Y93637D01*
X42682Y93990D01*
X43035Y94520D01*
X43159Y95144D01*
X43035Y95768D01*
X42682Y96298D01*
X42152Y96651D01*
X41528Y96775D01*
D02*
G37*
G36*
X238028Y97693D02*
X237053Y97499D01*
X236226Y96946D01*
X235673Y96119D01*
X235479Y95144D01*
X235673Y94169D01*
X236226Y93342D01*
X237053Y92789D01*
X238028Y92595D01*
X239003Y92789D01*
X239830Y93342D01*
X240383Y94169D01*
X240577Y95144D01*
X240383Y96119D01*
X239830Y96946D01*
X239003Y97499D01*
X238028Y97693D01*
D02*
G37*
G36*
X116036Y104268D02*
X115411Y104143D01*
X114882Y103790D01*
X114529Y103261D01*
X114404Y102636D01*
X114529Y102012D01*
X114882Y101483D01*
X115411Y101129D01*
X116036Y101005D01*
X116476Y101093D01*
X116861Y100789D01*
X116909Y100708D01*
X116897Y100644D01*
X117021Y100020D01*
X117375Y99490D01*
X117761Y99232D01*
X117691Y98708D01*
X117404Y98651D01*
X116875Y98298D01*
X116521Y97768D01*
X116397Y97144D01*
X116521Y96520D01*
X116875Y95991D01*
X117193Y95778D01*
X117341Y95387D01*
X117284Y95161D01*
X117021Y94768D01*
X116897Y94144D01*
X117021Y93520D01*
X117375Y92990D01*
X117904Y92637D01*
X118528Y92513D01*
X119152Y92637D01*
X119682Y92990D01*
X120035Y93520D01*
X120159Y94144D01*
X120035Y94768D01*
X119682Y95297D01*
X119363Y95510D01*
X119215Y95901D01*
X119272Y96127D01*
X119535Y96520D01*
X119659Y97144D01*
X119535Y97768D01*
X119182Y98298D01*
X118795Y98556D01*
X118865Y99080D01*
X119152Y99137D01*
X119682Y99490D01*
X120035Y100020D01*
X120159Y100644D01*
X120035Y101268D01*
X119682Y101797D01*
X119152Y102151D01*
X118528Y102275D01*
X118088Y102188D01*
X117702Y102492D01*
X117654Y102573D01*
X117667Y102636D01*
X117543Y103261D01*
X117189Y103790D01*
X116660Y104143D01*
X116036Y104268D01*
D02*
G37*
G36*
X177028Y95275D02*
X176404Y95151D01*
X175874Y94797D01*
X175521Y94268D01*
X175397Y93644D01*
X175521Y93020D01*
X175793Y92613D01*
X175508Y92180D01*
X175028Y92275D01*
X174404Y92151D01*
X173874Y91798D01*
X173616Y91411D01*
X173092Y91481D01*
X173035Y91768D01*
X172681Y92298D01*
X172152Y92651D01*
X171528Y92775D01*
X170904Y92651D01*
X170375Y92298D01*
X170021Y91768D01*
X169897Y91144D01*
X170021Y90520D01*
X170375Y89991D01*
X170904Y89637D01*
X171528Y89513D01*
X172152Y89637D01*
X172681Y89991D01*
X172940Y90377D01*
X173464Y90307D01*
X173521Y90020D01*
X173874Y89490D01*
X174404Y89137D01*
X175028Y89013D01*
X175652Y89137D01*
X176181Y89490D01*
X176535Y90020D01*
X176659Y90644D01*
X176535Y91268D01*
X176263Y91675D01*
X176548Y92108D01*
X177028Y92013D01*
X177652Y92137D01*
X178182Y92491D01*
X178535Y93020D01*
X178659Y93644D01*
X178535Y94268D01*
X178182Y94797D01*
X177652Y95151D01*
X177028Y95275D01*
D02*
G37*
G36*
X108028Y94775D02*
X107404Y94651D01*
X106875Y94297D01*
X106521Y93768D01*
X106397Y93144D01*
X106521Y92520D01*
X106875Y91991D01*
X107404Y91637D01*
X108028Y91513D01*
X108652Y91637D01*
X109181Y91991D01*
X109535Y92520D01*
X109659Y93144D01*
X109535Y93768D01*
X109181Y94297D01*
X108652Y94651D01*
X108028Y94775D01*
D02*
G37*
G36*
X152033Y92738D02*
X151409Y92614D01*
X150880Y92261D01*
X150526Y91731D01*
X150402Y91107D01*
X150526Y90483D01*
X150880Y89954D01*
X151409Y89600D01*
X152033Y89476D01*
X152658Y89600D01*
X153187Y89954D01*
X153541Y90483D01*
X153665Y91107D01*
X153541Y91731D01*
X153187Y92261D01*
X152658Y92614D01*
X152033Y92738D01*
D02*
G37*
G36*
X59028Y92700D02*
X58404Y92576D01*
X57875Y92222D01*
X57521Y91693D01*
X57397Y91069D01*
X57521Y90445D01*
X57875Y89916D01*
X58404Y89562D01*
X59028Y89438D01*
X59652Y89562D01*
X60181Y89916D01*
X60535Y90445D01*
X60659Y91069D01*
X60535Y91693D01*
X60181Y92222D01*
X59652Y92576D01*
X59028Y92700D01*
D02*
G37*
G36*
X183028Y92275D02*
X182404Y92151D01*
X181875Y91798D01*
X181521Y91268D01*
X181397Y90644D01*
X181521Y90020D01*
X181875Y89490D01*
X182404Y89137D01*
X183028Y89013D01*
X183652Y89137D01*
X184181Y89490D01*
X184535Y90020D01*
X184659Y90644D01*
X184535Y91268D01*
X184181Y91798D01*
X183652Y92151D01*
X183028Y92275D01*
D02*
G37*
G36*
X118528Y91775D02*
X117904Y91651D01*
X117375Y91298D01*
X117021Y90768D01*
X116897Y90144D01*
X117021Y89520D01*
X117375Y88990D01*
X117904Y88637D01*
X118528Y88513D01*
X119152Y88637D01*
X119682Y88990D01*
X120035Y89520D01*
X120159Y90144D01*
X120035Y90768D01*
X119682Y91298D01*
X119152Y91651D01*
X118528Y91775D01*
D02*
G37*
G36*
X109028Y90775D02*
X108404Y90651D01*
X107875Y90298D01*
X107521Y89768D01*
X107397Y89144D01*
X107521Y88520D01*
X107875Y87990D01*
X108404Y87637D01*
X109028Y87513D01*
X109652Y87637D01*
X110181Y87990D01*
X110535Y88520D01*
X110659Y89144D01*
X110535Y89768D01*
X110181Y90298D01*
X109652Y90651D01*
X109028Y90775D01*
D02*
G37*
G36*
X131028Y91775D02*
X130404Y91651D01*
X129875Y91298D01*
X129521Y90768D01*
X129397Y90144D01*
X129521Y89520D01*
X129875Y88990D01*
X130019Y88894D01*
Y88394D01*
X129875Y88297D01*
X129521Y87768D01*
X129397Y87144D01*
X129521Y86520D01*
X129875Y85991D01*
X130404Y85637D01*
X131028Y85513D01*
X131652Y85637D01*
X132182Y85991D01*
X132535Y86520D01*
X132659Y87144D01*
X132535Y87768D01*
X132182Y88297D01*
X132037Y88394D01*
Y88894D01*
X132182Y88990D01*
X132535Y89520D01*
X132659Y90144D01*
X132535Y90768D01*
X132182Y91298D01*
X131652Y91651D01*
X131028Y91775D01*
D02*
G37*
G36*
X57199Y88700D02*
X56574Y88576D01*
X56045Y88222D01*
X55692Y87693D01*
X55568Y87069D01*
X55692Y86445D01*
X56045Y85915D01*
X56574Y85562D01*
X57199Y85438D01*
X57823Y85562D01*
X58352Y85915D01*
X58706Y86445D01*
X58830Y87069D01*
X58706Y87693D01*
X58352Y88222D01*
X57823Y88576D01*
X57199Y88700D01*
D02*
G37*
G36*
X48878D02*
X48254Y88576D01*
X47725Y88222D01*
X47371Y87693D01*
X47247Y87069D01*
X47371Y86445D01*
X47725Y85915D01*
X48254Y85562D01*
X48878Y85438D01*
X49502Y85562D01*
X50032Y85915D01*
X50385Y86445D01*
X50509Y87069D01*
X50385Y87693D01*
X50032Y88222D01*
X49502Y88576D01*
X48878Y88700D01*
D02*
G37*
G36*
X294028Y91170D02*
X293245Y91067D01*
X292515Y90764D01*
X291888Y90284D01*
X291407Y89657D01*
X291105Y88927D01*
X291002Y88144D01*
X291105Y87361D01*
X291407Y86631D01*
X291888Y86004D01*
X292515Y85523D01*
X293245Y85221D01*
X294028Y85118D01*
X294811Y85221D01*
X295541Y85523D01*
X296168Y86004D01*
X296649Y86631D01*
X296951Y87361D01*
X297054Y88144D01*
X296951Y88927D01*
X296649Y89657D01*
X296168Y90284D01*
X295541Y90764D01*
X294811Y91067D01*
X294028Y91170D01*
D02*
G37*
G36*
X118028Y87275D02*
X117404Y87151D01*
X116875Y86797D01*
X116521Y86268D01*
X116397Y85644D01*
X116521Y85020D01*
X116875Y84491D01*
X117404Y84137D01*
X118028Y84013D01*
X118652Y84137D01*
X119182Y84491D01*
X119535Y85020D01*
X119659Y85644D01*
X119535Y86268D01*
X119182Y86797D01*
X118652Y87151D01*
X118028Y87275D01*
D02*
G37*
G36*
X168028Y86275D02*
X167404Y86151D01*
X166875Y85798D01*
X166521Y85268D01*
X166397Y84644D01*
X166521Y84020D01*
X166875Y83491D01*
X167404Y83137D01*
X168028Y83013D01*
X168652Y83137D01*
X169182Y83491D01*
X169535Y84020D01*
X169659Y84644D01*
X169535Y85268D01*
X169182Y85798D01*
X168652Y86151D01*
X168028Y86275D01*
D02*
G37*
G36*
X118028Y83275D02*
X117404Y83151D01*
X116875Y82797D01*
X116521Y82268D01*
X116397Y81644D01*
X116521Y81020D01*
X116875Y80490D01*
X117404Y80137D01*
X118028Y80013D01*
X118652Y80137D01*
X119182Y80490D01*
X119535Y81020D01*
X119659Y81644D01*
X119535Y82268D01*
X119182Y82797D01*
X118652Y83151D01*
X118028Y83275D01*
D02*
G37*
G36*
X50528Y82775D02*
X49904Y82651D01*
X49374Y82297D01*
X49021Y81768D01*
X48897Y81144D01*
X49021Y80520D01*
X49374Y79991D01*
X49904Y79637D01*
X50528Y79513D01*
X51152Y79637D01*
X51682Y79991D01*
X52035Y80520D01*
X52159Y81144D01*
X52035Y81768D01*
X51682Y82297D01*
X51152Y82651D01*
X50528Y82775D01*
D02*
G37*
G36*
X39417Y80387D02*
X38792Y80262D01*
X38263Y79909D01*
X37910Y79379D01*
X37786Y78755D01*
X37910Y78131D01*
X38263Y77602D01*
X38792Y77248D01*
X39417Y77124D01*
X40041Y77248D01*
X40570Y77602D01*
X40924Y78131D01*
X41048Y78755D01*
X40924Y79379D01*
X40570Y79909D01*
X40041Y80262D01*
X39417Y80387D01*
D02*
G37*
G36*
X296028Y81734D02*
X295053Y81540D01*
X294226Y80988D01*
X293673Y80161D01*
X293479Y79185D01*
X293673Y78210D01*
X294226Y77383D01*
X295053Y76830D01*
X296028Y76636D01*
X297004Y76830D01*
X297830Y77383D01*
X298383Y78210D01*
X298577Y79185D01*
X298383Y80161D01*
X297830Y80988D01*
X297004Y81540D01*
X296028Y81734D01*
D02*
G37*
G36*
X34528Y79775D02*
X33904Y79651D01*
X33375Y79298D01*
X33021Y78768D01*
X32897Y78144D01*
X33021Y77520D01*
X33375Y76990D01*
X33904Y76637D01*
X34528Y76513D01*
X35152Y76637D01*
X35682Y76990D01*
X36035Y77520D01*
X36159Y78144D01*
X36035Y78768D01*
X35682Y79298D01*
X35152Y79651D01*
X34528Y79775D01*
D02*
G37*
G36*
X173028Y76275D02*
X172404Y76151D01*
X171874Y75797D01*
X171778Y75653D01*
X171278D01*
X171181Y75797D01*
X170652Y76151D01*
X170028Y76275D01*
X169404Y76151D01*
X168875Y75797D01*
X168521Y75268D01*
X168397Y74644D01*
X168521Y74020D01*
X168875Y73491D01*
X169404Y73137D01*
X170028Y73013D01*
X170652Y73137D01*
X171181Y73491D01*
X171278Y73635D01*
X171778D01*
X171874Y73491D01*
X172404Y73137D01*
X173028Y73013D01*
X173652Y73137D01*
X174181Y73491D01*
X174535Y74020D01*
X174659Y74644D01*
X174535Y75268D01*
X174181Y75797D01*
X173652Y76151D01*
X173028Y76275D01*
D02*
G37*
G36*
X43528Y79775D02*
X42904Y79651D01*
X42375Y79298D01*
X42021Y78768D01*
X41897Y78144D01*
X42021Y77520D01*
X42375Y76990D01*
X42904Y76637D01*
X43528Y76513D01*
X44152Y76637D01*
X44682Y76990D01*
X44882Y77291D01*
X45353Y77096D01*
X45285Y76755D01*
X45410Y76131D01*
X45763Y75602D01*
X46292Y75248D01*
X46917Y75124D01*
X47541Y75248D01*
X48070Y75602D01*
X48424Y76131D01*
X48548Y76755D01*
X48424Y77380D01*
X48070Y77909D01*
X47541Y78262D01*
X46917Y78386D01*
X46292Y78262D01*
X45763Y77909D01*
X45563Y77608D01*
X45092Y77803D01*
X45159Y78144D01*
X45035Y78768D01*
X44682Y79298D01*
X44152Y79651D01*
X43528Y79775D01*
D02*
G37*
G36*
X241528Y78275D02*
X240904Y78151D01*
X240374Y77798D01*
X240021Y77268D01*
X239897Y76644D01*
X240021Y76020D01*
X240374Y75490D01*
X240904Y75137D01*
X241528Y75013D01*
X242152Y75137D01*
X242682Y75490D01*
X243035Y76020D01*
X243159Y76644D01*
X243035Y77268D01*
X242682Y77798D01*
X242152Y78151D01*
X241528Y78275D01*
D02*
G37*
G36*
X131028Y84775D02*
X130404Y84651D01*
X129875Y84298D01*
X129521Y83768D01*
X129397Y83144D01*
X129521Y82520D01*
X129875Y81990D01*
X130404Y81637D01*
X130691Y81580D01*
X130761Y81056D01*
X130375Y80797D01*
X130021Y80268D01*
X129897Y79644D01*
X130021Y79020D01*
X130201Y78751D01*
X130129Y78555D01*
X129930Y78256D01*
X129404Y78151D01*
X128875Y77798D01*
X128521Y77268D01*
X128397Y76644D01*
X128521Y76020D01*
X128875Y75490D01*
X129404Y75137D01*
X130028Y75013D01*
X130652Y75137D01*
X131182Y75490D01*
X131535Y76020D01*
X131659Y76644D01*
X131535Y77268D01*
X131356Y77537D01*
X131427Y77733D01*
X131626Y78032D01*
X132152Y78137D01*
X132682Y78491D01*
X133035Y79020D01*
X133159Y79644D01*
X133035Y80268D01*
X132682Y80797D01*
X132152Y81151D01*
X131865Y81208D01*
X131795Y81732D01*
X132182Y81990D01*
X132535Y82520D01*
X132659Y83144D01*
X132535Y83768D01*
X132182Y84298D01*
X131652Y84651D01*
X131028Y84775D01*
D02*
G37*
G36*
X118028Y78000D02*
X117404Y77876D01*
X116875Y77522D01*
X116521Y76993D01*
X116397Y76369D01*
X116521Y75745D01*
X116875Y75216D01*
X117404Y74862D01*
X118028Y74738D01*
X118652Y74862D01*
X119182Y75216D01*
X119535Y75745D01*
X119659Y76369D01*
X119535Y76993D01*
X119182Y77522D01*
X118652Y77876D01*
X118028Y78000D01*
D02*
G37*
G36*
X138231Y72850D02*
X137606Y72726D01*
X137077Y72373D01*
X136723Y71843D01*
X136599Y71219D01*
X136723Y70595D01*
X137077Y70065D01*
X137606Y69712D01*
X138231Y69588D01*
X138855Y69712D01*
X139384Y70065D01*
X139738Y70595D01*
X139862Y71219D01*
X139738Y71843D01*
X139384Y72373D01*
X138855Y72726D01*
X138231Y72850D01*
D02*
G37*
G36*
X144028Y72787D02*
X143404Y72663D01*
X142875Y72309D01*
X142521Y71780D01*
X142397Y71156D01*
X142521Y70531D01*
X142875Y70002D01*
X143404Y69649D01*
X144028Y69525D01*
X144652Y69649D01*
X145182Y70002D01*
X145535Y70531D01*
X145659Y71156D01*
X145535Y71780D01*
X145182Y72309D01*
X144652Y72663D01*
X144028Y72787D01*
D02*
G37*
G36*
X104528Y71775D02*
X103904Y71651D01*
X103375Y71298D01*
X103021Y70768D01*
X102897Y70144D01*
X103021Y69520D01*
X103375Y68990D01*
X103904Y68637D01*
X104528Y68513D01*
X105152Y68637D01*
X105682Y68990D01*
X106035Y69520D01*
X106159Y70144D01*
X106035Y70768D01*
X105682Y71298D01*
X105152Y71651D01*
X104528Y71775D01*
D02*
G37*
G36*
X133028Y70275D02*
X132404Y70151D01*
X131875Y69797D01*
X131521Y69268D01*
X131397Y68644D01*
X131521Y68020D01*
X131875Y67491D01*
X132404Y67137D01*
X133028Y67013D01*
X133652Y67137D01*
X134181Y67491D01*
X134535Y68020D01*
X134659Y68644D01*
X134535Y69268D01*
X134181Y69797D01*
X133652Y70151D01*
X133028Y70275D01*
D02*
G37*
G36*
X72028Y67743D02*
X71404Y67619D01*
X70875Y67265D01*
X70521Y66736D01*
X70397Y66111D01*
X70521Y65487D01*
X70875Y64958D01*
X71404Y64604D01*
X72028Y64480D01*
X72652Y64604D01*
X73181Y64958D01*
X73535Y65487D01*
X73659Y66111D01*
X73535Y66736D01*
X73181Y67265D01*
X72652Y67619D01*
X72028Y67743D01*
D02*
G37*
G36*
X245028Y67275D02*
X244404Y67151D01*
X243875Y66798D01*
X243521Y66268D01*
X243397Y65644D01*
X243521Y65020D01*
X243875Y64490D01*
X244404Y64137D01*
X245028Y64013D01*
X245652Y64137D01*
X246182Y64490D01*
X246535Y65020D01*
X246659Y65644D01*
X246535Y66268D01*
X246182Y66798D01*
X245652Y67151D01*
X245028Y67275D01*
D02*
G37*
G36*
X58028Y69350D02*
X57404Y69226D01*
X56875Y68872D01*
X56521Y68343D01*
X56397Y67719D01*
X56521Y67095D01*
X56875Y66566D01*
X57106Y66411D01*
X57384Y66161D01*
X57234Y65770D01*
X57100Y65569D01*
X56975Y64945D01*
X57100Y64321D01*
X57453Y63792D01*
X57982Y63438D01*
X58607Y63314D01*
X59231Y63438D01*
X59760Y63792D01*
X60114Y64321D01*
X60238Y64945D01*
X60114Y65569D01*
X59760Y66099D01*
X59529Y66254D01*
X59251Y66503D01*
X59401Y66894D01*
X59535Y67095D01*
X59659Y67719D01*
X59535Y68343D01*
X59181Y68872D01*
X58652Y69226D01*
X58028Y69350D01*
D02*
G37*
G36*
X117028Y66275D02*
X116404Y66151D01*
X115875Y65798D01*
X115521Y65268D01*
X115397Y64644D01*
X115521Y64020D01*
X115875Y63490D01*
X116404Y63137D01*
X117028Y63013D01*
X117652Y63137D01*
X118182Y63490D01*
X118535Y64020D01*
X118659Y64644D01*
X118535Y65268D01*
X118182Y65798D01*
X117652Y66151D01*
X117028Y66275D01*
D02*
G37*
G36*
X140028Y65850D02*
X139404Y65726D01*
X138874Y65373D01*
X138521Y64843D01*
X138397Y64219D01*
X138521Y63595D01*
X138874Y63065D01*
X139404Y62712D01*
X140028Y62588D01*
X140652Y62712D01*
X141182Y63065D01*
X141535Y63595D01*
X141659Y64219D01*
X141535Y64843D01*
X141182Y65373D01*
X140652Y65726D01*
X140028Y65850D01*
D02*
G37*
G36*
X110028Y65775D02*
X109404Y65651D01*
X108874Y65298D01*
X108521Y64768D01*
X108397Y64144D01*
X108521Y63520D01*
X108874Y62990D01*
X109404Y62637D01*
X110028Y62513D01*
X110652Y62637D01*
X111181Y62990D01*
X111535Y63520D01*
X111659Y64144D01*
X111535Y64768D01*
X111181Y65298D01*
X110652Y65651D01*
X110028Y65775D01*
D02*
G37*
G36*
X144528Y65566D02*
X143904Y65442D01*
X143375Y65088D01*
X143021Y64559D01*
X142897Y63934D01*
X143021Y63310D01*
X143375Y62781D01*
X143904Y62427D01*
X144528Y62303D01*
X145152Y62427D01*
X145682Y62781D01*
X146035Y63310D01*
X146159Y63934D01*
X146035Y64559D01*
X145682Y65088D01*
X145152Y65442D01*
X144528Y65566D01*
D02*
G37*
G36*
X133528Y64775D02*
X132904Y64651D01*
X132375Y64297D01*
X132021Y63768D01*
X131897Y63144D01*
X132021Y62520D01*
X132375Y61990D01*
X132904Y61637D01*
X133528Y61513D01*
X134152Y61637D01*
X134681Y61990D01*
X135035Y62520D01*
X135159Y63144D01*
X135035Y63768D01*
X134681Y64297D01*
X134152Y64651D01*
X133528Y64775D01*
D02*
G37*
G36*
X129528Y64275D02*
X128904Y64151D01*
X128375Y63797D01*
X128021Y63268D01*
X127897Y62644D01*
X128021Y62020D01*
X128375Y61490D01*
X128904Y61137D01*
X129528Y61013D01*
X130152Y61137D01*
X130682Y61490D01*
X131035Y62020D01*
X131159Y62644D01*
X131035Y63268D01*
X130682Y63797D01*
X130152Y64151D01*
X129528Y64275D01*
D02*
G37*
G36*
X249028Y63275D02*
X248404Y63151D01*
X247874Y62797D01*
X247521Y62268D01*
X247397Y61644D01*
X247521Y61020D01*
X247874Y60491D01*
X248404Y60137D01*
X249028Y60013D01*
X249652Y60137D01*
X250182Y60491D01*
X250535Y61020D01*
X250659Y61644D01*
X250535Y62268D01*
X250182Y62797D01*
X249652Y63151D01*
X249028Y63275D01*
D02*
G37*
G36*
X150528D02*
X149904Y63151D01*
X149374Y62797D01*
X149021Y62268D01*
X148897Y61644D01*
X149021Y61020D01*
X149374Y60491D01*
X149904Y60137D01*
X150528Y60013D01*
X151152Y60137D01*
X151681Y60491D01*
X152035Y61020D01*
X152159Y61644D01*
X152035Y62268D01*
X151681Y62797D01*
X151152Y63151D01*
X150528Y63275D01*
D02*
G37*
G36*
X56528D02*
X55904Y63151D01*
X55374Y62797D01*
X55021Y62268D01*
X54897Y61644D01*
X55021Y61020D01*
X55374Y60491D01*
X55904Y60137D01*
X56528Y60013D01*
X57152Y60137D01*
X57682Y60491D01*
X58035Y61020D01*
X58159Y61644D01*
X58035Y62268D01*
X57682Y62797D01*
X57152Y63151D01*
X56528Y63275D01*
D02*
G37*
G36*
X82528Y62775D02*
X81904Y62651D01*
X81375Y62297D01*
X81021Y61768D01*
X80897Y61144D01*
X81021Y60520D01*
X81375Y59991D01*
X81904Y59637D01*
X82528Y59513D01*
X83152Y59637D01*
X83681Y59991D01*
X84035Y60520D01*
X84159Y61144D01*
X84035Y61768D01*
X83681Y62297D01*
X83152Y62651D01*
X82528Y62775D01*
D02*
G37*
G36*
X72528Y62275D02*
X71904Y62151D01*
X71374Y61797D01*
X71021Y61268D01*
X70897Y60644D01*
X71021Y60020D01*
X71374Y59491D01*
X71904Y59137D01*
X72528Y59013D01*
X73152Y59137D01*
X73681Y59491D01*
X74035Y60020D01*
X74159Y60644D01*
X74035Y61268D01*
X73681Y61797D01*
X73152Y62151D01*
X72528Y62275D01*
D02*
G37*
G36*
X121528Y56775D02*
X120904Y56651D01*
X120375Y56297D01*
X120021Y55768D01*
X119897Y55144D01*
X120021Y54520D01*
X120375Y53991D01*
X120904Y53637D01*
X121528Y53513D01*
X122152Y53637D01*
X122681Y53991D01*
X123035Y54520D01*
X123159Y55144D01*
X123035Y55768D01*
X122681Y56297D01*
X122152Y56651D01*
X121528Y56775D01*
D02*
G37*
G36*
X150528Y55350D02*
X149904Y55226D01*
X149374Y54873D01*
X149021Y54343D01*
X148897Y53719D01*
X149021Y53095D01*
X149374Y52565D01*
X149904Y52212D01*
X150528Y52088D01*
X151152Y52212D01*
X151681Y52565D01*
X152035Y53095D01*
X152159Y53719D01*
X152035Y54343D01*
X151681Y54873D01*
X151152Y55226D01*
X150528Y55350D01*
D02*
G37*
G36*
X144350D02*
X143725Y55226D01*
X143196Y54873D01*
X142842Y54343D01*
X142718Y53719D01*
X142842Y53095D01*
X143196Y52565D01*
X143725Y52212D01*
X144350Y52088D01*
X144974Y52212D01*
X145503Y52565D01*
X145857Y53095D01*
X145981Y53719D01*
X145857Y54343D01*
X145503Y54873D01*
X144974Y55226D01*
X144350Y55350D01*
D02*
G37*
G36*
X140028Y55066D02*
X139404Y54942D01*
X138874Y54588D01*
X138521Y54059D01*
X138397Y53434D01*
X138521Y52810D01*
X138874Y52281D01*
X139404Y51927D01*
X140028Y51803D01*
X140652Y51927D01*
X141182Y52281D01*
X141535Y52810D01*
X141659Y53434D01*
X141535Y54059D01*
X141182Y54588D01*
X140652Y54942D01*
X140028Y55066D01*
D02*
G37*
G36*
X98028Y52720D02*
X97404Y52596D01*
X96874Y52242D01*
X96521Y51713D01*
X96397Y51089D01*
X96521Y50464D01*
X96874Y49935D01*
X97404Y49582D01*
X98028Y49457D01*
X98652Y49582D01*
X99181Y49935D01*
X99535Y50464D01*
X99659Y51089D01*
X99535Y51713D01*
X99181Y52242D01*
X98652Y52596D01*
X98028Y52720D01*
D02*
G37*
G36*
X92528Y51775D02*
X91904Y51651D01*
X91374Y51297D01*
X91021Y50768D01*
X90897Y50144D01*
X91021Y49520D01*
X91374Y48990D01*
X91904Y48637D01*
X92528Y48513D01*
X93152Y48637D01*
X93682Y48990D01*
X94035Y49520D01*
X94159Y50144D01*
X94035Y50768D01*
X93682Y51297D01*
X93152Y51651D01*
X92528Y51775D01*
D02*
G37*
G36*
X74528D02*
X73904Y51651D01*
X73374Y51297D01*
X73021Y50768D01*
X72897Y50144D01*
X73021Y49520D01*
X73374Y48990D01*
X73904Y48637D01*
X74528Y48513D01*
X75152Y48637D01*
X75682Y48990D01*
X76035Y49520D01*
X76159Y50144D01*
X76035Y50768D01*
X75682Y51297D01*
X75152Y51651D01*
X74528Y51775D01*
D02*
G37*
G36*
X106028Y51275D02*
X105404Y51151D01*
X104875Y50797D01*
X104521Y50268D01*
X104397Y49644D01*
X104521Y49020D01*
X104875Y48491D01*
X105404Y48137D01*
X106028Y48013D01*
X106652Y48137D01*
X107182Y48491D01*
X107535Y49020D01*
X107659Y49644D01*
X107535Y50268D01*
X107182Y50797D01*
X106652Y51151D01*
X106028Y51275D01*
D02*
G37*
G36*
X125028Y48991D02*
X124404Y48867D01*
X123874Y48513D01*
X123521Y47984D01*
X123397Y47359D01*
X123521Y46735D01*
X123874Y46206D01*
X124404Y45852D01*
X125028Y45728D01*
X125652Y45852D01*
X126181Y46206D01*
X126535Y46735D01*
X126659Y47359D01*
X126535Y47984D01*
X126181Y48513D01*
X125652Y48867D01*
X125028Y48991D01*
D02*
G37*
G36*
X90528Y47275D02*
X89904Y47151D01*
X89375Y46797D01*
X89021Y46268D01*
X88897Y45644D01*
X89021Y45020D01*
X89375Y44491D01*
X89904Y44137D01*
X90528Y44013D01*
X91152Y44137D01*
X91681Y44491D01*
X92035Y45020D01*
X92159Y45644D01*
X92035Y46268D01*
X91681Y46797D01*
X91152Y47151D01*
X90528Y47275D01*
D02*
G37*
G36*
X103953Y45775D02*
X103329Y45651D01*
X102800Y45298D01*
X102446Y44768D01*
X102322Y44144D01*
X102446Y43520D01*
X102800Y42990D01*
X103329Y42637D01*
X103953Y42513D01*
X104578Y42637D01*
X105107Y42990D01*
X105461Y43520D01*
X105585Y44144D01*
X105461Y44768D01*
X105107Y45298D01*
X104578Y45651D01*
X103953Y45775D01*
D02*
G37*
G36*
X161000Y42131D02*
X160376Y42007D01*
X159846Y41653D01*
X159493Y41124D01*
X159369Y40500D01*
X159493Y39876D01*
X159846Y39347D01*
X160376Y38993D01*
X161000Y38869D01*
X161624Y38993D01*
X162153Y39347D01*
X162507Y39876D01*
X162631Y40500D01*
X162507Y41124D01*
X162153Y41653D01*
X161624Y42007D01*
X161000Y42131D01*
D02*
G37*
G36*
X108028Y37275D02*
X107404Y37151D01*
X106875Y36797D01*
X106521Y36268D01*
X106397Y35644D01*
X106521Y35020D01*
X106875Y34490D01*
X107404Y34137D01*
X108028Y34013D01*
X108652Y34137D01*
X109181Y34490D01*
X109535Y35020D01*
X109659Y35644D01*
X109535Y36268D01*
X109181Y36797D01*
X108652Y37151D01*
X108028Y37275D01*
D02*
G37*
G36*
X340028Y28425D02*
X339404Y28301D01*
X338875Y27948D01*
X338521Y27418D01*
X338397Y26794D01*
X338521Y26170D01*
X338875Y25640D01*
X339404Y25287D01*
X340028Y25163D01*
X340652Y25287D01*
X341181Y25640D01*
X341535Y26170D01*
X341659Y26794D01*
X341535Y27418D01*
X341181Y27948D01*
X340652Y28301D01*
X340028Y28425D01*
D02*
G37*
G36*
X104028Y27275D02*
X103404Y27151D01*
X102875Y26798D01*
X102521Y26268D01*
X102397Y25644D01*
X102521Y25020D01*
X102875Y24490D01*
X103404Y24137D01*
X104028Y24013D01*
X104652Y24137D01*
X105182Y24490D01*
X105535Y25020D01*
X105659Y25644D01*
X105535Y26268D01*
X105182Y26798D01*
X104652Y27151D01*
X104028Y27275D01*
D02*
G37*
G36*
X50028Y26275D02*
X49404Y26151D01*
X48875Y25798D01*
X48521Y25268D01*
X48397Y24644D01*
X48521Y24020D01*
X48875Y23491D01*
X49404Y23137D01*
X50028Y23013D01*
X50652Y23137D01*
X51182Y23491D01*
X51535Y24020D01*
X51659Y24644D01*
X51535Y25268D01*
X51182Y25798D01*
X50652Y26151D01*
X50028Y26275D01*
D02*
G37*
G36*
X93883Y25608D02*
X93259Y25484D01*
X92730Y25130D01*
X92376Y24601D01*
X92252Y23977D01*
X92376Y23352D01*
X92730Y22823D01*
X93259Y22469D01*
X93883Y22345D01*
X94508Y22469D01*
X95037Y22823D01*
X95390Y23352D01*
X95515Y23977D01*
X95390Y24601D01*
X95037Y25130D01*
X94508Y25484D01*
X93883Y25608D01*
D02*
G37*
G36*
X359894Y25914D02*
X359200Y25776D01*
X358611Y25383D01*
X358218Y24794D01*
X358080Y24100D01*
X358218Y23405D01*
X358611Y22817D01*
X359200Y22423D01*
X359894Y22285D01*
X360589Y22423D01*
X361177Y22817D01*
X361571Y23405D01*
X361709Y24100D01*
X361571Y24794D01*
X361177Y25383D01*
X360589Y25776D01*
X359894Y25914D01*
D02*
G37*
G36*
X128028Y39190D02*
X126166Y39007D01*
X124375Y38463D01*
X122724Y37581D01*
X121278Y36394D01*
X120091Y34947D01*
X119209Y33297D01*
X118666Y31506D01*
X118482Y29644D01*
X118666Y27782D01*
X119209Y25991D01*
X120091Y24340D01*
X121278Y22894D01*
X122724Y21707D01*
X124375Y20825D01*
X126166Y20281D01*
X128028Y20098D01*
X129890Y20281D01*
X131681Y20825D01*
X133332Y21707D01*
X134778Y22894D01*
X135965Y24340D01*
X136847Y25991D01*
X137391Y27782D01*
X137574Y29644D01*
X137391Y31506D01*
X136847Y33297D01*
X135965Y34947D01*
X134778Y36394D01*
X133332Y37581D01*
X131681Y38463D01*
X129890Y39007D01*
X128028Y39190D01*
D02*
G37*
G36*
X101528Y22275D02*
X100904Y22151D01*
X100374Y21798D01*
X100021Y21268D01*
X99897Y20644D01*
X100021Y20020D01*
X100374Y19490D01*
X100904Y19137D01*
X101528Y19013D01*
X102152Y19137D01*
X102682Y19490D01*
X103035Y20020D01*
X103159Y20644D01*
X103035Y21268D01*
X102682Y21798D01*
X102152Y22151D01*
X101528Y22275D01*
D02*
G37*
G36*
X164528Y20775D02*
X163904Y20651D01*
X163374Y20298D01*
X163021Y19768D01*
X162897Y19144D01*
X163021Y18520D01*
X163374Y17990D01*
X163904Y17637D01*
X164528Y17513D01*
X165152Y17637D01*
X165682Y17990D01*
X166035Y18520D01*
X166159Y19144D01*
X166035Y19768D01*
X165682Y20298D01*
X165152Y20651D01*
X164528Y20775D01*
D02*
G37*
G36*
X149528D02*
X148904Y20651D01*
X148374Y20298D01*
X148021Y19768D01*
X147897Y19144D01*
X148021Y18520D01*
X148374Y17990D01*
X148904Y17637D01*
X149528Y17513D01*
X150152Y17637D01*
X150681Y17990D01*
X151035Y18520D01*
X151159Y19144D01*
X151035Y19768D01*
X150681Y20298D01*
X150152Y20651D01*
X149528Y20775D01*
D02*
G37*
G36*
X84500Y18131D02*
X83876Y18007D01*
X83346Y17653D01*
X83011Y17152D01*
X82798Y17124D01*
X82702D01*
X82489Y17152D01*
X82153Y17653D01*
X81624Y18007D01*
X81000Y18131D01*
X80376Y18007D01*
X79847Y17653D01*
X79493Y17124D01*
X79369Y16500D01*
X79493Y15876D01*
X79847Y15347D01*
X80376Y14993D01*
X80388Y14990D01*
X80338Y14491D01*
X77988D01*
X77837Y14990D01*
X78145Y15197D01*
X78499Y15726D01*
X78623Y16350D01*
X78499Y16974D01*
X78145Y17504D01*
X77616Y17857D01*
X76992Y17981D01*
X76367Y17857D01*
X75838Y17504D01*
X75485Y16974D01*
X75469Y16898D01*
X75435Y16884D01*
X74949Y16845D01*
X74674Y17256D01*
X74145Y17610D01*
X73521Y17734D01*
X72897Y17610D01*
X72367Y17256D01*
X72014Y16727D01*
X71890Y16102D01*
X72014Y15478D01*
X72367Y14949D01*
X72897Y14595D01*
X73521Y14471D01*
X74145Y14595D01*
X74674Y14949D01*
X75028Y15478D01*
X75043Y15555D01*
X75078Y15568D01*
X75564Y15608D01*
X75838Y15197D01*
X76147Y14990D01*
X75995Y14491D01*
X75305D01*
X75178Y14438D01*
X75081Y14340D01*
X75028Y14213D01*
Y14144D01*
X74528Y13644D01*
Y3644D01*
X82680D01*
X82846Y3153D01*
X82493Y2624D01*
X82369Y2000D01*
X82493Y1376D01*
X82846Y847D01*
X83376Y493D01*
X84000Y369D01*
X84624Y493D01*
X85154Y847D01*
X85507Y1376D01*
X85631Y2000D01*
X85507Y2624D01*
X85154Y3153D01*
X84624Y3507D01*
X84000Y3631D01*
X83915Y3614D01*
X83528Y3932D01*
Y13967D01*
X83429Y14207D01*
X83245Y14391D01*
X83004Y14491D01*
X81662D01*
X81612Y14990D01*
X81624Y14993D01*
X82153Y15347D01*
X82489Y15848D01*
X82702Y15876D01*
X82798D01*
X83011Y15848D01*
X83346Y15347D01*
X83876Y14993D01*
X84500Y14869D01*
X85124Y14993D01*
X85654Y15347D01*
X86007Y15876D01*
X86131Y16500D01*
X86007Y17124D01*
X85654Y17653D01*
X85124Y18007D01*
X84500Y18131D01*
D02*
G37*
G36*
X44528Y18275D02*
X43904Y18151D01*
X43374Y17797D01*
X43021Y17268D01*
X42897Y16644D01*
X43021Y16020D01*
X43374Y15491D01*
X43904Y15137D01*
X44528Y15013D01*
X45152Y15137D01*
X45682Y15491D01*
X46035Y16020D01*
X46159Y16644D01*
X46035Y17268D01*
X45682Y17797D01*
X45152Y18151D01*
X44528Y18275D01*
D02*
G37*
G36*
X133528Y15775D02*
X132904Y15651D01*
X132375Y15297D01*
X132021Y14768D01*
X131897Y14144D01*
X132021Y13520D01*
X132375Y12991D01*
X132904Y12637D01*
X133528Y12513D01*
X134152Y12637D01*
X134681Y12991D01*
X135035Y13520D01*
X135159Y14144D01*
X135035Y14768D01*
X134681Y15297D01*
X134152Y15651D01*
X133528Y15775D01*
D02*
G37*
G36*
X124028D02*
X123404Y15651D01*
X122874Y15297D01*
X122521Y14768D01*
X122397Y14144D01*
X122521Y13520D01*
X122874Y12991D01*
X123404Y12637D01*
X124028Y12513D01*
X124652Y12637D01*
X125181Y12991D01*
X125535Y13520D01*
X125659Y14144D01*
X125535Y14768D01*
X125181Y15297D01*
X124652Y15651D01*
X124028Y15775D01*
D02*
G37*
G36*
X119528D02*
X118904Y15651D01*
X118375Y15297D01*
X118021Y14768D01*
X117897Y14144D01*
X118021Y13520D01*
X118375Y12991D01*
X118904Y12637D01*
X119528Y12513D01*
X120152Y12637D01*
X120682Y12991D01*
X121035Y13520D01*
X121159Y14144D01*
X121035Y14768D01*
X120682Y15297D01*
X120152Y15651D01*
X119528Y15775D01*
D02*
G37*
G36*
X222528Y14775D02*
X221904Y14651D01*
X221375Y14298D01*
X221021Y13768D01*
X220897Y13144D01*
X221021Y12520D01*
X221375Y11991D01*
X221904Y11637D01*
X222528Y11513D01*
X223152Y11637D01*
X223681Y11991D01*
X224035Y12520D01*
X224159Y13144D01*
X224035Y13768D01*
X223681Y14298D01*
X223152Y14651D01*
X222528Y14775D01*
D02*
G37*
G36*
X156028Y8275D02*
X155404Y8151D01*
X154875Y7797D01*
X154521Y7268D01*
X154397Y6644D01*
X154521Y6020D01*
X154875Y5491D01*
X155404Y5137D01*
X156028Y5013D01*
X156652Y5137D01*
X157182Y5491D01*
X157535Y6020D01*
X157659Y6644D01*
X157535Y7268D01*
X157182Y7797D01*
X156652Y8151D01*
X156028Y8275D01*
D02*
G37*
G36*
X176028Y7775D02*
X175404Y7651D01*
X174874Y7298D01*
X174521Y6768D01*
X174397Y6144D01*
X174521Y5520D01*
X174874Y4990D01*
X175404Y4637D01*
X176028Y4513D01*
X176652Y4637D01*
X177181Y4990D01*
X177535Y5520D01*
X177659Y6144D01*
X177535Y6768D01*
X177181Y7298D01*
X176652Y7651D01*
X176028Y7775D01*
D02*
G37*
G36*
X212528Y5775D02*
X211904Y5651D01*
X211374Y5297D01*
X211021Y4768D01*
X210897Y4144D01*
X211021Y3520D01*
X211374Y2991D01*
X211904Y2637D01*
X212528Y2513D01*
X213152Y2637D01*
X213682Y2991D01*
X214035Y3520D01*
X214159Y4144D01*
X214035Y4768D01*
X213682Y5297D01*
X213152Y5651D01*
X212528Y5775D01*
D02*
G37*
G36*
X57528D02*
X56904Y5651D01*
X56375Y5297D01*
X56021Y4768D01*
X55897Y4144D01*
X56021Y3520D01*
X56375Y2991D01*
X56904Y2637D01*
X57528Y2513D01*
X58152Y2637D01*
X58681Y2991D01*
X59035Y3520D01*
X59159Y4144D01*
X59035Y4768D01*
X58681Y5297D01*
X58152Y5651D01*
X57528Y5775D01*
D02*
G37*
G36*
X31028D02*
X30404Y5651D01*
X29875Y5297D01*
X29521Y4768D01*
X29397Y4144D01*
X29521Y3520D01*
X29875Y2991D01*
X30404Y2637D01*
X31028Y2513D01*
X31652Y2637D01*
X32182Y2991D01*
X32535Y3520D01*
X32659Y4144D01*
X32535Y4768D01*
X32182Y5297D01*
X31652Y5651D01*
X31028Y5775D01*
D02*
G37*
G36*
X52979Y13061D02*
X41168D01*
Y1250D01*
X52979D01*
Y13061D01*
D02*
G37*
G36*
X359894Y3158D02*
X359200Y3020D01*
X358611Y2627D01*
X358218Y2038D01*
X358080Y1344D01*
X358218Y649D01*
X358611Y61D01*
X359200Y-332D01*
X359894Y-471D01*
X360589Y-332D01*
X361177Y61D01*
X361571Y649D01*
X361709Y1344D01*
X361571Y2038D01*
X361177Y2627D01*
X360589Y3020D01*
X359894Y3158D01*
D02*
G37*
G36*
X137528Y-1725D02*
X136904Y-1849D01*
X136374Y-2203D01*
X136021Y-2732D01*
X135897Y-3356D01*
X136021Y-3980D01*
X136374Y-4510D01*
X136904Y-4863D01*
X137528Y-4987D01*
X138152Y-4863D01*
X138681Y-4510D01*
X139035Y-3980D01*
X139159Y-3356D01*
X139035Y-2732D01*
X138681Y-2203D01*
X138152Y-1849D01*
X137528Y-1725D01*
D02*
G37*
G36*
X127528D02*
X126904Y-1849D01*
X126374Y-2203D01*
X126021Y-2732D01*
X125897Y-3356D01*
X126021Y-3980D01*
X126374Y-4510D01*
X126904Y-4863D01*
X127528Y-4987D01*
X128152Y-4863D01*
X128682Y-4510D01*
X129035Y-3980D01*
X129159Y-3356D01*
X129035Y-2732D01*
X128682Y-2203D01*
X128152Y-1849D01*
X127528Y-1725D01*
D02*
G37*
G36*
X123028D02*
X122404Y-1849D01*
X121874Y-2203D01*
X121521Y-2732D01*
X121397Y-3356D01*
X121521Y-3980D01*
X121874Y-4510D01*
X122404Y-4863D01*
X123028Y-4987D01*
X123652Y-4863D01*
X124181Y-4510D01*
X124535Y-3980D01*
X124659Y-3356D01*
X124535Y-2732D01*
X124181Y-2203D01*
X123652Y-1849D01*
X123028Y-1725D01*
D02*
G37*
G36*
X40946Y-2224D02*
X40322Y-2348D01*
X39792Y-2701D01*
X39439Y-3230D01*
X39315Y-3855D01*
X39439Y-4479D01*
X39792Y-5008D01*
X40322Y-5362D01*
X40946Y-5486D01*
X41570Y-5362D01*
X42099Y-5008D01*
X42453Y-4479D01*
X42577Y-3855D01*
X42453Y-3230D01*
X42099Y-2701D01*
X41570Y-2348D01*
X40946Y-2224D01*
D02*
G37*
G36*
X342528Y-4225D02*
X341904Y-4349D01*
X341374Y-4702D01*
X341021Y-5232D01*
X340897Y-5856D01*
X341021Y-6480D01*
X341374Y-7010D01*
X341904Y-7363D01*
X342528Y-7487D01*
X343152Y-7363D01*
X343682Y-7010D01*
X344035Y-6480D01*
X344159Y-5856D01*
X344035Y-5232D01*
X343682Y-4702D01*
X343152Y-4349D01*
X342528Y-4225D01*
D02*
G37*
%LPD*%
D110*
X128028Y29644D02*
D03*
D111*
X357926Y-4306D02*
D03*
Y29749D02*
D03*
X358426Y115694D02*
D03*
Y149749D02*
D03*
D112*
X373674Y-4306D02*
D03*
Y29749D02*
D03*
X374174Y115694D02*
D03*
Y149749D02*
D03*
D113*
X359894Y24100D02*
D03*
Y1344D02*
D03*
X360394Y144100D02*
D03*
Y121344D02*
D03*
D114*
X117028Y64644D02*
D03*
X20500Y77000D02*
D03*
X107053Y120447D02*
D03*
X161000Y40500D02*
D03*
X109953Y45925D02*
D03*
X99500Y109500D02*
D03*
X96000D02*
D03*
X104000Y109341D02*
D03*
X109528Y121650D02*
D03*
X113312D02*
D03*
X117028D02*
D03*
X164028Y130600D02*
D03*
X84000Y2000D02*
D03*
X76528Y1144D02*
D03*
X73521Y16102D02*
D03*
X76992Y16350D02*
D03*
X84500Y16500D02*
D03*
X81000D02*
D03*
X352000Y149000D02*
D03*
X351000Y116500D02*
D03*
X351500Y-3500D02*
D03*
X207028Y140644D02*
D03*
X103953Y44144D02*
D03*
X106028Y49644D02*
D03*
X333528Y152644D02*
D03*
X93528Y5644D02*
D03*
X88528Y3144D02*
D03*
X93146Y2135D02*
D03*
X64028Y-4356D02*
D03*
X212528Y4144D02*
D03*
X222528Y13144D02*
D03*
X233028Y35144D02*
D03*
X266528Y12144D02*
D03*
X267028Y-2356D02*
D03*
X266937Y1209D02*
D03*
X267528Y5644D02*
D03*
X50528Y117644D02*
D03*
X296028Y70644D02*
D03*
Y37144D02*
D03*
X339528Y58144D02*
D03*
X331028Y115644D02*
D03*
X338677Y113010D02*
D03*
X323528Y110144D02*
D03*
X324028Y99144D02*
D03*
Y93644D02*
D03*
X339028Y52144D02*
D03*
X324028Y66144D02*
D03*
X339528Y64144D02*
D03*
X335528Y5644D02*
D03*
Y11644D02*
D03*
X350528Y28144D02*
D03*
X144740Y103644D02*
D03*
X59389Y108283D02*
D03*
X60028Y111644D02*
D03*
X62028Y129644D02*
D03*
X32528Y150144D02*
D03*
X18028Y128144D02*
D03*
X48028Y99644D02*
D03*
X61894Y122278D02*
D03*
X47028Y119219D02*
D03*
X57028Y97144D02*
D03*
X59028Y91069D02*
D03*
X50941Y91855D02*
D03*
X57199Y87069D02*
D03*
X48878D02*
D03*
X46917Y76755D02*
D03*
X59528Y152644D02*
D03*
X51528D02*
D03*
X63028D02*
D03*
X80528Y149144D02*
D03*
X124528Y130644D02*
D03*
X113028Y139644D02*
D03*
X131028Y137144D02*
D03*
X34528Y78144D02*
D03*
X39417Y78755D02*
D03*
X39528Y118144D02*
D03*
X59528Y103232D02*
D03*
X57028Y101644D02*
D03*
X27171Y98644D02*
D03*
X29096Y111867D02*
D03*
X35028Y99144D02*
D03*
X45028Y97644D02*
D03*
X41528Y95144D02*
D03*
X31528Y95644D02*
D03*
X32028Y125644D02*
D03*
X21983Y116644D02*
D03*
X37208Y114069D02*
D03*
X148528Y145144D02*
D03*
X144028Y146144D02*
D03*
X104528Y70144D02*
D03*
X118028Y76369D02*
D03*
X98028Y51089D02*
D03*
X50528Y81144D02*
D03*
X43528Y78144D02*
D03*
X58028Y67719D02*
D03*
X104028Y25644D02*
D03*
X90528Y45644D02*
D03*
X108028Y35644D02*
D03*
X121528Y55144D02*
D03*
X124028Y14144D02*
D03*
X133528D02*
D03*
X119528D02*
D03*
X142528Y125144D02*
D03*
X56028Y57644D02*
D03*
X302528Y114144D02*
D03*
X108028Y93144D02*
D03*
X87028Y99144D02*
D03*
X71528Y95144D02*
D03*
X71028Y74144D02*
D03*
X97028Y63644D02*
D03*
X110028Y64144D02*
D03*
X109528Y85144D02*
D03*
X284528Y87644D02*
D03*
X147028Y116644D02*
D03*
X213028Y128144D02*
D03*
X249028Y61644D02*
D03*
X175028Y107644D02*
D03*
X196028Y133644D02*
D03*
X339127Y33144D02*
D03*
X339028Y74644D02*
D03*
Y88144D02*
D03*
X196028Y149644D02*
D03*
X98528Y131144D02*
D03*
X94528Y130144D02*
D03*
X118528Y94144D02*
D03*
X56528Y61644D02*
D03*
X59028Y99144D02*
D03*
X80528Y120644D02*
D03*
X77028Y123144D02*
D03*
X90528Y110144D02*
D03*
X87028D02*
D03*
X83028Y109144D02*
D03*
X71028Y109644D02*
D03*
X75028D02*
D03*
X118028Y85644D02*
D03*
X82528Y61144D02*
D03*
X74528Y50144D02*
D03*
X92528D02*
D03*
X131028Y83144D02*
D03*
X130028Y76644D02*
D03*
X118028Y81644D02*
D03*
X118528Y90144D02*
D03*
Y106644D02*
D03*
X115528Y109644D02*
D03*
X118528Y100644D02*
D03*
X118028Y97144D02*
D03*
X57528Y-4356D02*
D03*
X97528Y24144D02*
D03*
X57528Y105644D02*
D03*
X109028Y89144D02*
D03*
X172139Y99255D02*
D03*
X50028Y24644D02*
D03*
X116036Y102636D02*
D03*
X131028Y87144D02*
D03*
Y90144D02*
D03*
X131528Y79644D02*
D03*
X135528Y92144D02*
D03*
X149063Y81725D02*
D03*
X77002Y104943D02*
D03*
X55028Y113644D02*
D03*
X177028Y93644D02*
D03*
X138231Y71219D02*
D03*
X186166Y132167D02*
D03*
X27130Y137644D02*
D03*
X339028Y145144D02*
D03*
X120916Y51866D02*
D03*
X193028Y108644D02*
D03*
X130028Y107144D02*
D03*
X173028Y74644D02*
D03*
X38028Y-6856D02*
D03*
X73028Y122144D02*
D03*
X124028Y114144D02*
D03*
X164096Y123424D02*
D03*
X117528Y-4856D02*
D03*
X72028Y66111D02*
D03*
X116008Y140884D02*
D03*
X124528Y140644D02*
D03*
X93883Y23977D02*
D03*
X101528Y20644D02*
D03*
X168028Y84644D02*
D03*
X156028Y6644D02*
D03*
X125028Y47359D02*
D03*
X149528Y19144D02*
D03*
X41690Y15166D02*
D03*
X44528Y16644D02*
D03*
X176028Y6144D02*
D03*
X57528Y4144D02*
D03*
X62028Y113644D02*
D03*
X42028Y123144D02*
D03*
X89528Y129144D02*
D03*
X187528Y82644D02*
D03*
X148028Y-356D02*
D03*
X40528Y144D02*
D03*
X219528Y121644D02*
D03*
X209528Y100144D02*
D03*
X201028Y54144D02*
D03*
X335028Y131644D02*
D03*
X338528Y130644D02*
D03*
X39630Y144144D02*
D03*
X179028Y116144D02*
D03*
X149028Y120644D02*
D03*
X203528Y145144D02*
D03*
X285528Y65644D02*
D03*
X311528Y101644D02*
D03*
X340028Y26794D02*
D03*
X219028Y115819D02*
D03*
X235029Y127491D02*
D03*
X144028Y71156D02*
D03*
X140028Y64219D02*
D03*
X144528Y63934D02*
D03*
X133028Y68644D02*
D03*
X175028Y90644D02*
D03*
X170028Y74644D02*
D03*
X133528Y63144D02*
D03*
X129528Y62644D02*
D03*
X171528Y91144D02*
D03*
X152033Y91107D02*
D03*
X68028Y113644D02*
D03*
X58607Y64945D02*
D03*
X72528Y60644D02*
D03*
X58477Y117968D02*
D03*
X293528Y17644D02*
D03*
X31028Y4144D02*
D03*
X150528Y61644D02*
D03*
X323028Y18144D02*
D03*
X318088Y20616D02*
D03*
X150528Y53719D02*
D03*
X144350D02*
D03*
X140028Y53434D02*
D03*
X313205Y22484D02*
D03*
X321644Y12237D02*
D03*
X313528Y17644D02*
D03*
X322790Y7053D02*
D03*
X306212Y21038D02*
D03*
X301028Y22644D02*
D03*
X321528Y1644D02*
D03*
X278528Y143144D02*
D03*
X279028Y146766D02*
D03*
X245028Y65644D02*
D03*
X229028Y152144D02*
D03*
X137528Y-3356D02*
D03*
X123028D02*
D03*
X127528D02*
D03*
X164420Y116144D02*
D03*
X138220Y112336D02*
D03*
X284028Y8644D02*
D03*
X278724Y21279D02*
D03*
X273902Y22062D02*
D03*
X268356Y21882D02*
D03*
X269528Y17144D02*
D03*
X321222Y-5787D02*
D03*
X295362Y21219D02*
D03*
X289028Y23144D02*
D03*
X285028Y20144D02*
D03*
X281028Y22644D02*
D03*
X183028Y90644D02*
D03*
X241528Y76644D02*
D03*
X268028Y107644D02*
D03*
X325528Y131644D02*
D03*
X40946Y-3855D02*
D03*
X164528Y19144D02*
D03*
X282028Y99144D02*
D03*
X268549Y103941D02*
D03*
X349464Y130406D02*
D03*
X347528Y133144D02*
D03*
X342528Y-5856D02*
D03*
D115*
X126000Y125500D02*
D03*
X318028Y137144D02*
D03*
X294028Y88144D02*
D03*
X299528Y134644D02*
D03*
D116*
X216487Y152144D02*
D03*
X19528Y88144D02*
D03*
X156528Y152144D02*
D03*
X296028Y79185D02*
D03*
X241528Y139185D02*
D03*
X238028Y95144D02*
D03*
M02*
