G04*
G04 #@! TF.GenerationSoftware,Altium Limited,Altium Designer,20.0.13 (296)*
G04*
G04 Layer_Color=16711935*
%FSLAX25Y25*%
%MOIN*%
G70*
G01*
G75*
%ADD16C,0.00606*%
D16*
X378239Y-9145D02*
G03*
X379028Y-8356I0J789D01*
G01*
Y154144D02*
G03*
X378028Y155144I-1000J0D01*
G01*
Y112144D02*
G03*
X379028Y113144I0J1000D01*
G01*
X354028Y112144D02*
G03*
X353028Y111144I0J-1000D01*
G01*
Y34144D02*
G03*
X354028Y33144I1000J0D01*
G01*
X379028Y31644D02*
G03*
X377528Y33144I-1500J0D01*
G01*
X15748Y-3937D02*
G03*
X11811Y-0I-3937J0D01*
G01*
X11811Y78188D02*
G03*
X15748Y82125I0J3937D01*
G01*
X11417Y60669D02*
G03*
X11417Y65787I123J2559D01*
G01*
X19528Y155144D02*
G03*
X15810Y151426I0J-3718D01*
G01*
X15748Y-4145D02*
G03*
X20748Y-9145I5000J0D01*
G01*
X376028Y-9145D02*
X378239D01*
X379028Y-8356D02*
Y31644D01*
Y113144D02*
Y154144D01*
X312528Y155144D02*
X378028D01*
X354028Y112144D02*
X378028D01*
X353028Y34144D02*
Y111144D01*
X354028Y33144D02*
X377028D01*
X377528D01*
X20748Y-9145D02*
X376028D01*
X0Y0D02*
X11811D01*
X0D02*
Y60669D01*
X11417D01*
X0Y65787D02*
X11417D01*
X0D02*
Y78188D01*
X11811D01*
X15810Y149860D02*
Y151426D01*
X19528Y155144D02*
X312528D01*
X15748Y82144D02*
Y149644D01*
M02*
