G04*
G04 #@! TF.GenerationSoftware,Altium Limited,Altium Designer,20.0.13 (296)*
G04*
G04 Layer_Color=16711935*
%FSLAX25Y25*%
%MOIN*%
G70*
G01*
G75*
%ADD60C,0.04737*%
%ADD63R,0.04337X0.20085*%
%ADD68R,0.04658X0.04461*%
%ADD71R,0.04343X0.04737*%
%ADD77R,0.04461X0.04658*%
%ADD82R,0.07093X0.01739*%
%ADD84R,0.04737X0.04343*%
%ADD95R,0.05800X0.04800*%
%ADD99C,0.18800*%
%ADD100O,0.09068X0.04737*%
%ADD101O,0.07099X0.04737*%
%ADD102C,0.03359*%
%ADD125R,0.05800X0.05800*%
%ADD126O,0.01902X0.07178*%
%ADD127R,0.10640X0.02370*%
G04:AMPARAMS|DCode=128|XSize=39.5mil|YSize=47.37mil|CornerRadius=7.94mil|HoleSize=0mil|Usage=FLASHONLY|Rotation=90.000|XOffset=0mil|YOffset=0mil|HoleType=Round|Shape=RoundedRectangle|*
%AMROUNDEDRECTD128*
21,1,0.03950,0.03150,0,0,90.0*
21,1,0.02362,0.04737,0,0,90.0*
1,1,0.01587,0.01575,0.01181*
1,1,0.01587,0.01575,-0.01181*
1,1,0.01587,-0.01575,-0.01181*
1,1,0.01587,-0.01575,0.01181*
%
%ADD128ROUNDEDRECTD128*%
%ADD129R,0.11036X0.04343*%
%ADD130R,0.03162X0.05013*%
%ADD131R,0.04540X0.04343*%
%ADD132R,0.04540X0.04343*%
D60*
X274028Y149144D02*
D03*
Y137592D02*
D03*
D63*
X313528Y6144D02*
D03*
X303528D02*
D03*
X293528D02*
D03*
D68*
X32528Y139081D02*
D03*
Y145144D02*
D03*
X138280Y148175D02*
D03*
Y142112D02*
D03*
X130789Y148072D02*
D03*
Y142009D02*
D03*
X342528Y134676D02*
D03*
Y128612D02*
D03*
X179528Y127144D02*
D03*
Y121081D02*
D03*
X201603Y120112D02*
D03*
Y126175D02*
D03*
X148224Y100160D02*
D03*
Y94097D02*
D03*
X284528Y80676D02*
D03*
Y74613D02*
D03*
X36285Y19858D02*
D03*
Y13794D02*
D03*
X52028Y58644D02*
D03*
Y64707D02*
D03*
X73042Y98679D02*
D03*
Y104742D02*
D03*
X114028Y92707D02*
D03*
Y86644D02*
D03*
X69028Y1570D02*
D03*
Y-4493D02*
D03*
X296136Y48269D02*
D03*
Y42206D02*
D03*
X74528Y69612D02*
D03*
Y75675D02*
D03*
X311379Y48148D02*
D03*
Y42085D02*
D03*
X304023Y48269D02*
D03*
Y42206D02*
D03*
X318968Y48081D02*
D03*
Y42018D02*
D03*
X315440Y61195D02*
D03*
Y55132D02*
D03*
X307528Y108613D02*
D03*
Y114676D02*
D03*
X300070Y102510D02*
D03*
Y96447D02*
D03*
X35266Y6865D02*
D03*
Y802D02*
D03*
D71*
X44258Y21167D02*
D03*
X50951D02*
D03*
X167528Y93644D02*
D03*
X160835D02*
D03*
X144225Y132110D02*
D03*
X137532Y132110D02*
D03*
X74528Y144644D02*
D03*
X67835Y144644D02*
D03*
X109875Y128340D02*
D03*
X103182D02*
D03*
X300681Y83145D02*
D03*
X307374D02*
D03*
X300677Y88786D02*
D03*
X307369D02*
D03*
X307510Y64318D02*
D03*
X300817D02*
D03*
X215221Y119144D02*
D03*
X208528D02*
D03*
X160138Y115642D02*
D03*
X153445D02*
D03*
X151375Y132110D02*
D03*
X158068Y132111D02*
D03*
X167375Y99643D02*
D03*
X160682D02*
D03*
X300684Y70568D02*
D03*
X307376D02*
D03*
X307370Y76881D02*
D03*
X300677D02*
D03*
X56665Y20851D02*
D03*
X63358D02*
D03*
X83654Y20999D02*
D03*
X90347D02*
D03*
X70646Y20849D02*
D03*
X77339D02*
D03*
X194949Y127645D02*
D03*
X188256D02*
D03*
X160375Y121643D02*
D03*
X153682Y121643D02*
D03*
X106319Y4873D02*
D03*
X99626D02*
D03*
D77*
X44497Y-3856D02*
D03*
X50560D02*
D03*
X118175Y135644D02*
D03*
X124238D02*
D03*
X103496Y135644D02*
D03*
X109559D02*
D03*
X28034Y128892D02*
D03*
X21971D02*
D03*
X36261Y121644D02*
D03*
X42324D02*
D03*
X93146Y-3856D02*
D03*
X99209D02*
D03*
X112209D02*
D03*
X106146D02*
D03*
X74548Y150622D02*
D03*
X68485D02*
D03*
X42604Y128891D02*
D03*
X36541D02*
D03*
X50882Y122278D02*
D03*
X56945D02*
D03*
X326997Y147644D02*
D03*
X333060D02*
D03*
X113497Y46144D02*
D03*
X119559D02*
D03*
X95693Y135254D02*
D03*
X89630D02*
D03*
X87997Y104644D02*
D03*
X94059D02*
D03*
X106422Y63869D02*
D03*
X100359D02*
D03*
X82591Y-3856D02*
D03*
X76528D02*
D03*
X154560Y86144D02*
D03*
X148497D02*
D03*
X56627Y129406D02*
D03*
X50564D02*
D03*
D82*
X4527Y3661D02*
D03*
X4528Y5627D02*
D03*
Y7595D02*
D03*
Y9564D02*
D03*
Y11532D02*
D03*
Y13501D02*
D03*
Y15469D02*
D03*
Y17438D02*
D03*
Y19406D02*
D03*
X4530Y21383D02*
D03*
X4528Y23343D02*
D03*
Y25312D02*
D03*
Y27280D02*
D03*
Y29249D02*
D03*
Y31217D02*
D03*
Y33186D02*
D03*
Y35154D02*
D03*
Y37123D02*
D03*
Y39091D02*
D03*
Y41060D02*
D03*
X4530Y43022D02*
D03*
X4528Y44997D02*
D03*
Y46965D02*
D03*
Y48934D02*
D03*
Y50902D02*
D03*
Y52871D02*
D03*
Y54839D02*
D03*
Y56808D02*
D03*
Y58776D02*
D03*
Y68619D02*
D03*
Y70587D02*
D03*
Y72556D02*
D03*
Y74524D02*
D03*
D84*
X171179Y13491D02*
D03*
Y6798D02*
D03*
X156178Y13565D02*
D03*
Y6872D02*
D03*
X68982Y7721D02*
D03*
Y14414D02*
D03*
X88513Y6571D02*
D03*
Y13264D02*
D03*
X236029Y138991D02*
D03*
Y132298D02*
D03*
X155028Y100144D02*
D03*
Y93451D02*
D03*
X306977Y95306D02*
D03*
Y101999D02*
D03*
X285079Y61844D02*
D03*
Y55151D02*
D03*
X343027Y11797D02*
D03*
Y18490D02*
D03*
X196029Y59491D02*
D03*
Y52798D02*
D03*
X136767Y1972D02*
D03*
Y8664D02*
D03*
X122571D02*
D03*
Y1972D02*
D03*
X129666Y8664D02*
D03*
Y1972D02*
D03*
X159528Y138144D02*
D03*
Y144837D02*
D03*
X342528Y-1049D02*
D03*
Y5644D02*
D03*
X197029Y22991D02*
D03*
Y16298D02*
D03*
X190217Y22991D02*
D03*
Y16298D02*
D03*
X235527Y151490D02*
D03*
Y144797D02*
D03*
X276527Y102490D02*
D03*
Y95797D02*
D03*
X54027Y92990D02*
D03*
X54027Y86297D02*
D03*
X113703Y17219D02*
D03*
Y10526D02*
D03*
D95*
X207028Y145144D02*
D03*
Y136644D02*
D03*
D99*
X128028Y29644D02*
D03*
D100*
X357926Y-4306D02*
D03*
Y29749D02*
D03*
X358426Y115694D02*
D03*
Y149749D02*
D03*
D101*
X373674Y-4306D02*
D03*
Y29749D02*
D03*
X374174Y115694D02*
D03*
Y149749D02*
D03*
D102*
X359894Y24100D02*
D03*
Y1344D02*
D03*
X360394Y144100D02*
D03*
Y121344D02*
D03*
D125*
X163178Y14644D02*
D03*
Y4644D02*
D03*
X215528Y145644D02*
D03*
Y135644D02*
D03*
X148448Y4644D02*
D03*
Y14644D02*
D03*
D126*
X334965Y121530D02*
D03*
X332996D02*
D03*
X331028D02*
D03*
X329059D02*
D03*
X327091D02*
D03*
X334965Y138144D02*
D03*
X332996D02*
D03*
X331028D02*
D03*
X329059D02*
D03*
X327091D02*
D03*
D127*
X331250Y68935D02*
D03*
Y66175D02*
D03*
Y74445D02*
D03*
Y77195D02*
D03*
Y96495D02*
D03*
Y93735D02*
D03*
Y90975D02*
D03*
Y88225D02*
D03*
Y85465D02*
D03*
Y99245D02*
D03*
Y49635D02*
D03*
Y60665D02*
D03*
Y63415D02*
D03*
Y46885D02*
D03*
Y55155D02*
D03*
Y79955D02*
D03*
Y82715D02*
D03*
Y71685D02*
D03*
Y32985D02*
D03*
Y57905D02*
D03*
Y110265D02*
D03*
Y113025D02*
D03*
Y52395D02*
D03*
Y107515D02*
D03*
Y104755D02*
D03*
Y38495D02*
D03*
Y41255D02*
D03*
Y35735D02*
D03*
Y44005D02*
D03*
Y102005D02*
D03*
D128*
X293196Y56953D02*
D03*
X307763D02*
D03*
D129*
X275260Y38644D02*
D03*
Y54392D02*
D03*
X210028Y78014D02*
D03*
X275260Y62266D02*
D03*
Y70140D02*
D03*
X210028D02*
D03*
Y54392D02*
D03*
Y46518D02*
D03*
Y62266D02*
D03*
X275260Y46518D02*
D03*
Y-2823D02*
D03*
Y12925D02*
D03*
X210028Y38644D02*
D03*
X275260Y78014D02*
D03*
Y5051D02*
D03*
D130*
X148376Y149963D02*
D03*
X144636Y140239D02*
D03*
X152116D02*
D03*
D131*
X106805Y14063D02*
D03*
X97553Y10323D02*
D03*
D132*
Y17803D02*
D03*
M02*
