G04*
G04 #@! TF.GenerationSoftware,Altium Limited,Altium Designer,20.0.13 (296)*
G04*
G04 Layer_Color=8388736*
%FSLAX25Y25*%
%MOIN*%
G70*
G01*
G75*
%ADD21C,0.00394*%
%ADD137C,0.00300*%
D21*
X168423Y16050D02*
X173934D01*
X168423Y4239D02*
X173934D01*
X168423D02*
Y16050D01*
X173934Y4239D02*
Y16050D01*
X153422Y16124D02*
X158933D01*
X153422Y4313D02*
X158933D01*
X153422D02*
Y16124D01*
X158933Y4313D02*
Y16124D01*
X41699Y18411D02*
Y23922D01*
X53510Y18411D02*
Y23922D01*
X41699Y18411D02*
X53510D01*
X41699Y23922D02*
X53510D01*
X170087Y90888D02*
Y96400D01*
X158276Y90888D02*
Y96400D01*
X170087D01*
X158276Y90888D02*
X170087D01*
X66226Y5162D02*
X71738D01*
X66226Y16973D02*
X71738D01*
Y5162D02*
Y16973D01*
X66226Y5162D02*
Y16973D01*
X85758Y4012D02*
X91269D01*
X85758Y15823D02*
X91269D01*
Y4012D02*
Y15823D01*
X85758Y4012D02*
Y15823D01*
X146784Y134866D02*
X146784Y129355D01*
X134973Y134866D02*
X134973Y129355D01*
X134973Y134866D02*
X146784D01*
X134973Y129355D02*
X146784D01*
X77087Y141888D02*
Y147400D01*
X65276Y141888D02*
Y147400D01*
X77087D01*
X65276Y141888D02*
X77087D01*
X112434Y125584D02*
Y131096D01*
X100623Y131096D02*
X100623Y125584D01*
X100623Y131096D02*
X112434Y131096D01*
X100623Y125584D02*
X112434D01*
X298122Y80389D02*
Y85901D01*
X309933Y80389D02*
Y85901D01*
X298122Y80389D02*
X309933D01*
X298122Y85901D02*
X309933D01*
X298118Y86030D02*
Y91542D01*
X309929Y86030D02*
Y91542D01*
X298118Y86030D02*
X309929D01*
X298118Y91542D02*
X309929D01*
X310069Y61562D02*
Y67074D01*
X298258Y61562D02*
Y67074D01*
X310069D01*
X298258Y61562D02*
X310069D01*
X233273Y141550D02*
X238785D01*
X233273Y129739D02*
X238785D01*
X233273D02*
Y141550D01*
X238785Y129739D02*
Y141550D01*
X217780Y116388D02*
Y121900D01*
X205969Y116388D02*
Y121900D01*
X217780D01*
X205969Y116388D02*
X217780D01*
X162697Y112886D02*
Y118398D01*
X150886Y112886D02*
Y118398D01*
X162697D01*
X150886Y112886D02*
X162697D01*
X148816Y129355D02*
Y134866D01*
X160627Y129355D02*
Y134866D01*
X148816Y129355D02*
X160627D01*
X148816Y134866D02*
X160627D01*
X152272Y102703D02*
X157784D01*
X152272Y90892D02*
X157784D01*
X152272D02*
Y102703D01*
X157784Y90892D02*
Y102703D01*
X169934Y96887D02*
Y102399D01*
X158123Y96887D02*
Y102399D01*
X169934D01*
X158123Y96887D02*
X169934D01*
X185776Y122400D02*
X197587D01*
X185776Y116888D02*
X197587D01*
X185776D02*
X185776Y122400D01*
X197587D02*
X197587Y116888D01*
X339771Y139239D02*
Y151050D01*
X345283Y139239D02*
Y151050D01*
X339771Y139239D02*
X345283D01*
X339771Y151050D02*
X345283D01*
X323872Y121738D02*
Y133549D01*
X318360Y121738D02*
Y133549D01*
X323872D01*
X318360Y121738D02*
X323872D01*
X332785D02*
Y133549D01*
X327273Y121738D02*
Y133549D01*
X332785D01*
X327273Y121738D02*
X332785D01*
X340129D02*
X345641D01*
X340129Y133549D02*
X345641D01*
X340129Y121738D02*
Y133549D01*
X345641Y121738D02*
Y133549D01*
X345785Y9238D02*
Y21049D01*
X340273Y9238D02*
Y21049D01*
X345785D01*
X340273Y9238D02*
X345785D01*
X298125Y67812D02*
Y73324D01*
X309936Y67812D02*
Y73324D01*
X298125Y67812D02*
X309936D01*
X298125Y73324D02*
X309936D01*
X309929Y74125D02*
Y79637D01*
X298118Y74125D02*
Y79637D01*
X309929D01*
X298118Y74125D02*
X309929D01*
X309733Y92747D02*
Y104558D01*
X304221Y92747D02*
Y104558D01*
Y92747D02*
X309733D01*
X304221Y104558D02*
X309733D01*
X282323Y64403D02*
X287835D01*
X282323Y52592D02*
X287835D01*
X282323D02*
Y64403D01*
X287835Y52592D02*
Y64403D01*
X340271Y9238D02*
X345783D01*
X340271Y21049D02*
X345783D01*
Y9238D02*
Y21049D01*
X340271Y9238D02*
Y21049D01*
X193273Y62050D02*
X198785D01*
X193273Y50239D02*
X198785D01*
X193273D02*
Y62050D01*
X198785Y50239D02*
Y62050D01*
X139523Y-588D02*
Y11223D01*
X134011Y-588D02*
Y11223D01*
Y-588D02*
X139523D01*
X134011Y11223D02*
X139523D01*
X119815D02*
X125327D01*
X119815Y-588D02*
X125327D01*
X119815D02*
X119815Y11223D01*
X125327Y-588D02*
Y11223D01*
X126910Y-587D02*
Y11224D01*
X132422Y-587D02*
Y11224D01*
X126910D02*
X132422D01*
X126910Y-587D02*
X132422D01*
X54106Y18095D02*
Y23607D01*
X65917Y18095D02*
Y23607D01*
X54106Y18095D02*
X65917D01*
X54106Y23607D02*
X65917D01*
X156772Y135585D02*
X162284D01*
X156772Y147396D02*
X162284D01*
Y135585D02*
Y147396D01*
X156772Y135585D02*
Y147396D01*
X345785Y-3762D02*
Y8049D01*
X340273D02*
X340273Y-3762D01*
X340273Y8049D02*
X345785D01*
X340273Y-3762D02*
X345785D01*
X339772Y-3608D02*
X345284D01*
X339772Y8203D02*
X345284D01*
Y-3608D02*
Y8203D01*
X339772Y-3608D02*
Y8203D01*
X194273Y25550D02*
X199785D01*
X194273Y13739D02*
X199785D01*
X194273D02*
Y25550D01*
X199785Y13739D02*
Y25550D01*
X187461D02*
X192973D01*
X187461Y13739D02*
X192973D01*
X187461D02*
Y25550D01*
X192973Y13739D02*
Y25550D01*
X81095Y18243D02*
X92906D01*
X81095Y23755D02*
X92906D01*
X81095Y18243D02*
Y23755D01*
X92906Y18243D02*
Y23755D01*
X68087Y18093D02*
X79898D01*
X68087Y23605D02*
X79898D01*
X68087Y18093D02*
Y23605D01*
X79898Y18093D02*
Y23605D01*
X185697Y130401D02*
X197508D01*
X185697Y124889D02*
X197508D01*
Y130401D01*
X185697Y124889D02*
Y130401D01*
X232771Y142238D02*
Y154049D01*
X238283Y142238D02*
Y154049D01*
X232771D02*
X238283D01*
X232771Y142238D02*
X238283D01*
X273771Y93238D02*
Y105049D01*
X279283Y93238D02*
Y105049D01*
X273771D02*
X279283D01*
X273771Y93238D02*
X279283D01*
X51271Y83738D02*
Y95549D01*
X56783Y83738D02*
X56783Y95549D01*
X51271Y95549D02*
X56783Y95549D01*
X51271Y83738D02*
X56783D01*
X162934Y118887D02*
Y124399D01*
X151123Y118887D02*
Y124399D01*
X162934D01*
X151123Y118887D02*
X162934D01*
X110947Y19778D02*
X116459D01*
X110947Y7967D02*
X116459D01*
X110947D02*
Y19778D01*
X116459Y7967D02*
Y19778D01*
X97067Y7629D02*
X108878D01*
X97067Y2117D02*
X108878D01*
Y7629D01*
X97067Y2117D02*
Y7629D01*
D137*
X310814Y53016D02*
Y60890D01*
X290145Y53016D02*
X310814D01*
X290145D02*
Y60890D01*
X310814D01*
X314174Y129325D02*
Y149994D01*
X306300Y129325D02*
X314174D01*
X306300D02*
Y149994D01*
X314174D01*
M02*
