G04*
G04 #@! TF.GenerationSoftware,Altium Limited,Altium Designer,20.0.13 (296)*
G04*
G04 Layer_Color=16711935*
%FSLAX25Y25*%
%MOIN*%
G70*
G01*
G75*
%ADD136C,0.00197*%
D136*
X169308Y6700D02*
Y8275D01*
Y6700D02*
X173049D01*
X169308Y8275D02*
X173049D01*
Y6700D02*
Y8275D01*
X169308Y12015D02*
Y13590D01*
Y12015D02*
X173049D01*
Y13590D01*
X169308D02*
X173049D01*
X173045Y8275D02*
Y12015D01*
X173043Y8275D02*
X173045Y12015D01*
X169312Y8275D02*
X169314Y12015D01*
X169312Y8275D02*
X169314Y12015D01*
X154307Y6774D02*
Y8349D01*
Y6774D02*
X158048D01*
X154307Y8349D02*
X158048D01*
Y6774D02*
Y8349D01*
X154307Y12089D02*
Y13664D01*
Y12089D02*
X158048D01*
Y13664D01*
X154307D02*
X158048D01*
X158044Y8349D02*
Y12089D01*
X158042Y8349D02*
X158044Y12089D01*
X154311Y8349D02*
X154313Y12089D01*
X154311Y8349D02*
X154313Y12089D01*
X49475Y19296D02*
X51050D01*
Y23037D01*
X49475Y19296D02*
Y23037D01*
X51050D01*
X44160Y19296D02*
X45735D01*
Y23037D01*
X44160D02*
X45735D01*
X44160Y19296D02*
Y23037D01*
X45735Y23033D02*
X49475D01*
X45735D02*
X49475Y23031D01*
X45735Y19302D02*
X49475Y19300D01*
X45735Y19302D02*
X49475Y19300D01*
X160737Y95514D02*
X162311D01*
X160737Y91774D02*
Y95514D01*
X162311Y91774D02*
Y95514D01*
X160737Y91774D02*
X162311D01*
X166052Y95514D02*
X167626D01*
X166052Y91774D02*
Y95514D01*
Y91774D02*
X167626D01*
Y95514D01*
X162311Y91778D02*
X166052D01*
X162311Y91780D02*
X166052Y91778D01*
X162311Y95510D02*
X166052Y95508D01*
X162311Y95510D02*
X166052Y95508D01*
X70852Y12938D02*
Y14513D01*
X67112D02*
X70852D01*
X67112Y12938D02*
X70852D01*
X67112D02*
Y14513D01*
X70852Y7623D02*
Y9198D01*
X67112D02*
X70852D01*
X67112Y7623D02*
Y9198D01*
Y7623D02*
X70852D01*
X67116Y9198D02*
Y12938D01*
Y9198D02*
X67117Y12938D01*
X70846Y9198D02*
X70848Y12938D01*
X70846Y9198D02*
X70848Y12938D01*
X90384Y11788D02*
Y13363D01*
X86643D02*
X90384D01*
X86643Y11788D02*
X90384D01*
X86643D02*
Y13363D01*
X90384Y6473D02*
Y8048D01*
X86643D02*
X90384D01*
X86643Y6473D02*
Y8048D01*
Y6473D02*
X90384D01*
X86647Y8048D02*
Y11788D01*
Y8048D02*
X86649Y11788D01*
X90378Y8048D02*
X90380Y11788D01*
X90378Y8048D02*
X90380Y11788D01*
X137433Y133981D02*
X139008D01*
X137433Y130240D02*
X137433Y133981D01*
X139008Y130240D02*
X139008Y133981D01*
X137433Y130240D02*
X139008D01*
X142748Y133981D02*
X144323D01*
X142748D02*
X142748Y130240D01*
X144323D01*
X144323Y133981D01*
X139008Y130244D02*
X142748D01*
X139008Y130246D02*
X142748Y130244D01*
X139008Y133976D02*
X142748Y133975D01*
X139008Y133976D02*
X142748Y133975D01*
X67737Y146514D02*
X69311D01*
X67736Y142774D02*
X67737Y146514D01*
X69311Y142774D02*
Y146514D01*
X67736Y142774D02*
X69311D01*
X73052Y146514D02*
X74626D01*
X73052Y142774D02*
Y146514D01*
Y142774D02*
X74626D01*
X74626Y146514D02*
X74626Y142774D01*
X69311Y142778D02*
X73052D01*
X69311Y142780D02*
X73052Y142778D01*
X69311Y146510D02*
X73052Y146508D01*
X69311Y146510D02*
X73052Y146508D01*
X103084Y130211D02*
X104659D01*
X103084Y126470D02*
X103084Y130211D01*
X104659Y126470D02*
Y130211D01*
X103084Y126470D02*
X104659D01*
X108399Y130211D02*
X109974D01*
X108399D02*
X108399Y126470D01*
X109974D01*
Y130211D01*
X104659Y126474D02*
X108399Y126474D01*
X104659Y126476D02*
X108399Y126474D01*
X104659Y130207D02*
X108399Y130205D01*
X104659Y130207D02*
X108399Y130205D01*
X305898Y81275D02*
X307472D01*
Y85015D01*
X305898Y81275D02*
Y85015D01*
X307472D01*
X300583Y81275D02*
X302157D01*
Y85015D01*
X300583D02*
X302157D01*
X300583Y81275D02*
Y85015D01*
X302157Y85011D02*
X305898D01*
X302157D02*
X305898Y85009D01*
X302157Y81281D02*
X305898Y81279D01*
X302157Y81281D02*
X305898Y81279D01*
X305893Y86916D02*
X307468D01*
Y90656D01*
X305893Y86916D02*
Y90656D01*
X307468D01*
X300578Y86916D02*
X302153D01*
Y90656D01*
X300578D02*
X302153D01*
X300578Y86916D02*
Y90656D01*
X302153Y90652D02*
X305893D01*
X302153D02*
X305893Y90650D01*
X302153Y86922D02*
X305893Y86920D01*
X302153Y86922D02*
X305893Y86920D01*
X292802Y55742D02*
Y58164D01*
X308157Y55742D02*
Y58164D01*
X307432Y55742D02*
Y58164D01*
X293526Y55742D02*
Y58164D01*
X307200Y55742D02*
Y58164D01*
X293759Y55742D02*
Y58164D01*
X306090Y55742D02*
X308157D01*
X306090Y58164D02*
X308157D01*
X306450Y55742D02*
Y58164D01*
X292802D02*
X294869D01*
X292802Y55742D02*
X294869D01*
X294509D02*
Y58164D01*
X294869Y53410D02*
Y60496D01*
X295273Y53813D02*
Y60093D01*
X294869Y53410D02*
X306090D01*
X294869D02*
X295273Y53813D01*
X296257D01*
X295273Y60093D02*
X296257Y60093D01*
X294869Y60496D02*
X295273Y60093D01*
X294869Y60496D02*
X306090D01*
X305686Y60092D02*
X306090Y60496D01*
Y53410D02*
Y60496D01*
X305686Y53814D02*
X306090Y53410D01*
X296257Y53813D02*
X305686Y53814D01*
X296257Y53813D02*
Y60093D01*
X305686Y60092D01*
Y53814D02*
Y60092D01*
X300718Y66188D02*
X302293D01*
X300718Y62448D02*
Y66188D01*
X302293Y62448D02*
Y66188D01*
X300718Y62448D02*
X302293D01*
X306033Y66188D02*
X307608D01*
X306033Y62448D02*
Y66188D01*
Y62448D02*
X307608D01*
Y66188D01*
X302293Y62452D02*
X306033D01*
X302293Y62454D02*
X306033Y62452D01*
X302293Y66184D02*
X306033Y66182D01*
X302293Y66184D02*
X306033Y66182D01*
X234159Y132200D02*
Y133774D01*
Y132200D02*
X237899D01*
X234159Y133774D02*
X237899D01*
Y132200D02*
Y133774D01*
X234159Y137515D02*
Y139090D01*
Y137515D02*
X237899D01*
Y139090D01*
X234159D02*
X237899D01*
X237895Y133774D02*
Y137515D01*
X237893Y133774D02*
X237895Y137515D01*
X234163Y133774D02*
X234165Y137515D01*
X234163Y133774D02*
X234165Y137515D01*
X208429Y121014D02*
X210004D01*
X208429Y117274D02*
Y121014D01*
X210004Y117274D02*
Y121014D01*
X208429Y117274D02*
X210004D01*
X213744Y121014D02*
X215319D01*
X213744Y117274D02*
Y121014D01*
Y117274D02*
X215319D01*
Y121014D01*
X210004Y117278D02*
X213744D01*
X210004Y117280D02*
X213744Y117278D01*
X210004Y121010D02*
X213744Y121008D01*
X210004Y121010D02*
X213744Y121008D01*
X153346Y117512D02*
X154921D01*
X153346Y113772D02*
Y117512D01*
X154921Y113772D02*
Y117512D01*
X153346Y113772D02*
X154921D01*
X158661Y117512D02*
X160236D01*
X158661Y113772D02*
Y117512D01*
Y113772D02*
X160236D01*
Y117512D01*
X154921Y113776D02*
X158661D01*
X154921Y113778D02*
X158661Y113776D01*
X154921Y117508D02*
X158661Y117506D01*
X154921Y117508D02*
X158661Y117506D01*
X156591Y130240D02*
X158167Y130240D01*
X158167Y133980D01*
X156591Y130240D02*
X156592Y133980D01*
X158167D01*
X151277Y130240D02*
X152851D01*
X152851Y133980D02*
X152851Y130240D01*
X151277Y133980D02*
X152851D01*
X151277D02*
X151277Y130240D01*
X152851Y133976D02*
X156592D01*
X152851D02*
X156591Y133975D01*
X152851Y130246D02*
X156591Y130244D01*
X152851Y130246D02*
X156591Y130244D01*
X153158Y93353D02*
Y94927D01*
Y93353D02*
X156898D01*
X153158Y94927D02*
X156898D01*
Y93353D02*
Y94927D01*
X153158Y98668D02*
Y100242D01*
Y98668D02*
X156898D01*
Y100242D01*
X153158D02*
X156898D01*
X156894Y94927D02*
Y98668D01*
X156892Y94927D02*
X156894Y98668D01*
X153162Y94927D02*
X153164Y98668D01*
X153162Y94927D02*
X153164Y98668D01*
X160584Y101513D02*
X162158D01*
X160584Y97773D02*
Y101513D01*
X162158Y97773D02*
Y101513D01*
X160584Y97773D02*
X162158D01*
X165899Y101513D02*
X167473D01*
X165899Y97773D02*
Y101513D01*
Y97773D02*
X167473D01*
Y101513D01*
X162158Y97777D02*
X165899D01*
X162158Y97779D02*
X165899Y97777D01*
X162158Y101509D02*
X165899Y101507D01*
X162158Y101509D02*
X165899Y101507D01*
X189811Y117778D02*
X193552Y117780D01*
X189811Y117778D02*
X193552Y117780D01*
X189811Y121508D02*
X193552Y121510D01*
X189811D02*
X193552D01*
X195126Y117774D02*
Y121514D01*
X193552D02*
X195126D01*
X193552Y117774D02*
Y121514D01*
Y117774D02*
X195126D01*
X188237Y121514D02*
X189811D01*
Y117774D02*
Y121514D01*
X188237Y117774D02*
Y121514D01*
Y117774D02*
X189811D01*
X344391Y147015D02*
X344393Y143274D01*
X344391Y147015D02*
X344393Y143274D01*
X340661Y147015D02*
X340663Y143274D01*
X340661D02*
Y147015D01*
X340657Y148589D02*
X344397D01*
X340657Y147015D02*
Y148589D01*
Y147015D02*
X344397D01*
Y148589D01*
X340657Y141700D02*
Y143274D01*
X344397D01*
X340657Y141700D02*
X344397D01*
Y143274D01*
X307097Y144866D02*
X313376D01*
X313377Y135437D01*
X307097D02*
X313377D01*
X307097D02*
X307097Y144866D01*
X306693Y145270D02*
X307097Y144866D01*
X306693Y145270D02*
X313780D01*
X313376Y144866D02*
X313780Y145270D01*
Y134049D02*
Y145270D01*
X313377Y134453D02*
X313780Y134049D01*
X313377Y134453D02*
Y135437D01*
X307097Y134453D02*
Y135437D01*
X306693Y134049D02*
X307097Y134453D01*
X306693Y134049D02*
Y145270D01*
X307097Y134453D02*
X313377D01*
X306693Y134049D02*
X313780D01*
X309026Y133689D02*
X311447D01*
X309026Y131982D02*
Y134049D01*
X311447Y131982D02*
Y134049D01*
X309026Y145630D02*
X311447D01*
Y145270D02*
Y147337D01*
X309026Y145270D02*
Y147337D01*
Y132939D02*
X311447D01*
X309026Y146380D02*
X311447D01*
X309026Y132706D02*
X311447D01*
X309026Y146612D02*
X311447D01*
X309026Y147337D02*
X311447D01*
X309026Y131982D02*
X311447D01*
X319250Y129514D02*
X319252Y125773D01*
X319250Y129514D02*
X319252Y125773D01*
X322980Y129514D02*
X322982Y125773D01*
Y129514D01*
X319246Y124199D02*
X322986D01*
Y125773D01*
X319246D02*
X322986D01*
X319246Y124199D02*
Y125773D01*
X322986Y129514D02*
Y131088D01*
X319246Y129514D02*
X322986D01*
X319246Y131088D02*
X322986D01*
X319246Y129514D02*
Y131088D01*
X328163Y129514D02*
X328165Y125773D01*
X328163Y129514D02*
X328165Y125773D01*
X331893Y129514D02*
X331895Y125773D01*
Y129514D01*
X328159Y124199D02*
X331899D01*
Y125773D01*
X328159D02*
X331899D01*
X328159Y124199D02*
Y125773D01*
X331899Y129514D02*
Y131088D01*
X328159Y129514D02*
X331899D01*
X328159Y131088D02*
X331899D01*
X328159Y129514D02*
Y131088D01*
X341015Y129514D02*
Y131088D01*
X344755D01*
X341015Y129514D02*
X344755D01*
Y131088D01*
X341015Y124199D02*
Y125773D01*
X344755D01*
Y124199D02*
Y125773D01*
X341015Y124199D02*
X344755D01*
X344751Y125773D02*
Y129514D01*
X344749D02*
X344751Y125773D01*
X341019Y129514D02*
X341021Y125773D01*
X341019Y129514D02*
X341021Y125773D01*
X341163Y17013D02*
X341165Y13273D01*
X341163Y17013D02*
X341165Y13273D01*
X344893Y17013D02*
X344895Y13273D01*
Y17013D01*
X341159Y11698D02*
X344899D01*
Y13273D01*
X341159D02*
X344899D01*
X341159Y11698D02*
Y13273D01*
X344899Y17013D02*
Y18588D01*
X341159Y17013D02*
X344899D01*
X341159Y18588D02*
X344899D01*
X341159Y17013D02*
Y18588D01*
X305900Y68698D02*
X307475D01*
Y72438D01*
X305900Y68698D02*
Y72438D01*
X307475D01*
X300585Y68698D02*
X302160D01*
Y72438D01*
X300585D02*
X302160D01*
X300585Y68698D02*
Y72438D01*
X302160Y72434D02*
X305900D01*
X302160D02*
X305900Y72433D01*
X302160Y68704D02*
X305900Y68702D01*
X302160Y68704D02*
X305900Y68702D01*
X300578Y78751D02*
X302153D01*
X300578Y75011D02*
Y78751D01*
X302153Y75011D02*
Y78751D01*
X300578Y75011D02*
X302153D01*
X305893Y78751D02*
X307468D01*
X305893Y75011D02*
Y78751D01*
Y75011D02*
X307468D01*
Y78751D01*
X302153Y75015D02*
X305893D01*
X302153Y75016D02*
X305893Y75015D01*
X302153Y78747D02*
X305893Y78745D01*
X302153Y78747D02*
X305893Y78745D01*
X305111Y96782D02*
X305113Y100522D01*
X305111Y96782D02*
X305113Y100522D01*
X308841Y96782D02*
X308843Y100522D01*
Y96782D02*
Y100522D01*
X305107Y102097D02*
X308847D01*
Y100522D02*
Y102097D01*
X305107Y100522D02*
X308847D01*
X305107D02*
Y102097D01*
X308847Y95207D02*
Y96782D01*
X305107D02*
X308847D01*
X305107Y95207D02*
X308847D01*
X305107D02*
Y96782D01*
X283209Y55053D02*
Y56628D01*
Y55053D02*
X286949D01*
X283209Y56628D02*
X286949D01*
Y55053D02*
Y56628D01*
X283209Y60368D02*
Y61943D01*
Y60368D02*
X286949D01*
Y61943D01*
X283209D02*
X286949D01*
X286945Y56628D02*
Y60368D01*
X286944Y56628D02*
X286945Y60368D01*
X283213Y56628D02*
X283215Y60368D01*
X283213Y56628D02*
X283215Y60368D01*
X344897Y17014D02*
Y18588D01*
X341157D02*
X344897D01*
X341157Y17014D02*
X344897D01*
X341157D02*
Y18588D01*
X344897Y11699D02*
Y13273D01*
X341157D02*
X344897D01*
X341157Y11699D02*
Y13273D01*
Y11699D02*
X344897D01*
X341161Y13273D02*
Y17014D01*
Y13273D02*
X341163Y17014D01*
X344891Y13273D02*
X344893Y17014D01*
X344891Y13273D02*
X344893Y17014D01*
X194159Y52700D02*
Y54274D01*
Y52700D02*
X197899D01*
X194159Y54274D02*
X197899D01*
Y52700D02*
Y54274D01*
X194159Y58015D02*
Y59589D01*
Y58015D02*
X197899D01*
Y59589D01*
X194159D02*
X197899D01*
X197895Y54274D02*
Y58015D01*
X197893Y54274D02*
X197895Y58015D01*
X194163Y54274D02*
X194165Y58015D01*
X194163Y54274D02*
X194165Y58015D01*
X134901Y3448D02*
X134903Y7188D01*
X134901Y3448D02*
X134903Y7188D01*
X138631Y3448D02*
X138633Y7188D01*
Y3448D02*
Y7188D01*
X134897Y8763D02*
X138637D01*
Y7188D02*
Y8763D01*
X134897Y7188D02*
X138637D01*
X134897D02*
Y8763D01*
X138637Y1873D02*
Y3448D01*
X134897D02*
X138637D01*
X134897Y1873D02*
X138637D01*
X134897D02*
Y3448D01*
X120701Y1873D02*
Y3448D01*
Y1873D02*
X124441D01*
X120701Y3448D02*
X124441D01*
Y1873D02*
Y3448D01*
X120701Y7188D02*
Y8763D01*
Y7188D02*
X124441D01*
Y8763D01*
X120701D02*
X124441D01*
X124437Y3448D02*
Y7188D01*
X124435Y3448D02*
X124437Y7188D01*
X120705Y3448D02*
X120707Y7188D01*
X120705Y3448D02*
X120707Y7188D01*
X131530Y3448D02*
X131532Y7188D01*
X131530Y3448D02*
X131532Y7188D01*
X127800Y3448D02*
X127802Y7188D01*
X127800Y3448D02*
Y7188D01*
X127796Y1873D02*
X131536D01*
X127796D02*
Y3448D01*
X131536D01*
Y1873D02*
Y3448D01*
X127796Y7188D02*
Y8763D01*
Y7188D02*
X131536D01*
X127796Y8763D02*
X131536D01*
Y7188D02*
Y8763D01*
X61882Y18981D02*
X63456D01*
X63457Y22721D01*
X61882D02*
X61882Y18981D01*
X61882Y22721D02*
X63457D01*
X56567Y18981D02*
X58141D01*
Y22721D01*
X56567D02*
X58141D01*
X56567Y18981D02*
Y22721D01*
X58141Y22717D02*
X61882D01*
X58141D02*
X61882Y22715D01*
X58141Y18987D02*
X61882Y18985D01*
X58141Y18987D02*
X61882Y18985D01*
X161398Y143360D02*
Y144935D01*
X157658D02*
X161398D01*
X157658Y143361D02*
X161398Y143360D01*
X157658Y143361D02*
Y144935D01*
X161398Y138046D02*
Y139620D01*
X157658Y139620D02*
X161398Y139620D01*
X157658Y138045D02*
Y139620D01*
Y138045D02*
X161398Y138046D01*
X157662Y139620D02*
Y143361D01*
Y139620D02*
X157664Y143360D01*
X161392Y139620D02*
X161394Y143360D01*
X161392Y139620D02*
X161394Y143360D01*
X341163Y4013D02*
X341165Y273D01*
X341163Y4013D02*
X341165Y273D01*
X344893Y4013D02*
X344895Y273D01*
Y4013D01*
X341159Y-1302D02*
X344899D01*
Y273D01*
X341159D02*
X344899D01*
X341159Y-1302D02*
Y273D01*
X344899Y4013D02*
Y5588D01*
X341159Y4013D02*
X344899D01*
X341159Y5588D02*
X344899D01*
X341159Y4013D02*
Y5588D01*
X344398Y4168D02*
Y5743D01*
X340658D02*
X344398D01*
X340658Y4168D02*
X344398D01*
X340658D02*
Y5743D01*
X344398Y-1147D02*
Y428D01*
X340658D02*
X344398D01*
X340658Y-1147D02*
Y428D01*
Y-1147D02*
X344398D01*
X340662Y428D02*
Y4168D01*
Y428D02*
X340664Y4168D01*
X344392Y428D02*
X344394Y4168D01*
X344392Y428D02*
X344394Y4168D01*
X195159Y16200D02*
Y17775D01*
Y16200D02*
X198899D01*
X195159Y17775D02*
X198899D01*
Y16200D02*
Y17775D01*
X195159Y21515D02*
Y23090D01*
Y21515D02*
X198899D01*
Y23090D01*
X195159D02*
X198899D01*
X198895Y17775D02*
Y21515D01*
X198893Y17775D02*
X198895Y21515D01*
X195163Y17775D02*
X195165Y21515D01*
X195163Y17775D02*
X195165Y21515D01*
X188347Y16200D02*
Y17775D01*
Y16200D02*
X192087D01*
X188347Y17775D02*
X192087D01*
Y16200D02*
Y17775D01*
X188347Y21515D02*
Y23090D01*
Y21515D02*
X192087D01*
Y23090D01*
X188347D02*
X192087D01*
X192083Y17775D02*
Y21515D01*
X192081Y17775D02*
X192083Y21515D01*
X188351Y17775D02*
X188353Y21515D01*
X188351Y17775D02*
X188353Y21515D01*
X85130Y22865D02*
X88871Y22863D01*
X85130Y22865D02*
X88871Y22863D01*
X85130Y19135D02*
X88871Y19133D01*
X85130D02*
X88871D01*
X90445Y19129D02*
Y22869D01*
X88871Y19129D02*
X90445D01*
X88871D02*
Y22869D01*
X90445D01*
X83556Y19129D02*
X85130D01*
Y22869D01*
X83556Y19129D02*
Y22869D01*
X85130D01*
X72122Y22715D02*
X75862Y22713D01*
X72122Y22715D02*
X75862Y22713D01*
X72122Y18985D02*
X75862Y18983D01*
X72122D02*
X75862D01*
X77437Y18979D02*
Y22719D01*
X75862Y18979D02*
X77437D01*
X75862D02*
Y22719D01*
X77437D01*
X70547Y18979D02*
X72122D01*
Y22719D01*
X70547Y18979D02*
Y22719D01*
X72122D01*
X189732Y125781D02*
X193472Y125779D01*
X189732Y125781D02*
X193472Y125779D01*
X189732Y129511D02*
X193472Y129509D01*
X189732Y129511D02*
X193472D01*
X188157Y125775D02*
Y129515D01*
X189732D01*
Y125775D02*
Y129515D01*
X188157Y125775D02*
X189732D01*
X193472Y129515D02*
X195047D01*
X193472Y125775D02*
Y129515D01*
X195047Y125775D02*
Y129515D01*
X193472Y125775D02*
X195047D01*
X237391Y146273D02*
X237393Y150014D01*
X237391Y146273D02*
X237393Y150014D01*
X233661Y146273D02*
X233663Y150014D01*
X233661Y146273D02*
Y150014D01*
X233657Y144699D02*
X237397D01*
X233657D02*
Y146273D01*
X237397D01*
Y144699D02*
Y146273D01*
X233657Y150014D02*
Y151588D01*
Y150014D02*
X237397D01*
X233657Y151588D02*
X237397D01*
Y150014D02*
Y151588D01*
X278391Y97273D02*
X278393Y101014D01*
X278391Y97273D02*
X278393Y101014D01*
X274661Y97273D02*
X274663Y101014D01*
X274661Y97273D02*
Y101014D01*
X274657Y95699D02*
X278397D01*
X274657D02*
Y97273D01*
X278397D01*
Y95699D02*
Y97273D01*
X274657Y101014D02*
Y102588D01*
Y101014D02*
X278397D01*
X274657Y102588D02*
X278397D01*
Y101014D02*
Y102588D01*
X55891Y87773D02*
X55893Y91514D01*
X55891Y87773D02*
X55893Y91514D01*
X52161Y87773D02*
X52163Y91514D01*
X52161Y87773D02*
Y91514D01*
X52157Y86199D02*
X55897Y86198D01*
X52157Y87773D02*
X52157Y86199D01*
X52157Y87773D02*
X55897D01*
Y86198D02*
Y87773D01*
X52157Y91514D02*
Y93088D01*
Y91514D02*
X55897D01*
X52157Y93088D02*
X55897Y93088D01*
Y91514D02*
Y93088D01*
X153584Y123513D02*
X155159Y123513D01*
X153584Y119773D02*
Y123513D01*
X155159Y119773D02*
Y123513D01*
X153584Y119773D02*
X155159Y119773D01*
X158899Y123513D02*
X160474D01*
X158899Y119773D02*
Y123513D01*
Y119773D02*
X160474D01*
Y123513D01*
X155159Y119777D02*
X158899D01*
X155159Y119779D02*
X158899Y119777D01*
X155159Y123509D02*
X158899Y123507D01*
X155159Y123509D02*
X158899Y123507D01*
X111833Y10428D02*
Y12003D01*
Y10428D02*
X115573D01*
X111833Y12003D02*
X115573D01*
Y10428D02*
Y12003D01*
X111833Y15743D02*
Y17318D01*
Y15743D02*
X115573D01*
Y17318D01*
X111833D02*
X115573D01*
X115569Y12003D02*
Y15743D01*
X115567Y12003D02*
X115569Y15743D01*
X111837Y12003D02*
X111839Y15743D01*
X111837Y12003D02*
X111839Y15743D01*
X101103Y3009D02*
X104843Y3007D01*
X101103Y3009D02*
X104843Y3007D01*
X101103Y6739D02*
X104843Y6737D01*
X101103Y6739D02*
X104843D01*
X99528Y3003D02*
Y6743D01*
X101103D01*
Y3003D02*
Y6743D01*
X99528Y3003D02*
X101103D01*
X104843Y6743D02*
X106418D01*
X104843Y3003D02*
Y6743D01*
X106418Y3003D02*
Y6743D01*
X104843Y3003D02*
X106418D01*
M02*
