G04*
G04 #@! TF.GenerationSoftware,Altium Limited,Altium Designer,20.0.13 (296)*
G04*
G04 Layer_Color=2752767*
%FSLAX25Y25*%
%MOIN*%
G70*
G01*
G75*
%ADD10C,0.00200*%
%ADD11C,0.00267*%
D10*
X127228Y28844D02*
Y30444D01*
X128828D01*
Y28844D01*
X127228D01*
X373674Y-5106D02*
X372874Y-3506D01*
X374474D01*
X373674Y-5106D01*
Y28949D02*
X372874Y30549D01*
X374474D01*
X373674Y28949D01*
X359894Y23300D02*
X360294Y23700D01*
X360694D01*
X360294Y24100D01*
X360694Y24500D01*
X360294D01*
X359894Y24900D01*
X359494Y24500D01*
X359094D01*
X359494Y24100D01*
X359094Y23700D01*
X359494D01*
X359894Y23300D01*
Y544D02*
X360294Y944D01*
X360694D01*
X360294Y1344D01*
X360694Y1744D01*
X360294D01*
X359894Y2144D01*
X359494Y1744D01*
X359094D01*
X359494Y1344D01*
X359094Y944D01*
X359494D01*
X359894Y544D01*
X374174Y114894D02*
X373374Y116494D01*
X374974D01*
X374174Y114894D01*
Y148949D02*
X373374Y150549D01*
X374974D01*
X374174Y148949D01*
X360394Y143300D02*
X360794Y143700D01*
X361194D01*
X360794Y144100D01*
X361194Y144500D01*
X360794D01*
X360394Y144900D01*
X359994Y144500D01*
X359594D01*
X359994Y144100D01*
X359594Y143700D01*
X359994D01*
X360394Y143300D01*
Y120544D02*
X360794Y120944D01*
X361194D01*
X360794Y121344D01*
X361194Y121744D01*
X360794D01*
X360394Y122144D01*
X359994Y121744D01*
X359594D01*
X359994Y121344D01*
X359594Y120944D01*
X359994D01*
X360394Y120544D01*
X116228Y63844D02*
X116628Y64644D01*
X116228Y65444D01*
X117028Y65044D01*
X117828Y65444D01*
X117428Y64644D01*
X117828Y63844D01*
X117028Y64244D01*
X116228Y63844D01*
X19700Y76200D02*
X20100Y77000D01*
X19700Y77800D01*
X20500Y77400D01*
X21300Y77800D01*
X20900Y77000D01*
X21300Y76200D01*
X20500Y76600D01*
X19700Y76200D01*
X106253Y119647D02*
X106653Y120447D01*
X106253Y121247D01*
X107053Y120847D01*
X107853Y121247D01*
X107453Y120447D01*
X107853Y119647D01*
X107053Y120047D01*
X106253Y119647D01*
X160200Y39700D02*
X160600Y40500D01*
X160200Y41300D01*
X161000Y40900D01*
X161800Y41300D01*
X161400Y40500D01*
X161800Y39700D01*
X161000Y40100D01*
X160200Y39700D01*
X109153Y45125D02*
X109553Y45925D01*
X109153Y46725D01*
X109953Y46325D01*
X110753Y46725D01*
X110353Y45925D01*
X110753Y45125D01*
X109953Y45525D01*
X109153Y45125D01*
X98700Y108700D02*
X99100Y109500D01*
X98700Y110300D01*
X99500Y109900D01*
X100300Y110300D01*
X99900Y109500D01*
X100300Y108700D01*
X99500Y109100D01*
X98700Y108700D01*
X95200D02*
X95600Y109500D01*
X95200Y110300D01*
X96000Y109900D01*
X96800Y110300D01*
X96400Y109500D01*
X96800Y108700D01*
X96000Y109100D01*
X95200Y108700D01*
X103200Y108541D02*
X103600Y109341D01*
X103200Y110141D01*
X104000Y109741D01*
X104800Y110141D01*
X104400Y109341D01*
X104800Y108541D01*
X104000Y108941D01*
X103200Y108541D01*
X108728Y120850D02*
X109128Y121650D01*
X108728Y122450D01*
X109528Y122050D01*
X110328Y122450D01*
X109928Y121650D01*
X110328Y120850D01*
X109528Y121250D01*
X108728Y120850D01*
X112512D02*
X112912Y121650D01*
X112512Y122450D01*
X113312Y122050D01*
X114112Y122450D01*
X113712Y121650D01*
X114112Y120850D01*
X113312Y121250D01*
X112512Y120850D01*
X116228D02*
X116628Y121650D01*
X116228Y122450D01*
X117028Y122050D01*
X117828Y122450D01*
X117428Y121650D01*
X117828Y120850D01*
X117028Y121250D01*
X116228Y120850D01*
X125600Y125100D02*
Y124700D01*
X126400D01*
Y125100D01*
X126800D01*
Y125900D01*
X126400D01*
Y126300D01*
X125600D01*
Y125900D01*
X125200D01*
Y125100D01*
X125600D01*
X163228Y129800D02*
X163628Y130600D01*
X163228Y131400D01*
X164028Y131000D01*
X164828Y131400D01*
X164428Y130600D01*
X164828Y129800D01*
X164028Y130200D01*
X163228Y129800D01*
X83200Y1200D02*
X83600Y2000D01*
X83200Y2800D01*
X84000Y2400D01*
X84800Y2800D01*
X84400Y2000D01*
X84800Y1200D01*
X84000Y1600D01*
X83200Y1200D01*
X75728Y344D02*
X76128Y1144D01*
X75728Y1944D01*
X76528Y1544D01*
X77328Y1944D01*
X76928Y1144D01*
X77328Y344D01*
X76528Y744D01*
X75728Y344D01*
X72721Y15302D02*
X73121Y16102D01*
X72721Y16902D01*
X73521Y16502D01*
X74321Y16902D01*
X73921Y16102D01*
X74321Y15302D01*
X73521Y15702D01*
X72721Y15302D01*
X76192Y15550D02*
X76592Y16350D01*
X76192Y17150D01*
X76992Y16750D01*
X77792Y17150D01*
X77392Y16350D01*
X77792Y15550D01*
X76992Y15950D01*
X76192Y15550D01*
X83700Y15700D02*
X84100Y16500D01*
X83700Y17300D01*
X84500Y16900D01*
X85300Y17300D01*
X84900Y16500D01*
X85300Y15700D01*
X84500Y16100D01*
X83700Y15700D01*
X80200D02*
X80600Y16500D01*
X80200Y17300D01*
X81000Y16900D01*
X81800Y17300D01*
X81400Y16500D01*
X81800Y15700D01*
X81000Y16100D01*
X80200Y15700D01*
X351200Y148200D02*
X351600Y149000D01*
X351200Y149800D01*
X352000Y149400D01*
X352800Y149800D01*
X352400Y149000D01*
X352800Y148200D01*
X352000Y148600D01*
X351200Y148200D01*
X350200Y115700D02*
X350600Y116500D01*
X350200Y117300D01*
X351000Y116900D01*
X351800Y117300D01*
X351400Y116500D01*
X351800Y115700D01*
X351000Y116100D01*
X350200Y115700D01*
X350700Y-4300D02*
X351100Y-3500D01*
X350700Y-2700D01*
X351500Y-3100D01*
X352300Y-2700D01*
X351900Y-3500D01*
X352300Y-4300D01*
X351500Y-3900D01*
X350700Y-4300D01*
X206228Y139844D02*
X206628Y140644D01*
X206228Y141444D01*
X207028Y141044D01*
X207828Y141444D01*
X207428Y140644D01*
X207828Y139844D01*
X207028Y140244D01*
X206228Y139844D01*
X216087Y151744D02*
Y151344D01*
X216887D01*
Y151744D01*
X217287D01*
Y152544D01*
X216887D01*
Y152944D01*
X216087D01*
Y152544D01*
X215687D01*
Y151744D01*
X216087D01*
X103153Y43344D02*
X103553Y44144D01*
X103153Y44944D01*
X103953Y44544D01*
X104753Y44944D01*
X104353Y44144D01*
X104753Y43344D01*
X103953Y43744D01*
X103153Y43344D01*
X105228Y48844D02*
X105628Y49644D01*
X105228Y50444D01*
X106028Y50044D01*
X106828Y50444D01*
X106428Y49644D01*
X106828Y48844D01*
X106028Y49244D01*
X105228Y48844D01*
X317628Y136744D02*
Y136344D01*
X318428D01*
Y136744D01*
X318828D01*
Y137544D01*
X318428D01*
Y137944D01*
X317628D01*
Y137544D01*
X317228D01*
Y136744D01*
X317628D01*
X332728Y151844D02*
X333128Y152644D01*
X332728Y153444D01*
X333528Y153044D01*
X334328Y153444D01*
X333928Y152644D01*
X334328Y151844D01*
X333528Y152244D01*
X332728Y151844D01*
X92728Y4844D02*
X93128Y5644D01*
X92728Y6444D01*
X93528Y6044D01*
X94328Y6444D01*
X93928Y5644D01*
X94328Y4844D01*
X93528Y5244D01*
X92728Y4844D01*
X87728Y2344D02*
X88128Y3144D01*
X87728Y3944D01*
X88528Y3544D01*
X89328Y3944D01*
X88928Y3144D01*
X89328Y2344D01*
X88528Y2744D01*
X87728Y2344D01*
X92346Y1335D02*
X92746Y2135D01*
X92346Y2936D01*
X93146Y2536D01*
X93946Y2936D01*
X93546Y2135D01*
X93946Y1335D01*
X93146Y1736D01*
X92346Y1335D01*
X63228Y-5156D02*
X63628Y-4356D01*
X63228Y-3556D01*
X64028Y-3956D01*
X64828Y-3556D01*
X64428Y-4356D01*
X64828Y-5156D01*
X64028Y-4756D01*
X63228Y-5156D01*
X211728Y3344D02*
X212128Y4144D01*
X211728Y4944D01*
X212528Y4544D01*
X213328Y4944D01*
X212928Y4144D01*
X213328Y3344D01*
X212528Y3744D01*
X211728Y3344D01*
X221728Y12344D02*
X222128Y13144D01*
X221728Y13944D01*
X222528Y13544D01*
X223328Y13944D01*
X222928Y13144D01*
X223328Y12344D01*
X222528Y12744D01*
X221728Y12344D01*
X232228Y34344D02*
X232628Y35144D01*
X232228Y35944D01*
X233028Y35544D01*
X233828Y35944D01*
X233428Y35144D01*
X233828Y34344D01*
X233028Y34744D01*
X232228Y34344D01*
X265728Y11344D02*
X266128Y12144D01*
X265728Y12944D01*
X266528Y12544D01*
X267328Y12944D01*
X266928Y12144D01*
X267328Y11344D01*
X266528Y11744D01*
X265728Y11344D01*
X266228Y-3156D02*
X266628Y-2356D01*
X266228Y-1556D01*
X267028Y-1956D01*
X267828Y-1556D01*
X267428Y-2356D01*
X267828Y-3156D01*
X267028Y-2756D01*
X266228Y-3156D01*
X266137Y409D02*
X266537Y1209D01*
X266137Y2009D01*
X266937Y1609D01*
X267737Y2009D01*
X267337Y1209D01*
X267737Y409D01*
X266937Y809D01*
X266137Y409D01*
X266728Y4844D02*
X267128Y5644D01*
X266728Y6444D01*
X267528Y6044D01*
X268328Y6444D01*
X267928Y5644D01*
X268328Y4844D01*
X267528Y5244D01*
X266728Y4844D01*
X49728Y116844D02*
X50128Y117644D01*
X49728Y118444D01*
X50528Y118044D01*
X51328Y118444D01*
X50928Y117644D01*
X51328Y116844D01*
X50528Y117244D01*
X49728Y116844D01*
X295228Y69844D02*
X295628Y70644D01*
X295228Y71444D01*
X296028Y71044D01*
X296828Y71444D01*
X296428Y70644D01*
X296828Y69844D01*
X296028Y70244D01*
X295228Y69844D01*
Y36344D02*
X295628Y37144D01*
X295228Y37944D01*
X296028Y37544D01*
X296828Y37944D01*
X296428Y37144D01*
X296828Y36344D01*
X296028Y36744D01*
X295228Y36344D01*
X338728Y57344D02*
X339128Y58144D01*
X338728Y58944D01*
X339528Y58544D01*
X340328Y58944D01*
X339928Y58144D01*
X340328Y57344D01*
X339528Y57744D01*
X338728Y57344D01*
X330228Y114844D02*
X330628Y115644D01*
X330228Y116444D01*
X331028Y116044D01*
X331828Y116444D01*
X331428Y115644D01*
X331828Y114844D01*
X331028Y115244D01*
X330228Y114844D01*
X337877Y112210D02*
X338277Y113010D01*
X337877Y113810D01*
X338677Y113410D01*
X339477Y113810D01*
X339077Y113010D01*
X339477Y112210D01*
X338677Y112610D01*
X337877Y112210D01*
X322728Y109344D02*
X323128Y110144D01*
X322728Y110944D01*
X323528Y110544D01*
X324328Y110944D01*
X323928Y110144D01*
X324328Y109344D01*
X323528Y109744D01*
X322728Y109344D01*
X323228Y98344D02*
X323628Y99144D01*
X323228Y99944D01*
X324028Y99544D01*
X324828Y99944D01*
X324428Y99144D01*
X324828Y98344D01*
X324028Y98744D01*
X323228Y98344D01*
Y92844D02*
X323628Y93644D01*
X323228Y94444D01*
X324028Y94044D01*
X324828Y94444D01*
X324428Y93644D01*
X324828Y92844D01*
X324028Y93244D01*
X323228Y92844D01*
X338228Y51344D02*
X338628Y52144D01*
X338228Y52944D01*
X339028Y52544D01*
X339828Y52944D01*
X339428Y52144D01*
X339828Y51344D01*
X339028Y51744D01*
X338228Y51344D01*
X323228Y65344D02*
X323628Y66144D01*
X323228Y66944D01*
X324028Y66544D01*
X324828Y66944D01*
X324428Y66144D01*
X324828Y65344D01*
X324028Y65744D01*
X323228Y65344D01*
X338728Y63344D02*
X339128Y64144D01*
X338728Y64944D01*
X339528Y64544D01*
X340328Y64944D01*
X339928Y64144D01*
X340328Y63344D01*
X339528Y63744D01*
X338728Y63344D01*
X334728Y4844D02*
X335128Y5644D01*
X334728Y6444D01*
X335528Y6044D01*
X336328Y6444D01*
X335928Y5644D01*
X336328Y4844D01*
X335528Y5244D01*
X334728Y4844D01*
Y10844D02*
X335128Y11644D01*
X334728Y12444D01*
X335528Y12044D01*
X336328Y12444D01*
X335928Y11644D01*
X336328Y10844D01*
X335528Y11244D01*
X334728Y10844D01*
X349728Y27344D02*
X350128Y28144D01*
X349728Y28944D01*
X350528Y28544D01*
X351328Y28944D01*
X350928Y28144D01*
X351328Y27344D01*
X350528Y27744D01*
X349728Y27344D01*
X143940Y102844D02*
X144340Y103644D01*
X143940Y104444D01*
X144740Y104044D01*
X145540Y104444D01*
X145140Y103644D01*
X145540Y102844D01*
X144740Y103244D01*
X143940Y102844D01*
X58589Y107483D02*
X58989Y108283D01*
X58589Y109083D01*
X59389Y108683D01*
X60189Y109083D01*
X59789Y108283D01*
X60189Y107483D01*
X59389Y107883D01*
X58589Y107483D01*
X59228Y110844D02*
X59628Y111644D01*
X59228Y112444D01*
X60028Y112044D01*
X60828Y112444D01*
X60428Y111644D01*
X60828Y110844D01*
X60028Y111244D01*
X59228Y110844D01*
X61228Y128844D02*
X61628Y129644D01*
X61228Y130444D01*
X62028Y130044D01*
X62828Y130444D01*
X62428Y129644D01*
X62828Y128844D01*
X62028Y129244D01*
X61228Y128844D01*
X31728Y149344D02*
X32128Y150144D01*
X31728Y150944D01*
X32528Y150544D01*
X33328Y150944D01*
X32928Y150144D01*
X33328Y149344D01*
X32528Y149744D01*
X31728Y149344D01*
X17228Y127344D02*
X17628Y128144D01*
X17228Y128944D01*
X18028Y128544D01*
X18828Y128944D01*
X18428Y128144D01*
X18828Y127344D01*
X18028Y127744D01*
X17228Y127344D01*
X47228Y98844D02*
X47628Y99644D01*
X47228Y100444D01*
X48028Y100044D01*
X48828Y100444D01*
X48428Y99644D01*
X48828Y98844D01*
X48028Y99244D01*
X47228Y98844D01*
X61094Y121478D02*
X61494Y122278D01*
X61094Y123078D01*
X61894Y122678D01*
X62694Y123078D01*
X62294Y122278D01*
X62694Y121478D01*
X61894Y121878D01*
X61094Y121478D01*
X46228Y118419D02*
X46628Y119219D01*
X46228Y120019D01*
X47028Y119619D01*
X47828Y120019D01*
X47428Y119219D01*
X47828Y118419D01*
X47028Y118819D01*
X46228Y118419D01*
X56228Y96344D02*
X56628Y97144D01*
X56228Y97944D01*
X57028Y97544D01*
X57828Y97944D01*
X57428Y97144D01*
X57828Y96344D01*
X57028Y96744D01*
X56228Y96344D01*
X58228Y90269D02*
X58628Y91069D01*
X58228Y91869D01*
X59028Y91469D01*
X59828Y91869D01*
X59428Y91069D01*
X59828Y90269D01*
X59028Y90669D01*
X58228Y90269D01*
X50141Y91054D02*
X50541Y91855D01*
X50141Y92655D01*
X50941Y92255D01*
X51741Y92655D01*
X51341Y91855D01*
X51741Y91054D01*
X50941Y91454D01*
X50141Y91054D01*
X56399Y86269D02*
X56799Y87069D01*
X56399Y87869D01*
X57199Y87469D01*
X57999Y87869D01*
X57599Y87069D01*
X57999Y86269D01*
X57199Y86669D01*
X56399Y86269D01*
X48078D02*
X48478Y87069D01*
X48078Y87869D01*
X48878Y87469D01*
X49678Y87869D01*
X49278Y87069D01*
X49678Y86269D01*
X48878Y86669D01*
X48078Y86269D01*
X46117Y75955D02*
X46517Y76755D01*
X46117Y77555D01*
X46917Y77155D01*
X47717Y77555D01*
X47317Y76755D01*
X47717Y75955D01*
X46917Y76355D01*
X46117Y75955D01*
X58728Y151844D02*
X59128Y152644D01*
X58728Y153444D01*
X59528Y153044D01*
X60328Y153444D01*
X59928Y152644D01*
X60328Y151844D01*
X59528Y152244D01*
X58728Y151844D01*
X50728D02*
X51128Y152644D01*
X50728Y153444D01*
X51528Y153044D01*
X52328Y153444D01*
X51928Y152644D01*
X52328Y151844D01*
X51528Y152244D01*
X50728Y151844D01*
X62228D02*
X62628Y152644D01*
X62228Y153444D01*
X63028Y153044D01*
X63828Y153444D01*
X63428Y152644D01*
X63828Y151844D01*
X63028Y152244D01*
X62228Y151844D01*
X79728Y148344D02*
X80128Y149144D01*
X79728Y149944D01*
X80528Y149544D01*
X81328Y149944D01*
X80928Y149144D01*
X81328Y148344D01*
X80528Y148744D01*
X79728Y148344D01*
X123728Y129844D02*
X124128Y130644D01*
X123728Y131444D01*
X124528Y131044D01*
X125328Y131444D01*
X124928Y130644D01*
X125328Y129844D01*
X124528Y130244D01*
X123728Y129844D01*
X112228Y138844D02*
X112628Y139644D01*
X112228Y140444D01*
X113028Y140044D01*
X113828Y140444D01*
X113428Y139644D01*
X113828Y138844D01*
X113028Y139244D01*
X112228Y138844D01*
X130228Y136344D02*
X130628Y137144D01*
X130228Y137944D01*
X131028Y137544D01*
X131828Y137944D01*
X131428Y137144D01*
X131828Y136344D01*
X131028Y136744D01*
X130228Y136344D01*
X33728Y77344D02*
X34128Y78144D01*
X33728Y78944D01*
X34528Y78544D01*
X35328Y78944D01*
X34928Y78144D01*
X35328Y77344D01*
X34528Y77744D01*
X33728Y77344D01*
X38617Y77955D02*
X39017Y78755D01*
X38617Y79555D01*
X39417Y79155D01*
X40217Y79555D01*
X39817Y78755D01*
X40217Y77955D01*
X39417Y78355D01*
X38617Y77955D01*
X38728Y117344D02*
X39128Y118144D01*
X38728Y118944D01*
X39528Y118544D01*
X40328Y118944D01*
X39928Y118144D01*
X40328Y117344D01*
X39528Y117744D01*
X38728Y117344D01*
X58728Y102432D02*
X59128Y103232D01*
X58728Y104032D01*
X59528Y103632D01*
X60328Y104032D01*
X59928Y103232D01*
X60328Y102432D01*
X59528Y102832D01*
X58728Y102432D01*
X56228Y100844D02*
X56628Y101644D01*
X56228Y102444D01*
X57028Y102044D01*
X57828Y102444D01*
X57428Y101644D01*
X57828Y100844D01*
X57028Y101244D01*
X56228Y100844D01*
X26371Y97844D02*
X26771Y98644D01*
X26371Y99444D01*
X27171Y99044D01*
X27971Y99444D01*
X27571Y98644D01*
X27971Y97844D01*
X27171Y98244D01*
X26371Y97844D01*
X28296Y111067D02*
X28696Y111867D01*
X28296Y112667D01*
X29096Y112267D01*
X29896Y112667D01*
X29496Y111867D01*
X29896Y111067D01*
X29096Y111467D01*
X28296Y111067D01*
X34228Y98344D02*
X34628Y99144D01*
X34228Y99944D01*
X35028Y99544D01*
X35828Y99944D01*
X35428Y99144D01*
X35828Y98344D01*
X35028Y98744D01*
X34228Y98344D01*
X44228Y96844D02*
X44628Y97644D01*
X44228Y98444D01*
X45028Y98044D01*
X45828Y98444D01*
X45428Y97644D01*
X45828Y96844D01*
X45028Y97244D01*
X44228Y96844D01*
X40728Y94344D02*
X41128Y95144D01*
X40728Y95944D01*
X41528Y95544D01*
X42328Y95944D01*
X41928Y95144D01*
X42328Y94344D01*
X41528Y94744D01*
X40728Y94344D01*
X30728Y94844D02*
X31128Y95644D01*
X30728Y96444D01*
X31528Y96044D01*
X32328Y96444D01*
X31928Y95644D01*
X32328Y94844D01*
X31528Y95244D01*
X30728Y94844D01*
X31228Y124844D02*
X31628Y125644D01*
X31228Y126444D01*
X32028Y126044D01*
X32828Y126444D01*
X32428Y125644D01*
X32828Y124844D01*
X32028Y125244D01*
X31228Y124844D01*
X21183Y115844D02*
X21583Y116644D01*
X21183Y117444D01*
X21983Y117044D01*
X22783Y117444D01*
X22383Y116644D01*
X22783Y115844D01*
X21983Y116244D01*
X21183Y115844D01*
X36408Y113269D02*
X36808Y114069D01*
X36408Y114869D01*
X37208Y114469D01*
X38008Y114869D01*
X37608Y114069D01*
X38008Y113269D01*
X37208Y113669D01*
X36408Y113269D01*
X147728Y144344D02*
X148128Y145144D01*
X147728Y145944D01*
X148528Y145544D01*
X149328Y145944D01*
X148928Y145144D01*
X149328Y144344D01*
X148528Y144744D01*
X147728Y144344D01*
X143228Y145344D02*
X143628Y146144D01*
X143228Y146944D01*
X144028Y146544D01*
X144828Y146944D01*
X144428Y146144D01*
X144828Y145344D01*
X144028Y145744D01*
X143228Y145344D01*
X103728Y69344D02*
X104128Y70144D01*
X103728Y70944D01*
X104528Y70544D01*
X105328Y70944D01*
X104928Y70144D01*
X105328Y69344D01*
X104528Y69744D01*
X103728Y69344D01*
X117228Y75569D02*
X117628Y76369D01*
X117228Y77169D01*
X118028Y76769D01*
X118828Y77169D01*
X118428Y76369D01*
X118828Y75569D01*
X118028Y75969D01*
X117228Y75569D01*
X97228Y50289D02*
X97628Y51089D01*
X97228Y51889D01*
X98028Y51489D01*
X98828Y51889D01*
X98428Y51089D01*
X98828Y50289D01*
X98028Y50689D01*
X97228Y50289D01*
X49728Y80344D02*
X50128Y81144D01*
X49728Y81944D01*
X50528Y81544D01*
X51328Y81944D01*
X50928Y81144D01*
X51328Y80344D01*
X50528Y80744D01*
X49728Y80344D01*
X42728Y77344D02*
X43128Y78144D01*
X42728Y78944D01*
X43528Y78544D01*
X44328Y78944D01*
X43928Y78144D01*
X44328Y77344D01*
X43528Y77744D01*
X42728Y77344D01*
X57228Y66919D02*
X57628Y67719D01*
X57228Y68519D01*
X58028Y68119D01*
X58828Y68519D01*
X58428Y67719D01*
X58828Y66919D01*
X58028Y67319D01*
X57228Y66919D01*
X103228Y24844D02*
X103628Y25644D01*
X103228Y26444D01*
X104028Y26044D01*
X104828Y26444D01*
X104428Y25644D01*
X104828Y24844D01*
X104028Y25244D01*
X103228Y24844D01*
X89728Y44844D02*
X90128Y45644D01*
X89728Y46444D01*
X90528Y46044D01*
X91328Y46444D01*
X90928Y45644D01*
X91328Y44844D01*
X90528Y45244D01*
X89728Y44844D01*
X107228Y34844D02*
X107628Y35644D01*
X107228Y36444D01*
X108028Y36044D01*
X108828Y36444D01*
X108428Y35644D01*
X108828Y34844D01*
X108028Y35244D01*
X107228Y34844D01*
X120728Y54344D02*
X121128Y55144D01*
X120728Y55944D01*
X121528Y55544D01*
X122328Y55944D01*
X121928Y55144D01*
X122328Y54344D01*
X121528Y54744D01*
X120728Y54344D01*
X123228Y13344D02*
X123628Y14144D01*
X123228Y14944D01*
X124028Y14544D01*
X124828Y14944D01*
X124428Y14144D01*
X124828Y13344D01*
X124028Y13744D01*
X123228Y13344D01*
X132728D02*
X133128Y14144D01*
X132728Y14944D01*
X133528Y14544D01*
X134328Y14944D01*
X133928Y14144D01*
X134328Y13344D01*
X133528Y13744D01*
X132728Y13344D01*
X118728D02*
X119128Y14144D01*
X118728Y14944D01*
X119528Y14544D01*
X120328Y14944D01*
X119928Y14144D01*
X120328Y13344D01*
X119528Y13744D01*
X118728Y13344D01*
X141728Y124344D02*
X142128Y125144D01*
X141728Y125944D01*
X142528Y125544D01*
X143328Y125944D01*
X142928Y125144D01*
X143328Y124344D01*
X142528Y124744D01*
X141728Y124344D01*
X55228Y56844D02*
X55628Y57644D01*
X55228Y58444D01*
X56028Y58044D01*
X56828Y58444D01*
X56428Y57644D01*
X56828Y56844D01*
X56028Y57244D01*
X55228Y56844D01*
X301728Y113344D02*
X302128Y114144D01*
X301728Y114944D01*
X302528Y114544D01*
X303328Y114944D01*
X302928Y114144D01*
X303328Y113344D01*
X302528Y113744D01*
X301728Y113344D01*
X107228Y92344D02*
X107628Y93144D01*
X107228Y93944D01*
X108028Y93544D01*
X108828Y93944D01*
X108428Y93144D01*
X108828Y92344D01*
X108028Y92744D01*
X107228Y92344D01*
X86228Y98344D02*
X86628Y99144D01*
X86228Y99944D01*
X87028Y99544D01*
X87828Y99944D01*
X87428Y99144D01*
X87828Y98344D01*
X87028Y98744D01*
X86228Y98344D01*
X70728Y94344D02*
X71128Y95144D01*
X70728Y95944D01*
X71528Y95544D01*
X72328Y95944D01*
X71928Y95144D01*
X72328Y94344D01*
X71528Y94744D01*
X70728Y94344D01*
X70228Y73344D02*
X70628Y74144D01*
X70228Y74944D01*
X71028Y74544D01*
X71828Y74944D01*
X71428Y74144D01*
X71828Y73344D01*
X71028Y73744D01*
X70228Y73344D01*
X96228Y62844D02*
X96628Y63644D01*
X96228Y64444D01*
X97028Y64044D01*
X97828Y64444D01*
X97428Y63644D01*
X97828Y62844D01*
X97028Y63244D01*
X96228Y62844D01*
X109228Y63344D02*
X109628Y64144D01*
X109228Y64944D01*
X110028Y64544D01*
X110828Y64944D01*
X110428Y64144D01*
X110828Y63344D01*
X110028Y63744D01*
X109228Y63344D01*
X108728Y84344D02*
X109128Y85144D01*
X108728Y85944D01*
X109528Y85544D01*
X110328Y85944D01*
X109928Y85144D01*
X110328Y84344D01*
X109528Y84744D01*
X108728Y84344D01*
X283728Y86844D02*
X284128Y87644D01*
X283728Y88444D01*
X284528Y88044D01*
X285328Y88444D01*
X284928Y87644D01*
X285328Y86844D01*
X284528Y87244D01*
X283728Y86844D01*
X146228Y115844D02*
X146628Y116644D01*
X146228Y117444D01*
X147028Y117044D01*
X147828Y117444D01*
X147428Y116644D01*
X147828Y115844D01*
X147028Y116244D01*
X146228Y115844D01*
X212228Y127344D02*
X212628Y128144D01*
X212228Y128944D01*
X213028Y128544D01*
X213828Y128944D01*
X213428Y128144D01*
X213828Y127344D01*
X213028Y127744D01*
X212228Y127344D01*
X248228Y60844D02*
X248628Y61644D01*
X248228Y62444D01*
X249028Y62044D01*
X249828Y62444D01*
X249428Y61644D01*
X249828Y60844D01*
X249028Y61244D01*
X248228Y60844D01*
X174228Y106844D02*
X174628Y107644D01*
X174228Y108444D01*
X175028Y108044D01*
X175828Y108444D01*
X175428Y107644D01*
X175828Y106844D01*
X175028Y107244D01*
X174228Y106844D01*
X195228Y132844D02*
X195628Y133644D01*
X195228Y134444D01*
X196028Y134044D01*
X196828Y134444D01*
X196428Y133644D01*
X196828Y132844D01*
X196028Y133244D01*
X195228Y132844D01*
X338327Y32344D02*
X338727Y33144D01*
X338327Y33944D01*
X339127Y33544D01*
X339927Y33944D01*
X339527Y33144D01*
X339927Y32344D01*
X339127Y32744D01*
X338327Y32344D01*
X338228Y73844D02*
X338628Y74644D01*
X338228Y75444D01*
X339028Y75044D01*
X339828Y75444D01*
X339428Y74644D01*
X339828Y73844D01*
X339028Y74244D01*
X338228Y73844D01*
Y87344D02*
X338628Y88144D01*
X338228Y88944D01*
X339028Y88544D01*
X339828Y88944D01*
X339428Y88144D01*
X339828Y87344D01*
X339028Y87744D01*
X338228Y87344D01*
X195228Y148844D02*
X195628Y149644D01*
X195228Y150444D01*
X196028Y150044D01*
X196828Y150444D01*
X196428Y149644D01*
X196828Y148844D01*
X196028Y149244D01*
X195228Y148844D01*
X97728Y130344D02*
X98128Y131144D01*
X97728Y131944D01*
X98528Y131544D01*
X99328Y131944D01*
X98928Y131144D01*
X99328Y130344D01*
X98528Y130744D01*
X97728Y130344D01*
X93728Y129344D02*
X94128Y130144D01*
X93728Y130944D01*
X94528Y130544D01*
X95328Y130944D01*
X94928Y130144D01*
X95328Y129344D01*
X94528Y129744D01*
X93728Y129344D01*
X117728Y93344D02*
X118128Y94144D01*
X117728Y94944D01*
X118528Y94544D01*
X119328Y94944D01*
X118928Y94144D01*
X119328Y93344D01*
X118528Y93744D01*
X117728Y93344D01*
X55728Y60844D02*
X56128Y61644D01*
X55728Y62444D01*
X56528Y62044D01*
X57328Y62444D01*
X56928Y61644D01*
X57328Y60844D01*
X56528Y61244D01*
X55728Y60844D01*
X58228Y98344D02*
X58628Y99144D01*
X58228Y99944D01*
X59028Y99544D01*
X59828Y99944D01*
X59428Y99144D01*
X59828Y98344D01*
X59028Y98744D01*
X58228Y98344D01*
X79728Y119844D02*
X80128Y120644D01*
X79728Y121444D01*
X80528Y121044D01*
X81328Y121444D01*
X80928Y120644D01*
X81328Y119844D01*
X80528Y120244D01*
X79728Y119844D01*
X76228Y122344D02*
X76628Y123144D01*
X76228Y123944D01*
X77028Y123544D01*
X77828Y123944D01*
X77428Y123144D01*
X77828Y122344D01*
X77028Y122744D01*
X76228Y122344D01*
X89728Y109344D02*
X90128Y110144D01*
X89728Y110944D01*
X90528Y110544D01*
X91328Y110944D01*
X90928Y110144D01*
X91328Y109344D01*
X90528Y109744D01*
X89728Y109344D01*
X86228D02*
X86628Y110144D01*
X86228Y110944D01*
X87028Y110544D01*
X87828Y110944D01*
X87428Y110144D01*
X87828Y109344D01*
X87028Y109744D01*
X86228Y109344D01*
X82228Y108344D02*
X82628Y109144D01*
X82228Y109944D01*
X83028Y109544D01*
X83828Y109944D01*
X83428Y109144D01*
X83828Y108344D01*
X83028Y108744D01*
X82228Y108344D01*
X70228Y108844D02*
X70628Y109644D01*
X70228Y110444D01*
X71028Y110044D01*
X71828Y110444D01*
X71428Y109644D01*
X71828Y108844D01*
X71028Y109244D01*
X70228Y108844D01*
X74228D02*
X74628Y109644D01*
X74228Y110444D01*
X75028Y110044D01*
X75828Y110444D01*
X75428Y109644D01*
X75828Y108844D01*
X75028Y109244D01*
X74228Y108844D01*
X117228Y84844D02*
X117628Y85644D01*
X117228Y86444D01*
X118028Y86044D01*
X118828Y86444D01*
X118428Y85644D01*
X118828Y84844D01*
X118028Y85244D01*
X117228Y84844D01*
X81728Y60344D02*
X82128Y61144D01*
X81728Y61944D01*
X82528Y61544D01*
X83328Y61944D01*
X82928Y61144D01*
X83328Y60344D01*
X82528Y60744D01*
X81728Y60344D01*
X73728Y49344D02*
X74128Y50144D01*
X73728Y50944D01*
X74528Y50544D01*
X75328Y50944D01*
X74928Y50144D01*
X75328Y49344D01*
X74528Y49744D01*
X73728Y49344D01*
X91728D02*
X92128Y50144D01*
X91728Y50944D01*
X92528Y50544D01*
X93328Y50944D01*
X92928Y50144D01*
X93328Y49344D01*
X92528Y49744D01*
X91728Y49344D01*
X130228Y82344D02*
X130628Y83144D01*
X130228Y83944D01*
X131028Y83544D01*
X131828Y83944D01*
X131428Y83144D01*
X131828Y82344D01*
X131028Y82744D01*
X130228Y82344D01*
X129228Y75844D02*
X129628Y76644D01*
X129228Y77444D01*
X130028Y77044D01*
X130828Y77444D01*
X130428Y76644D01*
X130828Y75844D01*
X130028Y76244D01*
X129228Y75844D01*
X117228Y80844D02*
X117628Y81644D01*
X117228Y82444D01*
X118028Y82044D01*
X118828Y82444D01*
X118428Y81644D01*
X118828Y80844D01*
X118028Y81244D01*
X117228Y80844D01*
X117728Y89344D02*
X118128Y90144D01*
X117728Y90944D01*
X118528Y90544D01*
X119328Y90944D01*
X118928Y90144D01*
X119328Y89344D01*
X118528Y89744D01*
X117728Y89344D01*
Y105844D02*
X118128Y106644D01*
X117728Y107444D01*
X118528Y107044D01*
X119328Y107444D01*
X118928Y106644D01*
X119328Y105844D01*
X118528Y106244D01*
X117728Y105844D01*
X114728Y108844D02*
X115128Y109644D01*
X114728Y110444D01*
X115528Y110044D01*
X116328Y110444D01*
X115928Y109644D01*
X116328Y108844D01*
X115528Y109244D01*
X114728Y108844D01*
X117728Y99844D02*
X118128Y100644D01*
X117728Y101444D01*
X118528Y101044D01*
X119328Y101444D01*
X118928Y100644D01*
X119328Y99844D01*
X118528Y100244D01*
X117728Y99844D01*
X117228Y96344D02*
X117628Y97144D01*
X117228Y97944D01*
X118028Y97544D01*
X118828Y97944D01*
X118428Y97144D01*
X118828Y96344D01*
X118028Y96744D01*
X117228Y96344D01*
X56728Y-5156D02*
X57128Y-4356D01*
X56728Y-3556D01*
X57528Y-3956D01*
X58328Y-3556D01*
X57928Y-4356D01*
X58328Y-5156D01*
X57528Y-4756D01*
X56728Y-5156D01*
X96728Y23344D02*
X97128Y24144D01*
X96728Y24944D01*
X97528Y24544D01*
X98328Y24944D01*
X97928Y24144D01*
X98328Y23344D01*
X97528Y23744D01*
X96728Y23344D01*
X56728Y104844D02*
X57128Y105644D01*
X56728Y106444D01*
X57528Y106044D01*
X58328Y106444D01*
X57928Y105644D01*
X58328Y104844D01*
X57528Y105244D01*
X56728Y104844D01*
X108228Y88344D02*
X108628Y89144D01*
X108228Y89944D01*
X109028Y89544D01*
X109828Y89944D01*
X109428Y89144D01*
X109828Y88344D01*
X109028Y88744D01*
X108228Y88344D01*
X171339Y98455D02*
X171739Y99255D01*
X171339Y100055D01*
X172139Y99655D01*
X172939Y100055D01*
X172539Y99255D01*
X172939Y98455D01*
X172139Y98855D01*
X171339Y98455D01*
X49228Y23844D02*
X49628Y24644D01*
X49228Y25444D01*
X50028Y25044D01*
X50828Y25444D01*
X50428Y24644D01*
X50828Y23844D01*
X50028Y24244D01*
X49228Y23844D01*
X115236Y101836D02*
X115636Y102636D01*
X115236Y103436D01*
X116036Y103036D01*
X116836Y103436D01*
X116436Y102636D01*
X116836Y101836D01*
X116036Y102236D01*
X115236Y101836D01*
X130228Y86344D02*
X130628Y87144D01*
X130228Y87944D01*
X131028Y87544D01*
X131828Y87944D01*
X131428Y87144D01*
X131828Y86344D01*
X131028Y86744D01*
X130228Y86344D01*
Y89344D02*
X130628Y90144D01*
X130228Y90944D01*
X131028Y90544D01*
X131828Y90944D01*
X131428Y90144D01*
X131828Y89344D01*
X131028Y89744D01*
X130228Y89344D01*
X130728Y78844D02*
X131128Y79644D01*
X130728Y80444D01*
X131528Y80044D01*
X132328Y80444D01*
X131928Y79644D01*
X132328Y78844D01*
X131528Y79244D01*
X130728Y78844D01*
X134728Y91344D02*
X135128Y92144D01*
X134728Y92944D01*
X135528Y92544D01*
X136328Y92944D01*
X135928Y92144D01*
X136328Y91344D01*
X135528Y91744D01*
X134728Y91344D01*
X148263Y80925D02*
X148663Y81725D01*
X148263Y82525D01*
X149063Y82125D01*
X149863Y82525D01*
X149463Y81725D01*
X149863Y80925D01*
X149063Y81325D01*
X148263Y80925D01*
X76202Y104143D02*
X76602Y104943D01*
X76202Y105743D01*
X77002Y105343D01*
X77802Y105743D01*
X77402Y104943D01*
X77802Y104143D01*
X77002Y104543D01*
X76202Y104143D01*
X54228Y112844D02*
X54628Y113644D01*
X54228Y114444D01*
X55028Y114044D01*
X55828Y114444D01*
X55428Y113644D01*
X55828Y112844D01*
X55028Y113244D01*
X54228Y112844D01*
X176228Y92844D02*
X176628Y93644D01*
X176228Y94444D01*
X177028Y94044D01*
X177828Y94444D01*
X177428Y93644D01*
X177828Y92844D01*
X177028Y93244D01*
X176228Y92844D01*
X137431Y70419D02*
X137831Y71219D01*
X137431Y72019D01*
X138231Y71619D01*
X139031Y72019D01*
X138631Y71219D01*
X139031Y70419D01*
X138231Y70819D01*
X137431Y70419D01*
X185366Y131367D02*
X185766Y132167D01*
X185366Y132967D01*
X186166Y132567D01*
X186966Y132967D01*
X186566Y132167D01*
X186966Y131367D01*
X186166Y131767D01*
X185366Y131367D01*
X26330Y136844D02*
X26730Y137644D01*
X26330Y138444D01*
X27130Y138044D01*
X27930Y138444D01*
X27530Y137644D01*
X27930Y136844D01*
X27130Y137244D01*
X26330Y136844D01*
X338228Y144344D02*
X338628Y145144D01*
X338228Y145944D01*
X339028Y145544D01*
X339828Y145944D01*
X339428Y145144D01*
X339828Y144344D01*
X339028Y144744D01*
X338228Y144344D01*
X120116Y51065D02*
X120516Y51866D01*
X120116Y52666D01*
X120916Y52266D01*
X121716Y52666D01*
X121316Y51866D01*
X121716Y51065D01*
X120916Y51465D01*
X120116Y51065D01*
X192228Y107844D02*
X192628Y108644D01*
X192228Y109444D01*
X193028Y109044D01*
X193828Y109444D01*
X193428Y108644D01*
X193828Y107844D01*
X193028Y108244D01*
X192228Y107844D01*
X129228Y106344D02*
X129628Y107144D01*
X129228Y107944D01*
X130028Y107544D01*
X130828Y107944D01*
X130428Y107144D01*
X130828Y106344D01*
X130028Y106744D01*
X129228Y106344D01*
X172228Y73844D02*
X172628Y74644D01*
X172228Y75444D01*
X173028Y75044D01*
X173828Y75444D01*
X173428Y74644D01*
X173828Y73844D01*
X173028Y74244D01*
X172228Y73844D01*
X37228Y-7656D02*
X37628Y-6856D01*
X37228Y-6056D01*
X38028Y-6456D01*
X38828Y-6056D01*
X38428Y-6856D01*
X38828Y-7656D01*
X38028Y-7256D01*
X37228Y-7656D01*
X72228Y121344D02*
X72628Y122144D01*
X72228Y122944D01*
X73028Y122544D01*
X73828Y122944D01*
X73428Y122144D01*
X73828Y121344D01*
X73028Y121744D01*
X72228Y121344D01*
X123228Y113344D02*
X123628Y114144D01*
X123228Y114944D01*
X124028Y114544D01*
X124828Y114944D01*
X124428Y114144D01*
X124828Y113344D01*
X124028Y113744D01*
X123228Y113344D01*
X163296Y122624D02*
X163696Y123424D01*
X163296Y124224D01*
X164096Y123824D01*
X164896Y124224D01*
X164496Y123424D01*
X164896Y122624D01*
X164096Y123024D01*
X163296Y122624D01*
X116728Y-5656D02*
X117128Y-4856D01*
X116728Y-4056D01*
X117528Y-4456D01*
X118328Y-4056D01*
X117928Y-4856D01*
X118328Y-5656D01*
X117528Y-5256D01*
X116728Y-5656D01*
X19128Y87744D02*
Y87344D01*
X19928D01*
Y87744D01*
X20328D01*
Y88544D01*
X19928D01*
Y88944D01*
X19128D01*
Y88544D01*
X18728D01*
Y87744D01*
X19128D01*
X71228Y65311D02*
X71628Y66111D01*
X71228Y66911D01*
X72028Y66511D01*
X72828Y66911D01*
X72428Y66111D01*
X72828Y65311D01*
X72028Y65711D01*
X71228Y65311D01*
X115208Y140084D02*
X115608Y140884D01*
X115208Y141684D01*
X116008Y141284D01*
X116808Y141684D01*
X116408Y140884D01*
X116808Y140084D01*
X116008Y140484D01*
X115208Y140084D01*
X123728Y139844D02*
X124128Y140644D01*
X123728Y141444D01*
X124528Y141044D01*
X125328Y141444D01*
X124928Y140644D01*
X125328Y139844D01*
X124528Y140244D01*
X123728Y139844D01*
X93083Y23177D02*
X93483Y23977D01*
X93083Y24777D01*
X93883Y24377D01*
X94683Y24777D01*
X94283Y23977D01*
X94683Y23177D01*
X93883Y23577D01*
X93083Y23177D01*
X100728Y19844D02*
X101128Y20644D01*
X100728Y21444D01*
X101528Y21044D01*
X102328Y21444D01*
X101928Y20644D01*
X102328Y19844D01*
X101528Y20244D01*
X100728Y19844D01*
X167228Y83844D02*
X167628Y84644D01*
X167228Y85444D01*
X168028Y85044D01*
X168828Y85444D01*
X168428Y84644D01*
X168828Y83844D01*
X168028Y84244D01*
X167228Y83844D01*
X155228Y5844D02*
X155628Y6644D01*
X155228Y7444D01*
X156028Y7044D01*
X156828Y7444D01*
X156428Y6644D01*
X156828Y5844D01*
X156028Y6244D01*
X155228Y5844D01*
X124228Y46559D02*
X124628Y47359D01*
X124228Y48159D01*
X125028Y47759D01*
X125828Y48159D01*
X125428Y47359D01*
X125828Y46559D01*
X125028Y46959D01*
X124228Y46559D01*
X148728Y18344D02*
X149128Y19144D01*
X148728Y19944D01*
X149528Y19544D01*
X150328Y19944D01*
X149928Y19144D01*
X150328Y18344D01*
X149528Y18744D01*
X148728Y18344D01*
X40890Y14366D02*
X41290Y15166D01*
X40890Y15966D01*
X41690Y15566D01*
X42490Y15966D01*
X42090Y15166D01*
X42490Y14366D01*
X41690Y14766D01*
X40890Y14366D01*
X43728Y15844D02*
X44128Y16644D01*
X43728Y17444D01*
X44528Y17044D01*
X45328Y17444D01*
X44928Y16644D01*
X45328Y15844D01*
X44528Y16244D01*
X43728Y15844D01*
X175228Y5344D02*
X175628Y6144D01*
X175228Y6944D01*
X176028Y6544D01*
X176828Y6944D01*
X176428Y6144D01*
X176828Y5344D01*
X176028Y5744D01*
X175228Y5344D01*
X56728Y3344D02*
X57128Y4144D01*
X56728Y4944D01*
X57528Y4544D01*
X58328Y4944D01*
X57928Y4144D01*
X58328Y3344D01*
X57528Y3744D01*
X56728Y3344D01*
X61228Y112844D02*
X61628Y113644D01*
X61228Y114444D01*
X62028Y114044D01*
X62828Y114444D01*
X62428Y113644D01*
X62828Y112844D01*
X62028Y113244D01*
X61228Y112844D01*
X41228Y122344D02*
X41628Y123144D01*
X41228Y123944D01*
X42028Y123544D01*
X42828Y123944D01*
X42428Y123144D01*
X42828Y122344D01*
X42028Y122744D01*
X41228Y122344D01*
X156128Y151744D02*
Y151344D01*
X156928D01*
Y151744D01*
X157328D01*
Y152544D01*
X156928D01*
Y152944D01*
X156128D01*
Y152544D01*
X155728D01*
Y151744D01*
X156128D01*
X88728Y128344D02*
X89128Y129144D01*
X88728Y129944D01*
X89528Y129544D01*
X90328Y129944D01*
X89928Y129144D01*
X90328Y128344D01*
X89528Y128744D01*
X88728Y128344D01*
X186728Y81844D02*
X187128Y82644D01*
X186728Y83444D01*
X187528Y83044D01*
X188328Y83444D01*
X187928Y82644D01*
X188328Y81844D01*
X187528Y82244D01*
X186728Y81844D01*
X147228Y-1156D02*
X147628Y-356D01*
X147228Y444D01*
X148028Y44D01*
X148828Y444D01*
X148428Y-356D01*
X148828Y-1156D01*
X148028Y-756D01*
X147228Y-1156D01*
X39728Y-656D02*
X40128Y144D01*
X39728Y944D01*
X40528Y544D01*
X41328Y944D01*
X40928Y144D01*
X41328Y-656D01*
X40528Y-256D01*
X39728Y-656D01*
X218728Y120844D02*
X219128Y121644D01*
X218728Y122444D01*
X219528Y122044D01*
X220328Y122444D01*
X219928Y121644D01*
X220328Y120844D01*
X219528Y121244D01*
X218728Y120844D01*
X208728Y99344D02*
X209128Y100144D01*
X208728Y100944D01*
X209528Y100544D01*
X210328Y100944D01*
X209928Y100144D01*
X210328Y99344D01*
X209528Y99744D01*
X208728Y99344D01*
X200228Y53344D02*
X200628Y54144D01*
X200228Y54944D01*
X201028Y54544D01*
X201828Y54944D01*
X201428Y54144D01*
X201828Y53344D01*
X201028Y53744D01*
X200228Y53344D01*
X334228Y130844D02*
X334628Y131644D01*
X334228Y132444D01*
X335028Y132044D01*
X335828Y132444D01*
X335428Y131644D01*
X335828Y130844D01*
X335028Y131244D01*
X334228Y130844D01*
X337728Y129844D02*
X338128Y130644D01*
X337728Y131444D01*
X338528Y131044D01*
X339328Y131444D01*
X338928Y130644D01*
X339328Y129844D01*
X338528Y130244D01*
X337728Y129844D01*
X38830Y143344D02*
X39230Y144144D01*
X38830Y144944D01*
X39630Y144544D01*
X40430Y144944D01*
X40030Y144144D01*
X40430Y143344D01*
X39630Y143744D01*
X38830Y143344D01*
X178228Y115344D02*
X178628Y116144D01*
X178228Y116944D01*
X179028Y116544D01*
X179828Y116944D01*
X179428Y116144D01*
X179828Y115344D01*
X179028Y115744D01*
X178228Y115344D01*
X148228Y119844D02*
X148628Y120644D01*
X148228Y121444D01*
X149028Y121044D01*
X149828Y121444D01*
X149428Y120644D01*
X149828Y119844D01*
X149028Y120244D01*
X148228Y119844D01*
X202728Y144344D02*
X203128Y145144D01*
X202728Y145944D01*
X203528Y145544D01*
X204328Y145944D01*
X203928Y145144D01*
X204328Y144344D01*
X203528Y144744D01*
X202728Y144344D01*
X284728Y64844D02*
X285128Y65644D01*
X284728Y66444D01*
X285528Y66044D01*
X286328Y66444D01*
X285928Y65644D01*
X286328Y64844D01*
X285528Y65244D01*
X284728Y64844D01*
X310728Y100844D02*
X311128Y101644D01*
X310728Y102444D01*
X311528Y102044D01*
X312328Y102444D01*
X311928Y101644D01*
X312328Y100844D01*
X311528Y101244D01*
X310728Y100844D01*
X339228Y25994D02*
X339628Y26794D01*
X339228Y27594D01*
X340028Y27194D01*
X340828Y27594D01*
X340428Y26794D01*
X340828Y25994D01*
X340028Y26394D01*
X339228Y25994D01*
X293628Y87744D02*
Y87344D01*
X294428D01*
Y87744D01*
X294828D01*
Y88544D01*
X294428D01*
Y88944D01*
X293628D01*
Y88544D01*
X293228D01*
Y87744D01*
X293628D01*
X295628Y78785D02*
Y78385D01*
X296428D01*
Y78785D01*
X296828D01*
Y79585D01*
X296428D01*
Y79985D01*
X295628D01*
Y79585D01*
X295228D01*
Y78785D01*
X295628D01*
X241128Y138785D02*
Y138385D01*
X241928D01*
Y138785D01*
X242328D01*
Y139585D01*
X241928D01*
Y139985D01*
X241128D01*
Y139585D01*
X240728D01*
Y138785D01*
X241128D01*
X218228Y115019D02*
X218628Y115819D01*
X218228Y116619D01*
X219028Y116219D01*
X219828Y116619D01*
X219428Y115819D01*
X219828Y115019D01*
X219028Y115419D01*
X218228Y115019D01*
X234229Y126691D02*
X234629Y127491D01*
X234229Y128291D01*
X235029Y127891D01*
X235829Y128291D01*
X235429Y127491D01*
X235829Y126691D01*
X235029Y127091D01*
X234229Y126691D01*
X237628Y94744D02*
Y94344D01*
X238428D01*
Y94744D01*
X238828D01*
Y95544D01*
X238428D01*
Y95944D01*
X237628D01*
Y95544D01*
X237228D01*
Y94744D01*
X237628D01*
X143228Y70356D02*
X143628Y71156D01*
X143228Y71956D01*
X144028Y71556D01*
X144828Y71956D01*
X144428Y71156D01*
X144828Y70356D01*
X144028Y70756D01*
X143228Y70356D01*
X139228Y63419D02*
X139628Y64219D01*
X139228Y65019D01*
X140028Y64619D01*
X140828Y65019D01*
X140428Y64219D01*
X140828Y63419D01*
X140028Y63819D01*
X139228Y63419D01*
X143728Y63134D02*
X144128Y63934D01*
X143728Y64734D01*
X144528Y64334D01*
X145328Y64734D01*
X144928Y63934D01*
X145328Y63134D01*
X144528Y63534D01*
X143728Y63134D01*
X132228Y67844D02*
X132628Y68644D01*
X132228Y69444D01*
X133028Y69044D01*
X133828Y69444D01*
X133428Y68644D01*
X133828Y67844D01*
X133028Y68244D01*
X132228Y67844D01*
X174228Y89844D02*
X174628Y90644D01*
X174228Y91444D01*
X175028Y91044D01*
X175828Y91444D01*
X175428Y90644D01*
X175828Y89844D01*
X175028Y90244D01*
X174228Y89844D01*
X169228Y73844D02*
X169628Y74644D01*
X169228Y75444D01*
X170028Y75044D01*
X170828Y75444D01*
X170428Y74644D01*
X170828Y73844D01*
X170028Y74244D01*
X169228Y73844D01*
X132728Y62344D02*
X133128Y63144D01*
X132728Y63944D01*
X133528Y63544D01*
X134328Y63944D01*
X133928Y63144D01*
X134328Y62344D01*
X133528Y62744D01*
X132728Y62344D01*
X128728Y61844D02*
X129128Y62644D01*
X128728Y63444D01*
X129528Y63044D01*
X130328Y63444D01*
X129928Y62644D01*
X130328Y61844D01*
X129528Y62244D01*
X128728Y61844D01*
X170728Y90344D02*
X171128Y91144D01*
X170728Y91944D01*
X171528Y91544D01*
X172328Y91944D01*
X171928Y91144D01*
X172328Y90344D01*
X171528Y90744D01*
X170728Y90344D01*
X151233Y90307D02*
X151633Y91107D01*
X151233Y91907D01*
X152033Y91507D01*
X152833Y91907D01*
X152433Y91107D01*
X152833Y90307D01*
X152033Y90707D01*
X151233Y90307D01*
X67228Y112844D02*
X67628Y113644D01*
X67228Y114444D01*
X68028Y114044D01*
X68828Y114444D01*
X68428Y113644D01*
X68828Y112844D01*
X68028Y113244D01*
X67228Y112844D01*
X57807Y64145D02*
X58207Y64945D01*
X57807Y65745D01*
X58607Y65345D01*
X59407Y65745D01*
X59007Y64945D01*
X59407Y64145D01*
X58607Y64545D01*
X57807Y64145D01*
X71728Y59844D02*
X72128Y60644D01*
X71728Y61444D01*
X72528Y61044D01*
X73328Y61444D01*
X72928Y60644D01*
X73328Y59844D01*
X72528Y60244D01*
X71728Y59844D01*
X57677Y117168D02*
X58077Y117968D01*
X57677Y118768D01*
X58477Y118368D01*
X59277Y118768D01*
X58877Y117968D01*
X59277Y117168D01*
X58477Y117568D01*
X57677Y117168D01*
X292728Y16844D02*
X293128Y17644D01*
X292728Y18444D01*
X293528Y18044D01*
X294328Y18444D01*
X293928Y17644D01*
X294328Y16844D01*
X293528Y17244D01*
X292728Y16844D01*
X30228Y3344D02*
X30628Y4144D01*
X30228Y4944D01*
X31028Y4544D01*
X31828Y4944D01*
X31428Y4144D01*
X31828Y3344D01*
X31028Y3744D01*
X30228Y3344D01*
X149728Y60844D02*
X150128Y61644D01*
X149728Y62444D01*
X150528Y62044D01*
X151328Y62444D01*
X150928Y61644D01*
X151328Y60844D01*
X150528Y61244D01*
X149728Y60844D01*
X322228Y17344D02*
X322628Y18144D01*
X322228Y18944D01*
X323028Y18544D01*
X323828Y18944D01*
X323428Y18144D01*
X323828Y17344D01*
X323028Y17744D01*
X322228Y17344D01*
X317288Y19816D02*
X317688Y20616D01*
X317288Y21416D01*
X318088Y21016D01*
X318888Y21416D01*
X318488Y20616D01*
X318888Y19816D01*
X318088Y20216D01*
X317288Y19816D01*
X149728Y52919D02*
X150128Y53719D01*
X149728Y54519D01*
X150528Y54119D01*
X151328Y54519D01*
X150928Y53719D01*
X151328Y52919D01*
X150528Y53319D01*
X149728Y52919D01*
X143550D02*
X143950Y53719D01*
X143550Y54519D01*
X144350Y54119D01*
X145150Y54519D01*
X144750Y53719D01*
X145150Y52919D01*
X144350Y53319D01*
X143550Y52919D01*
X139228Y52634D02*
X139628Y53434D01*
X139228Y54234D01*
X140028Y53834D01*
X140828Y54234D01*
X140428Y53434D01*
X140828Y52634D01*
X140028Y53034D01*
X139228Y52634D01*
X312405Y21684D02*
X312805Y22484D01*
X312405Y23284D01*
X313205Y22884D01*
X314005Y23284D01*
X313605Y22484D01*
X314005Y21684D01*
X313205Y22084D01*
X312405Y21684D01*
X320844Y11437D02*
X321244Y12237D01*
X320844Y13037D01*
X321644Y12637D01*
X322444Y13037D01*
X322044Y12237D01*
X322444Y11437D01*
X321644Y11837D01*
X320844Y11437D01*
X312728Y16844D02*
X313128Y17644D01*
X312728Y18444D01*
X313528Y18044D01*
X314328Y18444D01*
X313928Y17644D01*
X314328Y16844D01*
X313528Y17244D01*
X312728Y16844D01*
X321990Y6253D02*
X322390Y7053D01*
X321990Y7853D01*
X322790Y7453D01*
X323590Y7853D01*
X323190Y7053D01*
X323590Y6253D01*
X322790Y6653D01*
X321990Y6253D01*
X305412Y20238D02*
X305812Y21038D01*
X305412Y21838D01*
X306212Y21438D01*
X307012Y21838D01*
X306612Y21038D01*
X307012Y20238D01*
X306212Y20638D01*
X305412Y20238D01*
X300228Y21844D02*
X300628Y22644D01*
X300228Y23444D01*
X301028Y23044D01*
X301828Y23444D01*
X301428Y22644D01*
X301828Y21844D01*
X301028Y22244D01*
X300228Y21844D01*
X320728Y844D02*
X321128Y1644D01*
X320728Y2444D01*
X321528Y2044D01*
X322328Y2444D01*
X321928Y1644D01*
X322328Y844D01*
X321528Y1244D01*
X320728Y844D01*
X277728Y142344D02*
X278128Y143144D01*
X277728Y143944D01*
X278528Y143544D01*
X279328Y143944D01*
X278928Y143144D01*
X279328Y142344D01*
X278528Y142744D01*
X277728Y142344D01*
X278228Y145966D02*
X278628Y146766D01*
X278228Y147566D01*
X279028Y147166D01*
X279828Y147566D01*
X279428Y146766D01*
X279828Y145966D01*
X279028Y146366D01*
X278228Y145966D01*
X244228Y64844D02*
X244628Y65644D01*
X244228Y66444D01*
X245028Y66044D01*
X245828Y66444D01*
X245428Y65644D01*
X245828Y64844D01*
X245028Y65244D01*
X244228Y64844D01*
X228228Y151344D02*
X228628Y152144D01*
X228228Y152944D01*
X229028Y152544D01*
X229828Y152944D01*
X229428Y152144D01*
X229828Y151344D01*
X229028Y151744D01*
X228228Y151344D01*
X136728Y-4156D02*
X137128Y-3356D01*
X136728Y-2556D01*
X137528Y-2956D01*
X138328Y-2556D01*
X137928Y-3356D01*
X138328Y-4156D01*
X137528Y-3756D01*
X136728Y-4156D01*
X122228D02*
X122628Y-3356D01*
X122228Y-2556D01*
X123028Y-2956D01*
X123828Y-2556D01*
X123428Y-3356D01*
X123828Y-4156D01*
X123028Y-3756D01*
X122228Y-4156D01*
X126728D02*
X127128Y-3356D01*
X126728Y-2556D01*
X127528Y-2956D01*
X128328Y-2556D01*
X127928Y-3356D01*
X128328Y-4156D01*
X127528Y-3756D01*
X126728Y-4156D01*
X299128Y134244D02*
Y133844D01*
X299928D01*
Y134244D01*
X300328D01*
Y135044D01*
X299928D01*
Y135444D01*
X299128D01*
Y135044D01*
X298728D01*
Y134244D01*
X299128D01*
X163620Y115344D02*
X164020Y116144D01*
X163620Y116944D01*
X164420Y116544D01*
X165220Y116944D01*
X164820Y116144D01*
X165220Y115344D01*
X164420Y115744D01*
X163620Y115344D01*
X137420Y111536D02*
X137820Y112336D01*
X137420Y113136D01*
X138220Y112736D01*
X139020Y113136D01*
X138620Y112336D01*
X139020Y111536D01*
X138220Y111936D01*
X137420Y111536D01*
X283228Y7844D02*
X283628Y8644D01*
X283228Y9444D01*
X284028Y9044D01*
X284828Y9444D01*
X284428Y8644D01*
X284828Y7844D01*
X284028Y8244D01*
X283228Y7844D01*
X277924Y20479D02*
X278324Y21279D01*
X277924Y22079D01*
X278724Y21679D01*
X279524Y22079D01*
X279124Y21279D01*
X279524Y20479D01*
X278724Y20879D01*
X277924Y20479D01*
X273102Y21262D02*
X273502Y22062D01*
X273102Y22862D01*
X273902Y22462D01*
X274702Y22862D01*
X274302Y22062D01*
X274702Y21262D01*
X273902Y21662D01*
X273102Y21262D01*
X267556Y21082D02*
X267956Y21882D01*
X267556Y22682D01*
X268356Y22282D01*
X269156Y22682D01*
X268756Y21882D01*
X269156Y21082D01*
X268356Y21482D01*
X267556Y21082D01*
X268728Y16344D02*
X269128Y17144D01*
X268728Y17944D01*
X269528Y17544D01*
X270328Y17944D01*
X269928Y17144D01*
X270328Y16344D01*
X269528Y16744D01*
X268728Y16344D01*
X320422Y-6587D02*
X320822Y-5787D01*
X320422Y-4987D01*
X321222Y-5387D01*
X322022Y-4987D01*
X321622Y-5787D01*
X322022Y-6587D01*
X321222Y-6187D01*
X320422Y-6587D01*
X294562Y20419D02*
X294962Y21219D01*
X294562Y22019D01*
X295362Y21619D01*
X296162Y22019D01*
X295762Y21219D01*
X296162Y20419D01*
X295362Y20819D01*
X294562Y20419D01*
X288228Y22344D02*
X288628Y23144D01*
X288228Y23944D01*
X289028Y23544D01*
X289828Y23944D01*
X289428Y23144D01*
X289828Y22344D01*
X289028Y22744D01*
X288228Y22344D01*
X284228Y19344D02*
X284628Y20144D01*
X284228Y20944D01*
X285028Y20544D01*
X285828Y20944D01*
X285428Y20144D01*
X285828Y19344D01*
X285028Y19744D01*
X284228Y19344D01*
X280228Y21844D02*
X280628Y22644D01*
X280228Y23444D01*
X281028Y23044D01*
X281828Y23444D01*
X281428Y22644D01*
X281828Y21844D01*
X281028Y22244D01*
X280228Y21844D01*
X182228Y89844D02*
X182628Y90644D01*
X182228Y91444D01*
X183028Y91044D01*
X183828Y91444D01*
X183428Y90644D01*
X183828Y89844D01*
X183028Y90244D01*
X182228Y89844D01*
X240728Y75844D02*
X241128Y76644D01*
X240728Y77444D01*
X241528Y77044D01*
X242328Y77444D01*
X241928Y76644D01*
X242328Y75844D01*
X241528Y76244D01*
X240728Y75844D01*
X267228Y106844D02*
X267628Y107644D01*
X267228Y108444D01*
X268028Y108044D01*
X268828Y108444D01*
X268428Y107644D01*
X268828Y106844D01*
X268028Y107244D01*
X267228Y106844D01*
X324728Y130844D02*
X325128Y131644D01*
X324728Y132444D01*
X325528Y132044D01*
X326328Y132444D01*
X325928Y131644D01*
X326328Y130844D01*
X325528Y131244D01*
X324728Y130844D01*
X40146Y-4655D02*
X40546Y-3855D01*
X40146Y-3055D01*
X40946Y-3455D01*
X41746Y-3055D01*
X41346Y-3855D01*
X41746Y-4655D01*
X40946Y-4255D01*
X40146Y-4655D01*
X163728Y18344D02*
X164128Y19144D01*
X163728Y19944D01*
X164528Y19544D01*
X165328Y19944D01*
X164928Y19144D01*
X165328Y18344D01*
X164528Y18744D01*
X163728Y18344D01*
X281228Y98344D02*
X281628Y99144D01*
X281228Y99944D01*
X282028Y99544D01*
X282828Y99944D01*
X282428Y99144D01*
X282828Y98344D01*
X282028Y98744D01*
X281228Y98344D01*
X267749Y103141D02*
X268149Y103941D01*
X267749Y104741D01*
X268549Y104341D01*
X269349Y104741D01*
X268949Y103941D01*
X269349Y103141D01*
X268549Y103541D01*
X267749Y103141D01*
X348664Y129606D02*
X349064Y130406D01*
X348664Y131206D01*
X349464Y130806D01*
X350264Y131206D01*
X349864Y130406D01*
X350264Y129606D01*
X349464Y130006D01*
X348664Y129606D01*
X346728Y132344D02*
X347128Y133144D01*
X346728Y133944D01*
X347528Y133544D01*
X348328Y133944D01*
X347928Y133144D01*
X348328Y132344D01*
X347528Y132744D01*
X346728Y132344D01*
X341728Y-6656D02*
X342128Y-5856D01*
X341728Y-5056D01*
X342528Y-5456D01*
X343328Y-5056D01*
X342928Y-5856D01*
X343328Y-6656D01*
X342528Y-6256D01*
X341728Y-6656D01*
D11*
X358726Y-4306D02*
G03*
X358726Y-4306I-800J0D01*
G01*
Y29749D02*
G03*
X358726Y29749I-800J0D01*
G01*
X359226Y115694D02*
G03*
X359226Y115694I-800J0D01*
G01*
Y149749D02*
G03*
X359226Y149749I-800J0D01*
G01*
M02*
