G04*
G04 #@! TF.GenerationSoftware,Altium Limited,Altium Designer,20.0.13 (296)*
G04*
G04 Layer_Color=8388736*
%FSLAX25Y25*%
%MOIN*%
G70*
G01*
G75*
%ADD60C,0.04737*%
G04:AMPARAMS|DCode=61|XSize=48mil|YSize=48mil|CornerRadius=6mil|HoleSize=0mil|Usage=FLASHONLY|Rotation=270.000|XOffset=0mil|YOffset=0mil|HoleType=Round|Shape=RoundedRectangle|*
%AMROUNDEDRECTD61*
21,1,0.04800,0.03600,0,0,270.0*
21,1,0.03600,0.04800,0,0,270.0*
1,1,0.01200,-0.01800,-0.01800*
1,1,0.01200,-0.01800,0.01800*
1,1,0.01200,0.01800,0.01800*
1,1,0.01200,0.01800,-0.01800*
%
%ADD61ROUNDEDRECTD61*%
G04:AMPARAMS|DCode=62|XSize=48.5mil|YSize=48mil|CornerRadius=6mil|HoleSize=0mil|Usage=FLASHONLY|Rotation=270.000|XOffset=0mil|YOffset=0mil|HoleType=Round|Shape=RoundedRectangle|*
%AMROUNDEDRECTD62*
21,1,0.04850,0.03600,0,0,270.0*
21,1,0.03650,0.04800,0,0,270.0*
1,1,0.01200,-0.01800,-0.01825*
1,1,0.01200,-0.01800,0.01825*
1,1,0.01200,0.01800,0.01825*
1,1,0.01200,0.01800,-0.01825*
%
%ADD62ROUNDEDRECTD62*%
%ADD63R,0.04337X0.20085*%
%ADD64R,0.05800X0.07300*%
%ADD65R,0.10642X0.06312*%
%ADD66R,0.06312X0.07493*%
%ADD67R,0.04800X0.05800*%
%ADD68R,0.04658X0.04461*%
G04:AMPARAMS|DCode=69|XSize=48mil|YSize=48mil|CornerRadius=6mil|HoleSize=0mil|Usage=FLASHONLY|Rotation=0.000|XOffset=0mil|YOffset=0mil|HoleType=Round|Shape=RoundedRectangle|*
%AMROUNDEDRECTD69*
21,1,0.04800,0.03600,0,0,0.0*
21,1,0.03600,0.04800,0,0,0.0*
1,1,0.01200,0.01800,-0.01800*
1,1,0.01200,-0.01800,-0.01800*
1,1,0.01200,-0.01800,0.01800*
1,1,0.01200,0.01800,0.01800*
%
%ADD69ROUNDEDRECTD69*%
G04:AMPARAMS|DCode=70|XSize=48.5mil|YSize=48mil|CornerRadius=6mil|HoleSize=0mil|Usage=FLASHONLY|Rotation=0.000|XOffset=0mil|YOffset=0mil|HoleType=Round|Shape=RoundedRectangle|*
%AMROUNDEDRECTD70*
21,1,0.04850,0.03600,0,0,0.0*
21,1,0.03650,0.04800,0,0,0.0*
1,1,0.01200,0.01825,-0.01800*
1,1,0.01200,-0.01825,-0.01800*
1,1,0.01200,-0.01825,0.01800*
1,1,0.01200,0.01825,0.01800*
%
%ADD70ROUNDEDRECTD70*%
%ADD71R,0.04343X0.04737*%
%ADD72R,0.05800X0.05800*%
%ADD73R,0.09147X0.06312*%
%ADD74R,0.06800X0.03800*%
%ADD75R,0.04934X0.07493*%
%ADD76R,0.06312X0.05524*%
%ADD77R,0.04461X0.04658*%
%ADD78O,0.03950X0.01902*%
%ADD79O,0.01902X0.03950*%
%ADD80R,0.03950X0.01784*%
%ADD81R,0.01784X0.03950*%
%ADD82R,0.07093X0.01739*%
%ADD83R,0.03162X0.05131*%
%ADD84R,0.04737X0.04343*%
G04:AMPARAMS|DCode=85|XSize=39.5mil|YSize=47.37mil|CornerRadius=7.94mil|HoleSize=0mil|Usage=FLASHONLY|Rotation=0.000|XOffset=0mil|YOffset=0mil|HoleType=Round|Shape=RoundedRectangle|*
%AMROUNDEDRECTD85*
21,1,0.03950,0.03150,0,0,0.0*
21,1,0.02362,0.04737,0,0,0.0*
1,1,0.01587,0.01181,-0.01575*
1,1,0.01587,-0.01181,-0.01575*
1,1,0.01587,-0.01181,0.01575*
1,1,0.01587,0.01181,0.01575*
%
%ADD85ROUNDEDRECTD85*%
G04:AMPARAMS|DCode=86|XSize=67.06mil|YSize=19.81mil|CornerRadius=6.95mil|HoleSize=0mil|Usage=FLASHONLY|Rotation=180.000|XOffset=0mil|YOffset=0mil|HoleType=Round|Shape=RoundedRectangle|*
%AMROUNDEDRECTD86*
21,1,0.06706,0.00591,0,0,180.0*
21,1,0.05315,0.01981,0,0,180.0*
1,1,0.01391,-0.02657,0.00295*
1,1,0.01391,0.02657,0.00295*
1,1,0.01391,0.02657,-0.00295*
1,1,0.01391,-0.02657,-0.00295*
%
%ADD86ROUNDEDRECTD86*%
%ADD87R,0.05524X0.14580*%
%ADD88R,0.06706X0.14186*%
%ADD89R,0.07887X0.05249*%
%ADD90R,0.03162X0.02375*%
%ADD91O,0.06699X0.01581*%
%ADD92O,0.01581X0.06699*%
%ADD93O,0.09658X0.03280*%
%ADD94R,0.07493X0.03556*%
%ADD95R,0.05800X0.04800*%
%ADD96R,0.01581X0.02959*%
%ADD97R,0.02959X0.01581*%
%ADD98O,0.08414X0.02660*%
%ADD99C,0.18800*%
%ADD100O,0.09068X0.04737*%
%ADD101O,0.07099X0.04737*%
%ADD102C,0.03359*%
%ADD103C,0.03000*%
D60*
X62000Y17000D02*
D03*
Y7000D02*
D03*
X181028Y108644D02*
D03*
Y84144D02*
D03*
X199527Y84144D02*
D03*
X199527Y108644D02*
D03*
D61*
X122570Y3298D02*
D03*
X136767D02*
D03*
X129667D02*
D03*
D62*
X122570Y9991D02*
D03*
X136767Y9991D02*
D03*
X129667Y9991D02*
D03*
D63*
X313528Y6144D02*
D03*
X293528D02*
D03*
D64*
X334028Y145144D02*
D03*
X320528D02*
D03*
D65*
X226574Y147766D02*
D03*
Y139892D02*
D03*
Y132018D02*
D03*
Y124144D02*
D03*
Y116270D02*
D03*
Y108396D02*
D03*
Y100522D02*
D03*
X226577Y92648D02*
D03*
X286023D02*
D03*
X286029Y100522D02*
D03*
X286034Y108396D02*
D03*
X286031Y116270D02*
D03*
X286028Y124144D02*
D03*
X286031Y132018D02*
D03*
X286030Y139892D02*
D03*
X286031Y147766D02*
D03*
D66*
X236619Y87525D02*
D03*
X244485Y87531D02*
D03*
X252354Y87529D02*
D03*
X260231D02*
D03*
X268102D02*
D03*
X275976Y87526D02*
D03*
D67*
X217028Y127144D02*
D03*
X208528D02*
D03*
X148948Y-4702D02*
D03*
Y26298D02*
D03*
X164178Y-4703D02*
D03*
Y26297D02*
D03*
D68*
X215528Y91644D02*
D03*
Y97707D02*
D03*
D69*
X215375Y119144D02*
D03*
D70*
X208682D02*
D03*
D71*
X188335Y119644D02*
D03*
X195028D02*
D03*
D72*
X200028Y127144D02*
D03*
X190028D02*
D03*
D73*
X178460Y133400D02*
D03*
Y149368D02*
D03*
D74*
X140528Y116644D02*
D03*
X170528D02*
D03*
Y121644D02*
D03*
X140528D02*
D03*
D75*
X126048Y146144D02*
D03*
X116008D02*
D03*
D76*
X98197Y141699D02*
D03*
X106859D02*
D03*
Y148589D02*
D03*
X98197D02*
D03*
D77*
X28059Y121144D02*
D03*
X21996D02*
D03*
D78*
X33599Y105105D02*
D03*
Y107074D02*
D03*
Y109042D02*
D03*
Y111011D02*
D03*
Y112979D02*
D03*
X21395D02*
D03*
Y111011D02*
D03*
Y109042D02*
D03*
Y107074D02*
D03*
Y105105D02*
D03*
D79*
X29465Y115144D02*
D03*
X27497D02*
D03*
X25528D02*
D03*
Y102940D02*
D03*
X27497D02*
D03*
X29465D02*
D03*
D80*
X39489Y109144D02*
D03*
X54567D02*
D03*
D81*
X41131Y104420D02*
D03*
X43099D02*
D03*
X45068D02*
D03*
X47036D02*
D03*
X49005D02*
D03*
X50973D02*
D03*
X52942D02*
D03*
Y113868D02*
D03*
X50973D02*
D03*
X49005D02*
D03*
X47036D02*
D03*
X45068D02*
D03*
X43099D02*
D03*
X41131D02*
D03*
D82*
X4527Y2677D02*
D03*
X4528Y4647D02*
D03*
Y6617D02*
D03*
Y8585D02*
D03*
Y10554D02*
D03*
Y12522D02*
D03*
Y14491D02*
D03*
Y16459D02*
D03*
Y18428D02*
D03*
Y20396D02*
D03*
Y22365D02*
D03*
Y24333D02*
D03*
Y26302D02*
D03*
Y28270D02*
D03*
Y30239D02*
D03*
Y32207D02*
D03*
Y34176D02*
D03*
Y36144D02*
D03*
Y38113D02*
D03*
Y40081D02*
D03*
Y42050D02*
D03*
Y44018D02*
D03*
Y45987D02*
D03*
Y47955D02*
D03*
Y49924D02*
D03*
Y51892D02*
D03*
Y53861D02*
D03*
Y55829D02*
D03*
Y57798D02*
D03*
Y67640D02*
D03*
Y69609D02*
D03*
Y71577D02*
D03*
Y73546D02*
D03*
Y75514D02*
D03*
D83*
X192264Y145858D02*
D03*
X196004D02*
D03*
X199744D02*
D03*
Y135622D02*
D03*
X192264D02*
D03*
X208264D02*
D03*
X215744D02*
D03*
Y145858D02*
D03*
X212004D02*
D03*
X208264D02*
D03*
D84*
X342527Y141798D02*
D03*
Y148491D02*
D03*
X321116Y130990D02*
D03*
Y124297D02*
D03*
X330029Y130990D02*
D03*
Y124297D02*
D03*
X342885D02*
D03*
Y130990D02*
D03*
X343029Y18490D02*
D03*
Y11797D02*
D03*
X343029Y5490D02*
D03*
Y-1203D02*
D03*
D85*
X310237Y146943D02*
D03*
Y132376D02*
D03*
D86*
X353831Y-467D02*
D03*
Y714D02*
D03*
Y2682D02*
D03*
Y3863D02*
D03*
Y5832D02*
D03*
Y7800D02*
D03*
Y9769D02*
D03*
Y11737D02*
D03*
Y13706D02*
D03*
Y15674D02*
D03*
Y17643D02*
D03*
Y19611D02*
D03*
Y21580D02*
D03*
Y22761D02*
D03*
Y24730D02*
D03*
Y25911D02*
D03*
X354331Y119533D02*
D03*
Y120714D02*
D03*
Y122682D02*
D03*
Y123863D02*
D03*
Y125832D02*
D03*
Y127800D02*
D03*
Y129769D02*
D03*
Y131737D02*
D03*
Y133706D02*
D03*
Y135674D02*
D03*
Y137643D02*
D03*
Y139611D02*
D03*
Y141580D02*
D03*
Y142761D02*
D03*
Y144730D02*
D03*
Y145911D02*
D03*
D87*
X202528Y26644D02*
D03*
X212528D02*
D03*
X222449D02*
D03*
X232528D02*
D03*
D88*
X190914Y-128D02*
D03*
X244142D02*
D03*
D89*
X163867Y147282D02*
D03*
Y135549D02*
D03*
D90*
X76134Y4988D02*
D03*
Y7548D02*
D03*
Y10106D02*
D03*
Y12666D02*
D03*
X81842Y4988D02*
D03*
Y7548D02*
D03*
Y10106D02*
D03*
Y12666D02*
D03*
D91*
X123878Y61835D02*
D03*
X64430Y109079D02*
D03*
Y107111D02*
D03*
Y105142D02*
D03*
Y103174D02*
D03*
Y101205D02*
D03*
Y99237D02*
D03*
Y97268D02*
D03*
Y95300D02*
D03*
Y93331D02*
D03*
Y91363D02*
D03*
Y89394D02*
D03*
Y87425D02*
D03*
Y85457D02*
D03*
Y83488D02*
D03*
Y81520D02*
D03*
Y79551D02*
D03*
Y77583D02*
D03*
Y75614D02*
D03*
Y73646D02*
D03*
Y71677D02*
D03*
Y69709D02*
D03*
Y67740D02*
D03*
Y65772D02*
D03*
Y63803D02*
D03*
Y61835D02*
D03*
X123878Y63803D02*
D03*
Y65772D02*
D03*
Y67740D02*
D03*
Y69709D02*
D03*
Y71677D02*
D03*
Y73646D02*
D03*
Y75614D02*
D03*
Y77583D02*
D03*
Y79551D02*
D03*
Y81520D02*
D03*
Y83488D02*
D03*
Y85457D02*
D03*
Y87425D02*
D03*
Y89394D02*
D03*
Y91363D02*
D03*
Y93331D02*
D03*
Y95300D02*
D03*
Y97268D02*
D03*
Y99237D02*
D03*
Y101205D02*
D03*
Y103174D02*
D03*
Y105142D02*
D03*
Y107111D02*
D03*
Y109079D02*
D03*
D92*
X117776Y115181D02*
D03*
X115808D02*
D03*
X113839D02*
D03*
X111871D02*
D03*
X109902D02*
D03*
X107934D02*
D03*
X105965D02*
D03*
X103997D02*
D03*
X102028D02*
D03*
X100060D02*
D03*
X98091D02*
D03*
X96122D02*
D03*
X94154D02*
D03*
X92185D02*
D03*
X90217D02*
D03*
X88248D02*
D03*
X86280D02*
D03*
X84311D02*
D03*
X82343D02*
D03*
X80374D02*
D03*
X78406D02*
D03*
X76437D02*
D03*
X74469D02*
D03*
X72500D02*
D03*
X70532D02*
D03*
Y55733D02*
D03*
X72500D02*
D03*
X74469D02*
D03*
X76437D02*
D03*
X78406D02*
D03*
X80374D02*
D03*
X82343D02*
D03*
X84311D02*
D03*
X86280D02*
D03*
X88248D02*
D03*
X90217D02*
D03*
X92185D02*
D03*
X94154D02*
D03*
X96122D02*
D03*
X98091D02*
D03*
X100060D02*
D03*
X102028D02*
D03*
X103997D02*
D03*
X105965D02*
D03*
X107934D02*
D03*
X109902D02*
D03*
X111871D02*
D03*
X113839D02*
D03*
X115808D02*
D03*
X117776D02*
D03*
D93*
X50028Y134644D02*
D03*
Y139644D02*
D03*
Y144644D02*
D03*
Y149644D02*
D03*
X22232Y134644D02*
D03*
Y139644D02*
D03*
Y144644D02*
D03*
Y149644D02*
D03*
D94*
X94068Y18644D02*
D03*
X112178D02*
D03*
Y4865D02*
D03*
D95*
X90528Y148644D02*
D03*
X59528D02*
D03*
D96*
X50020Y12668D02*
D03*
X48052D02*
D03*
X46083D02*
D03*
X44115D02*
D03*
X44121Y1644D02*
D03*
X46089D02*
D03*
X48058D02*
D03*
X50028D02*
D03*
D97*
X41561Y10101D02*
D03*
Y8133D02*
D03*
Y6164D02*
D03*
Y4196D02*
D03*
X52585D02*
D03*
Y6164D02*
D03*
Y8133D02*
D03*
Y10101D02*
D03*
D98*
X162329Y84142D02*
D03*
Y89142D02*
D03*
Y94142D02*
D03*
Y99142D02*
D03*
X140535Y84142D02*
D03*
Y89142D02*
D03*
Y94142D02*
D03*
Y99142D02*
D03*
D99*
X128028Y29644D02*
D03*
D100*
X357926Y-4306D02*
D03*
Y29749D02*
D03*
X358426Y115694D02*
D03*
Y149749D02*
D03*
D101*
X373674Y-4306D02*
D03*
Y29749D02*
D03*
X374174Y115694D02*
D03*
Y149749D02*
D03*
D102*
X359894Y24100D02*
D03*
Y1344D02*
D03*
X360394Y144100D02*
D03*
Y121344D02*
D03*
D103*
X96000Y109500D02*
D03*
X118528Y94144D02*
D03*
X118028Y85644D02*
D03*
M02*
